<?xml version="1.0" standalone="no"?>
<!DOCTYPE svg PUBLIC "-//W3C//DTD SVG 1.1//EN" "http://www.w3.org/Graphics/SVG/1.1/DTD/svg11.dtd" >
<svg xmlns="http://www.w3.org/2000/svg" xmlns:xlink="http://www.w3.org/1999/xlink" version="1.1">
<metadata>
Created by FontForge 20170731 at Wed Dec  9 02:55:10 2020
 By Aleksey,,,
Copyright (c) 2012 by Dieter Hofrichter. All rights reserved.
</metadata>
<defs>
<font id="Foro-Regular" horiz-adv-x="759" >
  <font-face 
    font-family="Foro-Regular"
    font-weight="400"
    font-stretch="normal"
    units-per-em="2048"
    panose-1="2 0 5 3 0 0 0 2 0 4"
    ascent="1516"
    descent="-532"
    x-height="1014"
    cap-height="1384"
    bbox="-276 -532 2687 2017"
    underline-thickness="102"
    underline-position="-307"
    unicode-range="U+0020-FB04"
  />
<missing-glyph horiz-adv-x="1026" 
d="M0 0v1438h1026v-1438h-1026zM514 811l348 524h-698zM573 719l353 -522v1046zM164 102h698l-348 525zM102 1243v-1046l351 522z" />
    <glyph glyph-name="f_f" unicode="ff" horiz-adv-x="1425" 
d="M659 0h-581v121l186 16v729h-192v131q89 17 192 17v65q0 201 82 289q85 98 279 98q106 0 204 -24l-16 -137q-102 16 -162 16q-126 0 -174 -61q-45 -55 -45 -179v-67h551v98q0 213 78 297q85 98 260 98q99 0 211 -22l-16 -137q-103 14 -160 14q-117 0 -162 -62
q-41 -53 -41 -192v-94h244v-148h-244v-729l225 -16v-121h-579v121l184 16v729h-551v-729l227 -16v-121z" />
    <glyph glyph-name="fi" unicode="fi" horiz-adv-x="1370" 
d="M659 0h-581v121l186 16v729h-192v131q89 17 192 17v98q0 114 18 184t58 113q88 98 262 98q96 0 211 -22l-18 -137q-103 14 -160 14q-114 0 -162 -62q-41 -57 -41 -192v-94h707v-877l188 -16v-121h-543v121l187 16v729h-539v-729l227 -16v-121zM1139 1317q0 -59 -31.5 -89
t-83.5 -30q-47 0 -79 29t-32 90q0 60 33 90.5t82 30.5q50 0 80.5 -29t30.5 -92z" />
    <glyph glyph-name="fl" unicode="fl" horiz-adv-x="1357" 
d="M659 0h-581v121l186 16v729h-192v131q89 17 192 17v90q0 117 22.5 188t65.5 117q43 48 132.5 73t187.5 25q226 0 454 -43v-1327l187 -16v-121h-539v121l182 16v1206q-176 19 -254 19q-163 0 -217 -62q-26 -31 -39.5 -76.5t-13.5 -129.5v-80h244v-148h-244v-729l227 -16
v-121z" />
    <glyph glyph-name="f_f_i" unicode="ffi" horiz-adv-x="2091" 
d="M659 0h-581v121l186 16v729h-192v131q89 17 192 17v67q0 109 20 175.5t62 111.5q85 98 279 98q102 0 204 -24l-16 -137q-102 16 -162 16q-126 0 -174 -61q-45 -55 -45 -181v-65h551v98q0 213 78 297q85 98 260 98q99 0 211 -22l-16 -137q-103 14 -160 14q-117 0 -162 -62
q-41 -53 -41 -182v-104h707v-877l188 -16v-121h-543v121l185 16v729h-537v-729l225 -16v-121h-579v121l184 16v729h-551v-729l227 -16v-121zM1860 1317q0 -59 -31 -89t-84 -30q-46 0 -78.5 29t-32.5 90q0 59 33.5 90t81.5 31q111 0 111 -121z" />
    <glyph glyph-name="f_f_l" unicode="ffl" horiz-adv-x="2078" 
d="M659 0h-581v121l186 16v729h-192v131q89 17 192 17v67q0 109 20 175.5t62 111.5q85 98 279 98q98 0 204 -24l-16 -137q-102 16 -162 16q-126 0 -174 -61q-45 -55 -45 -181v-65h551v90q0 118 23 188.5t67 116.5q43 48 131.5 73t188.5 25q228 0 452 -43v-1327l189 -16v-121
h-539v121l182 16v1206q-179 19 -254 19q-163 0 -217 -62q-26 -31 -39.5 -76.5t-13.5 -129.5v-80h244v-148h-244v-729l225 -16v-121h-579v121l184 16v729h-551v-729l227 -16v-121z" />
    <glyph glyph-name="Tcaron_h" unicode="&#x164;h" horiz-adv-x="2508" 
d="M1001 0h-606v123l213 16v1084h-356l-37 -265h-121q0 309 15 426h1337l27 132h157v-648q88 74 205.5 123t204.5 49q109 0 161 -44.5t64 -137.5q10 -71 10 -248v-473l197 -16v-121h-369v565q0 167 -12 232q-18 84 -135 84q-159 0 -326 -125v-619l187 -16v-121h-539v121
l182 16v1086h-672v-1084l213 -16v-123zM893 1747h135l-256 -258h-147l-254 258h137l192 -150z" />
    <glyph glyph-name="f_f_b" unicode="ffb" horiz-adv-x="2686" 
d="M659 0h-581v121l186 16v729h-192v131q89 17 192 17v61q0 205 82 293q85 98 279 98q102 0 204 -24l-16 -137q-102 16 -162 16q-126 0 -174 -61q-45 -55 -45 -185v-61h551v90q0 118 23 188.5t67 116.5q43 48 131.5 73t188.5 25q228 0 452 -43v-579q78 65 181 111t204 46
q164 0 250 -125.5t86 -371.5q0 -288 -126 -431t-359 -143q-194 0 -404 70v1302q-179 19 -254 19q-163 0 -217 -62q-27 -32 -40 -74.5t-13 -127.5v-84h244v-148h-244v-729l225 -16v-121h-579v121l184 16v729h-551v-729l227 -16v-121zM1845 156q107 -35 230 -35
q162 0 235.5 100t73.5 297q0 367 -217 367q-81 0 -157 -30t-165 -83v-616z" />
    <glyph glyph-name="f_f_h" unicode="ffh" horiz-adv-x="2725" 
d="M659 0h-581v121l186 16v729h-192v131q89 17 192 17v63q0 203 82 291q85 98 279 98q102 0 204 -24l-16 -137q-102 16 -162 16q-126 0 -174 -61q-45 -55 -45 -185v-61h551v90q0 118 23 188.5t67 116.5q43 48 131.5 73t188.5 25q228 0 452 -43v-596q91 75 207 123.5
t205 48.5q109 0 160 -44.5t63 -137.5q10 -71 10 -248v-473l197 -16v-121h-367v565q0 180 -12 232q-18 84 -135 84q-158 0 -328 -125v-619l191 -16v-121h-541v121l182 16v1206q-179 19 -254 19q-163 0 -217 -62q-26 -31 -39.5 -76.5t-13.5 -129.5v-80h244v-148h-244v-729
l225 -16v-121h-579v121l184 16v729h-551v-729l227 -16v-121z" />
    <glyph glyph-name="f_f_j" unicode="ffj" horiz-adv-x="2076" 
d="M659 0h-581v121l186 16v729h-192v131q89 17 192 17v61q0 205 82 293q85 98 279 98q117 0 204 -24l-16 -137q-102 16 -162 16q-123 0 -174 -61q-45 -51 -45 -181v-65h551v98q0 213 78 297q85 98 260 98q93 0 209 -22l-17 -137q-100 14 -157 14q-117 0 -162 -62
q-41 -53 -41 -192v-94h692v-989q0 -208 -47 -297q-41 -81 -136.5 -152t-221.5 -108l-45 135q202 72 252 198q30 72 30 234v831h-524v-729l225 -16v-121h-579v121l184 16v729h-551v-729l227 -16v-121zM1843 1317q0 -59 -31 -89t-83 -30q-47 0 -79 29t-32 90q0 60 33 90.5
t82 30.5q110 0 110 -121z" />
    <glyph glyph-name="f_j" unicode="fj" horiz-adv-x="1355" 
d="M659 0h-581v121l186 16v729h-192v131q89 17 192 17v98q0 114 18 184t58 113q88 98 262 98q96 0 211 -22l-18 -137q-103 14 -160 14q-114 0 -162 -62q-41 -57 -41 -192v-94h692v-989q0 -208 -47 -297q-39 -81 -135 -151.5t-223 -108.5l-45 135q202 72 252 198
q30 81 30 234v831h-524v-729l227 -16v-121zM1124 1317q0 -59 -31 -89t-83 -30q-46 0 -78.5 29t-32.5 90q0 60 33 90.5t82 30.5q110 0 110 -121z" />
    <glyph glyph-name="f_t" unicode="ft" horiz-adv-x="1427" 
d="M659 0h-581v121l186 16v729h-192v131q89 17 192 17v98q0 114 18 184t58 113q88 98 262 98q96 0 211 -22l-18 -137q-103 14 -160 14q-114 0 -162 -62q-41 -57 -41 -188v-98h483q0 50 7 258l161 10v-268h271v-148h-271v-485q0 -137 31 -188q32 -52 117 -52q69 0 153 19
l25 -135q-112 -41 -248 -41q-66 0 -120.5 25t-82.5 69q-45 70 -45 270v518h-481v-729l227 -16v-121z" />
    <glyph glyph-name="uni0162_h" unicode="&#x162;h" horiz-adv-x="2508" 
d="M485 -473l33 106q55 -18 119 -18q53 0 80.5 21t27.5 59q0 39 -30.5 60.5t-85.5 21.5q-6 0 -76 -4l88 227h-246v123l213 16v1084h-356l-37 -265h-121q0 309 15 426h1337l27 132h157v-648q88 74 205.5 123t204.5 49q109 0 161 -44.5t64 -137.5q10 -71 10 -248v-473l197 -16
v-121h-369v565q0 167 -12 232q-18 84 -135 84q-159 0 -326 -125v-619l187 -16v-121h-539v121l182 16v1086h-672v-1084l213 -16v-123h-253l-52 -121q99 -8 142 -58.5t43 -117.5q0 -87 -67 -143t-189 -56q-68 0 -140 23z" />
    <glyph glyph-name="uni021A_h" unicode="&#x21a;h" horiz-adv-x="2508" 
d="M1001 0h-606v123l213 16v1084h-356l-37 -265h-121q0 309 15 426h1337l27 132h157v-648q88 74 205.5 123t204.5 49q109 0 161 -44.5t64 -137.5q10 -71 10 -248v-473l197 -16v-121h-369v565q0 167 -12 232q-18 84 -135 84q-159 0 -326 -125v-619l187 -16v-121h-539v121
l182 16v1086h-672v-1084l213 -16v-123zM778 -111q-24 -198 -123 -401h-116q65 159 88 401h151z" />
    <glyph glyph-name="f_b" unicode="fb" horiz-adv-x="1966" 
d="M659 0h-581v121l186 16v729h-192v131q89 17 192 17v90q0 117 22.5 188t65.5 117q43 48 132.5 73t187.5 25q226 0 454 -43v-579q77 65 178.5 111t204.5 46q164 0 250 -125.5t86 -371.5q0 -288 -126 -431t-359 -143q-194 0 -404 70v1302q-176 19 -254 19q-163 0 -217 -62
q-53 -63 -53 -208v-78h244v-148h-244v-729l227 -16v-121zM1126 156q107 -35 228 -35q161 0 235 101.5t74 295.5q0 367 -217 367q-136 0 -320 -113v-616z" />
    <glyph glyph-name="f_h" unicode="fh" horiz-adv-x="2004" 
d="M659 0h-581v121l186 16v729h-192v131q89 17 192 17v90q0 117 22.5 188t65.5 117q43 48 132.5 73t187.5 25q226 0 454 -43v-596q88 74 205.5 123t204.5 49q109 0 161 -44.5t64 -137.5q8 -57 8 -248v-473l199 -16v-121h-369v565q0 172 -14 232q-18 84 -135 84
q-67 0 -152.5 -30.5t-171.5 -94.5v-619l187 -16v-121h-539v121l182 16v1206q-176 19 -254 19q-163 0 -217 -62q-26 -31 -39.5 -76.5t-13.5 -129.5v-80h244v-148h-244v-729l227 -16v-121z" />
    <glyph glyph-name="T_h" unicode="Th" horiz-adv-x="2508" 
d="M1001 0h-606v123l213 16v1084h-356l-37 -265h-121q0 309 15 426h1337l27 132h157v-648q88 74 205.5 123t204.5 49q109 0 161 -44.5t64 -137.5q10 -71 10 -248v-473l197 -16v-121h-369v565q0 167 -12 232q-18 84 -135 84q-159 0 -326 -125v-619l187 -16v-121h-539v121
l182 16v1086h-672v-1084l213 -16v-123z" />
    <glyph glyph-name="f_f_t" unicode="fft" horiz-adv-x="2146" 
d="M659 0h-581v121l186 16v729h-192v131q89 17 192 17v61q0 205 82 293q85 98 279 98q102 0 204 -24l-16 -137q-102 16 -162 16q-126 0 -174 -61q-45 -55 -45 -185v-61h551v98q0 213 78 297q85 98 260 98q99 0 211 -22l-16 -137q-103 14 -160 14q-117 0 -162 -62
q-41 -53 -41 -192v-94h481q1 9 1.5 29.5t2.5 84.5t4 138l162 14v-266h271v-148h-271v-485q0 -137 31 -188q32 -52 117 -52q70 0 151 19l27 -135q-112 -41 -250 -41q-65 0 -119 25t-82 69q-47 73 -47 270v518h-479v-729l225 -16v-121h-579v121l184 16v729h-551v-729l227 -16
v-121z" />
    <glyph glyph-name="f_f_k" unicode="ffk" horiz-adv-x="2635" 
d="M659 0h-581v121l186 16v729h-192v131q89 17 192 17v63q0 203 82 291q85 98 279 98q102 0 204 -24l-16 -137q-102 16 -162 16q-126 0 -174 -61q-45 -55 -45 -185v-61h551v90q0 118 23 188.5t67 116.5q43 48 131.5 73t188.5 25q228 0 452 -43v-934q162 141 375 351l-145 14
v119h491v-117l-164 -14q-152 -146 -282 -262l180 -283q66 -108 121 -143q33 -27 64.5 -37.5t82.5 -10.5q31 0 51 5l7 -146q-63 -14 -115 -14q-134 0 -213 67q-53 43 -121 150l-182 291l-150 -127v-236l183 -16v-121h-533v121l182 16v1206q-179 19 -254 19q-163 0 -217 -62
q-26 -31 -39.5 -76.5t-13.5 -129.5v-80h244v-148h-244v-729l225 -16v-121h-579v121l184 16v729h-551v-729l227 -16v-121z" />
    <glyph glyph-name="f_k" unicode="fk" horiz-adv-x="1914" 
d="M659 0h-581v121l186 16v729h-192v131q89 17 192 17v90q0 117 22.5 188t65.5 117q43 48 132.5 73t187.5 25q226 0 454 -43v-934q165 146 373 351l-143 14v119h489v-117l-164 -14q-137 -131 -280 -262l178 -283q67 -104 121 -143q36 -27 66.5 -37.5t80.5 -10.5q31 0 51 5
l9 -146q-63 -14 -117 -14q-131 0 -211 67q-65 58 -123 150l-180 291l-150 -127v-236l183 -16v-121h-535v121l182 16v1206q-176 19 -254 19q-163 0 -217 -62q-26 -31 -39.5 -76.5t-13.5 -129.5v-80h244v-148h-244v-729l227 -16v-121z" />
    <glyph glyph-name=".notdef" horiz-adv-x="1026" 
d="M0 0v1438h1026v-1438h-1026zM514 811l348 524h-698zM573 719l353 -522v1046zM164 102h698l-348 525zM102 1243v-1046l351 522z" />
    <glyph glyph-name=".null" horiz-adv-x="0" 
 />
    <glyph glyph-name="nonmarkingreturn" horiz-adv-x="682" 
 />
    <glyph glyph-name="space" unicode=" " horiz-adv-x="468" 
 />
    <glyph glyph-name="exclam" unicode="!" horiz-adv-x="571" 
d="M391 438h-151q-27 879 -27 946h205q0 -8 -4 -131q-10 -353 -23 -815zM432 113q0 -63 -34 -96t-89 -33q-44 0 -80 32t-36 97t35.5 99t84.5 34q50 0 84.5 -31.5t34.5 -101.5z" />
    <glyph glyph-name="quotedbl" unicode="&#x22;" horiz-adv-x="745" 
d="M250 862h-100l-31 565h166zM592 862h-100l-31 565h166z" />
    <glyph glyph-name="numbersign" unicode="#" horiz-adv-x="1171" 
d="M352 0h-100l63 430h-235v139h254l33 226h-234v141h252l59 395h101l-58 -395h271l59 395h101l-60 -395h232v-141h-250l-35 -226h231v-139h-250l-61 -430h-100l61 430h-270zM469 795l-35 -226h273l32 226h-270z" />
    <glyph glyph-name="dollar" unicode="$" horiz-adv-x="1077" 
d="M616 -207h-96v203q-236 0 -393 65q-14 88 -14 357h118l31 -228q122 -43 258 -43v445l-94 35q-140 51 -206 130t-66 210q0 142 91.5 238t274.5 118v221h96v-215h5q172 0 337 -43q11 -59 11 -352h-119l-29 219q-92 23 -205 27v-432l66 -25q172 -68 237.5 -146t65.5 -210
q0 -147 -94.5 -245.5t-274.5 -119.5v-209zM805 346q0 74 -39 120.5t-150 88.5v-401q92 15 140.5 66t48.5 126zM328 987q0 -69 38 -114t146 -87l8 -4v392q-99 -17 -145.5 -70t-46.5 -117z" />
    <glyph glyph-name="percent" unicode="%" horiz-adv-x="1689" 
d="M700 936q0 -224 -85 -344.5t-240 -120.5q-157 0 -236.5 113t-79.5 315q0 208 85 325t247 117q157 0 233 -105t76 -300zM573 920q0 153 -42.5 230t-145.5 77q-90 0 -142.5 -76.5t-52.5 -237.5q0 -325 191 -325q91 0 141.5 82.5t50.5 249.5zM567 0h-104l651 1321h103z
M1628 446q0 -224 -85 -344t-240 -120q-156 0 -235 113t-79 315q0 208 84.5 325t247.5 117q156 0 231.5 -105.5t75.5 -300.5zM1501 430q0 154 -42 230.5t-146 76.5q-90 0 -141.5 -76t-51.5 -237q0 -326 189 -326q91 0 141.5 82.5t50.5 249.5z" />
    <glyph glyph-name="ampersand" unicode="&#x26;" horiz-adv-x="1548" 
d="M1432 -41q-204 46 -383 176q-179 -162 -428 -162q-217 0 -355.5 112t-138.5 304q0 151 81.5 247.5t252.5 168.5q-54 75 -78.5 138t-24.5 144q0 139 95 232.5t272 93.5q150 0 240 -74t90 -217q0 -67 -27 -124t-80 -103.5t-109.5 -81t-136.5 -72.5q65 -82 106 -132
t112 -124t133 -123q84 84 118 236l-143 8v125h449v-125l-131 -14q-25 -99 -76.5 -192t-102.5 -144q54 -38 144.5 -81.5t167.5 -68.5zM541 672q-122 -53 -179 -118t-57 -151q0 -36 10 -71t34 -70t60 -61.5t93 -43t127 -16.5q170 0 299 103q-191 164 -387 428zM618 858
q142 58 212.5 121t70.5 135q0 75 -44.5 117.5t-131.5 42.5q-103 0 -150 -54.5t-47 -132.5q0 -110 90 -229z" />
    <glyph glyph-name="quotesingle" unicode="'" horiz-adv-x="399" 
d="M250 862h-100l-31 565h166z" />
    <glyph glyph-name="parenleft" unicode="(" horiz-adv-x="647" 
d="M625 -352h-119q-55 48 -106.5 105.5t-108 144.5t-97 182.5t-67.5 222.5t-27 262q0 152 30 286t87.5 243t126.5 196t160 170h121q-83 -94 -145 -184t-113.5 -199t-78 -236t-26.5 -268q0 -130 24 -251.5t56 -209t87.5 -183t94.5 -149.5t101 -132z" />
    <glyph glyph-name="parenright" unicode=")" horiz-adv-x="649" 
d="M23 1460h116q56 -48 107.5 -105.5t108 -144.5t97.5 -182.5t68 -222.5t27 -262q0 -153 -30.5 -287t-87.5 -243.5t-126 -196.5t-160 -170h-120q83 94 144 184t112 199.5t77.5 236.5t26.5 269q0 108 -14.5 208.5t-44.5 187.5t-60.5 157t-78 143.5t-80 119t-82.5 109.5z" />
    <glyph glyph-name="asterisk" unicode="*" horiz-adv-x="839" 
d="M758 1221l37 -117q-132 -42 -299 -88q64 -77 192 -240l-98 -69q-142 198 -174 245q-28 -42 -86.5 -125t-83.5 -120l-99 69q89 118 193 242q-119 29 -293 84l39 119q169 -53 285 -101q-10 232 -11 299h119q0 -133 -10 -303q39 15 289 105z" />
    <glyph glyph-name="plus" unicode="+" horiz-adv-x="1433" 
d="M782 72h-131v467h-467v131h467v465h131v-465h467v-131h-467v-467z" />
    <glyph glyph-name="comma" unicode="," horiz-adv-x="413" 
d="M322 225q-32 -264 -177 -557h-143q41 105 79 259t52 298h189z" />
    <glyph glyph-name="hyphen" unicode="-" horiz-adv-x="622" 
d="M549 489h-475v154h475v-154z" />
    <glyph glyph-name="period" unicode="." horiz-adv-x="413" 
d="M324 111q0 -63 -32.5 -95t-86.5 -32q-44 0 -79.5 31.5t-35.5 95.5t35 96.5t84 32.5q48 0 81.5 -30.5t33.5 -98.5z" />
    <glyph glyph-name="slash" unicode="/" horiz-adv-x="784" 
d="M102 -170h-104l672 1665h102z" />
    <glyph glyph-name="zero" unicode="0" horiz-adv-x="1148" 
d="M1069 705q0 -354 -133 -545t-371 -191q-241 0 -364 178.5t-123 497.5q0 330 131.5 516.5t382.5 186.5q241 0 359 -167.5t118 -475.5zM889 676q0 123 -15 212.5t-49 158.5t-95 104t-148 35q-147 0 -231.5 -126.5t-84.5 -393.5q0 -533 309 -533q149 0 231.5 134.5
t82.5 408.5z" />
    <glyph glyph-name="one" unicode="1" horiz-adv-x="1148" 
d="M924 0h-625v123l236 16v994q-114 -78 -269 -164l-67 121q165 109 358 247h156v-1198l211 -16v-123z" />
    <glyph glyph-name="two" unicode="2" horiz-adv-x="1148" 
d="M1022 0h-965v129q332 249 555 475q80 78 127 171t47 179q0 47 -13 87t-40.5 73.5t-77.5 52.5t-118 19q-171 0 -365 -109l-53 133q223 138 446 138q207 0 310.5 -98t103.5 -279q0 -121 -69.5 -243.5t-190.5 -231.5q-171 -159 -414 -340q348 4 578 4l35 223h118
q0 -309 -14 -383z" />
    <glyph glyph-name="three" unicode="3" horiz-adv-x="1148" 
d="M109 14l36 156q30 -11 120.5 -26t140.5 -15q221 0 315 70t94 198q0 45 -13.5 80t-46 65.5t-96 47t-155.5 16.5q-60 0 -142 -8l-8 152q424 18 424 251q0 94 -59 139.5t-180 45.5q-155 0 -340 -92l-56 135q106 53 219.5 86t206.5 33q387 0 387 -324q0 -103 -70 -189
t-194 -120q148 -12 232 -95t84 -214q0 -227 -153.5 -334t-434.5 -107q-78 0 -174.5 16.5t-136.5 32.5z" />
    <glyph glyph-name="four" unicode="4" horiz-adv-x="1148" 
d="M879 -20h-179v354h-622v115l618 888h183v-845h204v-158h-204v-354zM700 492q0 455 5 645q-121 -186 -451 -645h446z" />
    <glyph glyph-name="five" unicode="5" horiz-adv-x="1148" 
d="M117 14l37 156q36 -14 115.5 -27.5t156.5 -13.5q196 0 287.5 81t91.5 218t-79 196.5t-237 59.5q-133 0 -286 -43l71 684h691v-164h-545l-41 -350q98 25 196 25q208 0 318.5 -101.5t110.5 -281.5q0 -242 -151.5 -364t-430.5 -122q-80 0 -165.5 13t-139.5 34z" />
    <glyph glyph-name="six" unicode="6" horiz-adv-x="1148" 
d="M975 1147q-38 16 -105 26.5t-108 10.5q-117 0 -200 -32.5t-134.5 -98t-79.5 -151t-41 -204.5q59 71 159.5 116.5t203.5 45.5q185 0 287 -105.5t102 -312.5q0 -133 -53.5 -239.5t-160 -170t-249.5 -63.5q-74 0 -141.5 20.5t-129.5 67.5t-107 117t-72 176t-27 238
q0 174 39.5 312.5t118.5 239t203 154.5t286 54q119 0 258 -41zM311 543q4 -414 289 -414q126 0 201.5 81.5t75.5 227.5q0 125 -65.5 199t-195.5 74q-88 0 -173 -49t-132 -119z" />
    <glyph glyph-name="seven" unicode="7" horiz-adv-x="1148" 
d="M547 0h-209q191 513 512 1161h-586l-35 -237h-123q0 333 15 401h923v-143q-290 -606 -497 -1182z" />
    <glyph glyph-name="eight" unicode="8" horiz-adv-x="1148" 
d="M758 694q137 -45 207.5 -129t70.5 -196q0 -181 -131 -290.5t-332 -109.5t-329.5 100.5t-128.5 280.5q0 118 71 205t201 133q-117 48 -172 129.5t-55 177.5q0 113 57 194t151 120t214 39q195 0 305 -86t110 -242q0 -99 -58 -185.5t-181 -140.5zM557 618
q-129 -29 -196.5 -94.5t-67.5 -156.5q0 -105 76 -171.5t204 -66.5q130 0 206.5 64t76.5 167q0 108 -74 166.5t-225 91.5zM592 754q107 24 172 84.5t65 148.5q0 87 -60.5 144t-184.5 57q-119 0 -186.5 -54.5t-67.5 -146.5q0 -98 65.5 -150.5t196.5 -82.5z" />
    <glyph glyph-name="nine" unicode="9" horiz-adv-x="1148" 
d="M176 172q38 -17 106.5 -29t108.5 -12q116 0 199 33t135 99.5t80 152.5t41 205q-59 -72 -159 -117t-204 -45q-184 0 -285.5 105t-101.5 313q0 204 123.5 337.5t337.5 133.5q76 0 143.5 -20t129.5 -67t106.5 -117t71 -176.5t26.5 -238.5q0 -173 -39.5 -311.5t-118.5 -239.5
t-203 -155t-286 -54q-136 0 -260 43zM842 774q0 69 -8.5 127.5t-29 112.5t-53 91.5t-83 60t-115.5 22.5q-125 0 -201 -82t-76 -227q0 -125 65.5 -198t195.5 -73q89 0 173.5 48.5t131.5 117.5z" />
    <glyph glyph-name="colon" unicode=":" horiz-adv-x="454" 
d="M365 111q0 -63 -32.5 -95t-86.5 -32q-44 0 -79.5 31.5t-35.5 95.5t35 96.5t84 32.5q48 0 81.5 -30.5t33.5 -98.5zM365 823q0 -62 -32.5 -93.5t-86.5 -31.5q-44 0 -79.5 30.5t-35.5 94.5q0 65 35 98t84 33q48 0 81.5 -31t33.5 -100z" />
    <glyph glyph-name="semicolon" unicode=";" horiz-adv-x="454" 
d="M362 225q-17 -142 -67.5 -291.5t-108.5 -265.5h-143q41 105 79 259t52 298h188zM365 823q0 -62 -32.5 -93.5t-86.5 -31.5q-44 0 -79.5 30.5t-35.5 94.5q0 65 35 98t84 33q48 0 81.5 -31t33.5 -100z" />
    <glyph glyph-name="less" unicode="&#x3c;" horiz-adv-x="1433" 
d="M1159 86l-923 444v140l923 454v-155l-780 -365l780 -358v-160z" />
    <glyph glyph-name="equal" unicode="=" horiz-adv-x="1433" 
d="M1249 336h-1065v133h1065v-133zM1249 729h-1065v135h1065v-135z" />
    <glyph glyph-name="greater" unicode="&#x3e;" horiz-adv-x="1433" 
d="M274 1124l926 -446v-137l-926 -455v156l783 366l-783 357v159z" />
    <glyph glyph-name="question" unicode="?" horiz-adv-x="868" 
d="M469 449l-156 -17q-22 64 -22 115q0 75 26 128t103 118q95 85 137.5 149.5t42.5 134.5q0 79 -54 127.5t-159 48.5q-148 0 -274 -55l-41 148q78 31 176 51t170 20q184 0 278.5 -78.5t94.5 -226.5q0 -103 -43.5 -181t-161.5 -179q-53 -45 -76 -67.5t-40 -58.5t-17 -81
q0 -60 16 -96zM510 113q0 -64 -33 -96.5t-88 -32.5q-46 0 -82.5 31.5t-36.5 97.5q0 65 36.5 99t86.5 34q48 0 82.5 -31.5t34.5 -101.5z" />
    <glyph glyph-name="at" unicode="@" horiz-adv-x="1646" 
d="M1001 223q-143 -143 -303 -143q-109 0 -177 69.5t-68 198.5q0 98 36.5 209.5t104.5 194.5q133 159 326 159q118 0 210 -53l31 64l94 -4l-118 -512q-19 -78 -19 -125q0 -84 68 -84q58 0 118.5 62t101 169t40.5 223q0 239 -143.5 369.5t-376.5 130.5q-150 0 -279.5 -57
t-219 -155t-140.5 -233t-51 -288q0 -176 73 -312.5t216.5 -216t336.5 -79.5q159 0 284.5 40t250.5 115l49 -86q-282 -168 -598 -168q-161 0 -295.5 52t-227.5 144.5t-144.5 223t-51.5 285.5q0 142 39 270t111.5 229t170.5 175.5t220.5 114.5t257.5 40q285 0 452.5 -157.5
t167.5 -430.5q0 -149 -55 -280.5t-149.5 -210t-202.5 -78.5q-52 0 -88.5 25.5t-46.5 72.5q-5 17 -5 37zM993 309l103 455q-77 39 -181 39q-133 0 -227 -119q-47 -60 -75.5 -151t-28.5 -166q0 -91 44 -132.5t113 -41.5q121 0 252 116z" />
    <glyph glyph-name="A" unicode="A" horiz-adv-x="1454" 
d="M573 0h-571v123l152 16l471 1245h215l465 -1245l149 -16v-123h-571v123l223 16l-121 310h-516l-123 -310l227 -16v-123zM518 610h418q-149 404 -205 586q-39 -121 -213 -586z" />
    <glyph glyph-name="B" unicode="B" horiz-adv-x="1359" 
d="M68 0v123l211 16v1106l-211 17v122h514q226 0 338 -26q254 -60 254 -295q0 -267 -285 -332q165 -14 253.5 -97t88.5 -231q0 -160 -89 -255.5t-247 -122.5q-151 -25 -434 -25h-393zM459 639v-483h133q178 0 264 22q92 25 136 80.5t44 151.5q0 98 -67.5 158t-208.5 67
q-68 4 -211 4h-90zM459 793h84q91 0 217 12q102 11 162.5 66t60.5 153q0 138 -139 182q-70 23 -221 23h-164v-436z" />
    <glyph glyph-name="C" unicode="C" horiz-adv-x="1347" 
d="M1276 188q-242 -221 -547 -221q-129 0 -240 47.5t-191 134.5t-125.5 217t-45.5 287q0 364 178 564t502 200q207 0 403 -49q13 -61 13 -377h-138l-28 236q-103 28 -250 28q-81 0 -152 -20t-133.5 -65.5t-107.5 -113t-71 -168t-26 -224.5q0 -242 125 -384.5t322 -142.5
q230 0 430 170z" />
    <glyph glyph-name="D" unicode="D" horiz-adv-x="1519" 
d="M68 0v123l211 16v1106l-211 17v122h473q304 0 446 -43q94 -29 165.5 -76t127 -118.5t84.5 -174.5t29 -235q0 -130 -22 -235.5t-69.5 -194t-127 -152t-189.5 -100.5q-101 -34 -219 -44.5t-274 -10.5h-424zM459 160h119q188 0 319 43q158 49 228.5 181.5t70.5 342.5
q0 309 -203 426q-123 72 -387 72h-147v-1065z" />
    <glyph glyph-name="E" unicode="E" horiz-adv-x="1273" 
d="M1155 0h-1087v123l211 16v1106l-211 17v122h1024q16 -68 16 -370h-129l-29 209h-491v-426h502v-162h-502v-477h551l30 235h129q0 -311 -14 -393z" />
    <glyph glyph-name="F" unicode="F" horiz-adv-x="1222" 
d="M713 0h-645v123l211 16v1106l-211 17v122h1032q18 -70 18 -370h-129l-26 209h-504v-443h497v-162h-497v-479l254 -16v-123z" />
    <glyph glyph-name="G" unicode="G" horiz-adv-x="1462" 
d="M1280 78q-129 -54 -246 -81.5t-289 -27.5q-276 0 -447 184t-171 500q0 364 181.5 564t512.5 200q224 0 420 -49q9 -38 11.5 -107.5t2.5 -259.5h-137l-26 222q-124 30 -258 30q-111 0 -202.5 -33.5t-163 -102.5t-111.5 -185.5t-40 -272.5q0 -247 125 -382.5t332 -135.5
q106 0 175.5 13t156.5 43v356l-219 14v123h524v-123l-131 -10v-479z" />
    <glyph glyph-name="H" unicode="H" horiz-adv-x="1601" 
d="M657 0h-589v123l211 16v1106l-211 17v122h589v-122l-198 -17v-448h684v448l-199 17v122h590v-122l-211 -17v-1106l211 -16v-123h-590v123l199 16v496h-684v-496l198 -16v-123z" />
    <glyph glyph-name="I" unicode="I" horiz-adv-x="739" 
d="M672 0h-604v123l211 16v1106l-211 17v122h604v-122l-211 -17v-1106l211 -16v-123z" />
    <glyph glyph-name="J" unicode="J" horiz-adv-x="890" 
d="M647 1245v-770q0 -117 -7.5 -188t-29.5 -125q-33 -83 -116.5 -135t-206.5 -52q-154 0 -260 39l41 158q97 -33 194 -33q116 0 168 86q37 57 37 244v776l-229 17v122h600v-122z" />
    <glyph glyph-name="K" unicode="K" horiz-adv-x="1447" 
d="M664 0h-596v123l211 16v1106l-211 17v122h585v-122l-192 -17v-579q72 72 274.5 295t265.5 288l-149 13v122h537v-122l-181 -17q-45 -45 -206.5 -220t-213.5 -226l259 -393q82 -124 131 -173q75 -79 170 -79q41 0 79 10l13 -162q-56 -18 -123 -18q-83 0 -140 22.5
t-118 77.5q-82 76 -160 201l-237 370l-201 -202v-314l203 -16v-123z" />
    <glyph glyph-name="L" unicode="L" horiz-adv-x="1263" 
d="M1155 0h-1087v123l211 16v1106l-211 17v122h616v-124l-225 -15v-1087h559l24 235h127q0 -316 -14 -393z" />
    <glyph glyph-name="M" unicode="M" horiz-adv-x="1875" 
d="M655 0h-587v123l198 14l29 1110l-207 15v122h485q192 -448 262.5 -620t106.5 -285q83 244 363 905h473v-122l-205 -15l35 -1110l196 -14v-123h-585v123l206 14q-24 1072 -24 1080q-133 -358 -393 -981h-142q-277 654 -403 978q0 -115 -19 -1077l211 -14v-123z" />
    <glyph glyph-name="N" unicode="N" horiz-adv-x="1593" 
d="M668 0h-600v123l211 16v1106l-211 17v122h442q375 -582 480.5 -753t178.5 -316q-6 217 -6 930l-198 15v124h575v-122l-197 -17v-1245h-200q-559 918 -690 1139q6 -261 6 -1000l209 -16v-123z" />
    <glyph glyph-name="O" unicode="O" horiz-adv-x="1525" 
d="M1399 731q0 -362 -171 -563t-474 -201q-296 0 -461.5 186.5t-165.5 514.5q0 365 168.5 557t484.5 192q303 0 461 -175t158 -511zM1204 696q0 128 -22 226t-71 174.5t-135.5 116.5t-207.5 40q-217 0 -334 -144.5t-117 -406.5q0 -149 33.5 -260.5t95 -178t141.5 -98.5
t179 -32q203 0 320.5 144t117.5 419z" />
    <glyph glyph-name="P" unicode="P" horiz-adv-x="1312" 
d="M705 0h-637v123l211 16v1106l-211 17v122h512q245 0 350 -28q131 -36 195.5 -121t64.5 -231q0 -152 -72.5 -251.5t-204.5 -140.5q-110 -34 -319 -34h-135v-439l246 -16v-123zM459 733h137q155 0 240 27q161 57 161 239q0 144 -131 197q-82 33 -241 33h-166v-496z" />
    <glyph glyph-name="Q" unicode="Q" horiz-adv-x="1525" 
d="M1399 731q0 -294 -114.5 -483.5t-323.5 -251.5q4 -1 13 -5.5l13 -6.5q76 -37 125 -58t134 -44t159 -23q89 0 188 22l19 -137q-39 -14 -114.5 -23.5t-129.5 -9.5q-80 0 -158.5 16.5t-153 48.5t-125.5 58.5t-118 67.5q-75 44 -149 69q-256 28 -396.5 211t-140.5 486
q0 365 168.5 557t484.5 192q303 0 461 -175t158 -511zM1204 696q0 128 -22 226t-71 174.5t-135.5 116.5t-207.5 40q-217 0 -334 -144.5t-117 -406.5q0 -149 33.5 -260.5t95 -178t141.5 -98.5t179 -32q203 0 320.5 144t117.5 419z" />
    <glyph glyph-name="R" unicode="R" horiz-adv-x="1413" 
d="M680 0h-612v123l211 16v1106l-211 17v122h579q207 0 309 -32q111 -34 172.5 -118.5t61.5 -211.5q0 -161 -86.5 -256.5t-231.5 -130.5q43 -21 93 -94q66 -98 127 -215q55 -100 109 -139.5t142 -39.5q23 0 58 7l8 -150q-61 -12 -141 -12q-113 0 -184 52.5t-126 152.5
q-153 275 -159 286q-56 94 -117 119h-223v-463l221 -16v-123zM459 754h178q169 0 252 45q106 59 106 196q0 152 -131 205q-72 29 -239 29h-166v-475z" />
    <glyph glyph-name="S" unicode="S" horiz-adv-x="1124" 
d="M82 424h131l33 -246q146 -49 297 -49q143 0 220 59.5t77 159.5q0 86 -50 140t-192 104l-176 61q-150 52 -219.5 139t-69.5 230q0 176 126 284.5t378 108.5q194 0 367 -45q10 -59 10 -379h-129l-29 236q-109 28 -244 28q-78 0 -136.5 -19t-90 -51t-46.5 -66.5t-15 -71.5
q0 -76 39 -124.5t155 -95.5l187 -73q187 -72 259 -157.5t72 -225.5q0 -182 -131.5 -293t-378.5 -111q-256 0 -430 72q-14 129 -14 385z" />
    <glyph glyph-name="T" unicode="T" horiz-adv-x="1402" 
d="M1001 0h-606v123l213 16v1084h-356l-37 -246h-121q0 290 15 407h1183q13 -64 13 -407h-117l-37 246h-363v-1084l213 -16v-123z" />
    <glyph glyph-name="U" unicode="U" horiz-adv-x="1542" 
d="M1303 1247v-674q0 -146 -14.5 -233.5t-51.5 -153.5q-55 -100 -174.5 -157.5t-298.5 -57.5q-372 0 -479 232q-47 105 -47 366v678l-187 15v122h574v-124l-209 -13v-645q0 -226 30 -305q31 -78 113.5 -120t210.5 -42q239 0 311 141q45 86 45 316v655l-202 15v122h567v-127z
" />
    <glyph glyph-name="V" unicode="V" horiz-adv-x="1449" 
d="M823 0h-207l-462 1245l-152 17v122h573v-122l-223 -17q310 -839 373 -1030q19 56 379 1030l-225 17v122h569v-122l-154 -17z" />
    <glyph glyph-name="W" unicode="W" horiz-adv-x="2050" 
d="M690 0h-198l-330 1247l-150 15v122h563v-122l-221 -15q193 -747 248 -997q49 185 104 372t230 762h186q35 -111 86 -273.5t71.5 -226t52.5 -166t44.5 -146t31.5 -108.5t31 -110.5t25 -99.5q56 262 234 993l-217 15v122h557v-122l-156 -15l-313 -1247h-199
q-260 828 -348 1122q-48 -204 -332 -1122z" />
    <glyph glyph-name="X" unicode="X" horiz-adv-x="1476" 
d="M588 0h-568v123l150 16l440 588l-389 518l-147 17v122h565v-122l-188 -15q71 -91 141 -183t111 -146t59 -76q11 15 52.5 74.5t105 146.5t137.5 184l-193 15v122h539v-122l-148 -17l-391 -516l447 -590l147 -16v-123h-588v123l209 14q-54 69 -358 473q-12 -15 -60 -82
t-125.5 -172.5t-162.5 -216.5l215 -16v-123z" />
    <glyph glyph-name="Y" unicode="Y" horiz-adv-x="1413" 
d="M1012 0h-615v123l217 16v406l-462 700l-150 17v122h578v-122l-209 -17q57 -87 133.5 -203t99.5 -151.5t53 -83t54 -88.5l34 56t32 52t46.5 70.5t54.5 81.5t79 117.5t100 148.5l-215 17v122h571v-122l-151 -17l-469 -700v-406l219 -16v-123z" />
    <glyph glyph-name="Z" unicode="Z" horiz-adv-x="1292" 
d="M1198 0h-1135v143q261 330 445.5 561t290 360.5t127.5 156.5h-641l-37 -263h-127q0 297 14 426h1043v-141q-303 -381 -490 -613t-284 -349l-97 -117h742l41 272h120q0 -344 -12 -436z" />
    <glyph glyph-name="bracketleft" unicode="[" horiz-adv-x="604" 
d="M551 -346h-379v1792h379v-105h-229v-1577h229v-110z" />
    <glyph glyph-name="backslash" unicode="\" horiz-adv-x="784" 
d="M786 -109h-104l-670 1543h103z" />
    <glyph glyph-name="bracketright" unicode="]" horiz-adv-x="606" 
d="M51 1446h383v-1792h-383v108h232v1577h-232v107z" />
    <glyph glyph-name="asciicircum" unicode="^" horiz-adv-x="1454" 
d="M1190 575h-150l-315 652l-311 -652h-150l387 807h152z" />
    <glyph glyph-name="underscore" unicode="_" horiz-adv-x="1026" 
d="M0 -182h1026v-90h-1026v90z" />
    <glyph glyph-name="grave" unicode="`" horiz-adv-x="411" 
d="M428 1147h-139l-303 311h194z" />
    <glyph glyph-name="a" unicode="a" horiz-adv-x="1155" 
d="M1116 135v-112q-63 -14 -161 -25.5t-179 -11.5l-12 133q-63 -69 -149 -106.5t-183 -37.5q-153 0 -234 91t-81 221q0 93 50 157.5t142 94.5q162 50 447 57v68q0 142 -29 176q-21 27 -56.5 39t-103.5 12q-142 0 -346 -62l-26 132q111 40 228.5 63t203.5 23q194 0 252 -101
q24 -40 33.5 -105.5t9.5 -181.5v-524h194zM758 236v239q-249 -8 -355 -45q-54 -19 -82 -56t-28 -87q0 -81 51 -123.5t133 -42.5q163 0 281 115z" />
    <glyph glyph-name="b" unicode="b" horiz-adv-x="1212" 
d="M203 41v1298h-199v117q202 57 367 57v-628q194 155 370 155q167 0 259 -125.5t92 -369.5q0 -290 -126.5 -432t-359.5 -142q-193 0 -403 70zM371 156q107 -35 229 -35q161 0 234 101.5t73 295.5q0 170 -56.5 267.5t-172.5 97.5q-79 0 -148 -28.5t-159 -84.5v-614z" />
    <glyph glyph-name="c" unicode="c" horiz-adv-x="1042" 
d="M977 119q-104 -73 -204.5 -111.5t-219.5 -38.5q-198 0 -317 135t-119 371q0 280 139 426t375 146q166 0 287 -39q10 -51 10 -312h-129l-25 191q-68 16 -160 16q-151 0 -235 -106t-84 -308q0 -176 82.5 -270t216.5 -94q90 0 161 25.5t163 82.5z" />
    <glyph glyph-name="d" unicode="d" horiz-adv-x="1253" 
d="M1208 129v-115q-163 -32 -346 -32l-12 143q-148 -148 -334 -148q-178 0 -286.5 131t-108.5 379q0 119 27.5 213.5t74 157t112 104t137.5 59t153 17.5q130 0 221 -39v340h-205v117q196 57 375 60v-1387h192zM846 244v604q-100 35 -207 35q-163 0 -250.5 -96t-87.5 -283
q0 -375 262 -375q81 0 143 28t140 87z" />
    <glyph glyph-name="e" unicode="e" horiz-adv-x="1112" 
d="M1032 123q-111 -77 -215 -115.5t-235 -38.5q-217 0 -339 145t-122 382q0 138 40 245.5t108.5 173t155.5 99t187 33.5q95 0 167 -25t116.5 -67t72 -103t38 -125t10.5 -141q0 -38 -6 -84h-713q0 -56 2 -76q11 -139 95.5 -222t219.5 -83q184 0 357 121zM846 633q2 14 2 45
q0 101 -57 166t-183 65q-116 0 -200 -69t-103 -207h541z" />
    <glyph glyph-name="f" unicode="f" horiz-adv-x="706" 
d="M659 0h-581v121l186 16v729h-192v131q89 17 192 17v98q0 114 18 184t58 113q88 98 262 98q96 0 211 -22l-18 -137q-103 14 -160 14q-114 0 -162 -62q-41 -57 -41 -192v-94h244v-148h-244v-729l227 -16v-121z" />
    <glyph glyph-name="g" unicode="g" horiz-adv-x="1067" 
d="M373 342q-68 -56 -68 -104q0 -33 22.5 -53.5t96.5 -28.5l332 -39q148 -18 214 -86t66 -187q0 -169 -142.5 -271.5t-381.5 -102.5q-223 0 -334.5 77t-111.5 201q0 162 229 270q-137 33 -137 160q0 86 121 207q-71 40 -109.5 119t-38.5 170q0 74 25 140t73 118.5
t127.5 83.5t180.5 31q120 0 200 -41h312v-136h-195q31 -32 47.5 -85.5t16.5 -108.5q0 -171 -108.5 -264t-287.5 -93q-82 0 -149 23zM410 -10q-92 -47 -135.5 -101t-43.5 -106q0 -84 84.5 -128t223.5 -44q151 0 235 59t84 135t-48 116t-175 50zM756 674q0 102 -55.5 169.5
t-170.5 67.5q-75 0 -127.5 -35t-75 -86t-22.5 -112q0 -110 61 -168.5t160 -58.5q105 0 167.5 58t62.5 165z" />
    <glyph glyph-name="h" unicode="h" horiz-adv-x="1290" 
d="M596 0h-537v121l183 16v1202h-199v117q83 26 184.5 41.5t180.5 15.5v-645q90 75 205 123.5t200 48.5q109 0 164 -47t67 -139q9 -64 9 -244v-473l198 -16v-121h-366v565q0 167 -15 232q-18 84 -133 84q-157 0 -327 -125v-619l186 -16v-121z" />
    <glyph glyph-name="i" unicode="i" horiz-adv-x="663" 
d="M432 1317q0 -59 -31.5 -89t-83.5 -30q-46 0 -78 29t-32 90q0 60 32 90.5t80 30.5q113 0 113 -121zM618 0h-540v121l186 16v729h-198v119q200 53 366 53v-901l186 -16v-121z" />
    <glyph glyph-name="j" unicode="j" horiz-adv-x="624" 
d="M4 -530l-45 135q199 71 252 196q31 77 31 236v829h-199v119q203 53 365 53v-1013q0 -208 -46 -295q-42 -84 -137 -154t-221 -106zM408 1317q0 -59 -31.5 -89t-83.5 -30q-47 0 -79 29t-32 90q0 60 33 90.5t82 30.5q50 0 80.5 -29t30.5 -92z" />
    <glyph glyph-name="k" unicode="k" horiz-adv-x="1200" 
d="M592 0h-533v121l183 16v1202h-199v117q79 24 182 40.5t185 16.5v-995q228 216 364 363l-143 14v119h502v-117l-152 -14q-103 -100 -283 -269l183 -290q69 -106 120 -146q53 -43 132 -43q33 0 51 4l6 -137q-63 -14 -115 -14q-119 0 -196 65q-53 45 -121 152l-183 295
l-165 -146v-217l182 -16v-121z" />
    <glyph glyph-name="l" unicode="l" horiz-adv-x="641" 
d="M596 0h-537v121l183 16v1202h-199v117q197 57 367 57v-1376l186 -16v-121z" />
    <glyph glyph-name="m" unicode="m" horiz-adv-x="1927" 
d="M616 0h-538v121l186 16v729h-198v117q58 17 169 36t191 19l6 -170q95 78 204.5 125t199.5 47q103 0 153 -43t64 -135q217 178 401 178q105 0 159 -46t68 -138q9 -66 9 -246v-473l198 -16v-121h-366v565q0 159 -17 232q-21 84 -129 84q-140 0 -317 -127q2 -43 2 -144v-473
l199 -16v-121h-367v565q0 175 -14 238q-18 78 -125 78q-155 0 -322 -123v-621l184 -16v-121z" />
    <glyph glyph-name="n" unicode="n" horiz-adv-x="1310" 
d="M618 0h-540v121l186 16v729h-198v117q73 22 180 38.5t180 16.5l6 -170q88 75 202.5 123.5t203.5 48.5q109 0 162 -46.5t67 -139.5q8 -59 8 -246v-471l199 -16v-121h-367v565q0 163 -16 232q-18 84 -129 84q-160 0 -330 -123v-621l186 -16v-121z" />
    <glyph glyph-name="o" unicode="o" horiz-adv-x="1204" 
d="M1083 532q0 -268 -129.5 -415.5t-363.5 -147.5q-216 0 -342.5 139.5t-126.5 385.5q0 268 131 410.5t371 142.5q460 0 460 -515zM903 502q0 95 -12.5 163.5t-43.5 124.5t-90.5 84.5t-146.5 28.5q-153 0 -232 -103t-79 -274q0 -220 79 -316.5t224 -96.5q136 0 218.5 96.5
t82.5 292.5z" />
    <glyph glyph-name="p" unicode="p" horiz-adv-x="1230" 
d="M616 -504h-579v123l186 16v1233h-198v117q180 50 360 53l6 -151q80 66 181 111.5t202 45.5q163 0 249.5 -125.5t86.5 -371.5q0 -286 -127 -425.5t-350 -139.5q-141 0 -242 36v-383l225 -16v-123zM391 176q101 -49 236 -49q149 0 225 101.5t76 293.5q0 174 -52.5 268.5
t-175.5 94.5q-78 0 -149 -29t-160 -84v-596z" />
    <glyph glyph-name="q" unicode="q" horiz-adv-x="1232" 
d="M1200 -504h-577v123l223 16v480q-71 -66 -150 -100.5t-182 -34.5q-179 0 -286 129.5t-107 377.5q0 119 27.5 214t74 157.5t111.5 104t136.5 59.5t152.5 18q137 0 247 -43l13 90h131v-1452l186 -16v-123zM844 246v604q-132 35 -207 35q-162 0 -250 -97t-88 -284
q0 -109 21 -185t59.5 -115.5t82 -56t99.5 -16.5q81 0 142.5 28.5t140.5 86.5z" />
    <glyph glyph-name="r" unicode="r" horiz-adv-x="901" 
d="M655 0h-577v121l186 16v729h-198v117q50 18 164 36.5t192 18.5l8 -192q46 80 139.5 137t192.5 57q35 0 63 -4v-170q-48 6 -80 6q-85 0 -167 -37t-146 -106v-590l223 -18v-121z" />
    <glyph glyph-name="s" unicode="s" horiz-adv-x="958" 
d="M104 322h119l35 -177q107 -34 203 -34q101 0 156 41t55 108q0 59 -33.5 94.5t-126.5 63.5l-150 47q-117 37 -170 105.5t-53 181.5q0 126 101.5 210.5t287.5 84.5q163 0 285 -35q16 -67 16 -297h-116l-33 178q-66 18 -164 18q-103 0 -152 -43t-49 -102q0 -55 30.5 -92
t109.5 -62l163 -49q128 -38 183 -107.5t55 -172.5q0 -135 -103 -224.5t-290 -89.5q-177 0 -340 56q-19 65 -19 297z" />
    <glyph glyph-name="t" unicode="t" horiz-adv-x="733" 
d="M715 25q-112 -41 -248 -41q-67 0 -120 25.5t-81 68.5q-49 79 -49 270v518h-201v133q94 15 203 15q0 51 8 256l162 12v-268h270v-148h-270v-485q0 -137 31 -188q32 -52 119 -52q67 0 151 19z" />
    <glyph glyph-name="u" unicode="u" horiz-adv-x="1267" 
d="M1225 14q-164 -32 -346 -32l-13 163q-191 -172 -383 -172q-228 0 -258 203q-10 74 -10 236v458h-197v117q212 47 367 47v-585q0 -151 12 -216q9 -48 50 -74t104 -26q145 0 307 127v610h-203v117q207 47 375 47v-905h195v-115z" />
    <glyph glyph-name="v" unicode="v" horiz-adv-x="1181" 
d="M680 0h-188l-353 877l-137 16v121h506v-121l-180 -14q166 -419 264 -697q90 258 264 697l-180 14v121h500v-121l-140 -16z" />
    <glyph glyph-name="w" unicode="w" horiz-adv-x="1628" 
d="M1487 879l-242 -879h-186q-190 589 -238 770q-50 -181 -254 -770h-184l-242 877l-137 16v121h500v-121l-180 -16q114 -411 174 -684q32 113 256 806h141q137 -428 182.5 -576.5t65.5 -229.5q11 49 30.5 124.5t58.5 229.5t83 332l-176 14v121h485v-121z" />
    <glyph glyph-name="x" unicode="x" horiz-adv-x="1200" 
d="M520 0h-491v121l141 16l303 391l-295 351l-129 16v119h479v-119l-143 -14l225 -269l215 271l-159 14v117h460v-117l-133 -16l-286 -355l333 -389l136 -16v-121h-504v121l162 16l-263 299l-231 -299l180 -16v-121z" />
    <glyph glyph-name="y" unicode="y" horiz-adv-x="1171" 
d="M158 -532l-45 151q157 25 250 116.5t165 264.5h-36l-353 877l-137 16v121h502v-121l-182 -14q156 -368 284 -721q126 377 248 721l-182 14v121h497v-121l-139 -16l-293 -807q-108 -296 -241 -431t-338 -171z" />
    <glyph glyph-name="z" unicode="z" horiz-adv-x="1015" 
d="M928 0h-852v121q408 507 612 758h-432l-31 -199h-121q0 245 19 334h788v-125q-180 -220 -318 -386.5t-200 -241t-102 -124.5h497l29 215h123q0 -282 -12 -352z" />
    <glyph glyph-name="braceleft" unicode="{" horiz-adv-x="681" 
d="M633 -360q-102 0 -170.5 15t-118.5 52t-73 102.5t-23 165.5v265q0 138 -43.5 197t-147.5 73v84q110 20 150.5 81.5t40.5 192.5v258q0 193 89 267.5t296 74.5v-108q-43 0 -72 -3.5t-62 -16.5t-52.5 -37t-32.5 -67.5t-13 -105.5v-274q0 -98 -21 -158.5t-58 -90.5t-103 -52
q92 -21 137 -89t45 -204v-274q0 -73 18.5 -122.5t52.5 -75t72.5 -36t88.5 -10.5v-104z" />
    <glyph glyph-name="bar" unicode="|" horiz-adv-x="454" 
d="M287 -350h-115v1851h115v-1851z" />
    <glyph glyph-name="braceright" unicode="}" horiz-adv-x="681" 
d="M51 1468q101 0 169.5 -15.5t119 -53.5t73.5 -104t23 -165v-264q0 -139 43 -197.5t148 -72.5v-84q-111 -20 -151 -80t-40 -192v-260q0 -99 -22 -164.5t-71 -104.5t-119 -55t-173 -16v104q43 0 72 3.5t62 16.5t52.5 37.5t32.5 68t13 105.5v273q0 144 41.5 208t138.5 97
q-92 21 -136 88t-44 205v272q0 73 -18.5 122.5t-52.5 75t-72.5 36t-88.5 10.5v106z" />
    <glyph glyph-name="asciitilde" unicode="~" horiz-adv-x="1433" 
d="M264 463l-90 78q86 116 163 165.5t163 49.5q49 0 101.5 -18.5t143.5 -71.5q120 -70 197 -70q63 0 113 36.5t110 127.5l95 -76q-75 -115 -147.5 -170t-172.5 -55q-102 0 -242 80q-136 77 -204 77q-62 0 -117 -35.5t-113 -117.5z" />
    <glyph glyph-name="exclamdown" unicode="&#xa1;" horiz-adv-x="571" 
d="M180 547h152q24 -842 24 -946h-202q0 101 26 946zM139 872q0 65 34.5 98.5t88.5 33.5q45 0 81 -32.5t36 -99.5q0 -65 -35 -98t-86 -33q-49 0 -84 31.5t-35 99.5z" />
    <glyph glyph-name="cent" unicode="&#xa2;" horiz-adv-x="1060" 
d="M639 -207h-98v203q-185 11 -291.5 139t-106.5 350q0 242 106 380t292 165v207h98v-199q190 0 295 -32q8 -39 8 -312h-117l-24 185q-56 16 -162 16v-745q77 3 141 28t152 78l63 -117q-179 -125 -356 -141v-205zM322 500q0 -148 58 -234t161 -110v727
q-106 -28 -162.5 -124.5t-56.5 -258.5z" />
    <glyph glyph-name="sterling" unicode="&#xa3;" horiz-adv-x="1236" 
d="M1106 0h-1018v141q54 24 100.5 52t95 69t77 94t28.5 111q0 29 -6 63h-240v129h201q-5 11 -34 77t-37.5 90t-20.5 74t-12 93q0 167 115.5 261t326.5 94q214 0 360 -56q13 -56 13 -350h-127l-23 217q-92 29 -213 29q-126 0 -194 -58t-68 -159q0 -79 59 -213q7 -18 21.5 -51
t19.5 -48h355v-129h-330q6 -27 6 -57q0 -54 -19.5 -101t-57 -85.5t-78 -67.5t-95.5 -59q190 4 658 4l39 235h112q0 -328 -14 -399z" />
    <glyph glyph-name="currency" unicode="&#xa4;" horiz-adv-x="1073" 
d="M842 678q0 139 -86 226t-219 87q-130 0 -218 -88t-88 -221q0 -139 87 -227t219 -88q133 0 219 87t86 224zM918 209l-123 123q-109 -82 -258 -82q-146 0 -258 80l-119 -121l-82 84l125 125q-88 112 -88 260q0 145 86 258l-123 125l82 84l121 -123q115 86 256 86
q148 0 254 -84l124 121l78 -84l-121 -123q89 -113 89 -260q0 -144 -89 -258l125 -127z" />
    <glyph glyph-name="yen" unicode="&#xa5;" horiz-adv-x="1441" 
d="M1163 381h-364v-242l219 -16v-123h-600v123l217 16v242h-361v104h361v31l-76 115h-285v102h218l-299 453l-146 16v121h561v-121l-205 -16q235 -353 320 -496q90 145 326 496l-209 16v121h553v-121l-148 -16l-301 -453h219v-102h-289l-75 -115v-31h364v-104z" />
    <glyph glyph-name="brokenbar" unicode="&#xa6;" horiz-adv-x="454" 
d="M287 696h-115v688h115v-688zM287 -264h-115v688h115v-688z" />
    <glyph glyph-name="section" unicode="&#xa7;" horiz-adv-x="1048" 
d="M166 12q182 -118 350 -118q87 0 140 35.5t53 101.5q0 38 -16.5 67.5t-61 60.5t-99.5 60t-154 78q-3 1 -5 2l-4 2q-156 76 -214.5 148.5t-58.5 166.5q0 92 62 159t157 95q-127 103 -127 244q0 51 19 100t58.5 93.5t112.5 72t169 27.5q188 0 354 -96l-61 -142
q-86 43 -155 65.5t-142 22.5q-90 0 -131 -40.5t-41 -90.5q0 -65 53.5 -113t214.5 -128q133 -67 201.5 -118t95.5 -102.5t27 -125.5q0 -91 -54.5 -155.5t-146.5 -100.5q75 -55 106 -110t31 -130q0 -129 -102 -216t-287 -87q-228 0 -418 131zM657 348q61 22 102.5 61.5
t41.5 96.5q0 49 -35 87t-113 79q-117 63 -235 133q-158 -39 -158 -150q0 -46 36 -86t103 -80q41 -24 135 -74.5t123 -66.5z" />
    <glyph glyph-name="dieresis" unicode="&#xa8;" horiz-adv-x="411" 
d="M131 1303q0 -107 -100 -107q-43 0 -71 24.5t-28 82.5q0 55 28.5 81.5t74.5 26.5q96 0 96 -108zM479 1303q0 -107 -100 -107q-42 0 -70 24.5t-28 82.5q0 55 28 81.5t74 26.5q96 0 96 -108z" />
    <glyph glyph-name="copyright" unicode="&#xa9;" horiz-adv-x="1662" 
d="M1559 690q0 -151 -55.5 -284t-151.5 -228t-231.5 -150t-289.5 -55q-205 0 -371 94t-260 258t-94 365q0 151 55.5 284.5t151 229.5t230 151.5t286.5 55.5q154 0 290 -55.5t232.5 -151t152 -229t55.5 -285.5zM1485 690q0 185 -84 334.5t-234.5 235.5t-337.5 86
q-185 0 -334.5 -86t-233 -236t-83.5 -334q0 -182 83 -330.5t233 -234.5t337 -86t337 85.5t233.5 234t83.5 331.5zM1167 358q-184 -129 -370 -129q-170 0 -272.5 115.5t-102.5 319.5q0 237 121 361t319 124q151 0 254 -33q10 -43 10 -268h-102l-25 168q-74 12 -151 12
q-136 0 -211.5 -91t-75.5 -263q0 -152 73 -232t191 -80q78 0 145.5 23.5t145.5 71.5z" />
    <glyph glyph-name="ordfeminine" unicode="&#xaa;" horiz-adv-x="731" 
d="M713 643v-78q-95 -26 -232 -26l-6 88q-95 -95 -217 -95q-100 0 -154.5 57.5t-54.5 139.5q0 126 133 166q109 34 287 37v33q0 80 -20 106q-22 35 -105 35q-95 0 -229 -41l-21 92q160 55 287 55q130 0 174 -69q29 -51 29 -174v-326h129zM469 707v141q-157 -4 -229 -31
q-68 -25 -68 -86q0 -50 31.5 -76t85.5 -26q99 0 180 78z" />
    <glyph glyph-name="guillemotleft" unicode="&#xab;" horiz-adv-x="1071" 
d="M446 897h175l-359 -377l361 -387h-179l-381 383zM827 897h174l-358 -377l358 -387h-174l-385 383z" />
    <glyph glyph-name="logicalnot" unicode="&#xac;" horiz-adv-x="1433" 
d="M1233 72h-131v467h-934v131h1065v-598z" />
    <glyph glyph-name="uni00AD" unicode="&#xad;" horiz-adv-x="622" 
d="M549 489h-475v154h475v-154z" />
    <glyph glyph-name="registered" unicode="&#xae;" horiz-adv-x="1662" 
d="M1559 690q0 -151 -55.5 -284t-151.5 -228t-231.5 -150t-289.5 -55q-205 0 -371 94t-260 258t-94 365q0 151 55.5 284.5t151 229.5t230 151.5t286.5 55.5q154 0 290 -55.5t232.5 -151t152 -229t55.5 -285.5zM1485 690q0 185 -84 334.5t-234.5 235.5t-337.5 86
q-185 0 -334.5 -86t-233 -236t-83.5 -334q0 -182 83 -330.5t233 -234.5t337 -86t337 85.5t233.5 234t83.5 331.5zM842 285h-375v90l121 12v643l-121 10v93h354q122 0 189 -21q145 -48 145 -201q0 -194 -194 -235q34 -19 57 -58q33 -57 74 -131q32 -59 62 -79.5t85 -20.5
q7 0 31 4l10 -100q-36 -8 -88 -8q-76 0 -123 31t-76 92q-48 106 -92 176q-34 55 -67 67h-121v-262l129 -12v-90zM713 756h104q99 0 150 26q57 34 57 115q0 39 -20 69t-54 44q-42 18 -139 18h-98v-272z" />
    <glyph glyph-name="macron" unicode="&#xaf;" horiz-adv-x="411" 
d="M494 1194h-576v115h576v-115z" />
    <glyph glyph-name="degree" unicode="&#xb0;" horiz-adv-x="602" 
d="M553 1159q0 -120 -73.5 -191t-182.5 -71t-177.5 73.5t-68.5 176.5q0 120 70.5 192t179.5 72q121 0 186.5 -71t65.5 -181zM473 1159q0 30 -9 58t-28 54t-54.5 42t-82.5 16q-81 0 -124.5 -50.5t-43.5 -125.5t47.5 -125.5t120.5 -50.5q77 0 125.5 50t48.5 132z" />
    <glyph glyph-name="plusminus" unicode="&#xb1;" horiz-adv-x="1433" 
d="M782 276h-131v453h-467v133h467v449h131v-449h467v-133h-467v-453zM1249 0h-1065v135h1065v-135z" />
    <glyph glyph-name="twosuperior" unicode="&#xb2;" 
d="M666 868h-627v97q229 168 358 290q113 102 113 213q0 136 -162 136q-108 0 -235 -68l-39 96q155 88 293 88q134 0 204 -63.5t70 -175.5q0 -143 -162 -289q-141 -123 -270 -213q53 0 171 1t189 1l21 143h84q0 -212 -8 -256z" />
    <glyph glyph-name="threesuperior" unicode="&#xb3;" 
d="M53 879l25 112q19 -8 78 -16t94 -8q138 0 197 39t59 114q0 125 -197 125q-40 0 -94 -4l-4 105q150 6 210 44.5t60 104.5q0 57 -36 84t-113 27q-97 0 -221 -58l-37 94q149 78 278 78q127 0 190.5 -53.5t63.5 -153.5q0 -65 -46.5 -119t-127.5 -75q96 -8 152.5 -60.5
t56.5 -136.5q0 -140 -103 -206t-284 -66q-52 0 -114.5 9.5t-86.5 19.5z" />
    <glyph glyph-name="acute" unicode="&#xb4;" horiz-adv-x="411" 
d="M123 1147h-137l247 311h195z" />
    <glyph glyph-name="mu" unicode="&#xb5;" horiz-adv-x="1296" 
d="M416 -414h-174v1284h-199v117q216 47 367 47v-575q0 -159 14 -219q9 -45 52 -75t102 -30q144 0 307 125v610h-203v117q204 47 373 47v-899h194v-115q-164 -32 -346 -32l-12 157q-137 -159 -316 -159q-102 0 -163 55q4 -150 4 -455z" />
    <glyph glyph-name="paragraph" unicode="&#xb6;" horiz-adv-x="1148" 
d="M639 -231h-86v739q-212 0 -326 120t-114 306q0 103 30 183.5t93 141.5t169 93t250 32h310v-1615h-86v1534h-240v-1534z" />
    <glyph glyph-name="periodcentered" unicode="&#xb7;" horiz-adv-x="413" 
d="M322 543q0 -63 -32 -95t-85 -32q-44 0 -79.5 31t-35.5 96q0 63 35 96t84 33q46 0 79.5 -31t33.5 -98z" />
    <glyph glyph-name="cedilla" unicode="&#xb8;" horiz-adv-x="411" 
d="M16 -455l33 103q56 -19 111 -19q100 0 100 78q0 80 -106 80q-45 0 -72 -4l90 237h102l-57 -137q95 -7 135.5 -54.5t40.5 -113.5q0 -83 -63.5 -137.5t-179.5 -54.5q-65 0 -134 22z" />
    <glyph glyph-name="onesuperior" unicode="&#xb9;" 
d="M625 868h-418v90l153 11v604q-52 -35 -176 -105l-47 82q230 154 238 160h112v-741l138 -11v-90z" />
    <glyph glyph-name="ordmasculine" unicode="&#xba;" horiz-adv-x="706" 
d="M672 893q0 -162 -85.5 -261.5t-240.5 -99.5q-142 0 -225.5 90.5t-83.5 235.5q0 163 89.5 259.5t250.5 96.5q137 0 216 -88.5t79 -232.5zM549 866q0 116 -43 182t-148 66q-95 0 -146.5 -66t-51.5 -165q0 -252 196 -252q83 0 138 62t55 173z" />
    <glyph glyph-name="guillemotright" unicode="&#xbb;" horiz-adv-x="1071" 
d="M627 135h-174l358 377l-360 385h178l381 -381zM246 135h-174l358 377l-358 385h174l385 -381z" />
    <glyph glyph-name="onequarter" unicode="&#xbc;" horiz-adv-x="1689" 
d="M588 0h-105l652 1321h102zM610 489h-417v91l153 10v604q-43 -29 -176 -104l-47 81q213 143 237 160h113v-741l137 -10v-91zM1436 -12h-123v219h-398v78l396 551h125v-525h127v-104h-127v-219zM1313 311q0 289 2 385q-54 -84 -277 -385h275z" />
    <glyph glyph-name="onehalf" unicode="&#xbd;" horiz-adv-x="1689" 
d="M545 0h-105l652 1321h102zM580 489h-418v91l153 10v604q-43 -29 -176 -104l-47 81q230 154 238 160h112v-741l138 -10v-91zM1606 0h-627v96q225 165 358 291q113 102 113 213q0 135 -162 135q-110 0 -235 -67l-39 96q155 88 293 88q134 0 204 -63.5t70 -176.5
q0 -142 -162 -288q-141 -123 -270 -213q53 0 171 1t189 1l21 143h84q0 -212 -8 -256z" />
    <glyph glyph-name="threequarters" unicode="&#xbe;" horiz-adv-x="1689" 
d="M641 0h-104l651 1321h102zM121 500l24 112q19 -8 78 -16t94 -8q138 0 197 39t59 114q0 125 -196 125q-40 0 -94 -4l-4 105q150 6 210 44.5t60 104.5q0 57 -36.5 84t-113.5 27q-97 0 -221 -58l-37 95q147 77 279 77q127 0 190.5 -53t63.5 -153q0 -65 -46.5 -119.5
t-127.5 -75.5q96 -8 152.5 -60.5t56.5 -136.5q0 -140 -103 -206t-284 -66q-52 0 -114.5 9.5t-86.5 19.5zM1464 -12h-123v219h-397v78l395 551h125v-525h127v-104h-127v-219zM1341 311q0 289 2 385q-60 -94 -276 -385h274z" />
    <glyph glyph-name="questiondown" unicode="&#xbf;" horiz-adv-x="870" 
d="M420 535l155 16q21 -73 21 -115q0 -75 -26 -128t-103 -118q-96 -84 -138 -148t-42 -134q0 -80 54.5 -129t160.5 -49q139 0 272 55l39 -147q-76 -31 -174 -50.5t-172 -19.5q-183 0 -276 78t-93 227q0 103 43 181t160 177q77 65 105 104.5t28 104.5q0 48 -14 95zM377 870
q0 63 33.5 96t87.5 33q46 0 82 -31.5t36 -97.5q0 -64 -35.5 -97.5t-84.5 -33.5q-51 0 -85 31t-34 100z" />
    <glyph glyph-name="Agrave" unicode="&#xc0;" horiz-adv-x="1454" 
d="M573 0h-571v123l152 16l471 1245h215l465 -1245l149 -16v-123h-571v123l223 16l-121 310h-516l-123 -310l227 -16v-123zM518 610h418q-149 404 -205 586q-39 -121 -213 -586zM872 1489h-153l-416 301h217z" />
    <glyph glyph-name="Aacute" unicode="&#xc1;" horiz-adv-x="1454" 
d="M573 0h-571v123l152 16l471 1245h215l465 -1245l149 -16v-123h-571v123l223 16l-121 310h-516l-123 -310l227 -16v-123zM518 610h418q-149 404 -205 586q-39 -121 -213 -586zM686 1489h-156l351 301h219z" />
    <glyph glyph-name="Acircumflex" unicode="&#xc2;" horiz-adv-x="1454" 
d="M573 0h-571v123l152 16l471 1245h215l465 -1245l149 -16v-123h-571v123l223 16l-121 310h-516l-123 -310l227 -16v-123zM518 610h418q-149 404 -205 586q-39 -121 -213 -586zM541 1489h-135l256 258h147l254 -258h-137l-193 151z" />
    <glyph glyph-name="Atilde" unicode="&#xc3;" horiz-adv-x="1454" 
d="M569 0h-571v123l152 16l471 1245h215l464 -1245l150 -16v-123h-571v123l223 16l-121 310h-516l-123 -310l227 -16v-123zM514 610h418q-149 404 -205 586q-39 -121 -213 -586zM438 1489h-104q23 105 71.5 161t112.5 56q52 0 152 -47q80 -39 121 -39q32 0 51 20.5t39 77.5
h100q-41 -223 -182 -223q-61 0 -158 47q-90 41 -115 41q-28 0 -48 -21t-40 -73z" />
    <glyph glyph-name="Adieresis" unicode="&#xc4;" horiz-adv-x="1454" 
d="M573 0h-571v123l152 16l471 1245h215l465 -1245l149 -16v-123h-571v123l223 16l-121 310h-516l-123 -310l227 -16v-123zM518 610h418q-149 404 -205 586q-39 -121 -213 -586zM639 1624q0 -106 -100 -106q-99 0 -99 106q0 55 28.5 82t74.5 27q96 0 96 -109zM1008 1624
q0 -106 -101 -106q-98 0 -98 106q0 56 28 82.5t74 26.5q97 0 97 -109z" />
    <glyph glyph-name="Aring" unicode="&#xc5;" horiz-adv-x="1454" 
d="M573 0h-571v123l152 16l471 1245h215l465 -1245l149 -16v-123h-571v123l223 16l-121 310h-516l-123 -310l227 -16v-123zM518 610h418q-149 404 -205 586q-39 -121 -213 -586zM897 1634q0 -75 -49 -128.5t-125 -53.5t-126 51t-50 127q0 77 51 127.5t127 50.5
q79 0 125.5 -47.5t46.5 -126.5zM827 1632q0 52 -28.5 81.5t-75.5 29.5t-76 -31t-29 -82q0 -49 28.5 -79.5t80.5 -30.5q47 0 73.5 31t26.5 81z" />
    <glyph glyph-name="AE" unicode="&#xc6;" horiz-adv-x="2066" 
d="M1946 0h-1088v123l211 16v303h-516l-209 -303l238 -16v-123h-582v123l135 16l739 1106l-219 17v122h1227q16 -82 16 -370h-129l-28 209h-492v-426h502v-162h-502v-477h551l29 235h129q0 -273 -12 -393zM1069 606v643q-52 -81 -430 -643h430z" />
    <glyph glyph-name="Ccedilla" unicode="&#xc7;" horiz-adv-x="1347" 
d="M522 -473l33 106q55 -18 119 -18q53 0 80.5 21t27.5 59q0 39 -30.5 60.5t-85.5 21.5q-6 0 -76 -4l76 198q-240 22 -389.5 204.5t-149.5 477.5q0 364 178 564t502 200q207 0 403 -49q13 -61 13 -377h-138l-28 236q-103 28 -250 28q-81 0 -152 -20t-133.5 -65.5
t-107.5 -113t-71 -168t-26 -224.5q0 -242 125 -384.5t322 -142.5q230 0 430 170l82 -119q-226 -206 -504 -219l-39 -90q99 -8 142 -58.5t43 -117.5q0 -87 -67 -143t-189 -56q-68 0 -140 23z" />
    <glyph glyph-name="Egrave" unicode="&#xc8;" horiz-adv-x="1273" 
d="M1155 0h-1087v123l211 16v1106l-211 17v122h1024q16 -68 16 -370h-129l-29 209h-491v-426h502v-162h-502v-477h551l30 235h129q0 -311 -14 -393zM825 1489h-153l-416 301h217z" />
    <glyph glyph-name="Eacute" unicode="&#xc9;" horiz-adv-x="1273" 
d="M1155 0h-1087v123l211 16v1106l-211 17v122h1024q16 -68 16 -370h-129l-29 209h-491v-426h502v-162h-502v-477h551l30 235h129q0 -311 -14 -393zM639 1468h-156l351 301h219z" />
    <glyph glyph-name="Ecircumflex" unicode="&#xca;" horiz-adv-x="1273" 
d="M1155 0h-1087v123l211 16v1106l-211 17v122h1024q16 -68 16 -370h-129l-29 209h-491v-426h502v-162h-502v-477h551l30 235h129q0 -311 -14 -393zM469 1489h-135l256 258h147l254 -258h-137l-192 151z" />
    <glyph glyph-name="Edieresis" unicode="&#xcb;" horiz-adv-x="1273" 
d="M1155 0h-1087v123l211 16v1106l-211 17v122h1024q16 -68 16 -370h-129l-29 209h-491v-426h502v-162h-502v-477h551l30 235h129q0 -311 -14 -393zM578 1624q0 -106 -101 -106q-98 0 -98 106q0 56 28 82.5t74 26.5q97 0 97 -109zM946 1624q0 -106 -100 -106q-98 0 -98 106
q0 56 28 82.5t74 26.5q96 0 96 -109z" />
    <glyph glyph-name="Igrave" unicode="&#xcc;" horiz-adv-x="739" 
d="M672 0h-604v123l211 16v1106l-211 17v122h604v-122l-211 -17v-1106l211 -16v-123zM569 1489h-153l-416 301h217z" />
    <glyph glyph-name="Iacute" unicode="&#xcd;" horiz-adv-x="739" 
d="M672 0h-604v123l211 16v1106l-211 17v122h604v-122l-211 -17v-1106l211 -16v-123zM328 1468h-156l350 301h219z" />
    <glyph glyph-name="Icircumflex" unicode="&#xce;" horiz-adv-x="739" 
d="M672 0h-604v123l211 16v1106l-211 17v122h604v-122l-211 -17v-1106l211 -16v-123zM176 1489h-135l256 258h147l254 -258h-137l-192 151z" />
    <glyph glyph-name="Idieresis" unicode="&#xcf;" horiz-adv-x="739" 
d="M672 0h-604v123l211 16v1106l-211 17v122h604v-122l-211 -17v-1106l211 -16v-123zM283 1624q0 -106 -101 -106q-98 0 -98 106q0 56 28 82.5t74 26.5q97 0 97 -109zM651 1624q0 -106 -100 -106q-98 0 -98 106q0 56 28 82.5t74 26.5q96 0 96 -109z" />
    <glyph glyph-name="Eth" unicode="&#xd0;" horiz-adv-x="1519" 
d="M55 676v123h224v446l-211 17v122h473q304 0 446 -43q406 -118 406 -604q0 -130 -22 -235.5t-69.5 -194t-127 -152t-189.5 -100.5q-101 -34 -219 -44.5t-274 -10.5h-424v123l211 16v537h-224zM459 160h119q188 0 319 43q159 52 229 183t70 341q0 306 -203 426
q-123 72 -387 72h-147v-426h315v-123h-315v-516z" />
    <glyph glyph-name="Ntilde" unicode="&#xd1;" horiz-adv-x="1593" 
d="M668 0h-600v123l211 16v1106l-211 17v122h442q375 -582 480.5 -753t178.5 -316q-6 217 -6 930l-198 15v124h575v-122l-197 -17v-1245h-200q-559 918 -690 1139q6 -261 6 -1000l209 -16v-123zM606 1489h-104q23 105 71.5 161t112.5 56q52 0 152 -47q80 -39 120 -39
q32 0 51.5 20.5t39.5 77.5h100q-41 -223 -182 -223q-61 0 -158 47q-90 41 -115 41q-28 0 -48 -21t-40 -73z" />
    <glyph glyph-name="Ograve" unicode="&#xd2;" horiz-adv-x="1525" 
d="M1399 731q0 -362 -171 -563t-474 -201q-296 0 -461.5 186.5t-165.5 514.5q0 365 168.5 557t484.5 192q303 0 461 -175t158 -511zM1204 696q0 128 -22 226t-71 174.5t-135.5 116.5t-207.5 40q-217 0 -334 -144.5t-117 -406.5q0 -149 33.5 -260.5t95 -178t141.5 -98.5
t179 -32q203 0 320.5 144t117.5 419zM932 1489h-154l-416 301h218z" />
    <glyph glyph-name="Oacute" unicode="&#xd3;" horiz-adv-x="1525" 
d="M1399 731q0 -362 -171 -563t-474 -201q-296 0 -461.5 186.5t-165.5 514.5q0 365 168.5 557t484.5 192q303 0 461 -175t158 -511zM1204 696q0 128 -22 226t-71 174.5t-135.5 116.5t-207.5 40q-217 0 -334 -144.5t-117 -406.5q0 -149 33.5 -260.5t95 -178t141.5 -98.5
t179 -32q203 0 320.5 144t117.5 419zM700 1477h-155l350 301h219z" />
    <glyph glyph-name="Ocircumflex" unicode="&#xd4;" horiz-adv-x="1525" 
d="M1399 731q0 -362 -171 -563t-474 -201q-296 0 -461.5 186.5t-165.5 514.5q0 365 168.5 557t484.5 192q303 0 461 -175t158 -511zM1204 696q0 128 -22 226t-71 174.5t-135.5 116.5t-207.5 40q-217 0 -334 -144.5t-117 -406.5q0 -149 33.5 -260.5t95 -178t141.5 -98.5
t179 -32q203 0 320.5 144t117.5 419zM537 1489h-136l256 258h148l254 -258h-137l-193 151z" />
    <glyph glyph-name="Otilde" unicode="&#xd5;" horiz-adv-x="1525" 
d="M1399 731q0 -362 -171 -563t-474 -201q-296 0 -461.5 186.5t-165.5 514.5q0 365 168.5 557t484.5 192q303 0 461 -175t158 -511zM1204 696q0 128 -22 226t-71 174.5t-135.5 116.5t-207.5 40q-217 0 -334 -144.5t-117 -406.5q0 -149 33.5 -260.5t95 -178t141.5 -98.5
t179 -32q203 0 320.5 144t117.5 419zM506 1489h-105q23 105 72 161t113 56q33 0 64 -10.5t87 -36.5q80 -39 121 -39q32 0 51 20.5t39 77.5h101q-41 -223 -183 -223q-60 0 -157 47q-90 41 -115 41q-28 0 -48 -21t-40 -73z" />
    <glyph glyph-name="Odieresis" unicode="&#xd6;" horiz-adv-x="1525" 
d="M1399 731q0 -362 -171 -563t-474 -201q-296 0 -461.5 186.5t-165.5 514.5q0 365 168.5 557t484.5 192q303 0 461 -175t158 -511zM1204 696q0 128 -22 226t-71 174.5t-135.5 116.5t-207.5 40q-217 0 -334 -144.5t-117 -406.5q0 -149 33.5 -260.5t95 -178t141.5 -98.5
t179 -32q203 0 320.5 144t117.5 419zM684 1624q0 -106 -100 -106q-99 0 -99 106q0 55 28.5 82t74.5 27q96 0 96 -109zM1053 1624q0 -106 -101 -106q-98 0 -98 106q0 56 28 82.5t74 26.5q97 0 97 -109z" />
    <glyph glyph-name="multiply" unicode="&#xd7;" horiz-adv-x="1433" 
d="M1157 260l-90 -100l-354 346l-348 -348l-91 98l353 350l-355 350l90 101l353 -355l358 355l88 -101l-354 -350z" />
    <glyph glyph-name="Oslash" unicode="&#xd8;" horiz-adv-x="1525" 
d="M293 -100l-100 65l114 170q-180 186 -180 533q0 365 168.5 557t484.5 192q207 0 344 -82l105 154l100 -64l-110 -161q180 -174 180 -533q0 -362 -171 -563t-474 -201q-206 0 -353 92zM1204 696q0 270 -96 404l-604 -889q106 -78 262 -78q203 0 320.5 144t117.5 419z
M317 702q0 -259 101 -403l604 887q-98 67 -254 67q-217 0 -334 -144.5t-117 -406.5z" />
    <glyph glyph-name="Ugrave" unicode="&#xd9;" horiz-adv-x="1542" 
d="M1303 1247v-674q0 -146 -14.5 -233.5t-51.5 -153.5q-55 -100 -174.5 -157.5t-298.5 -57.5q-372 0 -479 232q-47 105 -47 366v678l-187 15v122h574v-124l-209 -13v-645q0 -226 30 -305q31 -78 113.5 -120t210.5 -42q239 0 311 141q45 86 45 316v655l-202 15v122h567v-127z
M944 1489h-153l-416 301h217z" />
    <glyph glyph-name="Uacute" unicode="&#xda;" horiz-adv-x="1542" 
d="M1303 1247v-674q0 -146 -14.5 -233.5t-51.5 -153.5q-55 -100 -174.5 -157.5t-298.5 -57.5q-372 0 -479 232q-47 105 -47 366v678l-187 15v122h574v-124l-209 -13v-645q0 -226 30 -305q31 -78 113.5 -120t210.5 -42q239 0 311 141q45 86 45 316v655l-202 15v122h567v-127z
M733 1468h-155l350 301h219z" />
    <glyph glyph-name="Ucircumflex" unicode="&#xdb;" horiz-adv-x="1542" 
d="M1303 1247v-674q0 -146 -14.5 -233.5t-51.5 -153.5q-55 -100 -174.5 -157.5t-298.5 -57.5q-372 0 -479 232q-47 105 -47 366v678l-187 15v122h574v-124l-209 -13v-645q0 -226 30 -305q31 -78 113.5 -120t210.5 -42q239 0 311 141q45 86 45 316v655l-202 15v122h567v-127z
M580 1489h-136l256 258h148l254 -258h-137l-193 151z" />
    <glyph glyph-name="Udieresis" unicode="&#xdc;" horiz-adv-x="1542" 
d="M1303 1247v-674q0 -146 -14.5 -233.5t-51.5 -153.5q-55 -100 -174.5 -157.5t-298.5 -57.5q-372 0 -479 232q-47 105 -47 366v678l-187 15v122h574v-124l-209 -13v-645q0 -226 30 -305q31 -78 113.5 -120t210.5 -42q239 0 311 141q45 86 45 316v655l-202 15v122h567v-127z
M692 1624q0 -106 -100 -106q-98 0 -98 106q0 56 28 82.5t74 26.5q96 0 96 -109zM1061 1624q0 -106 -100 -106q-99 0 -99 106q0 55 28.5 82t74.5 27q96 0 96 -109z" />
    <glyph glyph-name="Yacute" unicode="&#xdd;" horiz-adv-x="1413" 
d="M1012 0h-615v123l217 16v406l-462 700l-150 17v122h578v-122l-209 -17q57 -87 133.5 -203t99.5 -151.5t53 -83t54 -88.5l34 56t32 52t46.5 70.5t54.5 81.5t79 117.5t100 148.5l-215 17v122h571v-122l-151 -17l-469 -700v-406l219 -16v-123zM690 1468h-155l350 301h219z
" />
    <glyph glyph-name="Thorn" unicode="&#xde;" horiz-adv-x="1312" 
d="M670 0h-602v123l211 16v1106l-211 17v122h602v-122l-211 -17v-155h164q204 0 309 -27q132 -38 195 -118t63 -224q0 -296 -277 -381q-105 -33 -317 -33h-137v-168l211 -16v-123zM459 461h139q159 0 238 26q163 56 163 232q0 142 -131 194q-77 31 -243 31h-166v-483z" />
    <glyph glyph-name="germandbls" unicode="&#xdf;" horiz-adv-x="1241" 
d="M416 0h-357v121l183 16v758q0 150 17 238.5t54 148.5q119 197 375 197q79 0 140.5 -18t98 -46.5t60.5 -66.5t32.5 -73.5t8.5 -72.5q0 -76 -34 -136t-103 -134q-56 -61 -75 -89.5t-19 -49.5q0 -26 17 -48t54 -53q99 -79 170 -147q105 -94 105 -232q0 -153 -102 -242
t-255 -89q-151 0 -286 69l57 152q43 -28 99.5 -45t107.5 -17q93 0 143.5 40.5t50.5 121.5q0 85 -71 146q-32 29 -99 83.5t-94 77.5q-73 65 -73 133q0 72 81 166q40 47 59 71t44 61t35 68.5t10 64.5q0 65 -41 111t-129 46q-130 0 -201 -98q-63 -89 -63 -293v-940z" />
    <glyph glyph-name="agrave" unicode="&#xe0;" horiz-adv-x="1155" 
d="M1116 135v-112q-63 -14 -161 -25.5t-179 -11.5l-12 133q-63 -69 -149 -106.5t-183 -37.5q-153 0 -234 91t-81 221q0 93 50 157.5t142 94.5q162 50 447 57v68q0 142 -29 176q-21 27 -56.5 39t-103.5 12q-142 0 -346 -62l-26 132q111 40 228.5 63t203.5 23q194 0 252 -101
q24 -40 33.5 -105.5t9.5 -181.5v-524h194zM758 236v239q-249 -8 -355 -45q-54 -19 -82 -56t-28 -87q0 -81 51 -123.5t133 -42.5q163 0 281 115zM729 1147h-139l-303 311h194z" />
    <glyph glyph-name="aacute" unicode="&#xe1;" horiz-adv-x="1155" 
d="M1116 135v-112q-63 -14 -161 -25.5t-179 -11.5l-12 133q-63 -69 -149 -106.5t-183 -37.5q-153 0 -234 91t-81 221q0 93 50 157.5t142 94.5q162 50 447 57v68q0 142 -29 176q-21 27 -56.5 39t-103.5 12q-142 0 -346 -62l-26 132q111 40 228.5 63t203.5 23q194 0 252 -101
q24 -40 33.5 -105.5t9.5 -181.5v-524h194zM758 236v239q-249 -8 -355 -45q-54 -19 -82 -56t-28 -87q0 -81 51 -123.5t133 -42.5q163 0 281 115zM575 1147h-137l248 311h195z" />
    <glyph glyph-name="acircumflex" unicode="&#xe2;" horiz-adv-x="1155" 
d="M1116 135v-112q-63 -14 -161 -25.5t-179 -11.5l-12 133q-63 -69 -149 -106.5t-183 -37.5q-153 0 -234 91t-81 221q0 93 50 157.5t142 94.5q162 50 447 57v68q0 142 -29 176q-21 27 -56.5 39t-103.5 12q-142 0 -346 -62l-26 132q111 40 228.5 63t203.5 23q194 0 252 -101
q24 -40 33.5 -105.5t9.5 -181.5v-524h194zM758 236v239q-249 -8 -355 -45q-54 -19 -82 -56t-28 -87q0 -81 51 -123.5t133 -42.5q163 0 281 115zM395 1147h-131l242 305h133l235 -305h-131l-174 194z" />
    <glyph glyph-name="atilde" unicode="&#xe3;" horiz-adv-x="1155" 
d="M1116 135v-112q-63 -14 -161 -25.5t-179 -11.5l-12 133q-63 -69 -149 -106.5t-183 -37.5q-153 0 -234 91t-81 221q0 93 50 157.5t142 94.5q162 50 447 57v68q0 142 -29 176q-21 27 -56.5 39t-103.5 12q-142 0 -346 -62l-26 132q111 40 228.5 63t203.5 23q194 0 252 -101
q24 -40 33.5 -105.5t9.5 -181.5v-524h194zM758 236v239q-249 -8 -355 -45q-54 -19 -82 -56t-28 -87q0 -81 51 -123.5t133 -42.5q163 0 281 115zM356 1165h-102q21 105 68.5 161t107.5 56q51 0 143 -47q76 -39 113 -39q30 0 48 20.5t38 78.5h96q-21 -114 -66 -169t-108 -55
q-33 0 -64 10.5t-85 37.5q-78 41 -107 41q-27 0 -46 -21.5t-36 -73.5z" />
    <glyph glyph-name="adieresis" unicode="&#xe4;" horiz-adv-x="1155" 
d="M1116 135v-112q-63 -14 -161 -25.5t-179 -11.5l-12 133q-63 -69 -149 -106.5t-183 -37.5q-153 0 -234 91t-81 221q0 93 50 157.5t142 94.5q162 50 447 57v68q0 142 -29 176q-21 27 -56.5 39t-103.5 12q-142 0 -346 -62l-26 132q111 40 228.5 63t203.5 23q194 0 252 -101
q24 -40 33.5 -105.5t9.5 -181.5v-524h194zM758 236v239q-249 -8 -355 -45q-54 -19 -82 -56t-28 -87q0 -81 51 -123.5t133 -42.5q163 0 281 115zM496 1303q0 -55 -27 -81t-74 -26q-42 0 -70 24.5t-28 82.5q0 55 28 81.5t74 26.5q97 0 97 -108zM844 1303q0 -55 -27 -81
t-74 -26q-42 0 -70 24.5t-28 82.5q0 55 28.5 81.5t74.5 26.5q96 0 96 -108z" />
    <glyph glyph-name="aring" unicode="&#xe5;" horiz-adv-x="1155" 
d="M1116 135v-112q-63 -14 -161 -25.5t-179 -11.5l-12 133q-63 -69 -149 -106.5t-183 -37.5q-153 0 -234 91t-81 221q0 93 50 157.5t142 94.5q162 50 447 57v68q0 142 -29 176q-21 27 -56.5 39t-103.5 12q-142 0 -346 -62l-26 132q111 40 228.5 63t203.5 23q194 0 252 -101
q24 -40 33.5 -105.5t9.5 -181.5v-524h194zM758 236v239q-249 -8 -355 -45q-54 -19 -82 -56t-28 -87q0 -81 51 -123.5t133 -42.5q163 0 281 115zM748 1305q0 -78 -51 -134.5t-132 -56.5q-80 0 -131 54t-51 132q0 83 52 135t132 52q84 0 132.5 -49t48.5 -133zM678 1303
q0 54 -31 86t-82 32t-80.5 -33.5t-29.5 -87.5q0 -52 29 -85t85 -33q51 0 80 34t29 87z" />
    <glyph glyph-name="ae" unicode="&#xe6;" horiz-adv-x="1738" 
d="M1659 123q-111 -77 -215.5 -115.5t-237.5 -38.5q-236 0 -356 172q-86 -75 -183.5 -120.5t-228.5 -45.5q-80 0 -143 26.5t-101 71.5t-57.5 100.5t-19.5 117.5q0 95 51.5 163t142.5 97q177 54 445 57v60q0 120 -31 168q-42 55 -158 55q-144 0 -348 -62l-29 132
q111 40 227.5 63t200.5 23q155 0 218 -74q37 -43 47 -111q57 91 152 138t208 47q94 0 165.5 -27t114.5 -70.5t70 -107.5t37 -130t10 -145q0 -39 -6 -82h-710v-28q0 -149 86 -242.5t227 -93.5q105 0 190 31.5t168 89.5zM760 485q-233 -4 -352 -43q-55 -19 -85 -56.5
t-30 -88.5q0 -85 53 -134.5t137 -49.5q96 0 168.5 37.5t143.5 101.5q-35 90 -35 233zM930 614h540q3 24 3 54q0 102 -57 169.5t-181 67.5q-120 0 -204 -74t-101 -217z" />
    <glyph glyph-name="ccedilla" unicode="&#xe7;" horiz-adv-x="1042" 
d="M332 -455l33 103q56 -19 110 -19q100 0 100 78q0 80 -106 80q-45 0 -72 -4l72 188q-180 15 -285.5 148t-105.5 356q0 280 139 426t375 146q166 0 287 -39q10 -51 10 -312h-129l-25 191q-68 16 -160 16q-151 0 -235 -106t-84 -308q0 -176 82.5 -270t216.5 -94
q90 0 161 25.5t163 82.5l59 -114q-188 -133 -369 -146l-37 -90q95 -7 136 -55t41 -113q0 -83 -64 -137.5t-180 -54.5q-64 0 -133 22z" />
    <glyph glyph-name="egrave" unicode="&#xe8;" horiz-adv-x="1112" 
d="M1032 123q-111 -77 -215 -115.5t-235 -38.5q-217 0 -339 145t-122 382q0 138 40 245.5t108.5 173t155.5 99t187 33.5q95 0 167 -25t116.5 -67t72 -103t38 -125t10.5 -141q0 -38 -6 -84h-713q0 -56 2 -76q11 -139 95.5 -222t219.5 -83q184 0 357 121zM846 633q2 14 2 45
q0 101 -57 166t-183 65q-116 0 -200 -69t-103 -207h541zM737 1147h-139l-303 311h194z" />
    <glyph glyph-name="eacute" unicode="&#xe9;" horiz-adv-x="1112" 
d="M1032 123q-111 -77 -215 -115.5t-235 -38.5q-217 0 -339 145t-122 382q0 138 40 245.5t108.5 173t155.5 99t187 33.5q95 0 167 -25t116.5 -67t72 -103t38 -125t10.5 -141q0 -38 -6 -84h-713q0 -56 2 -76q11 -139 95.5 -222t219.5 -83q184 0 357 121zM846 633q2 14 2 45
q0 101 -57 166t-183 65q-116 0 -200 -69t-103 -207h541zM604 1147h-137l248 311h194z" />
    <glyph glyph-name="ecircumflex" unicode="&#xea;" horiz-adv-x="1112" 
d="M1032 123q-111 -77 -215 -115.5t-235 -38.5q-217 0 -339 145t-122 382q0 138 40 245.5t108.5 173t155.5 99t187 33.5q95 0 167 -25t116.5 -67t72 -103t38 -125t10.5 -141q0 -38 -6 -84h-713q0 -56 2 -76q11 -139 95.5 -222t219.5 -83q184 0 357 121zM846 633q2 14 2 45
q0 101 -57 166t-183 65q-116 0 -200 -69t-103 -207h541zM430 1147h-131l242 305h133l235 -305h-131l-174 194z" />
    <glyph glyph-name="edieresis" unicode="&#xeb;" horiz-adv-x="1112" 
d="M1032 123q-111 -77 -215 -115.5t-235 -38.5q-217 0 -339 145t-122 382q0 138 40 245.5t108.5 173t155.5 99t187 33.5q95 0 167 -25t116.5 -67t72 -103t38 -125t10.5 -141q0 -38 -6 -84h-713q0 -56 2 -76q11 -139 95.5 -222t219.5 -83q184 0 357 121zM846 633q2 14 2 45
q0 101 -57 166t-183 65q-116 0 -200 -69t-103 -207h541zM530 1303q0 -107 -100 -107q-42 0 -70 24.5t-28 82.5q0 55 28 81.5t74 26.5q96 0 96 -108zM879 1303q0 -55 -27 -81t-74 -26q-42 0 -70 24.5t-28 82.5q0 55 28 81.5t74 26.5q97 0 97 -108z" />
    <glyph glyph-name="igrave" unicode="&#xec;" horiz-adv-x="663" 
d="M449 1147h-140l-303 311h195zM618 0h-540v121l186 16v729h-198v119q200 53 366 53v-901l186 -16v-121z" />
    <glyph glyph-name="iacute" unicode="&#xed;" horiz-adv-x="663" 
d="M289 1147h-137l247 311h195zM618 0h-540v121l186 16v729h-198v119q200 53 366 53v-901l186 -16v-121z" />
    <glyph glyph-name="icircumflex" unicode="&#xee;" horiz-adv-x="663" 
d="M618 0h-540v121l186 16v729h-198v119q200 53 366 53v-901l186 -16v-121zM133 1147h-131l242 305h133l235 -305h-131l-174 194z" />
    <glyph glyph-name="idieresis" unicode="&#xef;" horiz-adv-x="663" 
d="M242 1303q0 -55 -27 -81t-74 -26q-42 0 -70 24.5t-28 82.5q0 55 28 81.5t74 26.5q97 0 97 -108zM590 1303q0 -55 -27 -81t-74 -26q-42 0 -70 24.5t-28 82.5q0 55 28.5 81.5t74.5 26.5q96 0 96 -108zM618 0h-540v121l186 16v729h-198v119q200 53 366 53v-901l186 -16v-121
z" />
    <glyph glyph-name="eth" unicode="&#xf0;" horiz-adv-x="1198" 
d="M416 1067l-58 94l193 123q-89 60 -217 98l59 127q158 -39 289 -131l209 140l59 -93l-182 -120q150 -136 228.5 -335.5t78.5 -434.5q0 -118 -29 -217t-86.5 -177.5t-154 -123t-223.5 -44.5q-213 0 -337 140.5t-124 367.5q0 247 130.5 392t354.5 145q157 0 236 -105
q-68 183 -203 299zM899 498q0 391 -297 391q-93 0 -164 -52.5t-106 -134.5t-35 -178q0 -206 80 -302.5t225 -96.5q129 0 213 98.5t84 274.5z" />
    <glyph glyph-name="ntilde" unicode="&#xf1;" horiz-adv-x="1310" 
d="M618 0h-540v121l186 16v729h-198v117q73 22 180 38.5t180 16.5l6 -170q88 75 202.5 123.5t203.5 48.5q109 0 162 -46.5t67 -139.5q8 -59 8 -246v-471l199 -16v-121h-367v565q0 163 -16 232q-18 84 -129 84q-160 0 -330 -123v-621l186 -16v-121zM461 1165h-103
q21 104 69 160.5t108 56.5q51 0 143 -47q76 -39 113 -39q30 0 48 20.5t38 78.5h96q-21 -114 -66 -169t-108 -55q-54 0 -150 48q-78 41 -106 41q-27 0 -46 -21.5t-36 -73.5z" />
    <glyph glyph-name="ograve" unicode="&#xf2;" horiz-adv-x="1204" 
d="M1083 532q0 -268 -129.5 -415.5t-363.5 -147.5q-216 0 -342.5 139.5t-126.5 385.5q0 268 131 410.5t371 142.5q460 0 460 -515zM903 502q0 95 -12.5 163.5t-43.5 124.5t-90.5 84.5t-146.5 28.5q-153 0 -232 -103t-79 -274q0 -220 79 -316.5t224 -96.5q136 0 218.5 96.5
t82.5 292.5zM758 1147h-140l-303 311h195z" />
    <glyph glyph-name="oacute" unicode="&#xf3;" horiz-adv-x="1204" 
d="M1083 532q0 -268 -129.5 -415.5t-363.5 -147.5q-216 0 -342.5 139.5t-126.5 385.5q0 268 131 410.5t371 142.5q460 0 460 -515zM903 502q0 95 -12.5 163.5t-43.5 124.5t-90.5 84.5t-146.5 28.5q-153 0 -232 -103t-79 -274q0 -220 79 -316.5t224 -96.5q136 0 218.5 96.5
t82.5 292.5zM598 1147h-137l248 311h194z" />
    <glyph glyph-name="ocircumflex" unicode="&#xf4;" horiz-adv-x="1204" 
d="M1083 532q0 -268 -129.5 -415.5t-363.5 -147.5q-216 0 -342.5 139.5t-126.5 385.5q0 268 131 410.5t371 142.5q460 0 460 -515zM903 502q0 95 -12.5 163.5t-43.5 124.5t-90.5 84.5t-146.5 28.5q-153 0 -232 -103t-79 -274q0 -220 79 -316.5t224 -96.5q136 0 218.5 96.5
t82.5 292.5zM436 1147h-131l242 305h133l235 -305h-131l-174 194z" />
    <glyph glyph-name="otilde" unicode="&#xf5;" horiz-adv-x="1204" 
d="M1083 532q0 -268 -129.5 -415.5t-363.5 -147.5q-216 0 -342.5 139.5t-126.5 385.5q0 268 131 410.5t371 142.5q460 0 460 -515zM903 502q0 95 -12.5 163.5t-43.5 124.5t-90.5 84.5t-146.5 28.5q-153 0 -232 -103t-79 -274q0 -220 79 -316.5t224 -96.5q136 0 218.5 96.5
t82.5 292.5zM406 1165h-103q21 105 68.5 161t107.5 56q52 0 144 -47q76 -39 112 -39q30 0 48 20.5t38 78.5h97q-21 -114 -66.5 -169t-108.5 -55q-33 0 -64 10.5t-85 37.5q-78 41 -107 41q-27 0 -45.5 -21.5t-35.5 -73.5z" />
    <glyph glyph-name="odieresis" unicode="&#xf6;" horiz-adv-x="1204" 
d="M1083 532q0 -268 -129.5 -415.5t-363.5 -147.5q-216 0 -342.5 139.5t-126.5 385.5q0 268 131 410.5t371 142.5q460 0 460 -515zM903 502q0 95 -12.5 163.5t-43.5 124.5t-90.5 84.5t-146.5 28.5q-153 0 -232 -103t-79 -274q0 -220 79 -316.5t224 -96.5q136 0 218.5 96.5
t82.5 292.5zM539 1303q0 -55 -27 -81t-74 -26q-42 0 -70 24.5t-28 82.5q0 55 28 81.5t74 26.5q97 0 97 -108zM887 1303q0 -55 -27 -81t-74 -26q-42 0 -70 24.5t-28 82.5q0 55 28.5 81.5t74.5 26.5q96 0 96 -108z" />
    <glyph glyph-name="divide" unicode="&#xf7;" horiz-adv-x="1433" 
d="M807 942q0 -49 -25 -73.5t-65 -24.5q-88 0 -88 98q0 50 25.5 73t66.5 23q86 0 86 -96zM1249 539h-1065v133h1065v-133zM807 256q0 -49 -24.5 -72.5t-65.5 -23.5q-39 0 -63.5 23t-24.5 73q0 51 25.5 75.5t66.5 24.5q86 0 86 -100z" />
    <glyph glyph-name="oslash" unicode="&#xf8;" horiz-adv-x="1204" 
d="M244 -102l-94 59l100 147q-129 142 -129 390q0 268 131 410.5t371 142.5q141 0 241 -50l99 144l92 -62l-103 -147q131 -128 131 -400q0 -268 -129.5 -415.5t-363.5 -147.5q-145 0 -252 66zM903 502q0 190 -53 280l-424 -620q66 -49 176 -49q136 0 218.5 96.5t82.5 292.5z
M299 526q0 -177 51 -274l422 612q-64 39 -162 39q-153 0 -232 -103t-79 -274z" />
    <glyph glyph-name="ugrave" unicode="&#xf9;" horiz-adv-x="1267" 
d="M1225 14q-164 -32 -346 -32l-13 163q-191 -172 -383 -172q-228 0 -258 203q-10 74 -10 236v458h-197v117q212 47 367 47v-585q0 -151 12 -216q9 -48 50 -74t104 -26q145 0 307 127v610h-203v117q207 47 375 47v-905h195v-115zM752 1147h-140l-303 311h195z" />
    <glyph glyph-name="uacute" unicode="&#xfa;" horiz-adv-x="1267" 
d="M1225 14q-164 -32 -346 -32l-13 163q-191 -172 -383 -172q-228 0 -258 203q-10 74 -10 236v458h-197v117q212 47 367 47v-585q0 -151 12 -216q9 -48 50 -74t104 -26q145 0 307 127v610h-203v117q207 47 375 47v-905h195v-115zM586 1147h-137l247 311h195z" />
    <glyph glyph-name="ucircumflex" unicode="&#xfb;" horiz-adv-x="1267" 
d="M1225 14q-164 -32 -346 -32l-13 163q-191 -172 -383 -172q-228 0 -258 203q-10 74 -10 236v458h-197v117q212 47 367 47v-585q0 -151 12 -216q9 -48 50 -74t104 -26q145 0 307 127v610h-203v117q207 47 375 47v-905h195v-115zM432 1147h-131l242 305h133l235 -305h-131
l-174 194z" />
    <glyph glyph-name="udieresis" unicode="&#xfc;" horiz-adv-x="1267" 
d="M1225 14q-164 -32 -346 -32l-13 163q-191 -172 -383 -172q-228 0 -258 203q-10 74 -10 236v458h-197v117q212 47 367 47v-585q0 -151 12 -216q9 -48 50 -74t104 -26q145 0 307 127v610h-203v117q207 47 375 47v-905h195v-115zM549 1303q0 -107 -100 -107q-43 0 -71 24.5
t-28 82.5q0 55 28.5 81.5t74.5 26.5q96 0 96 -108zM897 1303q0 -107 -100 -107q-43 0 -71 24.5t-28 82.5q0 55 28.5 81.5t74.5 26.5q96 0 96 -108z" />
    <glyph glyph-name="yacute" unicode="&#xfd;" horiz-adv-x="1171" 
d="M158 -532l-45 151q157 25 250 116.5t165 264.5h-36l-353 877l-137 16v121h502v-121l-182 -14q156 -368 284 -721q126 377 248 721l-182 14v121h497v-121l-139 -16l-293 -807q-108 -296 -241 -431t-338 -171zM586 1147h-137l247 311h195z" />
    <glyph glyph-name="thorn" unicode="&#xfe;" horiz-adv-x="1236" 
d="M623 -487h-580v122l184 17v1687h-196v117q167 50 364 60v-631q202 157 381 157q167 0 253.5 -124.5t86.5 -370.5q0 -287 -127 -426t-350 -139q-139 0 -244 38v-368l228 -17v-122zM395 176q103 -47 238 -47q150 0 225.5 99.5t75.5 291.5q0 365 -223 365q-132 0 -316 -113
v-596z" />
    <glyph glyph-name="ydieresis" unicode="&#xff;" horiz-adv-x="1171" 
d="M158 -532l-45 151q157 25 250 116.5t165 264.5h-36l-353 877l-137 16v121h502v-121l-182 -14q156 -368 284 -721q126 377 248 721l-182 14v121h497v-121l-139 -16l-293 -807q-108 -296 -241 -431t-338 -171zM522 1303q0 -107 -100 -107q-42 0 -70 24.5t-28 82.5
q0 55 28 81.5t74 26.5q96 0 96 -108zM870 1303q0 -107 -100 -107q-42 0 -70 24.5t-28 82.5q0 55 28 81.5t74 26.5q96 0 96 -108z" />
    <glyph glyph-name="Amacron" unicode="&#x100;" horiz-adv-x="1454" 
d="M569 0h-571v123l152 16l471 1245h215l464 -1245l150 -16v-123h-571v123l223 16l-121 310h-516l-123 -310l227 -16v-123zM514 610h418q-149 404 -205 586q-39 -121 -213 -586zM1022 1532h-592v113h592v-113z" />
    <glyph glyph-name="amacron" unicode="&#x101;" horiz-adv-x="1155" 
d="M1116 135v-112q-63 -14 -161 -25.5t-179 -11.5l-12 133q-63 -69 -149 -106.5t-183 -37.5q-153 0 -234 91t-81 221q0 93 50 157.5t142 94.5q162 50 447 57v68q0 142 -29 176q-21 27 -56.5 39t-103.5 12q-142 0 -346 -62l-26 132q111 40 228.5 63t203.5 23q194 0 252 -101
q24 -40 33.5 -105.5t9.5 -181.5v-524h194zM758 236v239q-249 -8 -355 -45q-54 -19 -82 -56t-28 -87q0 -81 51 -123.5t133 -42.5q163 0 281 115zM864 1194h-575v115h575v-115z" />
    <glyph glyph-name="Abreve" unicode="&#x102;" horiz-adv-x="1454" 
d="M569 0h-571v123l152 16l471 1245h215l464 -1245l150 -16v-123h-571v123l223 16l-121 310h-516l-123 -310l227 -16v-123zM514 610h418q-149 404 -205 586q-39 -121 -213 -586zM1006 1755q-2 -118 -80 -195t-209 -77q-132 0 -205.5 78t-73.5 194h107q18 -160 174 -160
q87 0 130 44t50 116h107z" />
    <glyph glyph-name="abreve" unicode="&#x103;" horiz-adv-x="1155" 
d="M1116 135v-112q-63 -14 -161 -25.5t-179 -11.5l-12 133q-63 -69 -149 -106.5t-183 -37.5q-153 0 -234 91t-81 221q0 93 50 157.5t142 94.5q162 50 447 57v68q0 142 -29 176q-21 27 -56.5 39t-103.5 12q-142 0 -346 -62l-26 132q111 40 228.5 63t203.5 23q194 0 252 -101
q24 -40 33.5 -105.5t9.5 -181.5v-524h194zM758 236v239q-249 -8 -355 -45q-54 -19 -82 -56t-28 -87q0 -81 51 -123.5t133 -42.5q163 0 281 115zM858 1423q-2 -119 -76.5 -196.5t-199.5 -77.5q-127 0 -196 77.5t-71 196.5h103q7 -72 46.5 -116.5t119.5 -44.5q82 0 123.5 44.5
t48.5 116.5h102z" />
    <glyph glyph-name="Aogonek" unicode="&#x104;" horiz-adv-x="1454" 
d="M573 0h-571v123l152 16l471 1245h215l465 -1245l149 -16v-123h-188q-100 -75 -149.5 -139.5t-49.5 -128.5q0 -53 31.5 -81t79.5 -28q54 0 112 25l35 -97q-82 -47 -170 -47q-103 0 -162 56t-59 143q0 163 201 297h-252v123l223 16l-121 310h-516l-123 -310l227 -16v-123z
M518 610h418q-149 404 -205 586q-39 -121 -213 -586z" />
    <glyph glyph-name="aogonek" unicode="&#x105;" horiz-adv-x="1155" 
d="M1116 137v-112q-77 -20 -196 -29q-183 -141 -183 -254q0 -52 31 -78t76 -26q55 0 108 20l33 -92q-75 -45 -162 -45q-100 0 -155.5 53t-55.5 139q0 150 172 275h-8l-12 135q-63 -69 -149 -106t-183 -37q-79 0 -140.5 26t-99 70t-56.5 98.5t-19 116.5q0 93 50 157.5
t142 94.5q162 50 447 57v64q0 142 -29 176q-21 27 -56.5 39t-103.5 12q-142 0 -346 -62l-26 132q111 40 228.5 63t203.5 23q194 0 252 -101q24 -40 33.5 -105.5t9.5 -181.5v-522h194zM758 240v239q-249 -8 -355 -45q-54 -19 -82 -56t-28 -87q0 -81 51 -123.5t133 -42.5
q163 0 281 115z" />
    <glyph glyph-name="Cacute" unicode="&#x106;" horiz-adv-x="1347" 
d="M1276 188q-242 -221 -547 -221q-129 0 -240 47.5t-191 134.5t-125.5 217t-45.5 287q0 364 178 564t502 200q207 0 403 -49q13 -61 13 -377h-138l-28 236q-103 28 -250 28q-81 0 -152 -20t-133.5 -65.5t-107.5 -113t-71 -168t-26 -224.5q0 -242 125 -384.5t322 -142.5
q230 0 430 170zM766 1483h-156l351 301h219z" />
    <glyph glyph-name="cacute" unicode="&#x107;" horiz-adv-x="1042" 
d="M977 119q-104 -73 -204.5 -111.5t-219.5 -38.5q-198 0 -317 135t-119 371q0 280 139 426t375 146q166 0 287 -39q10 -51 10 -312h-129l-25 191q-68 16 -160 16q-151 0 -235 -106t-84 -308q0 -176 82.5 -270t216.5 -94q90 0 161 25.5t163 82.5zM629 1147h-137l247 311h195
z" />
    <glyph glyph-name="Ccircumflex" unicode="&#x108;" horiz-adv-x="1347" 
d="M1276 188q-242 -221 -547 -221q-129 0 -240 47.5t-191 134.5t-125.5 217t-45.5 287q0 364 178 564t502 200q207 0 403 -49q13 -61 13 -377h-138l-28 236q-103 28 -250 28q-81 0 -152 -20t-133.5 -65.5t-107.5 -113t-71 -168t-26 -224.5q0 -242 125 -384.5t322 -142.5
q230 0 430 170zM604 1489h-135l256 258h147l254 -258h-137l-192 151z" />
    <glyph glyph-name="ccircumflex" unicode="&#x109;" horiz-adv-x="1042" 
d="M977 119q-104 -73 -204.5 -111.5t-219.5 -38.5q-198 0 -317 135t-119 371q0 280 139 426t375 146q166 0 287 -39q10 -51 10 -312h-129l-25 191q-68 16 -160 16q-151 0 -235 -106t-84 -308q0 -176 82.5 -270t216.5 -94q90 0 161 25.5t163 82.5zM422 1147h-131l241 305h134
l235 -305h-131l-174 194z" />
    <glyph glyph-name="Cdotaccent" unicode="&#x10a;" horiz-adv-x="1347" 
d="M1276 188q-242 -221 -547 -221q-129 0 -240 47.5t-191 134.5t-125.5 217t-45.5 287q0 364 178 564t502 200q207 0 403 -49q13 -61 13 -377h-138l-28 236q-103 28 -250 28q-81 0 -152 -20t-133.5 -65.5t-107.5 -113t-71 -168t-26 -224.5q0 -242 125 -384.5t322 -142.5
q230 0 430 170zM881 1624q0 -106 -101 -106q-98 0 -98 106q0 56 28 82.5t74 26.5q97 0 97 -109z" />
    <glyph glyph-name="cdotaccent" unicode="&#x10b;" horiz-adv-x="1042" 
d="M977 119q-104 -73 -204.5 -111.5t-219.5 -38.5q-198 0 -317 135t-119 371q0 280 139 426t375 146q166 0 287 -39q10 -51 10 -312h-129l-25 191q-68 16 -160 16q-151 0 -235 -106t-84 -308q0 -176 82.5 -270t216.5 -94q90 0 161 25.5t163 82.5zM698 1303q0 -107 -100 -107
q-42 0 -70 24.5t-28 82.5q0 55 28 81.5t74 26.5q96 0 96 -108z" />
    <glyph glyph-name="Ccaron" unicode="&#x10c;" horiz-adv-x="1347" 
d="M1276 188q-242 -221 -547 -221q-129 0 -240 47.5t-191 134.5t-125.5 217t-45.5 287q0 364 178 564t502 200q207 0 403 -49q13 -61 13 -377h-138l-28 236q-103 28 -250 28q-81 0 -152 -20t-133.5 -65.5t-107.5 -113t-71 -168t-26 -224.5q0 -242 125 -384.5t322 -142.5
q230 0 430 170zM977 1747h135l-256 -258h-147l-254 258h137l192 -150z" />
    <glyph glyph-name="ccaron" unicode="&#x10d;" horiz-adv-x="1042" 
d="M977 119q-104 -73 -204.5 -111.5t-219.5 -38.5q-198 0 -317 135t-119 371q0 280 139 426t375 146q166 0 287 -39q10 -51 10 -312h-129l-25 191q-68 16 -160 16q-151 0 -235 -106t-84 -308q0 -176 82.5 -270t216.5 -94q90 0 161 25.5t163 82.5zM760 1442h129l-240 -307
h-135l-235 307h133l174 -197z" />
    <glyph glyph-name="Dcaron" unicode="&#x10e;" horiz-adv-x="1519" 
d="M68 0v123l211 16v1106l-211 17v122h473q304 0 446 -43q94 -29 165.5 -76t127 -118.5t84.5 -174.5t29 -235q0 -130 -22 -235.5t-69.5 -194t-127 -152t-189.5 -100.5q-101 -34 -219 -44.5t-274 -10.5h-424zM459 160h119q188 0 319 43q158 49 228.5 181.5t70.5 342.5
q0 309 -203 426q-123 72 -387 72h-147v-1065zM858 1747h135l-256 -258h-147l-254 258h137l193 -150z" />
    <glyph glyph-name="dcaron" unicode="&#x10f;" horiz-adv-x="1253" 
d="M1208 129v-115q-163 -32 -346 -32l-12 143q-148 -148 -334 -148q-178 0 -286.5 131t-108.5 379q0 119 27.5 213.5t74 157t112 104t137.5 59t153 17.5q130 0 221 -39v340h-205v117q196 57 375 60v-1387h192zM846 244v604q-100 35 -207 35q-163 0 -250.5 -96t-87.5 -283
q0 -375 262 -375q81 0 143 28t140 87zM1341 1503q-13 -104 -47.5 -212.5t-74.5 -188.5h-117q65 159 88 401h151z" />
    <glyph glyph-name="Dcroat" unicode="&#x110;" horiz-adv-x="1519" 
d="M55 676v123h224v446l-211 17v122h473q304 0 446 -43q406 -118 406 -604q0 -130 -22 -235.5t-69.5 -194t-127 -152t-189.5 -100.5q-101 -34 -219 -44.5t-274 -10.5h-424v123l211 16v537h-224zM459 160h119q188 0 319 43q159 52 229 183t70 341q0 306 -203 426
q-123 72 -387 72h-147v-426h315v-123h-315v-516z" />
    <glyph glyph-name="dcroat" unicode="&#x111;" horiz-adv-x="1253" 
d="M1208 129v-115q-163 -32 -346 -32l-12 143q-148 -148 -334 -148q-179 0 -287 128.5t-108 375.5q0 119 27.5 213.5t74 156.5t112 103t137.5 58.5t153 17.5q130 0 221 -39v142h-301v94h301v123h-205v106q196 57 375 60v-289h162v-94h-162v-1004h192zM846 244v594
q-103 36 -207 36q-163 0 -250.5 -94.5t-87.5 -281.5q0 -87 14.5 -153t38 -106.5t58.5 -65.5t71 -34.5t80 -9.5q81 0 143 28t140 87z" />
    <glyph glyph-name="Emacron" unicode="&#x112;" horiz-adv-x="1273" 
d="M1155 0h-1087v123l211 16v1106l-211 17v122h1024q16 -68 16 -370h-129l-29 209h-491v-426h502v-162h-502v-477h551l30 235h129q0 -311 -14 -393zM940 1532h-592v113h592v-113z" />
    <glyph glyph-name="emacron" unicode="&#x113;" horiz-adv-x="1112" 
d="M1032 123q-111 -77 -215 -115.5t-235 -38.5q-217 0 -339 145t-122 382q0 138 40 245.5t108.5 173t155.5 99t187 33.5q95 0 167 -25t116.5 -67t72 -103t38 -125t10.5 -141q0 -38 -6 -84h-713q0 -56 2 -76q11 -139 95.5 -222t219.5 -83q184 0 357 121zM846 633q2 14 2 45
q0 101 -57 166t-183 65q-116 0 -200 -69t-103 -207h541zM887 1194h-576v115h576v-115z" />
    <glyph glyph-name="Ebreve" unicode="&#x114;" horiz-adv-x="1273" 
d="M1155 0h-1087v123l211 16v1106l-211 17v122h1024q16 -68 16 -370h-129l-29 209h-491v-426h502v-162h-502v-477h551l30 235h129q0 -311 -14 -393zM934 1755q-2 -118 -80 -195t-209 -77q-132 0 -205 78t-73 194h106q18 -160 174 -160q87 0 130 44t50 116h107z" />
    <glyph glyph-name="ebreve" unicode="&#x115;" horiz-adv-x="1112" 
d="M1032 123q-111 -77 -215 -115.5t-235 -38.5q-217 0 -339 145t-122 382q0 138 40 245.5t108.5 173t155.5 99t187 33.5q95 0 167 -25t116.5 -67t72 -103t38 -125t10.5 -141q0 -38 -6 -84h-713q0 -56 2 -76q11 -139 95.5 -222t219.5 -83q184 0 357 121zM846 633q2 14 2 45
q0 101 -57 166t-183 65q-116 0 -200 -69t-103 -207h541zM870 1423q-2 -119 -76.5 -196.5t-199.5 -77.5q-126 0 -195 77.5t-71 196.5h102q7 -72 46.5 -116.5t119.5 -44.5q82 0 123.5 44.5t48.5 116.5h102z" />
    <glyph glyph-name="Edotaccent" unicode="&#x116;" horiz-adv-x="1273" 
d="M1155 0h-1087v123l211 16v1106l-211 17v122h1024q16 -68 16 -370h-129l-29 209h-491v-426h502v-162h-502v-477h551l30 235h129q0 -311 -14 -393zM745 1624q0 -106 -100 -106q-98 0 -98 106q0 56 28 82.5t74 26.5q96 0 96 -109z" />
    <glyph glyph-name="edotaccent" unicode="&#x117;" horiz-adv-x="1112" 
d="M1032 123q-111 -77 -215 -115.5t-235 -38.5q-217 0 -339 145t-122 382q0 138 40 245.5t108.5 173t155.5 99t187 33.5q95 0 167 -25t116.5 -67t72 -103t38 -125t10.5 -141q0 -38 -6 -84h-713q0 -56 2 -76q11 -139 95.5 -222t219.5 -83q184 0 357 121zM846 633q2 14 2 45
q0 101 -57 166t-183 65q-116 0 -200 -69t-103 -207h541zM702 1303q0 -107 -100 -107q-42 0 -70 24.5t-28 82.5q0 55 28 81.5t74 26.5q96 0 96 -108z" />
    <glyph glyph-name="Eogonek" unicode="&#x118;" horiz-adv-x="1273" 
d="M1155 0h-84q-100 -75 -149.5 -139.5t-49.5 -128.5q0 -53 31.5 -81t79.5 -28q55 0 113 25l34 -97q-82 -47 -169 -47q-103 0 -162.5 56t-59.5 143q0 163 201 297h-872v123l211 16v1106l-211 17v122h1024q16 -68 16 -370h-129l-29 209h-491v-426h502v-162h-502v-477h551
l30 235h129q0 -311 -14 -393z" />
    <glyph glyph-name="eogonek" unicode="&#x119;" horiz-adv-x="1112" 
d="M1032 123q-150 -103 -284 -135q-173 -137 -173 -246q0 -52 31 -78t76 -26q56 0 109 20l32 -92q-75 -45 -161 -45q-100 0 -155.5 53t-55.5 139q0 138 147 256h-16q-217 0 -339 145t-122 382q0 138 40 245.5t108.5 173t155.5 99t187 33.5q95 0 167 -25t116.5 -67t72 -103
t38 -125t10.5 -141q0 -38 -6 -84h-713q0 -56 2 -76q11 -139 95.5 -222t219.5 -83q184 0 357 121zM846 633q2 14 2 45q0 101 -57 166t-183 65q-116 0 -200 -69t-103 -207h541z" />
    <glyph glyph-name="Ecaron" unicode="&#x11a;" horiz-adv-x="1273" 
d="M1155 0h-1087v123l211 16v1106l-211 17v122h1024q16 -68 16 -370h-129l-29 209h-491v-426h502v-162h-502v-477h551l30 235h129q0 -311 -14 -393zM842 1747h135l-256 -258h-148l-254 258h138l192 -150z" />
    <glyph glyph-name="ecaron" unicode="&#x11b;" horiz-adv-x="1112" 
d="M1032 123q-111 -77 -215 -115.5t-235 -38.5q-217 0 -339 145t-122 382q0 138 40 245.5t108.5 173t155.5 99t187 33.5q95 0 167 -25t116.5 -67t72 -103t38 -125t10.5 -141q0 -38 -6 -84h-713q0 -56 2 -76q11 -139 95.5 -222t219.5 -83q184 0 357 121zM846 633q2 14 2 45
q0 101 -57 166t-183 65q-116 0 -200 -69t-103 -207h541zM793 1442h129l-240 -307h-135l-236 307h133l174 -197z" />
    <glyph glyph-name="Gcircumflex" unicode="&#x11c;" horiz-adv-x="1462" 
d="M1280 78q-129 -54 -246 -81.5t-289 -27.5q-276 0 -447 184t-171 500q0 364 181.5 564t512.5 200q224 0 420 -49q9 -38 11.5 -107.5t2.5 -259.5h-137l-26 222q-124 30 -258 30q-111 0 -202.5 -33.5t-163 -102.5t-111.5 -185.5t-40 -272.5q0 -247 125 -382.5t332 -135.5
q106 0 175.5 13t156.5 43v356l-219 14v123h524v-123l-131 -10v-479zM592 1489h-135l256 258h147l254 -258h-137l-193 151z" />
    <glyph glyph-name="gcircumflex" unicode="&#x11d;" horiz-adv-x="1067" 
d="M373 342q-68 -56 -68 -104q0 -33 22.5 -53.5t96.5 -28.5l332 -39q148 -18 214 -86t66 -187q0 -169 -142.5 -271.5t-381.5 -102.5q-223 0 -334.5 77t-111.5 201q0 162 229 270q-137 33 -137 160q0 86 121 207q-71 40 -109.5 119t-38.5 170q0 74 25 140t73 118.5
t127.5 83.5t180.5 31q120 0 200 -41h312v-136h-195q31 -32 47.5 -85.5t16.5 -108.5q0 -171 -108.5 -264t-287.5 -93q-82 0 -149 23zM410 -10q-92 -47 -135.5 -101t-43.5 -106q0 -84 84.5 -128t223.5 -44q151 0 235 59t84 135t-48 116t-175 50zM756 674q0 102 -55.5 169.5
t-170.5 67.5q-75 0 -127.5 -35t-75 -86t-22.5 -112q0 -110 61 -168.5t160 -58.5q105 0 167.5 58t62.5 165zM367 1147h-131l241 305h133l236 -305h-131l-174 194z" />
    <glyph glyph-name="Gbreve" unicode="&#x11e;" horiz-adv-x="1462" 
d="M1280 78q-129 -54 -246 -81.5t-289 -27.5q-276 0 -447 184t-171 500q0 364 181.5 564t512.5 200q224 0 420 -49q9 -38 11.5 -107.5t2.5 -259.5h-137l-26 222q-124 30 -258 30q-111 0 -202.5 -33.5t-163 -102.5t-111.5 -185.5t-40 -272.5q0 -247 125 -382.5t332 -135.5
q106 0 175.5 13t156.5 43v356l-219 14v123h524v-123l-131 -10v-479zM1073 1755q-2 -118 -80 -195t-209 -77q-132 0 -205 78t-73 194h106q18 -160 174 -160q87 0 130.5 44t50.5 116h106z" />
    <glyph glyph-name="gbreve" unicode="&#x11f;" horiz-adv-x="1067" 
d="M373 342q-68 -56 -68 -104q0 -33 22.5 -53.5t96.5 -28.5l332 -39q148 -18 214 -86t66 -187q0 -169 -142.5 -271.5t-381.5 -102.5q-223 0 -334.5 77t-111.5 201q0 162 229 270q-137 33 -137 160q0 86 121 207q-71 40 -109.5 119t-38.5 170q0 74 25 140t73 118.5
t127.5 83.5t180.5 31q120 0 200 -41h312v-136h-195q31 -32 47.5 -85.5t16.5 -108.5q0 -171 -108.5 -264t-287.5 -93q-82 0 -149 23zM410 -10q-92 -47 -135.5 -101t-43.5 -106q0 -84 84.5 -128t223.5 -44q151 0 235 59t84 135t-48 116t-175 50zM756 674q0 102 -55.5 169.5
t-170.5 67.5q-75 0 -127.5 -35t-75 -86t-22.5 -112q0 -110 61 -168.5t160 -58.5q105 0 167.5 58t62.5 165zM819 1423q-2 -119 -76.5 -196.5t-199.5 -77.5q-127 0 -196 77.5t-71 196.5h103q7 -72 46.5 -116.5t119.5 -44.5q82 0 123.5 44.5t48.5 116.5h102z" />
    <glyph glyph-name="Gdotaccent" unicode="&#x120;" horiz-adv-x="1462" 
d="M1280 78q-129 -54 -246 -81.5t-289 -27.5q-276 0 -447 184t-171 500q0 364 181.5 564t512.5 200q224 0 420 -49q9 -38 11.5 -107.5t2.5 -259.5h-137l-26 222q-124 30 -258 30q-111 0 -202.5 -33.5t-163 -102.5t-111.5 -185.5t-40 -272.5q0 -247 125 -382.5t332 -135.5
q106 0 175.5 13t156.5 43v356l-219 14v123h524v-123l-131 -10v-479zM897 1624q0 -106 -100 -106q-99 0 -99 106q0 55 28.5 82t74.5 27q96 0 96 -109z" />
    <glyph glyph-name="gdotaccent" unicode="&#x121;" horiz-adv-x="1067" 
d="M373 342q-68 -56 -68 -104q0 -33 22.5 -53.5t96.5 -28.5l332 -39q148 -18 214 -86t66 -187q0 -169 -142.5 -271.5t-381.5 -102.5q-223 0 -334.5 77t-111.5 201q0 162 229 270q-137 33 -137 160q0 86 121 207q-71 40 -109.5 119t-38.5 170q0 74 25 140t73 118.5
t127.5 83.5t180.5 31q120 0 200 -41h312v-136h-195q31 -32 47.5 -85.5t16.5 -108.5q0 -171 -108.5 -264t-287.5 -93q-82 0 -149 23zM410 -10q-92 -47 -135.5 -101t-43.5 -106q0 -84 84.5 -128t223.5 -44q151 0 235 59t84 135t-48 116t-175 50zM756 674q0 102 -55.5 169.5
t-170.5 67.5q-75 0 -127.5 -35t-75 -86t-22.5 -112q0 -110 61 -168.5t160 -58.5q105 0 167.5 58t62.5 165zM639 1303q0 -107 -100 -107q-43 0 -71 24.5t-28 82.5q0 55 28.5 81.5t74.5 26.5q96 0 96 -108z" />
    <glyph glyph-name="Gcommaaccent" unicode="&#x122;" horiz-adv-x="1462" 
d="M1280 78q-129 -54 -246 -81.5t-289 -27.5q-276 0 -447 184t-171 500q0 364 181.5 564t512.5 200q224 0 420 -49q9 -38 11.5 -107.5t2.5 -259.5h-137l-26 222q-124 30 -258 30q-111 0 -202.5 -33.5t-163 -102.5t-111.5 -185.5t-40 -272.5q0 -247 125 -382.5t332 -135.5
q106 0 175.5 13t156.5 43v356l-219 14v123h524v-123l-131 -10v-479zM825 -111q-24 -198 -123 -401h-116q65 159 88 401h151z" />
    <glyph glyph-name="gcommaaccent" unicode="&#x123;" horiz-adv-x="1067" 
d="M373 342q-68 -56 -68 -104q0 -16 3.5 -27t14.5 -23t36.5 -20t64.5 -12l332 -39q148 -18 215 -86t67 -187q0 -169 -143.5 -271.5t-382.5 -102.5q-223 0 -334.5 77t-111.5 201q0 162 229 270q-137 33 -137 160q0 86 121 207q-71 40 -109.5 119t-38.5 170q0 74 25 140
t73 118.5t127.5 83.5t180.5 31q120 0 200 -41h312v-136h-195q31 -32 47.5 -85.5t16.5 -108.5q0 -171 -108.5 -264t-287.5 -93q-82 0 -149 23zM410 -10q-93 -47 -137 -101.5t-44 -105.5q0 -83 85.5 -127.5t224.5 -44.5q150 0 232.5 58.5t82.5 135.5q0 75 -46 114t-173 52z
M756 674q0 102 -55.5 169.5t-170.5 67.5q-75 0 -127.5 -35t-75 -86t-22.5 -112q0 -110 61 -168.5t160 -58.5q105 0 167.5 58t62.5 165zM453 1163q28 203 125 398h114q-28 -67 -53 -178t-35 -220h-151z" />
    <glyph glyph-name="Hcircumflex" unicode="&#x124;" horiz-adv-x="1601" 
d="M786 0h-589v123l211 16v1106l-211 17v122h589v-122l-198 -17v-448h684v448l-199 17v122h590v-122l-211 -17v-1106l211 -16v-123h-590v123l199 16v496h-684v-496l198 -16v-123zM739 1489h-135l256 258h148l254 -258h-138l-192 151z" />
    <glyph glyph-name="hcircumflex" unicode="&#x125;" horiz-adv-x="1290" 
d="M596 0h-537v121l183 16v1202h-199v117q83 26 184.5 41.5t180.5 15.5v-645q90 75 205 123.5t200 48.5q109 0 164 -47t67 -139q9 -64 9 -244v-473l198 -16v-121h-366v565q0 167 -15 232q-18 84 -133 84q-157 0 -327 -125v-619l186 -16v-121zM143 1538h-135l256 258h148
l254 -258h-138l-192 152z" />
    <glyph glyph-name="Hbar" unicode="&#x126;" horiz-adv-x="1601" 
d="M657 0h-589v123l211 16v813h-191v117h191v176l-211 17v122h589v-122l-198 -17v-176h684v176l-199 17v122h590v-122l-211 -17v-176h188v-117h-188v-813l211 -16v-123h-590v123l199 16v502h-684v-502l198 -16v-123zM459 786h684v166h-684v-166z" />
    <glyph glyph-name="hbar" unicode="&#x127;" horiz-adv-x="1290" 
d="M596 0h-537v121l183 16v996h-215v94h215v123h-199v106q83 26 184.5 41.5t180.5 15.5v-286h258v-94h-258v-275q90 75 207.5 123.5t205.5 48.5q107 0 159 -44.5t64 -135.5q9 -64 9 -248v-465l198 -16v-121h-366v557q0 163 -15 231q-21 84 -133 84q-155 0 -327 -124v-611
l186 -16v-121z" />
    <glyph glyph-name="Itilde" unicode="&#x128;" horiz-adv-x="739" 
d="M672 0h-604v123l211 16v1106l-211 17v122h604v-122l-211 -17v-1106l211 -16v-123zM152 1489h-105q23 105 71.5 161t112.5 56q52 0 152 -47q80 -39 121 -39q32 0 51 20.5t39 77.5h100q-41 -223 -182 -223q-61 0 -158 47q-90 41 -114 41q-28 0 -48 -21t-40 -73z" />
    <glyph glyph-name="itilde" unicode="&#x129;" horiz-adv-x="663" 
d="M100 1165h-102q21 105 68.5 161t107.5 56q51 0 143 -47q76 -39 113 -39q30 0 48 20.5t38 78.5h96q-21 -114 -66 -169t-108 -55q-33 0 -64 10.5t-85 37.5q-78 41 -107 41q-27 0 -46 -21.5t-36 -73.5zM618 0h-540v121l186 16v729h-198v119q200 53 366 53v-901l186 -16v-121
z" />
    <glyph glyph-name="Imacron" unicode="&#x12a;" horiz-adv-x="739" 
d="M672 0h-604v123l211 16v1106l-211 17v122h604v-122l-211 -17v-1106l211 -16v-123zM664 1540h-592v113h592v-113z" />
    <glyph glyph-name="imacron" unicode="&#x12b;" horiz-adv-x="663" 
d="M606 1194h-575v115h575v-115zM618 0h-540v121l186 16v729h-198v119q200 53 366 53v-901l186 -16v-121z" />
    <glyph glyph-name="Ibreve" unicode="&#x12c;" horiz-adv-x="739" 
d="M672 0h-604v123l211 16v1106l-211 17v122h604v-122l-211 -17v-1106l211 -16v-123zM649 1755q-2 -118 -80 -195t-209 -77q-132 0 -205 78t-73 194h106q18 -160 174 -160q87 0 130.5 44t50.5 116h106z" />
    <glyph glyph-name="ibreve" unicode="&#x12d;" horiz-adv-x="663" 
d="M592 1423q-2 -118 -77 -196t-200 -78q-126 0 -195 77.5t-71 196.5h103q15 -161 165 -161q82 0 123.5 44.5t48.5 116.5h103zM618 0h-540v121l186 16v729h-198v119q200 53 366 53v-901l186 -16v-121z" />
    <glyph glyph-name="Iogonek" unicode="&#x12e;" horiz-adv-x="739" 
d="M672 0h-207q-100 -75 -149.5 -139.5t-49.5 -128.5q0 -53 31.5 -81t79.5 -28q54 0 112 25l35 -97q-82 -47 -170 -47q-103 0 -162 56t-59 143q0 163 201 297h-266v123l211 16v1106l-211 17v122h604v-122l-211 -17v-1106l211 -16v-123z" />
    <glyph glyph-name="iogonek" unicode="&#x12f;" horiz-adv-x="663" 
d="M618 0h-182q-188 -143 -188 -258q0 -52 30.5 -78t75.5 -26q56 0 109 20l33 -92q-75 -45 -162 -45q-100 0 -155.5 53t-55.5 139q0 160 188 287h-233v121l186 16v729h-198v119q200 53 366 53v-901l186 -16v-121zM432 1317q0 -59 -31.5 -89t-83.5 -30q-46 0 -78 29t-32 90
q0 60 32 90.5t80 30.5q113 0 113 -121z" />
    <glyph glyph-name="Idotaccent" unicode="&#x130;" horiz-adv-x="739" 
d="M672 0h-604v123l211 16v1106l-211 17v122h604v-122l-211 -17v-1106l211 -16v-123zM465 1624q0 -106 -100 -106q-99 0 -99 106q0 55 28.5 82t74.5 27q96 0 96 -109z" />
    <glyph glyph-name="dotlessi" unicode="&#x131;" horiz-adv-x="663" 
d="M618 0h-540v121l186 16v729h-198v119q200 53 366 53v-901l186 -16v-121z" />
    <glyph glyph-name="IJ" unicode="&#x132;" horiz-adv-x="1630" 
d="M672 0h-604v123l211 16v1106l-211 17v122h604v-122l-211 -17v-1106l211 -16v-123zM1384 1245v-770q0 -118 -7 -189t-29 -124q-33 -83 -117 -135t-207 -52q-154 0 -260 39l41 158q97 -33 194 -33q116 0 168 86q37 57 37 244v776l-229 17v122h600v-122z" />
    <glyph glyph-name="ij" unicode="&#x133;" horiz-adv-x="1286" 
d="M432 1317q0 -59 -31.5 -89t-83.5 -30q-46 0 -78 29t-32 90q0 60 32 90.5t80 30.5q113 0 113 -121zM618 0h-540v121l186 16v729h-198v119q200 53 366 53v-901l186 -16v-121zM664 -530l-46 135q199 71 252 196q31 77 31 236v829h-199v119q203 53 365 53v-1013
q0 -210 -45 -295q-42 -84 -137 -154t-221 -106zM1067 1317q0 -59 -31.5 -89t-83.5 -30q-46 0 -78 29t-32 90q0 60 32.5 90.5t81.5 30.5q50 0 80.5 -29t30.5 -92z" />
    <glyph glyph-name="Jcircumflex" unicode="&#x134;" horiz-adv-x="890" 
d="M647 1245v-770q0 -117 -7.5 -188t-29.5 -125q-33 -83 -116.5 -135t-206.5 -52q-154 0 -260 39l41 158q97 -33 194 -33q116 0 168 86q37 57 37 244v776l-229 17v122h600v-122zM340 1489h-135l256 258h147l254 -258h-137l-193 151z" />
    <glyph glyph-name="jcircumflex" unicode="&#x135;" horiz-adv-x="624" 
d="M4 -530l-45 135q199 71 252 196q31 77 31 236v819h-199v119q191 53 365 53v-1003q0 -208 -46 -295q-42 -84 -137 -154t-221 -106zM98 1147h-129l240 305h135l236 -305h-134l-174 194z" />
    <glyph glyph-name="Kcommaaccent" unicode="&#x136;" horiz-adv-x="1447" 
d="M664 0h-596v123l211 16v1106l-211 17v122h585v-122l-192 -17v-579q72 72 274.5 295t265.5 288l-149 13v122h537v-122l-181 -17q-45 -45 -206.5 -220t-213.5 -226l259 -393q82 -124 131 -173q75 -79 170 -79q41 0 79 10l13 -162q-56 -18 -123 -18q-83 0 -140 22.5
t-118 77.5q-82 76 -160 201l-237 370l-201 -202v-314l203 -16v-123zM823 -111q-24 -198 -123 -401h-116q65 159 88 401h151z" />
    <glyph glyph-name="kcommaaccent" unicode="&#x137;" horiz-adv-x="1200" 
d="M592 0h-533v121l183 16v1202h-199v117q79 24 182 40.5t185 16.5v-995q228 216 364 363l-143 14v119h502v-117l-152 -14q-103 -100 -283 -269l183 -290q69 -106 120 -146q53 -43 132 -43q33 0 51 4l6 -137q-63 -14 -115 -14q-119 0 -196 65q-53 45 -121 152l-183 295
l-165 -146v-217l182 -16v-121zM715 -111q-24 -198 -123 -401h-117q65 159 88 401h152z" />
    <glyph glyph-name="kgreenlandic" unicode="&#x138;" horiz-adv-x="1200" 
d="M592 0h-533v121l183 16v729h-199v115q81 25 183.5 42t183.5 17v-522q228 216 364 363l-143 14v119h502v-117l-152 -14q-103 -100 -283 -269l183 -286q69 -106 120 -146q53 -43 132 -43q33 0 51 4l6 -137q-63 -14 -115 -14q-119 0 -196 65q-53 45 -121 152l-183 291
l-165 -146v-217l182 -16v-121z" />
    <glyph glyph-name="Lacute" unicode="&#x139;" horiz-adv-x="1263" 
d="M1155 0h-1087v123l211 16v1106l-211 17v122h616v-124l-225 -15v-1087h559l24 235h127q0 -316 -14 -393zM379 1470h-156l350 302h220z" />
    <glyph glyph-name="lacute" unicode="&#x13a;" horiz-adv-x="641" 
d="M596 0h-537v121l183 16v1202h-199v117q197 57 367 57v-1376l186 -16v-121zM205 1559h-156l350 301h219z" />
    <glyph glyph-name="Lcommaaccent" unicode="&#x13b;" horiz-adv-x="1263" 
d="M1155 0h-1087v123l211 16v1106l-211 17v122h616v-124l-225 -15v-1087h559l24 235h127q0 -316 -14 -393zM729 -111q-24 -198 -123 -401h-117q29 70 54 181t35 220h151z" />
    <glyph glyph-name="lcommaaccent" unicode="&#x13c;" horiz-adv-x="641" 
d="M596 0h-537v121l183 16v1202h-199v117q197 57 367 57v-1376l186 -16v-121zM416 -111q-24 -198 -123 -401h-117q65 159 88 401h152z" />
    <glyph glyph-name="Lcaron" unicode="&#x13d;" horiz-adv-x="1263" 
d="M1155 0h-1087v123l211 16v1106l-211 17v122h616v-124l-225 -15v-1087h559l24 235h127q0 -316 -14 -393zM993 1391q-25 -205 -123 -402h-116q28 69 53 180.5t35 221.5h151z" />
    <glyph glyph-name="lcaron" unicode="&#x13e;" horiz-adv-x="641" 
d="M596 0h-537v121l183 16v1202h-199v117q197 57 367 57v-1376l186 -16v-121zM743 1503q-13 -104 -47.5 -212.5t-74.5 -188.5h-117q65 159 88 401h151z" />
    <glyph glyph-name="Ldot" unicode="&#x13f;" horiz-adv-x="1263" 
d="M1155 0h-1087v123l211 16v1106l-211 17v122h616v-124l-225 -15v-1087h559l24 217h127q0 -298 -14 -375zM1083 678q0 -59 -31 -90t-81 -31q-42 0 -76.5 30.5t-34.5 90.5q0 63 33.5 96t79.5 33q47 0 78.5 -31t31.5 -98z" />
    <glyph glyph-name="ldot" unicode="&#x140;" horiz-adv-x="772" 
d="M596 0h-537v121l183 16v1200h-199v119q50 16 185 36.5t182 20.5v-1376l186 -16v-121zM817 645q0 -61 -29 -91t-79 -30q-40 0 -72.5 30t-32.5 91q0 60 31.5 91.5t75.5 31.5q45 0 75.5 -29t30.5 -94z" />
    <glyph glyph-name="Lslash" unicode="&#x141;" horiz-adv-x="1263" 
d="M1155 0h-1087v123l211 16v393l-220 -145v145l220 146v567l-211 17v122h616v-124l-225 -15v-457l327 218v-144l-327 -219v-485h559l24 235h127q0 -316 -14 -393z" />
    <glyph glyph-name="lslash" unicode="&#x142;" horiz-adv-x="641" 
d="M596 0h-537v121l183 16v412l-183 -121v143l183 121v647h-199v117q197 57 367 57v-716l163 110v-145l-163 -111v-514l186 -16v-121z" />
    <glyph glyph-name="Nacute" unicode="&#x143;" horiz-adv-x="1593" 
d="M668 0h-600v123l211 16v1106l-211 17v122h442q375 -582 480.5 -753t178.5 -316q-6 217 -6 930l-198 15v124h575v-122l-197 -17v-1245h-200q-559 918 -690 1139q6 -261 6 -1000l209 -16v-123zM799 1470h-156l350 302h219z" />
    <glyph glyph-name="nacute" unicode="&#x144;" horiz-adv-x="1310" 
d="M618 0h-540v121l186 16v729h-198v117q73 22 180 38.5t180 16.5l6 -170q88 75 202.5 123.5t203.5 48.5q109 0 162 -46.5t67 -139.5q8 -59 8 -246v-471l199 -16v-121h-367v565q0 163 -16 232q-18 84 -129 84q-160 0 -330 -123v-621l186 -16v-121zM655 1147h-137l248 311
h195z" />
    <glyph glyph-name="Ncommaaccent" unicode="&#x145;" horiz-adv-x="1593" 
d="M668 0h-600v123l211 16v1106l-211 17v122h442q375 -582 480.5 -753t178.5 -316q-6 217 -6 930l-198 15v124h575v-122l-197 -17v-1245h-200q-559 918 -690 1139q6 -261 6 -1000l209 -16v-123zM893 -111q-24 -198 -123 -401h-117q65 159 88 401h152z" />
    <glyph glyph-name="ncommaaccent" unicode="&#x146;" horiz-adv-x="1310" 
d="M618 0h-540v121l186 16v729h-198v117q73 22 180 38.5t180 16.5l6 -170q88 75 202.5 123.5t203.5 48.5q109 0 162 -46.5t67 -139.5q8 -59 8 -246v-471l199 -16v-121h-367v565q0 163 -16 232q-18 84 -129 84q-160 0 -330 -123v-621l186 -16v-121zM772 -111
q-24 -198 -123 -401h-117q29 70 54 181t35 220h151z" />
    <glyph glyph-name="Ncaron" unicode="&#x147;" horiz-adv-x="1593" 
d="M668 0h-600v123l211 16v1106l-211 17v122h442q375 -582 480.5 -753t178.5 -316q-6 217 -6 930l-198 15v124h575v-122l-197 -17v-1245h-200q-559 918 -690 1139q6 -261 6 -1000l209 -16v-123zM1001 1747h136l-256 -258h-148l-254 258h137l193 -150z" />
    <glyph glyph-name="ncaron" unicode="&#x148;" horiz-adv-x="1310" 
d="M618 0h-540v121l186 16v729h-198v117q73 22 180 38.5t180 16.5l6 -170q88 75 202.5 123.5t203.5 48.5q109 0 162 -46.5t67 -139.5q8 -59 8 -246v-471l199 -16v-121h-367v565q0 163 -16 232q-18 84 -129 84q-160 0 -330 -123v-621l186 -16v-121zM817 1442h129l-239 -307
h-136l-235 307h133l174 -197z" />
    <glyph glyph-name="napostrophe" unicode="&#x149;" horiz-adv-x="1310" 
d="M618 0h-540v121l186 16v729h-198v117q73 22 180 38.5t180 16.5l6 -170q88 75 202.5 123.5t203.5 48.5q109 0 162 -46.5t67 -139.5q8 -59 8 -246v-471l199 -16v-121h-367v565q0 163 -16 232q-18 84 -129 84q-160 0 -330 -123v-621l186 -16v-121zM375 1552
q-24 -198 -123 -401h-117q65 159 88 401h152z" />
    <glyph glyph-name="Eng" unicode="&#x14a;" horiz-adv-x="1593" 
d="M668 0h-600v123l211 16v1106l-211 17v122h442q366 -552 474.5 -722t184.5 -310q-6 211 -6 893l-198 15v124h575v-122l-197 -17v-1220q0 -232 -69 -328q-97 -131 -285 -131q-107 0 -180 16l33 170q57 -14 119 -14q119 0 159 67q36 57 39 148v47q-586 936 -706 1139
q6 -261 6 -1000l209 -16v-123z" />
    <glyph glyph-name="eng" unicode="&#x14b;" horiz-adv-x="1267" 
d="M618 0h-540v121l186 16v729h-198v117q73 22 179 38.5t179 16.5l8 -170q88 74 206.5 123t207.5 49q105 0 156 -44.5t65 -137.5q8 -57 8 -248v-592q0 -215 -45 -307q-80 -168 -364 -209l-25 144q102 23 154 49.5t77 75.5q35 63 35 213v581q0 163 -16 232q-18 84 -129 84
q-160 0 -330 -123v-621l186 -16v-121z" />
    <glyph glyph-name="Omacron" unicode="&#x14c;" horiz-adv-x="1525" 
d="M1399 731q0 -362 -171 -563t-474 -201q-296 0 -461.5 186.5t-165.5 514.5q0 365 168.5 557t484.5 192q303 0 461 -175t158 -511zM1204 696q0 128 -22 226t-71 174.5t-135.5 116.5t-207.5 40q-217 0 -334 -144.5t-117 -406.5q0 -149 33.5 -260.5t95 -178t141.5 -98.5
t179 -32q203 0 320.5 144t117.5 419zM1067 1532h-592v113h592v-113z" />
    <glyph glyph-name="omacron" unicode="&#x14d;" horiz-adv-x="1204" 
d="M1083 532q0 -268 -129.5 -415.5t-363.5 -147.5q-216 0 -342.5 139.5t-126.5 385.5q0 268 131 410.5t371 142.5q460 0 460 -515zM903 502q0 95 -12.5 163.5t-43.5 124.5t-90.5 84.5t-146.5 28.5q-153 0 -232 -103t-79 -274q0 -220 79 -316.5t224 -96.5q136 0 218.5 96.5
t82.5 292.5zM899 1194h-575v115h575v-115z" />
    <glyph glyph-name="Obreve" unicode="&#x14e;" horiz-adv-x="1525" 
d="M1399 731q0 -362 -171 -563t-474 -201q-296 0 -461.5 186.5t-165.5 514.5q0 365 168.5 557t484.5 192q303 0 461 -175t158 -511zM1204 696q0 128 -22 226t-71 174.5t-135.5 116.5t-207.5 40q-217 0 -334 -144.5t-117 -406.5q0 -149 33.5 -260.5t95 -178t141.5 -98.5
t179 -32q203 0 320.5 144t117.5 419zM1049 1755q-2 -118 -80 -195t-209 -77q-132 0 -205.5 78t-73.5 194h107q18 -160 174 -160q87 0 130 44t50 116h107z" />
    <glyph glyph-name="obreve" unicode="&#x14f;" horiz-adv-x="1204" 
d="M1083 532q0 -268 -129.5 -415.5t-363.5 -147.5q-216 0 -342.5 139.5t-126.5 385.5q0 268 131 410.5t371 142.5q460 0 460 -515zM903 502q0 95 -12.5 163.5t-43.5 124.5t-90.5 84.5t-146.5 28.5q-153 0 -232 -103t-79 -274q0 -220 79 -316.5t224 -96.5q136 0 218.5 96.5
t82.5 292.5zM887 1423q-2 -118 -77 -196t-200 -78q-126 0 -195 77.5t-71 196.5h102q7 -72 46.5 -116.5t119.5 -44.5q82 0 123.5 44.5t48.5 116.5h103z" />
    <glyph glyph-name="Ohungarumlaut" unicode="&#x150;" horiz-adv-x="1525" 
d="M1399 731q0 -362 -171 -563t-474 -201q-296 0 -461.5 186.5t-165.5 514.5q0 365 168.5 557t484.5 192q303 0 461 -175t158 -511zM1204 696q0 128 -22 226t-71 174.5t-135.5 116.5t-207.5 40q-217 0 -334 -144.5t-117 -406.5q0 -149 33.5 -260.5t95 -178t141.5 -98.5
t179 -32q203 0 320.5 144t117.5 419zM590 1489h-152l314 301h202zM938 1489h-150l314 301h203z" />
    <glyph glyph-name="ohungarumlaut" unicode="&#x151;" horiz-adv-x="1204" 
d="M1083 532q0 -268 -129.5 -415.5t-363.5 -147.5q-216 0 -342.5 139.5t-126.5 385.5q0 268 131 410.5t371 142.5q460 0 460 -515zM903 502q0 95 -12.5 163.5t-43.5 124.5t-90.5 84.5t-146.5 28.5q-153 0 -232 -103t-79 -274q0 -220 79 -316.5t224 -96.5q136 0 218.5 96.5
t82.5 292.5zM477 1147h-131l236 311h178zM776 1147h-129l236 311h178z" />
    <glyph glyph-name="OE" unicode="&#x152;" horiz-adv-x="2045" 
d="M1053 164v1057q-117 24 -234 24q-108 0 -195.5 -30t-156 -93.5t-106 -172.5t-37.5 -257q0 -144 36 -251t102.5 -171.5t152.5 -95.5t192 -31q138 0 246 21zM1927 0h-858q-130 -20 -289 -20q-310 0 -481.5 179.5t-171.5 526.5q0 152 34.5 274t95.5 204.5t147 138t185 80
t214 24.5q114 0 260 -23h799q16 -68 16 -370h-129l-27 209h-489v-426h500v-162h-500v-477h547l30 235h129q0 -273 -12 -393z" />
    <glyph glyph-name="oe" unicode="&#x153;" horiz-adv-x="1871" 
d="M1792 123q-111 -77 -215.5 -115.5t-237.5 -38.5t-227 57t-145 160q-114 -217 -387 -217q-214 0 -336.5 139t-122.5 386q0 267 129 410t362 143q286 0 371 -207q60 102 162 154.5t225 52.5q404 0 404 -465q0 -6 -5 -84h-712v-39q0 -155 87 -246.5t228 -91.5q186 0 359 121
zM883 502q0 76 -6.5 133t-25 110t-49.5 86.5t-82 53.5t-120 20q-145 0 -223 -104.5t-78 -274.5q0 -413 293 -413q131 0 211 98t80 291zM1065 627h539q2 14 2 43q0 46 -12 85.5t-38 74.5t-74.5 55t-113.5 20q-117 0 -200.5 -69.5t-102.5 -208.5z" />
    <glyph glyph-name="Racute" unicode="&#x154;" horiz-adv-x="1413" 
d="M680 0h-612v123l211 16v1106l-211 17v122h579q207 0 309 -32q111 -34 172.5 -118.5t61.5 -211.5q0 -161 -86.5 -256.5t-231.5 -130.5q43 -21 93 -94q66 -98 127 -215q55 -100 109 -139.5t142 -39.5q23 0 58 7l8 -150q-61 -12 -141 -12q-113 0 -184 52.5t-126 152.5
q-153 275 -159 286q-56 94 -117 119h-223v-463l221 -16v-123zM459 754h178q169 0 252 45q106 59 106 196q0 152 -131 205q-72 29 -239 29h-166v-475zM623 1470h-156l350 302h219z" />
    <glyph glyph-name="racute" unicode="&#x155;" horiz-adv-x="901" 
d="M655 0h-577v121l186 16v729h-198v117q50 18 164 36.5t192 18.5l8 -192q46 80 139.5 137t192.5 57q35 0 63 -4v-170q-48 6 -80 6q-85 0 -167 -37t-146 -106v-590l223 -18v-121zM485 1147h-137l248 311h195z" />
    <glyph glyph-name="Rcommaaccent" unicode="&#x156;" horiz-adv-x="1413" 
d="M680 0h-612v123l211 16v1106l-211 17v122h579q207 0 309 -32q111 -34 172.5 -118.5t61.5 -211.5q0 -161 -86.5 -256.5t-231.5 -130.5q43 -21 93 -94q66 -98 127 -215q55 -100 109 -139.5t142 -39.5q23 0 58 7l8 -150q-61 -12 -141 -12q-113 0 -184 52.5t-126 152.5
q-153 275 -159 286q-56 94 -117 119h-223v-463l221 -16v-123zM459 754h178q169 0 252 45q106 59 106 196q0 152 -131 205q-72 29 -239 29h-166v-475zM813 -111q-24 -198 -123 -401h-117q29 70 54 181t35 220h151z" />
    <glyph glyph-name="rcommaaccent" unicode="&#x157;" horiz-adv-x="901" 
d="M655 0h-577v121l186 16v729h-198v117q50 18 164 36.5t192 18.5l8 -192q46 80 139.5 137t192.5 57q35 0 63 -4v-170q-48 6 -80 6q-85 0 -167 -37t-146 -106v-590l223 -18v-121zM438 -111q-24 -198 -123 -401h-116q65 159 88 401h151z" />
    <glyph glyph-name="Rcaron" unicode="&#x158;" horiz-adv-x="1413" 
d="M680 0h-612v123l211 16v1106l-211 17v122h579q207 0 309 -32q111 -34 172.5 -118.5t61.5 -211.5q0 -161 -86.5 -256.5t-231.5 -130.5q43 -21 93 -94q66 -98 127 -215q55 -100 109 -139.5t142 -39.5q23 0 58 7l8 -150q-61 -12 -141 -12q-113 0 -184 52.5t-126 152.5
q-153 275 -159 286q-56 94 -117 119h-223v-463l221 -16v-123zM459 754h178q169 0 252 45q106 59 106 196q0 152 -131 205q-72 29 -239 29h-166v-475zM805 1747h135l-256 -258h-147l-254 258h137l192 -150z" />
    <glyph glyph-name="rcaron" unicode="&#x159;" horiz-adv-x="901" 
d="M655 0h-577v121l186 16v729h-198v117q50 18 164 36.5t192 18.5l8 -192q46 80 139.5 137t192.5 57q35 0 63 -4v-170q-48 6 -80 6q-85 0 -167 -37t-146 -106v-590l223 -18v-121zM627 1442h129l-240 -307h-135l-236 307h134l174 -197z" />
    <glyph glyph-name="Sacute" unicode="&#x15a;" horiz-adv-x="1124" 
d="M82 424h131l33 -246q146 -49 297 -49q143 0 220 59.5t77 159.5q0 86 -50 140t-192 104l-176 61q-150 52 -219.5 139t-69.5 230q0 176 126 284.5t378 108.5q194 0 367 -45q10 -59 10 -379h-129l-29 236q-109 28 -244 28q-78 0 -136.5 -19t-90 -51t-46.5 -66.5t-15 -71.5
q0 -76 39 -124.5t155 -95.5l187 -73q187 -72 259 -157.5t72 -225.5q0 -182 -131.5 -293t-378.5 -111q-256 0 -430 72q-14 129 -14 385zM547 1470h-156l350 302h220z" />
    <glyph glyph-name="sacute" unicode="&#x15b;" horiz-adv-x="958" 
d="M104 322h119l35 -177q107 -34 203 -34q101 0 156 41t55 108q0 59 -33.5 94.5t-126.5 63.5l-150 47q-117 37 -170 105.5t-53 181.5q0 126 101.5 210.5t287.5 84.5q163 0 285 -35q16 -67 16 -297h-116l-33 178q-66 18 -164 18q-103 0 -152 -43t-49 -102q0 -55 30.5 -92
t109.5 -62l163 -49q128 -38 183 -107.5t55 -172.5q0 -135 -103 -224.5t-290 -89.5q-177 0 -340 56q-19 65 -19 297zM475 1147h-137l248 311h194z" />
    <glyph glyph-name="Scircumflex" unicode="&#x15c;" horiz-adv-x="1124" 
d="M82 424h131l33 -246q146 -49 297 -49q143 0 220 59.5t77 159.5q0 86 -50 140t-192 104l-176 61q-150 52 -219.5 139t-69.5 230q0 176 126 284.5t378 108.5q194 0 367 -45q10 -59 10 -379h-129l-29 236q-109 28 -244 28q-78 0 -136.5 -19t-90 -51t-46.5 -66.5t-15 -71.5
q0 -76 39 -124.5t155 -95.5l187 -73q187 -72 259 -157.5t72 -225.5q0 -182 -131.5 -293t-378.5 -111q-256 0 -430 72q-14 129 -14 385zM385 1489h-135l256 258h147l254 -258h-137l-192 151z" />
    <glyph glyph-name="scircumflex" unicode="&#x15d;" horiz-adv-x="958" 
d="M104 322h119l35 -177q107 -34 203 -34q101 0 156 41t55 108q0 59 -33.5 94.5t-126.5 63.5l-150 47q-117 37 -170 105.5t-53 181.5q0 126 101.5 210.5t287.5 84.5q163 0 285 -35q16 -67 16 -297h-116l-33 178q-66 18 -164 18q-103 0 -152 -43t-49 -102q0 -55 30.5 -92
t109.5 -62l163 -49q128 -38 183 -107.5t55 -172.5q0 -135 -103 -224.5t-290 -89.5q-177 0 -340 56q-19 65 -19 297zM313 1147h-131l242 305h133l236 -305h-131l-175 194z" />
    <glyph glyph-name="Scedilla" unicode="&#x15e;" horiz-adv-x="1124" 
d="M338 -473l33 106q55 -18 118 -18q53 0 81 21.5t28 58.5q0 39 -31 60.5t-86 21.5q-5 0 -75 -4l75 194q-225 6 -385 72q-14 129 -14 385h131l33 -246q146 -49 297 -49q143 0 220 59.5t77 159.5q0 86 -50 140t-192 104l-176 61q-150 52 -219.5 139t-69.5 230
q0 176 126 284.5t378 108.5q194 0 367 -45q10 -59 10 -379h-129l-29 236q-109 28 -244 28q-78 0 -136.5 -19t-90 -51t-46.5 -66.5t-15 -71.5q0 -76 39 -124.5t155 -95.5l187 -73q187 -72 259 -157.5t72 -225.5q0 -170 -115 -278.5t-333 -123.5l-39 -90q99 -8 141.5 -58.5
t42.5 -117.5q0 -87 -67 -143t-189 -56q-67 0 -139 23z" />
    <glyph glyph-name="scedilla" unicode="&#x15f;" horiz-adv-x="958" 
d="M274 -455l33 103q56 -19 111 -19q100 0 100 78q0 80 -106 80q-45 0 -72 -4l70 188q-140 5 -287 54q-19 65 -19 297h119l35 -177q107 -34 203 -34q101 0 156 41t55 108q0 59 -33.5 94.5t-126.5 63.5l-150 47q-117 37 -170 105.5t-53 181.5q0 126 101.5 210.5t287.5 84.5
q163 0 285 -35q16 -67 16 -297h-116l-33 178q-66 18 -164 18q-103 0 -152 -43t-49 -102q0 -55 30.5 -92t109.5 -62l163 -49q128 -38 183 -107.5t55 -172.5q0 -125 -90 -212t-254 -100l-37 -88q95 -7 135.5 -54.5t40.5 -113.5q0 -83 -63.5 -137.5t-179.5 -54.5q-65 0 -134 22
z" />
    <glyph glyph-name="Scaron" unicode="&#x160;" horiz-adv-x="1124" 
d="M82 424h131l33 -246q146 -49 297 -49q143 0 220 59.5t77 159.5q0 86 -50 140t-192 104l-176 61q-150 52 -219.5 139t-69.5 230q0 176 126 284.5t378 108.5q194 0 367 -45q10 -59 10 -379h-129l-29 236q-109 28 -244 28q-78 0 -136.5 -19t-90 -51t-46.5 -66.5t-15 -71.5
q0 -76 39 -124.5t155 -95.5l187 -73q187 -72 259 -157.5t72 -225.5q0 -182 -131.5 -293t-378.5 -111q-256 0 -430 72q-14 129 -14 385zM780 1747h135l-256 -258h-147l-254 258h137l193 -150z" />
    <glyph glyph-name="scaron" unicode="&#x161;" horiz-adv-x="958" 
d="M104 322h119l35 -177q107 -34 203 -34q101 0 156 41t55 108q0 59 -33.5 94.5t-126.5 63.5l-150 47q-117 37 -170 105.5t-53 181.5q0 126 101.5 210.5t287.5 84.5q163 0 285 -35q16 -67 16 -297h-116l-33 178q-66 18 -164 18q-103 0 -152 -43t-49 -102q0 -55 30.5 -92
t109.5 -62l163 -49q128 -38 183 -107.5t55 -172.5q0 -135 -103 -224.5t-290 -89.5q-177 0 -340 56q-19 65 -19 297zM674 1442h129l-240 -307h-135l-235 307h133l174 -197z" />
    <glyph glyph-name="uni0162" unicode="&#x162;" horiz-adv-x="1402" 
d="M485 -473l33 106q55 -18 119 -18q53 0 80.5 21t27.5 59q0 39 -30.5 60.5t-85.5 21.5q-6 0 -76 -4l88 227h-246v123l213 16v1084h-356l-37 -248h-121q0 292 15 409h1183q13 -64 13 -409h-117l-37 248h-363v-1084l213 -16v-123h-253l-52 -121q99 -8 142 -58.5t43 -117.5
q0 -87 -67 -143t-189 -56q-68 0 -140 23z" />
    <glyph glyph-name="uni0163" unicode="&#x163;" horiz-adv-x="733" 
d="M215 -455l33 103q56 -19 110 -19q101 0 101 78q0 80 -107 80q-44 0 -71 -4l81 219q-65 26 -96 76q-49 79 -49 270v518h-201v133q94 15 203 15q0 51 8 256l162 12v-268h270v-148h-270v-485q0 -137 31 -188q32 -52 119 -52q67 0 151 19l25 -135q-112 -41 -248 -41h-10
l-41 -101q95 -7 135.5 -54.5t40.5 -113.5q0 -83 -64 -137.5t-180 -54.5q-64 0 -133 22z" />
    <glyph glyph-name="Tcaron" unicode="&#x164;" horiz-adv-x="1402" 
d="M1001 0h-606v123l213 16v1084h-356l-37 -246h-121q0 290 15 407h1183q13 -64 13 -407h-117l-37 246h-363v-1084l213 -16v-123zM889 1747h135l-256 -258h-147l-254 258h137l192 -150z" />
    <glyph glyph-name="tcaron" unicode="&#x165;" horiz-adv-x="733" 
d="M715 25q-112 -41 -248 -41q-67 0 -120 25.5t-81 68.5q-49 79 -49 270v518h-201v133q94 15 203 15q0 51 8 256l162 12v-268h270v-148h-270v-485q0 -137 31 -188q32 -52 119 -52q67 0 151 19zM748 1522q-25 -205 -123 -402h-117q28 69 53 180.5t35 221.5h152z" />
    <glyph glyph-name="Tbar" unicode="&#x166;" horiz-adv-x="1402" 
d="M1094 680h-306v-541l213 -16v-123h-606v123l213 16v541h-299v123h299v420h-356l-37 -246h-121q0 290 15 407h1183q13 -64 13 -407h-117l-37 246h-363v-420h306v-123z" />
    <glyph glyph-name="tbar" unicode="&#x167;" horiz-adv-x="733" 
d="M635 565h-246v-184q0 -144 31 -188q28 -52 119 -52q67 0 151 19l25 -135q-112 -41 -248 -41q-68 0 -121.5 25t-79.5 69q-49 71 -49 270v217h-174v113h174v188h-201v133q94 15 203 15q4 53 8 256l162 12v-268h270v-148h-270v-188h246v-113z" />
    <glyph glyph-name="Utilde" unicode="&#x168;" horiz-adv-x="1542" 
d="M1303 1247v-674q0 -146 -14.5 -233.5t-51.5 -153.5q-55 -100 -174.5 -157.5t-298.5 -57.5q-372 0 -479 232q-47 105 -47 366v678l-187 15v122h574v-124l-209 -13v-645q0 -226 30 -305q31 -78 113.5 -120t210.5 -42q239 0 311 141q45 86 45 316v655l-202 15v122h567v-127z
M557 1489h-104q23 105 71.5 161t112.5 56q33 0 64 -10.5t87 -36.5q80 -39 121 -39q32 0 51 20.5t39 77.5h101q-41 -223 -182 -223q-61 0 -158 47q-90 41 -115 41q-28 0 -48 -21t-40 -73z" />
    <glyph glyph-name="utilde" unicode="&#x169;" horiz-adv-x="1267" 
d="M1225 14q-164 -32 -346 -32l-13 163q-191 -172 -383 -172q-228 0 -258 203q-10 74 -10 236v458h-197v117q212 47 367 47v-585q0 -151 12 -216q9 -48 50 -74t104 -26q145 0 307 127v610h-203v117q207 47 375 47v-905h195v-115zM424 1165h-102q21 105 68.5 161t107.5 56
q51 0 143 -47q76 -39 113 -39q30 0 48 20.5t38 78.5h96q-21 -114 -66 -169t-108 -55q-54 0 -150 48q-78 41 -106 41q-27 0 -46 -21.5t-36 -73.5z" />
    <glyph glyph-name="Umacron" unicode="&#x16a;" horiz-adv-x="1542" 
d="M1303 1247v-674q0 -146 -14.5 -233.5t-51.5 -153.5q-55 -100 -174.5 -157.5t-298.5 -57.5q-372 0 -479 232q-47 105 -47 366v678l-187 15v122h574v-124l-209 -13v-645q0 -226 30 -305q31 -78 113.5 -120t210.5 -42q239 0 311 141q45 86 45 316v655l-202 15v122h567v-127z
M1067 1532h-592v113h592v-113z" />
    <glyph glyph-name="umacron" unicode="&#x16b;" horiz-adv-x="1267" 
d="M1225 14q-164 -32 -346 -32l-13 163q-191 -172 -383 -172q-228 0 -258 203q-10 74 -10 236v458h-197v117q212 47 367 47v-585q0 -151 12 -216q9 -48 50 -74t104 -26q145 0 307 127v610h-203v117q207 47 375 47v-905h195v-115zM881 1194h-576v115h576v-115z" />
    <glyph glyph-name="Ubreve" unicode="&#x16c;" horiz-adv-x="1542" 
d="M1303 1247v-674q0 -146 -14.5 -233.5t-51.5 -153.5q-55 -100 -174.5 -157.5t-298.5 -57.5q-372 0 -479 232q-47 105 -47 366v678l-187 15v122h574v-124l-209 -13v-645q0 -226 30 -305q31 -78 113.5 -120t210.5 -42q239 0 311 141q45 86 45 316v655l-202 15v122h567v-127z
M1051 1755q-2 -118 -80 -195t-209 -77q-132 0 -205.5 78t-73.5 194h107q18 -160 174 -160q87 0 130 44t50 116h107z" />
    <glyph glyph-name="ubreve" unicode="&#x16d;" horiz-adv-x="1267" 
d="M1225 14q-164 -32 -346 -32l-13 163q-191 -172 -383 -172q-228 0 -258 203q-10 74 -10 236v458h-197v117q212 47 367 47v-585q0 -151 12 -216q9 -48 50 -74t104 -26q145 0 307 127v610h-203v117q207 47 375 47v-905h195v-115zM874 1423q-2 -119 -76.5 -196.5
t-199.5 -77.5q-126 0 -195 77.5t-71 196.5h102q7 -72 46.5 -116.5t119.5 -44.5q82 0 123.5 44.5t48.5 116.5h102z" />
    <glyph glyph-name="Uring" unicode="&#x16e;" horiz-adv-x="1542" 
d="M1303 1247v-674q0 -146 -14.5 -233.5t-51.5 -153.5q-55 -100 -174.5 -157.5t-298.5 -57.5q-372 0 -479 232q-47 105 -47 366v678l-187 15v122h574v-124l-209 -13v-645q0 -226 30 -305q31 -78 113.5 -120t210.5 -42q239 0 311 141q45 86 45 316v655l-202 15v122h567v-127z
M942 1634q0 -75 -49 -128.5t-125 -53.5t-126 51t-50 127q0 77 51 127.5t127 50.5q79 0 125.5 -47.5t46.5 -126.5zM872 1632q0 52 -28.5 81.5t-75.5 29.5t-75.5 -31t-28.5 -82q0 -49 28 -79.5t80 -30.5q47 0 73.5 31t26.5 81z" />
    <glyph glyph-name="uring" unicode="&#x16f;" horiz-adv-x="1267" 
d="M1225 14q-164 -32 -346 -32l-13 163q-191 -172 -383 -172q-228 0 -258 203q-10 74 -10 236v458h-197v117q212 47 367 47v-585q0 -151 12 -216q9 -48 50 -74t104 -26q145 0 307 127v610h-203v117q207 47 375 47v-905h195v-115zM772 1305q0 -78 -50.5 -134.5t-131.5 -56.5
q-80 0 -131 54t-51 132q0 83 52 135t132 52q84 0 132 -49t48 -133zM702 1303q0 54 -30.5 86t-81.5 32t-81 -33.5t-30 -87.5q0 -52 29.5 -85t85.5 -33q51 0 79.5 34t28.5 87z" />
    <glyph glyph-name="Uhungarumlaut" unicode="&#x170;" horiz-adv-x="1542" 
d="M1303 1247v-674q0 -146 -14.5 -233.5t-51.5 -153.5q-55 -100 -174.5 -157.5t-298.5 -57.5q-372 0 -479 232q-47 105 -47 366v678l-187 15v122h574v-124l-209 -13v-645q0 -226 30 -305q31 -78 113.5 -120t210.5 -42q239 0 311 141q45 86 45 316v655l-202 15v122h567v-127z
M578 1489h-152l313 301h203zM926 1489h-150l314 301h202z" />
    <glyph glyph-name="uhungarumlaut" unicode="&#x171;" horiz-adv-x="1267" 
d="M1225 14q-164 -32 -346 -32l-13 163q-191 -172 -383 -172q-228 0 -258 203q-10 74 -10 236v458h-197v117q212 47 367 47v-585q0 -151 12 -216q9 -48 50 -74t104 -26q145 0 307 127v610h-203v117q207 47 375 47v-905h195v-115zM455 1147h-131l235 311h178zM754 1147h-129
l235 311h178z" />
    <glyph glyph-name="Uogonek" unicode="&#x172;" horiz-adv-x="1542" 
d="M1303 1247v-674q0 -146 -14.5 -233.5t-51.5 -153.5q-95 -176 -360 -209q-86 -68 -128 -126.5t-42 -118.5q0 -53 31 -81t79 -28q55 0 113 25l35 -97q-82 -47 -170 -47q-103 0 -162.5 56t-59.5 143q0 145 162 268q-349 10 -450 232q-47 105 -47 366v678l-187 15v122h574
v-124l-209 -13v-645q0 -226 30 -305q31 -78 113.5 -120t210.5 -42q239 0 311 141q45 86 45 316v655l-202 15v122h567v-127z" />
    <glyph glyph-name="uogonek" unicode="&#x173;" horiz-adv-x="1267" 
d="M1225 20q-71 -15 -201 -26q-180 -138 -180 -252q0 -52 30.5 -78t75.5 -26q56 0 109 20l33 -92q-75 -45 -162 -45q-100 0 -155.5 53t-55.5 139q0 150 172 275h-12l-13 157q-191 -172 -383 -172q-228 0 -258 203q-10 74 -10 236v458h-197v117q212 47 367 47v-585
q0 -151 12 -216q9 -48 50 -74t104 -26q145 0 307 127v610h-203v117q207 47 375 47v-899h195v-115z" />
    <glyph glyph-name="Wcircumflex" unicode="&#x174;" horiz-adv-x="2050" 
d="M690 0h-198l-330 1247l-150 15v122h563v-122l-221 -15q193 -747 248 -997q49 185 104 372t230 762h186q35 -111 86 -273.5t71.5 -226t52.5 -166t44.5 -146t31.5 -108.5t31 -110.5t25 -99.5q56 262 234 993l-217 15v122h557v-122l-156 -15l-313 -1247h-199
q-260 828 -348 1122q-48 -204 -332 -1122zM829 1489h-135l256 258h148l254 -258h-138l-192 151z" />
    <glyph glyph-name="wcircumflex" unicode="&#x175;" horiz-adv-x="1628" 
d="M1487 879l-242 -879h-186q-190 589 -238 770q-50 -181 -254 -770h-184l-242 877l-137 16v121h500v-121l-180 -16q114 -411 174 -684q32 113 256 806h141q137 -428 182.5 -576.5t65.5 -229.5q11 49 30.5 124.5t58.5 229.5t83 332l-176 14v121h485v-121zM645 1147h-131
l242 305h133l235 -305h-131l-174 194z" />
    <glyph glyph-name="Ycircumflex" unicode="&#x176;" horiz-adv-x="1413" 
d="M1012 0h-615v123l217 16v406l-462 700l-150 17v122h578v-122l-209 -17q57 -87 133.5 -203t99.5 -151.5t53 -83t54 -88.5l34 56t32 52t46.5 70.5t54.5 81.5t79 117.5t100 148.5l-215 17v122h571v-122l-151 -17l-469 -700v-406l219 -16v-123zM524 1489h-135l256 258h148
l254 -258h-138l-192 151z" />
    <glyph glyph-name="ycircumflex" unicode="&#x177;" horiz-adv-x="1171" 
d="M158 -532l-45 151q157 25 250 116.5t165 264.5h-36l-353 877l-137 16v121h502v-121l-182 -14q156 -368 284 -721q126 377 248 721l-182 14v121h497v-121l-139 -16l-293 -807q-108 -296 -241 -431t-338 -171zM420 1147h-131l241 305h134l235 -305h-131l-174 194z" />
    <glyph glyph-name="Ydieresis" unicode="&#x178;" horiz-adv-x="1413" 
d="M1012 0h-615v123l217 16v406l-462 700l-150 17v122h578v-122l-209 -17q57 -87 133.5 -203t99.5 -151.5t53 -83t54 -88.5l34 56t32 52t46.5 70.5t54.5 81.5t79 117.5t100 148.5l-215 17v122h571v-122l-151 -17l-469 -700v-406l219 -16v-123zM637 1624q0 -106 -100 -106
q-99 0 -99 106q0 55 28.5 82t74.5 27q96 0 96 -109zM1006 1624q0 -106 -101 -106q-98 0 -98 106q0 56 28 82.5t74 26.5q97 0 97 -109z" />
    <glyph glyph-name="Zacute" unicode="&#x179;" horiz-adv-x="1292" 
d="M1198 0h-1135v143q261 330 445.5 561t290 360.5t127.5 156.5h-641l-37 -263h-127q0 297 14 426h1043v-141q-303 -381 -490 -613t-284 -349l-97 -117h742l41 272h120q0 -344 -12 -436zM645 1470h-156l351 302h219z" />
    <glyph glyph-name="zacute" unicode="&#x17a;" horiz-adv-x="1015" 
d="M928 0h-852v121q408 507 612 758h-432l-31 -199h-121q0 245 19 334h788v-125q-180 -220 -318 -386.5t-200 -241t-102 -124.5h497l29 215h123q0 -282 -12 -352zM532 1147h-137l248 311h195z" />
    <glyph glyph-name="Zdotaccent" unicode="&#x17b;" horiz-adv-x="1292" 
d="M1198 0h-1135v143q261 330 445.5 561t290 360.5t127.5 156.5h-641l-37 -263h-127q0 297 14 426h1043v-141q-303 -381 -490 -613t-284 -349l-97 -117h742l41 272h120q0 -344 -12 -436zM748 1624q0 -106 -101 -106q-98 0 -98 106q0 56 28 82.5t74 26.5q97 0 97 -109z" />
    <glyph glyph-name="zdotaccent" unicode="&#x17c;" horiz-adv-x="1015" 
d="M928 0h-852v121q408 507 612 758h-432l-31 -199h-121q0 245 19 334h788v-125q-180 -220 -318 -386.5t-200 -241t-102 -124.5h497l29 215h123q0 -282 -12 -352zM623 1303q0 -55 -27 -81t-74 -26q-42 0 -70 24.5t-28 82.5q0 55 28 81.5t74 26.5q97 0 97 -108z" />
    <glyph glyph-name="Zcaron" unicode="&#x17d;" horiz-adv-x="1292" 
d="M1198 0h-1135v143q261 330 445.5 561t290 360.5t127.5 156.5h-641l-37 -263h-127q0 297 14 426h1043v-141q-303 -381 -490 -613t-284 -349l-97 -117h742l41 272h120q0 -344 -12 -436zM838 1747h135l-256 -258h-148l-254 258h138l192 -150z" />
    <glyph glyph-name="zcaron" unicode="&#x17e;" horiz-adv-x="1015" 
d="M928 0h-852v121q408 507 612 758h-432l-31 -199h-121q0 245 19 334h788v-125q-180 -220 -318 -386.5t-200 -241t-102 -124.5h497l29 215h123q0 -282 -12 -352zM686 1442h129l-240 -307h-135l-235 307h133l174 -197z" />
    <glyph glyph-name="longs" unicode="&#x17f;" horiz-adv-x="679" 
d="M651 0h-573v121l186 16v721h-192v131q89 17 192 17v106q0 114 18 184t58 113q88 98 262 98q96 0 211 -22l-18 -137q-103 14 -160 14q-114 0 -162 -62q-41 -57 -41 -192v-971l219 -16v-121z" />
    <glyph glyph-name="florin" unicode="&#x192;" horiz-adv-x="1075" 
d="M10 -229l49 149q73 -22 156 -22q96 0 127 75q17 44 25 136l51 596h-223v129h233l12 143q14 146 56 217q89 152 297 152q138 0 227 -29q4 -16 4 -297h-123l-20 154q-44 8 -84 8q-110 0 -150 -78q-24 -55 -31 -141l-10 -129h268v-129h-278l-55 -601q-14 -151 -47 -215
q-78 -153 -275 -153q-116 0 -209 35z" />
    <glyph glyph-name="Aringacute" unicode="&#x1fa;" horiz-adv-x="1454" 
d="M909 1516q0 -87 -63 -144l459 -1233l149 -16v-123h-571v123l225 16l-121 310h-518l-123 -310l229 -16v-123h-573v123l154 16l465 1229q-66 53 -66 143q0 79 50.5 130t127.5 51q81 0 128.5 -48t47.5 -128zM518 610h420q-159 437 -207 586q-40 -134 -213 -586zM764 1749
h-135l223 268h192zM838 1513q0 52 -29.5 82.5t-77.5 30.5q-49 0 -77.5 -31.5t-28.5 -83.5q0 -50 28.5 -82t81.5 -32q48 0 75.5 32.5t27.5 83.5z" />
    <glyph glyph-name="aringacute" unicode="&#x1fb;" horiz-adv-x="1155" 
d="M1116 131v-113q-62 -14 -160.5 -25t-179.5 -11l-12 141q-63 -69 -149 -106t-183 -37q-78 0 -140 26.5t-99.5 72t-56.5 100.5t-19 116q0 92 50 155t142 93q162 50 447 57v64q0 140 -27 176q-21 27 -57.5 39t-104.5 12q-144 0 -348 -62l-29 132q112 40 233.5 63t209.5 23
q194 0 250 -101q24 -41 31.5 -100t7.5 -178v-537h194zM758 242v237q-249 -8 -355 -45q-110 -38 -110 -137q0 -84 51.5 -132t130.5 -48q155 0 283 125zM770 1305q0 -78 -51.5 -134.5t-132.5 -56.5q-79 0 -132 54.5t-53 131.5q0 82 54 134.5t133 52.5q84 0 133 -49t49 -133z
M698 1303q0 54 -30.5 86t-81.5 32t-82 -34t-31 -87q0 -51 31 -84.5t86 -33.5q51 0 79.5 34t28.5 87zM606 1526h-137l221 289h195z" />
    <glyph glyph-name="AEacute" unicode="&#x1fc;" horiz-adv-x="2066" 
d="M1946 0h-1088v123l211 16v303h-516l-209 -303l238 -16v-123h-582v123l135 16l739 1106l-219 17v122h1227q16 -82 16 -370h-129l-28 209h-492v-426h502v-162h-502v-477h551l29 235h129q0 -273 -12 -393zM1069 606v643q-52 -81 -430 -643h430zM1278 1470h-156l351 302h219z
" />
    <glyph glyph-name="aeacute" unicode="&#x1fd;" horiz-adv-x="1738" 
d="M1659 123q-111 -77 -215.5 -115.5t-237.5 -38.5q-236 0 -356 172q-86 -75 -183.5 -120.5t-228.5 -45.5q-80 0 -143 26.5t-101 71.5t-57.5 100.5t-19.5 117.5q0 95 51.5 163t142.5 97q177 54 445 57v60q0 120 -31 168q-42 55 -158 55q-144 0 -348 -62l-29 132
q111 40 227.5 63t200.5 23q155 0 218 -74q37 -43 47 -111q57 91 152 138t208 47q94 0 165.5 -27t114.5 -70.5t70 -107.5t37 -130t10 -145q0 -39 -6 -82h-710v-28q0 -149 86 -242.5t227 -93.5q105 0 190 31.5t168 89.5zM760 485q-233 -4 -352 -43q-55 -19 -85 -56.5
t-30 -88.5q0 -85 53 -134.5t137 -49.5q96 0 168.5 37.5t143.5 101.5q-35 90 -35 233zM930 614h540q3 24 3 54q0 102 -57 169.5t-181 67.5q-120 0 -204 -74t-101 -217zM887 1147h-137l247 311h195z" />
    <glyph glyph-name="Oslashacute" unicode="&#x1fe;" horiz-adv-x="1525" 
d="M293 -100l-100 65l114 170q-180 186 -180 533q0 365 168.5 557t484.5 192q207 0 344 -82l105 154l100 -64l-110 -161q180 -174 180 -533q0 -362 -171 -563t-474 -201q-206 0 -353 92zM1204 696q0 270 -96 404l-604 -889q106 -78 262 -78q203 0 320.5 144t117.5 419z
M317 702q0 -259 101 -403l604 887q-98 67 -254 67q-217 0 -334 -144.5t-117 -406.5zM756 1483h-156l350 301h219z" />
    <glyph glyph-name="oslashacute" unicode="&#x1ff;" horiz-adv-x="1204" 
d="M633 1147h-137l247 311h195zM244 -102l-94 59l100 147q-129 142 -129 390q0 268 131 410.5t371 142.5q141 0 241 -50l99 144l92 -62l-103 -147q131 -128 131 -400q0 -268 -129.5 -415.5t-363.5 -147.5q-145 0 -252 66zM903 502q0 190 -53 280l-424 -620q66 -49 176 -49
q136 0 218.5 96.5t82.5 292.5zM299 526q0 -177 51 -274l422 612q-64 39 -162 39q-153 0 -232 -103t-79 -274z" />
    <glyph glyph-name="uni0218" unicode="&#x218;" horiz-adv-x="1124" 
d="M82 424h131l33 -246q146 -49 297 -49q143 0 220 59.5t77 159.5q0 86 -50 140t-192 104l-176 61q-150 52 -219.5 139t-69.5 230q0 176 126 284.5t378 108.5q194 0 367 -45q10 -59 10 -379h-129l-29 236q-109 28 -244 28q-78 0 -136.5 -19t-90 -51t-46.5 -66.5t-15 -71.5
q0 -76 39 -124.5t155 -95.5l187 -73q187 -72 259 -157.5t72 -225.5q0 -182 -131.5 -293t-378.5 -111q-256 0 -430 72q-14 129 -14 385zM625 -111q-24 -198 -123 -401h-117q65 159 88 401h152z" />
    <glyph glyph-name="uni0219" unicode="&#x219;" horiz-adv-x="958" 
d="M104 322h119l35 -177q107 -34 203 -34q101 0 156 41t55 108q0 59 -33.5 94.5t-126.5 63.5l-150 47q-117 37 -170 105.5t-53 181.5q0 126 101.5 210.5t287.5 84.5q163 0 285 -35q16 -67 16 -297h-116l-33 178q-66 18 -164 18q-103 0 -152 -43t-49 -102q0 -55 30.5 -92
t109.5 -62l163 -49q128 -38 183 -107.5t55 -172.5q0 -135 -103 -224.5t-290 -89.5q-177 0 -340 56q-19 65 -19 297zM567 -111q-24 -198 -123 -401h-116q65 159 88 401h151z" />
    <glyph glyph-name="uni021A" unicode="&#x21a;" horiz-adv-x="1402" 
d="M1001 0h-606v123l213 16v1084h-356l-37 -246h-121q0 290 15 407h1183q13 -64 13 -407h-117l-37 246h-363v-1084l213 -16v-123zM780 -111q-24 -198 -123 -401h-116q65 159 88 401h151z" />
    <glyph glyph-name="uni021B" unicode="&#x21b;" horiz-adv-x="733" 
d="M715 25q-112 -41 -248 -41q-67 0 -120 25.5t-81 68.5q-49 79 -49 270v518h-201v133q94 15 203 15q0 51 8 256l162 12v-268h270v-148h-270v-485q0 -137 31 -188q32 -52 119 -52q67 0 151 19zM492 -111q-24 -198 -123 -401h-117q65 159 88 401h152z" />
    <glyph glyph-name="circumflex" unicode="&#x2c6;" horiz-adv-x="411" 
d="M31 1147h-131l241 305h133l236 -305h-131l-174 194z" />
    <glyph glyph-name="caron" unicode="&#x2c7;" horiz-adv-x="411" 
d="M381 1442h129l-240 -307h-135l-235 307h133l174 -197z" />
    <glyph glyph-name="breve" unicode="&#x2d8;" horiz-adv-x="411" 
d="M477 1423q-2 -119 -76.5 -196.5t-199.5 -77.5q-127 0 -196 77.5t-71 196.5h103q7 -72 46.5 -116.5t119.5 -44.5q82 0 123.5 44.5t48.5 116.5h102z" />
    <glyph glyph-name="dotaccent" unicode="&#x2d9;" horiz-adv-x="411" 
d="M305 1303q0 -107 -100 -107q-43 0 -71 24.5t-28 82.5q0 55 28.5 81.5t74.5 26.5q96 0 96 -108z" />
    <glyph glyph-name="ring" unicode="&#x2da;" horiz-adv-x="411" 
d="M387 1305q0 -78 -50.5 -134.5t-131.5 -56.5q-80 0 -131 54t-51 132q0 83 52 135t132 52q84 0 132 -49t48 -133zM317 1303q0 54 -30.5 86t-81.5 32t-81 -33.5t-30 -87.5q0 -52 29.5 -85t85.5 -33q51 0 79.5 34t28.5 87z" />
    <glyph glyph-name="ogonek" unicode="&#x2db;" horiz-adv-x="411" 
d="M367 16q-106 -78 -158.5 -144t-52.5 -130q0 -52 30.5 -78t75.5 -26q56 0 109 20l32 -92q-75 -45 -161 -45q-100 0 -155.5 53t-55.5 139q0 167 215 303h121z" />
    <glyph glyph-name="tilde" unicode="&#x2dc;" horiz-adv-x="411" 
d="M2 1165h-102q21 105 68.5 161t107.5 56q51 0 143 -47q76 -39 113 -39q30 0 48 20.5t38 78.5h96q-21 -114 -66 -169t-108 -55q-54 0 -150 48q-78 41 -106 41q-27 0 -46 -21.5t-36 -73.5z" />
    <glyph glyph-name="hungarumlaut" unicode="&#x2dd;" horiz-adv-x="411" 
d="M-20 1147h-132l236 311h178zM279 1147h-129l235 311h178z" />
    <glyph glyph-name="uni0394" unicode="&#x394;" horiz-adv-x="1349" 
d="M1337 0h-1327l563 1382h209zM676 1204q-30 -91 -97.5 -256t-328.5 -790h848q-368 893 -422 1046z" />
    <glyph glyph-name="uni03A9" unicode="&#x3a9;" horiz-adv-x="1497" 
d="M666 0h-529v158h395q-189 74 -290 229t-101 373q0 150 46 273t128 206t195.5 128.5t247.5 45.5q270 0 433 -174.5t163 -464.5q0 -436 -387 -616h393v-158h-524v233q162 63 248.5 190.5t86.5 317.5q0 227 -119 364.5t-298 137.5q-187 0 -307.5 -138t-120.5 -370
q0 -186 87 -315t253 -187v-233z" />
    <glyph glyph-name="uni03BC" unicode="&#x3bc;" horiz-adv-x="1296" 
d="M416 -414h-174v1284h-199v117q216 47 367 47v-575q0 -159 14 -219q9 -45 52 -75t102 -30q144 0 307 125v610h-203v117q204 47 373 47v-899h194v-115q-164 -32 -346 -32l-12 157q-137 -159 -316 -159q-102 0 -163 55q4 -150 4 -455z" />
    <glyph glyph-name="pi" unicode="&#x3c0;" horiz-adv-x="1179" 
d="M1114 866h-135v-487q0 -239 47 -379h-166q-39 144 -39 375v491h-440v-866h-160v866h-131v148h1024v-148z" />
    <glyph glyph-name="Wgrave" unicode="&#x1e80;" horiz-adv-x="2050" 
d="M690 0h-198l-330 1247l-150 15v122h563v-122l-221 -15q193 -747 248 -997q49 185 104 372t230 762h186q35 -111 86 -273.5t71.5 -226t52.5 -166t44.5 -146t31.5 -108.5t31 -110.5t25 -99.5q56 262 234 993l-217 15v122h557v-122l-156 -15l-313 -1247h-199
q-260 828 -348 1122q-48 -204 -332 -1122zM1202 1489h-153l-416 301h217z" />
    <glyph glyph-name="wgrave" unicode="&#x1e81;" horiz-adv-x="1628" 
d="M1487 879l-242 -879h-186q-190 589 -238 770q-50 -181 -254 -770h-184l-242 877l-137 16v121h500v-121l-180 -16q114 -411 174 -684q32 113 256 806h141q137 -428 182.5 -576.5t65.5 -229.5q11 49 30.5 124.5t58.5 229.5t83 332l-176 14v121h485v-121zM958 1147h-139
l-303 311h195z" />
    <glyph glyph-name="Wacute" unicode="&#x1e82;" horiz-adv-x="2050" 
d="M690 0h-198l-330 1247l-150 15v122h563v-122l-221 -15q193 -747 248 -997q49 185 104 372t230 762h186q35 -111 86 -273.5t71.5 -226t52.5 -166t44.5 -146t31.5 -108.5t31 -110.5t25 -99.5q56 262 234 993l-217 15v122h557v-122l-156 -15l-313 -1247h-199
q-260 828 -348 1122q-48 -204 -332 -1122zM979 1470h-156l351 302h219z" />
    <glyph glyph-name="wacute" unicode="&#x1e83;" horiz-adv-x="1628" 
d="M1487 879l-242 -879h-186q-190 589 -238 770q-50 -181 -254 -770h-184l-242 877l-137 16v121h500v-121l-180 -16q114 -411 174 -684q32 113 256 806h141q137 -428 182.5 -576.5t65.5 -229.5q11 49 30.5 124.5t58.5 229.5t83 332l-176 14v121h485v-121zM817 1147h-137
l248 311h194z" />
    <glyph glyph-name="Wdieresis" unicode="&#x1e84;" horiz-adv-x="2050" 
d="M690 0h-198l-330 1247l-150 15v122h563v-122l-221 -15q193 -747 248 -997q49 185 104 372t230 762h186q35 -111 86 -273.5t71.5 -226t52.5 -166t44.5 -146t31.5 -108.5t31 -110.5t25 -99.5q56 262 234 993l-217 15v122h557v-122l-156 -15l-313 -1247h-199
q-260 828 -348 1122q-48 -204 -332 -1122zM938 1624q0 -106 -100 -106q-99 0 -99 106q0 55 28.5 82t74.5 27q96 0 96 -109zM1307 1624q0 -106 -101 -106q-98 0 -98 106q0 56 28 82.5t74 26.5q97 0 97 -109z" />
    <glyph glyph-name="wdieresis" unicode="&#x1e85;" horiz-adv-x="1628" 
d="M1487 879l-242 -879h-186q-190 589 -238 770q-50 -181 -254 -770h-184l-242 877l-137 16v121h500v-121l-180 -16q114 -411 174 -684q32 113 256 806h141q137 -428 182.5 -576.5t65.5 -229.5q11 49 30.5 124.5t58.5 229.5t83 332l-176 14v121h485v-121zM748 1303
q0 -55 -27 -81t-74 -26q-42 0 -70 24.5t-28 82.5q0 55 28 81.5t74 26.5q97 0 97 -108zM1096 1303q0 -55 -27 -81t-74 -26q-42 0 -70 24.5t-28 82.5q0 55 28 81.5t74 26.5q97 0 97 -108z" />
    <glyph glyph-name="Ygrave" unicode="&#x1ef2;" horiz-adv-x="1413" 
d="M1012 0h-615v123l217 16v406l-462 700l-150 17v122h578v-122l-209 -17q57 -87 133.5 -203t99.5 -151.5t53 -83t54 -88.5l34 56t32 52t46.5 70.5t54.5 81.5t79 117.5t100 148.5l-215 17v122h571v-122l-151 -17l-469 -700v-406l219 -16v-123zM881 1489h-154l-416 301h217z
" />
    <glyph glyph-name="ygrave" unicode="&#x1ef3;" horiz-adv-x="1171" 
d="M158 -532l-45 151q157 25 250 116.5t165 264.5h-36l-353 877l-137 16v121h502v-121l-182 -14q156 -368 284 -721q126 377 248 721l-182 14v121h497v-121l-139 -16l-293 -807q-108 -296 -241 -431t-338 -171zM707 1147h-140l-303 311h195z" />
    <glyph glyph-name="endash" unicode="&#x2013;" horiz-adv-x="1073" 
d="M999 500h-925v125h925v-125z" />
    <glyph glyph-name="emdash" unicode="&#x2014;" horiz-adv-x="1808" 
d="M1737 500h-1663v125h1663v-125z" />
    <glyph glyph-name="quoteleft" unicode="&#x2018;" horiz-adv-x="385" 
d="M63 913q14 126 58 260.5t96 241.5h131q-89 -254 -115 -502h-170z" />
    <glyph glyph-name="quoteright" unicode="&#x2019;" horiz-adv-x="382" 
d="M315 1415q-14 -127 -58 -261.5t-95 -238.5h-129q84 236 112 500h170z" />
    <glyph glyph-name="quotesinglbase" unicode="&#x201a;" horiz-adv-x="382" 
d="M315 285q-14 -127 -58 -263t-95 -237h-129q85 238 112 500h170z" />
    <glyph glyph-name="quotedblleft" unicode="&#x201c;" horiz-adv-x="679" 
d="M360 913q14 127 57.5 262t94.5 240h131q-83 -236 -115 -502h-168zM63 913q14 126 58 260.5t96 241.5h131q-89 -254 -115 -502h-170z" />
    <glyph glyph-name="quotedblright" unicode="&#x201d;" horiz-adv-x="679" 
d="M315 1415q-14 -127 -58 -261.5t-95 -238.5h-129q84 236 112 500h170zM612 1415q-16 -127 -60 -262.5t-95 -237.5h-129q81 227 114 500h170z" />
    <glyph glyph-name="quotedblbase" unicode="&#x201e;" horiz-adv-x="679" 
d="M315 285q-14 -127 -58 -263t-95 -237h-129q85 238 112 500h170zM612 285q-16 -128 -60.5 -264.5t-94.5 -235.5h-129q82 229 114 500h170z" />
    <glyph glyph-name="dagger" unicode="&#x2020;" horiz-adv-x="944" 
d="M545 1407v-420h354v-147h-354v-1026h-146v1026h-356v147h356v420h146z" />
    <glyph glyph-name="daggerdbl" unicode="&#x2021;" horiz-adv-x="942" 
d="M899 260h-354v-446h-146v446h-356v150h356v432h-356v147h356v418h146v-418h354v-147h-354v-432h354v-150z" />
    <glyph glyph-name="bullet" unicode="&#x2022;" horiz-adv-x="665" 
d="M543 553q0 -105 -59.5 -161t-155.5 -56q-84 0 -145.5 55.5t-61.5 161.5q0 110 61 167.5t150 57.5q93 0 152 -53t59 -172z" />
    <glyph glyph-name="ellipsis" unicode="&#x2026;" horiz-adv-x="1650" 
d="M391 106q0 -61 -32 -91.5t-87 -30.5q-44 0 -78 29.5t-34 92.5t34 96.5t82 33.5t81.5 -31t33.5 -99zM942 106q0 -61 -33 -91.5t-88 -30.5q-43 0 -77.5 29.5t-34.5 92.5t34.5 96.5t81.5 33.5q49 0 83 -31t34 -99zM1493 106q0 -60 -33.5 -91t-87.5 -31q-44 0 -79.5 29.5
t-35.5 92.5t35 96.5t84 33.5q48 0 82.5 -31.5t34.5 -98.5z" />
    <glyph glyph-name="perthousand" unicode="&#x2030;" horiz-adv-x="2445" 
d="M700 936q0 -224 -85 -344.5t-240 -120.5q-157 0 -236.5 113t-79.5 315q0 208 85 325t247 117q157 0 233 -105t76 -300zM573 920q0 153 -42.5 230t-145.5 77q-90 0 -142.5 -76.5t-52.5 -237.5q0 -325 191 -325q91 0 141.5 82.5t50.5 249.5zM567 0h-102l651 1321h98z
M1628 446q0 -224 -85 -344t-240 -120q-156 0 -235 113t-79 315q0 208 84.5 325t247.5 117q156 0 231.5 -105.5t75.5 -300.5zM1501 430q0 154 -42 230.5t-146 76.5q-90 0 -141.5 -76t-51.5 -237q0 -326 189 -326q91 0 141.5 82.5t50.5 249.5zM2386 446q0 -224 -85.5 -344
t-240.5 -120q-157 0 -236 113t-79 315q0 208 85.5 325t248.5 117q156 0 231.5 -105.5t75.5 -300.5zM2259 430q0 153 -42.5 230t-145.5 77q-90 0 -142.5 -76t-52.5 -237q0 -326 190 -326q91 0 142 82.5t51 249.5z" />
    <glyph glyph-name="guilsinglleft" unicode="&#x2039;" horiz-adv-x="690" 
d="M446 897h175l-359 -377l361 -387h-179l-381 383z" />
    <glyph glyph-name="guilsinglright" unicode="&#x203a;" horiz-adv-x="690" 
d="M246 135h-174l358 377l-358 385h174l385 -381z" />
    <glyph glyph-name="fraction" unicode="&#x2044;" horiz-adv-x="200" 
d="M-172 0h-104l651 1321h102z" />
    <glyph glyph-name="zero.superior" unicode="&#x2070;" 
d="M700 1315q0 -224 -85 -344.5t-240 -120.5q-157 0 -236.5 113t-79.5 315q0 208 85 325t247 117q157 0 233 -105t76 -300zM573 1298q0 153 -42.5 230.5t-145.5 77.5q-90 0 -142.5 -76.5t-52.5 -237.5q0 -325 191 -325q91 0 141.5 82t50.5 249z" />
    <glyph glyph-name="four.superior" unicode="&#x2074;" 
d="M584 856h-123v219h-398v78l396 551h125v-524h127v-105h-127v-219zM461 1180q0 289 2 385q-54 -84 -277 -385h275z" />
    <glyph glyph-name="five.superior" unicode="&#x2075;" 
d="M80 877l29 112q21 -9 72 -16.5t102 -7.5q123 0 184 46t61 128q0 86 -49.5 121.5t-150.5 35.5q-81 0 -191 -28l47 434h447v-115h-348l-25 -203q66 17 123 17q143 0 212 -65.5t69 -182.5q0 -149 -100 -226t-281 -77q-122 0 -201 27z" />
    <glyph glyph-name="six.superior" unicode="&#x2076;" 
d="M643 1581q-64 25 -137 25q-134 0 -206 -71.5t-85 -221.5q32 41 93.5 70.5t133.5 29.5q122 0 189 -68.5t67 -201.5q0 -129 -81 -211t-218 -82q-61 0 -115 22t-98.5 67t-71 122t-26.5 178q0 224 105 352.5t313 128.5q82 0 168 -28zM217 1208q8 -252 189 -252q77 0 123 48
t46 139q0 79 -40.5 124.5t-126.5 45.5q-120 0 -191 -105z" />
    <glyph glyph-name="seven.superior" unicode="&#x2077;" 
d="M369 868h-142q136 355 326 719h-367l-22 -143h-88q0 210 10 258h606v-90q-202 -417 -323 -744z" />
    <glyph glyph-name="eight.superior" unicode="&#x2078;" 
d="M500 1303q180 -54 180 -201q0 -115 -83.5 -183.5t-217.5 -68.5q-129 0 -213 63t-84 177q0 147 178 206q-76 31 -112.5 84t-36.5 117q0 105 78 163t196 58q127 0 199.5 -54t72.5 -153q0 -66 -38.5 -121t-118.5 -87zM371 1251q-162 -43 -162 -151q0 -64 45 -100.5
t127 -36.5q81 0 127.5 35.5t46.5 95.5q0 65 -44 99.5t-140 57.5zM391 1346q68 18 108 55.5t40 89.5q0 53 -38.5 85t-113.5 32q-74 0 -115 -31t-41 -86q0 -113 160 -145z" />
    <glyph glyph-name="nine.superior" unicode="&#x2079;" 
d="M121 989q26 -11 70 -17.5t71 -6.5q136 0 208 72t85 223q-33 -42 -94 -70.5t-133 -28.5q-123 0 -190.5 66.5t-67.5 197.5q0 129 82 212t219 83q60 0 113.5 -22t98.5 -67t71 -122t26 -178q0 -225 -104.5 -353t-313.5 -128q-83 0 -172 29zM551 1364q-4 248 -189 248
q-75 0 -121 -48t-46 -139q0 -78 40.5 -121.5t124.5 -43.5q68 0 116 30t75 74z" />
    <glyph glyph-name="parenleft.superior" unicode="&#x207d;" horiz-adv-x="421" 
d="M412 666h-82q-46 38 -87.5 90t-81.5 123.5t-63.5 166t-23.5 197.5q0 334 258 565h82q-53 -61 -89.5 -114t-71 -122t-52 -150.5t-17.5 -174.5q0 -100 19.5 -189t56 -161.5t70.5 -123t82 -107.5z" />
    <glyph glyph-name="parenright.superior" unicode="&#x207e;" horiz-adv-x="421" 
d="M10 1808h82q46 -39 88 -90.5t82 -123.5t64 -166.5t24 -198.5q0 -330 -260 -563h-80q71 83 116.5 154t78.5 178t33 229q0 100 -19.5 188.5t-56.5 161.5t-70.5 122.5t-81.5 108.5z" />
    <glyph glyph-name="zero.inferior" unicode="&#x2080;" 
d="M700 127q0 -224 -85 -344.5t-240 -120.5q-157 0 -236.5 113t-79.5 315q0 208 85 325t247 117q157 0 233 -105t76 -300zM573 111q0 153 -42.5 230t-145.5 77q-90 0 -142.5 -76.5t-52.5 -237.5q0 -325 191 -325q91 0 141.5 82.5t50.5 249.5z" />
    <glyph glyph-name="one.inferior" unicode="&#x2081;" 
d="M625 -319h-418v90l153 10v604q-43 -29 -176 -104l-47 81q230 154 238 160h112v-741l138 -10v-90z" />
    <glyph glyph-name="two.inferior" unicode="&#x2082;" 
d="M666 -319h-627v96q225 165 358 291q113 102 113 213q0 135 -162 135q-108 0 -235 -68l-39 96q155 88 293 88q134 0 204 -63.5t70 -175.5q0 -143 -162 -289q-141 -123 -270 -213q53 0 171 1t189 1l21 144h84q0 -212 -8 -256z" />
    <glyph glyph-name="three.inferior" unicode="&#x2083;" 
d="M53 -309l25 112q19 -8 78 -16t94 -8q138 0 197 39t59 114q0 125 -197 125q-40 0 -94 -4l-4 105q150 6 210 44.5t60 104.5q0 57 -36 84t-113 27q-97 0 -221 -58l-37 95q147 77 278 77q127 0 190.5 -53t63.5 -153q0 -65 -46.5 -119.5t-127.5 -75.5q96 -8 152.5 -60.5
t56.5 -136.5q0 -140 -103 -206t-284 -66q-52 0 -114.5 9.5t-86.5 19.5z" />
    <glyph glyph-name="four.inferior" unicode="&#x2084;" 
d="M584 -332h-123v219h-398v78l396 551h125v-524h127v-105h-127v-219zM461 -8q0 289 2 385q-54 -84 -277 -385h275z" />
    <glyph glyph-name="five.inferior" unicode="&#x2085;" 
d="M80 -311l29 112q21 -9 72 -16.5t102 -7.5q123 0 184 46t61 128q0 86 -49.5 122t-150.5 36q-77 0 -191 -29l47 434h447v-115h-348l-25 -202q62 16 123 16q143 0 212 -65.5t69 -182.5q0 -149 -100 -226t-281 -77q-122 0 -201 27z" />
    <glyph glyph-name="six.inferior" unicode="&#x2086;" 
d="M643 393q-64 25 -137 25q-134 0 -206 -71.5t-85 -221.5q32 41 93.5 70.5t133.5 29.5q122 0 189 -68.5t67 -201.5q0 -129 -81 -211t-218 -82q-61 0 -115 22t-98.5 67t-71 122t-26.5 178q0 224 105 352.5t313 128.5q82 0 168 -28zM217 20q8 -251 189 -251q78 0 123.5 47.5
t45.5 138.5q0 79 -40.5 124.5t-126.5 45.5q-120 0 -191 -105z" />
    <glyph glyph-name="seven.inferior" unicode="&#x2087;" 
d="M369 -319h-142q134 351 326 718h-367l-22 -143h-88q0 210 10 258h606v-90q-203 -420 -323 -743z" />
    <glyph glyph-name="eight.inferior" unicode="&#x2088;" 
d="M500 115q180 -54 180 -201q0 -115 -83.5 -183.5t-217.5 -68.5q-129 0 -213 63t-84 177q0 148 178 207q-76 31 -112.5 83.5t-36.5 116.5q0 105 78 163t196 58q127 0 199.5 -53.5t72.5 -152.5q0 -66 -38.5 -121.5t-118.5 -87.5zM371 63q-162 -43 -162 -151q0 -64 45 -100.5
t127 -36.5q81 0 127.5 35.5t46.5 95.5q0 65 -44 99.5t-140 57.5zM391 158q68 18 108 55.5t40 89.5q0 53 -38.5 85t-113.5 32q-74 0 -115 -31t-41 -86q0 -113 160 -145z" />
    <glyph glyph-name="nine.inferior" unicode="&#x2089;" 
d="M121 -199q26 -11 70 -17.5t71 -6.5q136 0 208 72t85 223q-33 -42 -94 -70.5t-133 -28.5q-123 0 -190.5 67t-67.5 198q0 128 82 211t219 83q60 0 113.5 -22t98.5 -67t71 -122t26 -178q0 -225 -104.5 -353t-313.5 -128q-83 0 -172 29zM551 176q-4 248 -189 248
q-75 0 -121 -47.5t-46 -138.5q0 -78 41 -122t124 -44q68 0 116 30t75 74z" />
    <glyph glyph-name="parenleft.inferior" unicode="&#x208d;" horiz-adv-x="421" 
d="M412 -522h-82q-46 38 -87.5 90t-81.5 123.5t-63.5 166t-23.5 197.5q0 335 258 566h82q-111 -128 -170.5 -256.5t-59.5 -305.5q0 -100 19.5 -189t56 -161.5t70.5 -123t82 -107.5z" />
    <glyph glyph-name="parenright.inferior" unicode="&#x208e;" horiz-adv-x="421" 
d="M10 621h82q46 -39 88 -91t82 -123.5t64 -166.5t24 -199q0 -330 -260 -563h-80q71 83 116.5 154t78.5 178t33 229q0 100 -19.5 188.5t-56.5 162t-70.5 123t-81.5 108.5z" />
    <glyph glyph-name="Euro" unicode="&#x20ac;" horiz-adv-x="1413" 
d="M1333 178q-204 -207 -491 -207q-217 0 -358 138t-169 385h-155v102h149q0 106 4 145h-153v105h168q47 242 196 371t398 129q192 0 340 -50q10 -39 10 -335h-121l-25 198q-111 29 -229 29q-153 0 -253.5 -85t-131.5 -257h535v-105h-549q-4 -35 -4 -145h553v-102h-545
q17 -170 114.5 -265.5t247.5 -95.5q110 0 202 40.5t183 125.5z" />
    <glyph glyph-name="afii61289" unicode="&#x2113;" horiz-adv-x="909" 
d="M797 225l63 -110q-136 -142 -309 -142q-134 0 -220 85.5t-110 258.5q-39 -31 -115 -81l-59 118q99 65 152 109q-9 141 -9 246q0 247 39 387q31 118 110.5 186t192.5 68q117 0 183.5 -77t66.5 -202q0 -92 -31.5 -174.5t-97.5 -175.5q-50 -71 -113.5 -134.5t-179.5 -164.5
q1 -146 60 -223.5t160 -77.5q63 0 109 23.5t108 80.5zM342 582q156 144 221 239q82 120 82 244q0 73 -32 109t-89 36q-96 0 -140 -111.5t-44 -342.5q0 -96 2 -174z" />
    <glyph glyph-name="trademark" unicode="&#x2122;" horiz-adv-x="1994" 
d="M643 649h-356v76l121 8v551h-191l-20 -141h-76q0 186 8 241h676q6 -81 6 -241h-74l-20 141h-195v-551l121 -8v-76zM1214 649h-346v74l113 8l18 569l-116 9v75h282q162 -347 207 -487q40 103 203 487h276v-75l-118 -9l20 -569l113 -8v-74h-344v74l118 8q-14 533 -14 545
q-2 -4 -21.5 -55.5t-36 -91.5t-59 -138.5t-98.5 -222.5h-88q-153 345 -217 508q0 -100 -12 -545l120 -8v-74z" />
    <glyph glyph-name="Omega" unicode="&#x2126;" horiz-adv-x="1497" 
d="M666 0h-529v158h395q-189 74 -290 229t-101 373q0 150 46 273t128 206t195.5 128.5t247.5 45.5q270 0 433 -174.5t163 -464.5q0 -436 -387 -616h393v-158h-524v233q162 63 248.5 190.5t86.5 317.5q0 227 -119 364.5t-298 137.5q-187 0 -307.5 -138t-120.5 -370
q0 -186 87 -315t253 -187v-233z" />
    <glyph glyph-name="estimated" unicode="&#x212e;" horiz-adv-x="1742" 
d="M1645 641h-1250q-10 0 -10 -10v-375q0 -22 21 -43q89 -93 210 -144t261 -51q147 0 275 57.5t220 160.5h115q-108 -122 -269 -193.5t-344 -71.5q-210 0 -387.5 91.5t-281 249.5t-103.5 345q0 140 61 268t164.5 220t246.5 146.5t300 54.5t299.5 -54.5t246 -146.5
t164.5 -220t61 -268v-16zM1364 690v377q0 21 -21 45q-185 182 -466 182q-288 0 -469 -190q-23 -23 -23 -47v-367q0 -10 10 -10h959q10 0 10 10z" />
    <glyph glyph-name="onethird" unicode="&#x2153;" horiz-adv-x="1689" 
d="M549 0h-105l652 1321h102zM594 489h-418v91l154 10v604q-43 -29 -176 -104l-48 81q230 154 238 160h113v-741l137 -10v-91zM999 10l25 113q19 -8 78 -16.5t94 -8.5q138 0 197 39.5t59 114.5q0 125 -197 125q-40 0 -94 -4l-4 104q102 4 164 25.5t84 51.5t22 73
q0 57 -36 83.5t-113 26.5q-99 0 -221 -57l-37 94q149 78 278 78q127 0 190.5 -53.5t63.5 -153.5q0 -65 -46.5 -119t-127.5 -75q96 -8 152.5 -60.5t56.5 -136.5q0 -140 -103 -206t-284 -66q-53 0 -115.5 9t-85.5 19z" />
    <glyph glyph-name="twothirds" unicode="&#x2154;" horiz-adv-x="1689" 
d="M639 0h-104l651 1321h102zM705 489h-627v97q225 165 358 291q113 102 113 213q0 135 -162 135q-108 0 -235 -68l-39 96q155 88 293 88q134 0 204 -63.5t70 -175.5q0 -143 -162 -289q-141 -123 -270 -213q54 0 171 1t189 1l21 143h84q0 -212 -8 -256zM1063 10l24 113
q19 -8 78.5 -16.5t94.5 -8.5q138 0 197 39.5t59 114.5q0 125 -197 125q-40 0 -94 -4l-4 104q102 4 164 25.5t84 51.5t22 73q0 57 -36.5 83.5t-113.5 26.5q-99 0 -221 -57l-37 94q149 78 279 78q127 0 190.5 -53.5t63.5 -153.5q0 -65 -46.5 -119t-127.5 -75
q96 -8 152.5 -60.5t56.5 -136.5q0 -140 -103 -206t-284 -66q-53 0 -115.5 9t-85.5 19z" />
    <glyph glyph-name="oneeighth" unicode="&#x215b;" horiz-adv-x="1689" 
d="M567 0h-104l651 1321h103zM592 489h-418v91l154 10v604q-43 -29 -176 -104l-48 81q230 154 238 160h113v-741l137 -10v-91zM1425 434q181 -54 181 -201q0 -115 -83.5 -183t-217.5 -68q-129 0 -213 62.5t-84 176.5q0 148 178 207q-76 31 -113 84t-37 117q0 105 78.5 163
t196.5 58q127 0 199.5 -54t72.5 -153q0 -66 -38.5 -121.5t-119.5 -87.5zM1296 383q-161 -43 -161 -152q0 -64 45 -100.5t127 -36.5q81 0 127.5 35.5t46.5 95.5q0 65 -44.5 100t-140.5 58zM1317 477q68 18 107.5 55.5t39.5 90.5t-38 84.5t-113 31.5q-74 0 -115 -30.5
t-41 -85.5q0 -114 160 -146z" />
    <glyph glyph-name="threeeighths" unicode="&#x215c;" horiz-adv-x="1689" 
d="M584 0h-105l651 1321h103zM78 500l24 112q19 -8 78 -16t94 -8q138 0 197 39t59 114q0 125 -196 125q-40 0 -94 -4l-4 105q150 6 210 44.5t60 104.5q0 57 -36.5 84t-113.5 27q-97 0 -221 -58l-37 95q147 77 279 77q127 0 190.5 -53t63.5 -153q0 -65 -46.5 -119.5
t-127.5 -75.5q96 -8 152.5 -60.5t56.5 -136.5q0 -140 -103 -206t-284 -66q-52 0 -114.5 9.5t-86.5 19.5zM1436 434q180 -54 180 -201q0 -115 -83.5 -183t-217.5 -68q-129 0 -213 62.5t-84 176.5q0 148 178 207q-76 31 -112.5 84t-36.5 117q0 105 78 163t196 58
q127 0 199.5 -54t72.5 -153q0 -66 -38.5 -121.5t-118.5 -87.5zM1307 383q-162 -43 -162 -152q0 -64 45 -100.5t127 -36.5q81 0 127.5 35.5t46.5 95.5q0 66 -44 100.5t-140 57.5zM1327 477q68 18 108 55.5t40 90.5t-38.5 84.5t-113.5 31.5q-74 0 -115 -30.5t-41 -85.5
q0 -114 160 -146z" />
    <glyph glyph-name="fiveeighths" unicode="&#x215d;" horiz-adv-x="1689" 
d="M586 0h-105l652 1321h102zM104 498l29 112q21 -9 72 -16.5t102 -7.5q123 0 184.5 46t61.5 128q0 86 -50 122t-151 36q-76 0 -190 -29l47 434h446v-115h-348l-24 -202q62 16 123 16q143 0 211.5 -65.5t68.5 -182.5q0 -149 -100 -226t-281 -77q-122 0 -201 27zM1448 434
q180 -54 180 -201q0 -115 -83.5 -183t-217.5 -68q-129 0 -213 62.5t-84 176.5q0 148 178 207q-76 31 -112.5 84t-36.5 117q0 105 78 163t196 58q127 0 200 -54t73 -153q0 -66 -38.5 -121.5t-119.5 -87.5zM1319 383q-162 -43 -162 -152q0 -64 45 -100.5t127 -36.5
q81 0 127.5 35.5t46.5 95.5q0 66 -44 100.5t-140 57.5zM1339 477q68 18 108 55.5t40 90.5t-38.5 84.5t-113.5 31.5q-74 0 -114.5 -30.5t-40.5 -85.5q0 -114 159 -146z" />
    <glyph glyph-name="seveneighths" unicode="&#x215e;" horiz-adv-x="1689" 
d="M512 0h-104l651 1321h102zM395 489h-141q136 355 326 719h-367l-23 -143h-88q0 205 11 258h606v-90q-206 -425 -324 -744zM1407 434q180 -54 180 -201q0 -115 -83.5 -183t-217.5 -68q-129 0 -213 62.5t-84 176.5q0 148 178 207q-76 31 -112.5 84t-36.5 117q0 105 78 163
t196 58q127 0 200 -54t73 -153q0 -66 -38.5 -121.5t-119.5 -87.5zM1278 383q-162 -43 -162 -152q0 -64 45 -100.5t127 -36.5q81 0 127.5 35.5t46.5 95.5q0 66 -44 100.5t-140 57.5zM1298 477q68 18 108 55.5t40 90.5t-38.5 84.5t-113.5 31.5q-74 0 -114.5 -30.5t-40.5 -85.5
q0 -114 159 -146z" />
    <glyph glyph-name="arrowleft" unicode="&#x2190;" horiz-adv-x="1572" 
d="M1499 782v-184q-977 0 -1155 2q8 -7 66 -60t176 -163.5t280 -267.5l-106 -123l-709 704l713 711l104 -117q-406 -404 -524 -506q174 4 1155 4z" />
    <glyph glyph-name="arrowup" unicode="&#x2191;" horiz-adv-x="1572" 
d="M705 0q0 963 4 1135q-143 -158 -523 -508l-106 112l711 711l702 -709l-113 -114q-104 100 -188.5 182.5t-139.5 138.5t-86.5 88.5t-61.5 64.5t-32 34q2 -176 2 -1135h-169z" />
    <glyph glyph-name="arrowright" unicode="&#x2192;" horiz-adv-x="1572" 
d="M72 598v184q983 0 1155 -4q-134 121 -525 506l113 117l705 -711l-709 -704l-106 123q163 156 281.5 267.5t175 163.5t65.5 60q-178 -2 -1155 -2z" />
    <glyph glyph-name="arrowdown" unicode="&#x2193;" horiz-adv-x="1572" 
d="M705 1382h169q0 -958 -2 -1134q168 184 508 508l113 -113l-702 -711l-711 711l106 115q380 -350 523 -508q-4 172 -4 1132z" />
    <glyph glyph-name="uni2196" unicode="&#x2196;" horiz-adv-x="1572" 
d="M1378 233l-118 -129q-628 617 -814 803q5 -158 5 -708h-156v997h999v-164q-256 -2 -735 -2q176 -167 819 -797z" />
    <glyph glyph-name="uni2197" unicode="&#x2197;" horiz-adv-x="1572" 
d="M317 104l-118 129q661 648 821 797q-480 0 -737 2v164h999v-997h-156q0 580 4 706q-128 -128 -813 -801z" />
    <glyph glyph-name="uni2198" unicode="&#x2198;" horiz-adv-x="1572" 
d="M199 1137l118 131q714 -704 813 -803q-4 126 -4 706h156v-995h-999v164q177 1 322.5 1h216.5t129 -0.5t69 -0.5q-168 160 -821 797z" />
    <glyph glyph-name="uni2199" unicode="&#x2199;" horiz-adv-x="1572" 
d="M1260 1272l118 -131q-721 -704 -819 -795q24 -1 92.5 -1t247.5 -0.5t395 -2.5v-162h-999v998h156q0 -554 -5 -711q172 172 814 805z" />
    <glyph glyph-name="partialdiff" unicode="&#x2202;" horiz-adv-x="1128" 
d="M840 621q-44 61 -122 90.5t-157 29.5q-120 0 -202.5 -82.5t-82.5 -234.5q0 -149 78 -230t191 -81q94 0 169 56.5t101 172.5q25 111 25 279zM268 1214l-43 127q146 70 318 70q225 0 338.5 -196t113.5 -609q0 -143 -27 -257t-82 -199t-144 -131t-207 -46q-184 0 -296 117.5
t-112 325.5q0 145 58 249t153 153.5t215 49.5q175 0 276 -88q-9 236 -90 365t-223 129q-56 0 -127.5 -15.5t-120.5 -44.5z" />
    <glyph glyph-name="Delta" unicode="&#x2206;" horiz-adv-x="1349" 
d="M1337 0h-1327l563 1382h209zM676 1204q-30 -91 -97.5 -256t-328.5 -790h848q-368 893 -422 1046z" />
    <glyph glyph-name="product" unicode="&#x220f;" horiz-adv-x="1372" 
d="M1212 -246h-172v1467h-710v-1467h-168v1630h1050v-1630z" />
    <glyph glyph-name="summation" unicode="&#x2211;" horiz-adv-x="1153" 
d="M1102 -246h-1030v160l508 688l-490 641v141h1000v-161h-783l479 -619l-516 -684h832v-166z" />
    <glyph glyph-name="minus" unicode="&#x2212;" horiz-adv-x="1433" 
d="M1249 537h-1065v135h1065v-135z" />
    <glyph glyph-name="uni2215" unicode="&#x2215;" horiz-adv-x="200" 
d="M-176 0h-96l649 1319h94z" />
    <glyph glyph-name="uni2219" unicode="&#x2219;" horiz-adv-x="413" 
d="M322 543q0 -63 -32 -95t-85 -32q-44 0 -79.5 31t-35.5 96q0 63 35 96t84 33q46 0 79.5 -31t33.5 -98z" />
    <glyph glyph-name="radical" unicode="&#x221a;" horiz-adv-x="1306" 
d="M702 -375l-127 -2l-280 570l-135 -64l-51 109l262 127l268 -543l463 1564h131z" />
    <glyph glyph-name="infinity" unicode="&#x221e;" horiz-adv-x="1495" 
d="M748 694q93 108 175 158.5t181 50.5q126 0 202 -84t76 -219q0 -137 -81.5 -225t-213.5 -88q-96 0 -169 48t-170 163q-100 -113 -176.5 -161t-174.5 -48q-128 0 -207 80.5t-79 218.5q0 141 82.5 229t214.5 88q97 0 171 -47.5t169 -163.5zM670 594q-80 102 -133.5 143
t-130.5 41q-74 0 -125.5 -51.5t-51.5 -128.5q0 -81 49 -132.5t123 -51.5q75 0 138 45t131 135zM825 596q48 -54 72.5 -80.5t59 -54.5t65.5 -38.5t68 -10.5q75 0 123.5 50t48.5 128q0 86 -45 135t-121 49q-69 0 -134 -42t-137 -136z" />
    <glyph glyph-name="integral" unicode="&#x222b;" horiz-adv-x="667" 
d="M291 -66q0 30 -6 177l-37 917q-6 147 -6 156q0 126 62.5 197t182.5 71q68 0 129 -14l-14 -133q-49 14 -100 14q-52 0 -84.5 -37.5t-32.5 -118.5q0 -43 4 -133l37 -917q6 -159 6 -183q0 -137 -64 -198.5t-192 -61.5q-48 0 -117 15l17 135q62 -15 96 -15q59 0 89 26.5
t30 102.5z" />
    <glyph glyph-name="approxequal" unicode="&#x2248;" horiz-adv-x="1454" 
d="M272 264l-94 82q85 117 164 167t166 50q48 0 101 -19.5t145 -72.5q121 -70 202 -70q63 0 114 37t112 129l92 -80q-74 -116 -146 -170.5t-174 -54.5q-105 0 -245 78q-144 80 -207 80q-120 0 -230 -156zM272 662l-94 81q86 118 164.5 169t165.5 51q48 0 100.5 -20
t145.5 -73q119 -69 202 -69q63 0 114 36.5t112 125.5l92 -78q-74 -117 -146.5 -172.5t-173.5 -55.5q-98 0 -245 82q-144 80 -207 80q-119 0 -230 -157z" />
    <glyph glyph-name="notequal" unicode="&#x2260;" horiz-adv-x="1433" 
d="M487 12h-110l162 324h-355v133h414l131 260h-545v135h607l151 301h113l-150 -301h344v-135h-407l-129 -260h536v-133h-598z" />
    <glyph glyph-name="lessequal" unicode="&#x2264;" horiz-adv-x="1433" 
d="M1165 305l-925 420v137l925 428v-155l-772 -338l772 -330v-162zM1165 0h-925v135h925v-135z" />
    <glyph glyph-name="greaterequal" unicode="&#x2265;" horiz-adv-x="1433" 
d="M1194 725l-924 -420v158l772 334l-772 336v157l924 -424v-141zM1194 0h-924v135h924v-135z" />
    <glyph glyph-name="lozenge" unicode="&#x25ca;" horiz-adv-x="1454" 
d="M653 1409h152l342 -700l-342 -709h-152l-350 707zM455 707l278 -557l266 559l-268 555z" />
    <glyph glyph-name="Dotlessi" horiz-adv-x="739" 
d="M672 0h-604v123l211 16v1106l-211 17v122h604v-122l-211 -17v-1106l211 -16v-123z" />
    <glyph glyph-name="Euro.numerator" horiz-adv-x="878" 
d="M856 602q-131 -131 -319 -131q-150 0 -242 87t-109 241h-100v73h98q0 55 2 80h-100v74h109q64 311 393 311q129 0 225 -30q4 -25 4 -226h-86l-16 127q-74 19 -144 19q-207 0 -247 -201h346v-74h-357q-2 -23 -2 -80h359v-73h-353q9 -104 72 -157.5t162 -53.5
q137 0 248 100z" />
    <glyph glyph-name="Euro.oldstyle" horiz-adv-x="1288" 
d="M1231 154q-183 -183 -449 -183q-198 0 -327.5 121.5t-155.5 335.5h-143v96h137q0 90 8 142h-145v94h155q43 212 178.5 327t350.5 115q186 0 325 -47q13 -48 13 -309h-111l-23 178q-118 29 -227 29q-124 0 -216 -74.5t-120 -218.5h490v-94h-502q-8 -41 -8 -142h510v-96
h-500q15 -142 107 -223.5t227 -81.5q186 0 348 143z" />
    <glyph glyph-name="Kgreenlandic" horiz-adv-x="1447" 
d="M664 0h-596v123l211 16v1106l-211 17v122h585v-122l-192 -17v-579q72 72 274.5 295t265.5 288l-149 13v122h537v-122l-181 -17q-45 -45 -206.5 -220t-213.5 -226l259 -393q82 -124 131 -173q75 -79 170 -79q41 0 79 10l13 -162q-56 -18 -123 -18q-83 0 -140 22.5
t-118 77.5q-82 76 -160 201l-237 370l-201 -202v-314l203 -16v-123z" />
    <glyph glyph-name="S_S" horiz-adv-x="2248" 
d="M82 424h131l33 -246q146 -49 297 -49q143 0 220 59.5t77 159.5q0 86 -50 140t-192 104l-176 61q-150 52 -219.5 139t-69.5 230q0 176 126 284.5t378 108.5q194 0 367 -45q10 -59 10 -379h-129l-29 236q-109 28 -244 28q-78 0 -136.5 -19t-90 -51t-46.5 -66.5t-15 -71.5
q0 -76 39 -124.5t155 -95.5l187 -73q187 -72 259 -157.5t72 -225.5q0 -182 -131.5 -293t-378.5 -111q-256 0 -430 72q-14 129 -14 385zM1208 424h131l33 -246q146 -49 297 -49q143 0 220 59.5t77 159.5q0 86 -50 140t-192 104l-176 61q-150 52 -219 139t-69 230
q0 176 125.5 284.5t377.5 108.5q194 0 367 -45q10 -59 10 -379h-129l-29 236q-109 28 -243 28q-78 0 -137 -19t-90.5 -51t-46.5 -66.5t-15 -71.5q0 -76 39 -124.5t156 -95.5l186 -73q188 -72 260 -157.5t72 -225.5q0 -182 -131.5 -293t-378.5 -111q-256 0 -430 72
q-15 138 -15 385z" />
    <glyph glyph-name="acute.cap" horiz-adv-x="411" 
d="M76 1489h-156l350 301h219z" />
    <glyph glyph-name="braceleft.cap" horiz-adv-x="679" 
d="M633 -258q-102 0 -170.5 15t-118.5 52.5t-73 103t-23 165.5v223q0 138 -43.5 197t-147.5 73v84q110 20 150.5 82t40.5 193v217q0 193 89 267.5t296 74.5v-109q-43 0 -72 -3t-62 -16t-52.5 -37t-32.5 -67.5t-13 -105.5v-233q0 -99 -21 -159t-58 -90.5t-103 -52.5
q92 -21 137 -89t45 -203v-234q0 -73 18.5 -122.5t52.5 -75t72.5 -36t88.5 -10.5v-104z" />
    <glyph glyph-name="braceright.cap" horiz-adv-x="679" 
d="M51 1489q101 0 169.5 -15.5t118 -53.5t72.5 -104t23 -165v-223q0 -138 43.5 -197.5t147.5 -73.5v-84q-110 -20 -150.5 -80.5t-40.5 -191.5v-219q0 -192 -89 -266t-294 -74v104q42 0 71 3.5t61.5 17t52 37.5t32.5 68t13 106v231q0 144 41.5 208t138.5 97q-92 21 -136 88
t-44 205v232q0 72 -18 122t-52 75.5t-72 35.5t-88 10v107z" />
    <glyph glyph-name="bracketleft.cap" horiz-adv-x="604" 
d="M551 -244h-379v1710h379v-104h-229v-1495h229v-111z" />
    <glyph glyph-name="bracketright.cap" horiz-adv-x="604" 
d="M51 1466h383v-1710h-383v109h232v1495h-232v106z" />
    <glyph glyph-name="breve.cap" horiz-adv-x="411" 
d="M489 1755q-2 -118 -79.5 -195t-208.5 -77q-132 0 -205.5 78t-73.5 194h107q18 -160 174 -160q87 0 130 44t50 116h106z" />
    <glyph glyph-name="caron.alt" horiz-adv-x="391" 
d="M315 1481q-13 -104 -47.5 -213t-74.5 -189h-117q28 69 53 180.5t35 221.5h151z" />
    <glyph glyph-name="caron.cap" horiz-adv-x="411" 
d="M399 1747h136l-256 -258h-148l-254 258h137l193 -150z" />
    <glyph glyph-name="cedilla.cap" horiz-adv-x="411" 
d="M6 -473l33 106q55 -18 119 -18q53 0 80.5 21t27.5 59q0 39 -30.5 60.5t-85.5 21.5q-6 0 -76 -4l96 247h109l-62 -141q99 -8 141.5 -58.5t42.5 -117.5q0 -87 -67 -143t-189 -56q-67 0 -139 23z" />
    <glyph glyph-name="cent.denominator" horiz-adv-x="647" 
d="M420 -131h-64v129q-121 8 -190.5 89t-69.5 218q0 150 68.5 236.5t191.5 105.5v131h64v-125h18q104 0 174 -22q9 -33 9 -199h-82l-17 113q-34 10 -102 10v-451q50 1 92.5 17.5t99.5 50.5l43 -82q-124 -84 -235 -92v-129zM217 313q0 -174 139 -204v438q-139 -36 -139 -234z
" />
    <glyph glyph-name="cent.numerator" horiz-adv-x="677" 
d="M420 358h-64v127q-121 9 -190.5 91t-69.5 219q0 152 68.5 237.5t191.5 104.5v131h64v-125h10q109 0 182 -23q9 -33 9 -198h-82l-17 112q-42 10 -102 10v-450q50 1 92.5 17.5t99.5 50.5l43 -82q-125 -85 -235 -95v-127zM217 803q0 -175 139 -205v440q-66 -15 -102.5 -74
t-36.5 -161z" />
    <glyph glyph-name="cent.oldstyle" horiz-adv-x="894" 
d="M553 -184h-86v180q-160 8 -252 112.5t-92 284.5q0 194 91 305.5t253 135.5v192h86v-186q146 0 246 -25q8 -33 8 -264h-105l-20 149q-62 15 -129 15v-584q63 3 116 23t128 63l53 -102q-158 -104 -297 -117v-182zM281 403q0 -231 186 -268v572q-186 -44 -186 -304z" />
    <glyph glyph-name="circumflex.cap" horiz-adv-x="411" 
d="M12 1489h-135l256 258h148l254 -258h-138l-192 151z" />
    <glyph glyph-name="comma.denominator" horiz-adv-x="268" 
d="M215 143q-10 -91 -42.5 -185.5t-70.5 -164.5h-94q26 62 49.5 159.5t32.5 190.5h125z" />
    <glyph glyph-name="comma.numerator" horiz-adv-x="268" 
d="M215 633q-10 -91 -42.5 -185.5t-70.5 -164.5h-94q26 62 49.5 159.5t32.5 190.5h125z" />
    <glyph glyph-name="commaaccent" horiz-adv-x="391" 
d="M315 -111q-24 -201 -122 -401h-117q65 159 88 401h151z" />
    <glyph glyph-name="dieresis.cap" horiz-adv-x="411" 
d="M121 1624q0 -106 -101 -106q-98 0 -98 106q0 55 28.5 82t74.5 27q96 0 96 -109zM489 1624q0 -106 -100 -106q-98 0 -98 106q0 56 28 82.5t74 26.5q96 0 96 -109z" />
    <glyph glyph-name="dollar.denominator" horiz-adv-x="675" 
d="M403 -131h-61v127q-148 0 -256 43q-8 78 -8 227h82l20 -139q80 -27 162 -27v267l-59 22q-92 33 -135.5 84.5t-43.5 134.5q0 91 60 152.5t178 73.5v139h61v-135q106 0 224 -27q8 -35 8 -225h-82l-18 135q-50 12 -132 16v-262l46 -16q111 -40 152.5 -92t41.5 -138
q0 -94 -61.5 -155.5t-178.5 -73.5v-131zM524 219q0 43 -24 70.5t-97 56.5v-242q121 15 121 115zM225 623q0 -41 21.5 -68t89.5 -53l6 -2v233q-62 -10 -89.5 -40t-27.5 -70z" />
    <glyph glyph-name="dollar.numerator" horiz-adv-x="696" 
d="M403 358h-61v127q-148 0 -256 43q-8 78 -8 228h82l20 -140q77 -26 162 -26v266l-59 23q-92 33 -135.5 84.5t-43.5 134.5q0 92 59 152.5t179 72.5v139h61v-135q118 -3 224 -27q8 -35 8 -225h-82l-18 135q-55 13 -132 17v-262l46 -17q111 -40 152.5 -91.5t41.5 -137.5
q0 -94 -61.5 -156.5t-178.5 -75.5v-129zM524 709q0 43 -24 70.5t-97 56.5v-242q121 15 121 115zM225 1112q0 -41 21.5 -68t89.5 -53l6 -2v234q-62 -10 -89.5 -40.5t-27.5 -70.5z" />
    <glyph glyph-name="dollar.oldstyle" horiz-adv-x="1019" 
d="M578 -184h-86v180q-218 0 -355 57q-12 73 -12 318h115l26 -201q116 -37 226 -37v383l-84 31q-124 44 -185 116.5t-61 190.5q0 126 84 211.5t246 103.5v195h86v-190q164 -3 311 -37q8 -39 8 -312h-111l-26 189q-65 20 -182 24v-374l61 -23q154 -59 213 -129.5t59 -187.5
q0 -132 -85 -219t-248 -105v-184zM745 305q0 62 -34 100t-133 78v-346q82 13 124.5 57.5t42.5 110.5zM326 872q0 -60 31.5 -98t127.5 -74l7 -2v334q-88 -14 -127 -58.5t-39 -101.5z" />
    <glyph glyph-name="dotaccent.cap" horiz-adv-x="411" 
d="M305 1624q0 -106 -100 -106q-99 0 -99 106q0 55 28.5 82t74.5 27q96 0 96 -109z" />
    <glyph glyph-name="eight.denominator" 
d="M500 434q180 -54 180 -201q0 -115 -83.5 -183t-217.5 -68q-129 0 -213 62.5t-84 176.5q0 148 178 207q-76 31 -112.5 84t-36.5 117q0 105 78 163t196 58q127 0 199.5 -54t72.5 -153q0 -66 -38.5 -121.5t-118.5 -87.5zM371 383q-162 -43 -162 -152q0 -64 45 -100.5
t127 -36.5q81 0 127.5 35.5t46.5 95.5q0 66 -44 100.5t-140 57.5zM391 477q68 18 108 55.5t40 90.5t-38.5 84.5t-113.5 31.5q-74 0 -115 -30.5t-41 -85.5q0 -114 160 -146z" />
    <glyph glyph-name="eight.numerator" 
d="M500 924q180 -54 180 -201q0 -115 -83.5 -183.5t-217.5 -68.5q-129 0 -213 63t-84 177q0 148 178 207q-76 31 -112.5 83.5t-36.5 116.5q0 105 78 163t196 58q127 0 199.5 -53.5t72.5 -152.5q0 -66 -38.5 -121.5t-118.5 -87.5zM371 872q-162 -43 -162 -151
q0 -64 45 -100.5t127 -36.5q81 0 127.5 35.5t46.5 95.5q0 65 -44 99.5t-140 57.5zM391 967q68 18 108 55.5t40 89.5q0 53 -38.5 85t-113.5 32q-74 0 -115 -31t-41 -86q0 -113 160 -145z" />
    <glyph glyph-name="eight.taboldstyle" horiz-adv-x="1091" 
d="M723 692q270 -97 270 -334q0 -180 -127.5 -284.5t-320.5 -104.5q-192 0 -318.5 101t-126.5 278q0 118 70.5 204.5t196.5 131.5q-113 48 -165 128t-52 177q0 167 117.5 262t287.5 95q184 0 291.5 -88t107.5 -246q0 -219 -231 -320zM530 621q-124 -28 -190 -97.5
t-66 -158.5q0 -102 74.5 -168t196.5 -66q128 0 202 63.5t74 165.5q0 104 -74.5 166.5t-216.5 94.5zM563 750q100 24 164 86t64 149q0 85 -58.5 143t-175.5 58q-114 0 -179 -55.5t-65 -147.5q0 -95 63 -148.5t187 -84.5z" />
    <glyph glyph-name="emdash.cap" horiz-adv-x="1808" 
d="M1737 582h-1663v125h1663v-125z" />
    <glyph glyph-name="endash.cap" horiz-adv-x="1073" 
d="M999 582h-925v125h925v-125z" />
    <glyph glyph-name="estimated.alt" horiz-adv-x="1560" 
d="M1483 195q-140 -103 -299.5 -162.5t-364.5 -59.5q-159 0 -289 49t-217.5 137t-135.5 211t-48 269q0 141 39 259t106.5 200t158.5 139t195 84t216 27q139 0 246.5 -37t177.5 -100t115 -154.5t64.5 -192t20.5 -219.5h-1155q3 -240 144.5 -370t386.5 -130q307 0 551 193z
M1280 786q-5 60 -18.5 111.5t-45.5 108t-79 95.5t-126 65t-180 26q-197 0 -339 -105.5t-175 -300.5h963z" />
    <glyph glyph-name="five.denominator" 
d="M80 8l29 113q22 -9 72.5 -17t101.5 -8q123 0 184 46t61 128q0 86 -49.5 122t-150.5 36q-77 0 -191 -29l47 435h447v-115h-348l-25 -203q62 16 123 16q143 0 212 -65t69 -182q0 -149 -100 -226t-281 -77q-125 0 -201 26z" />
    <glyph glyph-name="five.numerator" 
d="M80 498l29 112q21 -9 72 -16.5t102 -7.5q123 0 184 46t61 128q0 86 -49.5 122t-150.5 36q-77 0 -191 -29l47 434h447v-115h-348l-25 -202q62 16 123 16q143 0 212 -65.5t69 -182.5q0 -149 -100 -226t-281 -77q-122 0 -201 27z" />
    <glyph glyph-name="five.taboldstyle" horiz-adv-x="1091" 
d="M109 -244l38 156q40 -14 116.5 -27.5t146.5 -13.5q194 0 283 82.5t89 220.5q0 137 -76.5 196.5t-230.5 59.5q-120 0 -282 -43l69 666h670v-166h-531l-39 -334q92 25 195 25q203 0 311.5 -100.5t108.5 -280.5q0 -243 -146 -365.5t-421 -122.5q-77 0 -162 13t-139 34z" />
    <glyph glyph-name="florin.numerator" horiz-adv-x="686" 
d="M-2 344l33 102q53 -16 98 -16q67 0 84 49q12 27 16 84l31 365h-143v88h151l8 88q9 86 37 137q56 96 201 96q83 0 150 -18q6 -27 6 -191h-84l-15 97q-20 4 -53 4q-71 0 -94 -47q-20 -39 -23 -86l-6 -80h174v-88h-184l-35 -373q-6 -81 -31 -135q-47 -96 -184 -96
q-79 0 -137 20z" />
    <glyph glyph-name="florin.oldstyle" horiz-adv-x="921" 
d="M-18 -188l45 145q65 -23 133 -23q92 0 121 70q13 32 22 121l45 502h-198v116h208l13 129q11 132 51 197q81 137 280 137q138 0 220 -28q6 -18 6 -269h-119l-23 142q-29 8 -79 8q-100 0 -136 -70q-20 -39 -28 -129l-13 -117h250v-116h-260l-47 -512q-11 -131 -45 -193
q-76 -137 -266 -137q-111 0 -180 27z" />
    <glyph glyph-name="four.denominator" 
d="M584 -12h-123v219h-398v78l396 551h125v-525h127v-104h-127v-219zM461 311q0 289 2 385q-54 -84 -277 -385h275z" />
    <glyph glyph-name="four.numerator" 
d="M584 477h-123v219h-398v78l396 551h125v-524h127v-105h-127v-219zM461 801q0 289 2 385q-54 -84 -277 -385h275z" />
    <glyph glyph-name="four.taboldstyle" horiz-adv-x="1091" 
d="M678 205q0 481 4 635q-155 -232 -451 -635h447zM852 -276h-174v333h-617v123l613 873h178v-848h197v-148h-197v-333z" />
    <glyph glyph-name="fourfifths" horiz-adv-x="1689" 
d="M625 0h-105l651 1321h103zM600 477h-123v219h-397v78l395 551h125v-524h127v-105h-127v-219zM477 801q0 289 2 385q-60 -94 -276 -385h274zM1049 8l28 113q22 -9 72.5 -17t101.5 -8q123 0 184.5 46t61.5 128q0 86 -50 122t-151 36q-76 0 -190 -29l47 435h446v-115h-348
l-24 -203q62 16 123 16q143 0 211.5 -65t68.5 -182q0 -149 -100 -226t-281 -77q-124 0 -200 26z" />
    <glyph glyph-name="grave.cap" horiz-adv-x="411" 
d="M489 1489h-153l-416 301h217z" />
    <glyph glyph-name="guillemotleft.cap" horiz-adv-x="1040" 
d="M446 1016h175l-359 -377l361 -387h-179l-381 383zM827 1016h174l-358 -377l358 -387h-174l-385 383z" />
    <glyph glyph-name="guillemotright.cap" horiz-adv-x="1040" 
d="M627 252h-174l358 377l-360 385h178l381 -381zM246 252h-174l358 377l-358 385h174l385 -381z" />
    <glyph glyph-name="guilsinglleft.cap" horiz-adv-x="661" 
d="M446 1014h175l-359 -377l361 -387h-179l-381 383z" />
    <glyph glyph-name="guilsinglright.cap" horiz-adv-x="661" 
d="M246 250h-174l358 377l-358 385h174l385 -381z" />
    <glyph glyph-name="hungarumlaut.cap" horiz-adv-x="411" 
d="M-76 1489h-151l313 301h203zM272 1489h-149l313 301h203z" />
    <glyph glyph-name="hyphen.cap" horiz-adv-x="622" 
d="M549 571h-475v154h475v-154z" />
    <glyph glyph-name="hyphen.denominator" horiz-adv-x="401" 
d="M356 315h-309v101h309v-101z" />
    <glyph glyph-name="hyphen.numerator" horiz-adv-x="401" 
d="M356 805h-309v100h309v-100z" />
    <glyph glyph-name="idotaccent" horiz-adv-x="663" 
d="M432 1317q0 -59 -31.5 -89t-83.5 -30q-46 0 -78 29t-32 90q0 60 32 90.5t80 30.5q113 0 113 -121zM618 0h-540v121l186 16v729h-198v119q200 53 366 53v-901l186 -16v-121z" />
    <glyph glyph-name="macron.cap" horiz-adv-x="411" 
d="M502 1532h-592v113h592v-113z" />
    <glyph glyph-name="nine.denominator" 
d="M121 121q27 -11 71 -18t70 -7q136 0 208 72t85 223q-33 -41 -94 -69.5t-133 -28.5q-123 0 -190.5 66.5t-67.5 197.5q0 129 82 212t219 83q60 0 113.5 -22t98.5 -67t71 -122t26 -178q0 -225 -104.5 -353t-313.5 -128q-86 0 -172 28zM551 496q-4 247 -189 247
q-75 0 -121 -47.5t-46 -138.5q0 -78 41 -122t124 -44q68 0 116 30.5t75 74.5z" />
    <glyph glyph-name="nine.numerator" 
d="M121 610q26 -11 70 -17.5t71 -6.5q136 0 208 72t85 223q-33 -42 -94 -70.5t-133 -28.5q-123 0 -190.5 67t-67.5 198q0 128 82 211t219 83q60 0 113.5 -22t98.5 -67t71 -122t26 -178q0 -225 -104.5 -353t-313.5 -128q-83 0 -172 29zM551 985q-4 248 -189 248
q-75 0 -121 -47.5t-46 -138.5q0 -78 41 -122t124 -44q68 0 116 30t75 74z" />
    <glyph glyph-name="nine.taboldstyle" horiz-adv-x="1091" 
d="M143 -96q38 -16 102.5 -26.5t104.5 -10.5q116 0 200 33t135.5 99t80 152t41.5 205q-59 -73 -156 -118t-200 -45q-179 0 -276 108t-97 311q0 207 116.5 339t323.5 132q75 0 141.5 -20t127.5 -66.5t105.5 -116.5t70.5 -175.5t26 -237.5q0 -174 -39 -312.5t-116.5 -239
t-200.5 -154.5t-285 -54q-122 0 -250 41zM803 512q0 412 -287 412q-124 0 -195 -81.5t-71 -228.5q0 -127 60.5 -198.5t189.5 -71.5q92 0 173.5 48.5t129.5 119.5z" />
    <glyph glyph-name="numbersign.oldstyle" horiz-adv-x="1128" 
d="M344 -55h-96l51 354h-225v137h243l33 219h-223v140h242l47 329h98l-49 -329h270l49 329h97l-52 -329h226v-140h-244l-31 -219h217v-137h-235l-51 -354h-97l52 354h-273zM446 655l-34 -219h272l33 219h-271z" />
    <glyph glyph-name="ogonek.cap" horiz-adv-x="411" 
d="M371 16q-112 -81 -166.5 -149t-54.5 -135q0 -53 31 -81t79 -28q55 0 113 25l35 -97q-82 -47 -170 -47q-103 0 -162.5 56t-59.5 143q0 171 228 313h127z" />
    <glyph glyph-name="one.denominator" 
d="M625 0h-418v90l153 10v605q-52 -35 -176 -105l-47 82q230 154 238 160h112v-742l138 -10v-90z" />
    <glyph glyph-name="one.numerator" 
d="M625 489h-418v91l153 10v604q-43 -29 -176 -104l-47 81q230 154 238 160h112v-741l138 -10v-91z" />
    <glyph glyph-name="one.taboldstyle" horiz-adv-x="1091" 
d="M915 0h-665v123l266 16v709q-187 -103 -287 -150l-65 127q282 172 371 228h153v-914l227 -16v-123z" />
    <glyph glyph-name="onefifth" horiz-adv-x="1689" 
d="M598 0h-104l651 1321h102zM637 489h-418v91l154 10v604q-43 -29 -176 -104l-47 81q213 143 237 160h113v-741l137 -10v-91zM1026 8l29 113q22 -9 72.5 -17t101.5 -8q123 0 184.5 46t61.5 128q0 86 -50 122t-151 36q-77 0 -191 -29l47 435h447v-115h-348l-25 -203
q62 16 123 16q143 0 212 -65t69 -182q0 -149 -100 -226t-281 -77q-125 0 -201 26z" />
    <glyph glyph-name="parenleft.cap" horiz-adv-x="663" 
d="M625 -256h-115q-410 358 -410 883q0 120 23 228.5t59 191.5t92.5 165.5t109.5 141.5t124 127h121q-87 -99 -145.5 -179.5t-113 -185t-81.5 -225t-27 -258.5q0 -71 8 -139.5t18 -123t33 -116.5t38 -101.5t49 -97.5t50 -84.5t57 -82.5t54 -72.5t56 -71.5z" />
    <glyph glyph-name="parenleft.denominator" horiz-adv-x="421" 
d="M412 -203h-82q-46 38 -87.5 90t-81.5 123.5t-63.5 166.5t-23.5 198q0 334 258 565h82q-53 -61 -89.5 -114t-71 -122t-52 -150.5t-17.5 -174.5q0 -100 19.5 -189t56 -162t71 -123.5t81.5 -107.5z" />
    <glyph glyph-name="parenleft.numerator" horiz-adv-x="421" 
d="M414 311h-84q-46 38 -87.5 89.5t-81.5 123t-63.5 166.5t-23.5 199q0 339 258 563h84q-71 -83 -116.5 -154t-78.5 -177.5t-33 -227.5q0 -100 19 -189t55.5 -162t70.5 -124t81 -107z" />
    <glyph glyph-name="parenright.cap" horiz-adv-x="663" 
d="M39 1483h113q59 -49 111 -104.5t108.5 -138t97 -173.5t66.5 -212t26 -251q0 -118 -22.5 -226.5t-58.5 -193t-91.5 -167t-109.5 -143.5t-125 -128h-119q69 81 116.5 144t98 147t80.5 164t49.5 181.5t19.5 213.5q0 91 -13 177.5t-29.5 152.5t-50 139.5t-57.5 119t-70 111.5
t-68.5 95.5t-71.5 91.5z" />
    <glyph glyph-name="parenright.denominator" horiz-adv-x="421" 
d="M10 940h82q46 -39 88 -91t82 -123.5t64 -166.5t24 -199q0 -330 -260 -563h-80q71 83 116.5 154t78.5 178t33 229q0 100 -19.5 188.5t-56.5 162t-70.5 123t-81.5 108.5z" />
    <glyph glyph-name="parenright.numerator" horiz-adv-x="421" 
d="M8 1454h84q46 -38 88 -90t82 -123.5t64 -166t24 -197.5q0 -333 -260 -566h-84q112 131 171 258t59 303q0 100 -19.5 188.5t-56.5 162t-70.5 123t-81.5 108.5z" />
    <glyph glyph-name="percent.oldstyle" horiz-adv-x="1609" 
d="M672 750q0 -175 -85 -272t-229 -97q-139 0 -220 92.5t-81 247.5q0 168 85 267t235 99q138 0 216.5 -91t78.5 -246zM547 735q0 105 -41.5 170.5t-136.5 65.5q-82 0 -133.5 -62.5t-51.5 -177.5q0 -123 49.5 -178t131.5 -55q80 0 131 59.5t51 177.5zM559 -61h-96l579 1177
h95zM1552 346q0 -175 -85 -270.5t-228 -95.5q-139 0 -222 91.5t-83 245.5q0 168 85 267.5t236 99.5q138 0 217.5 -91.5t79.5 -246.5zM1425 334q0 231 -178 231q-82 0 -132 -61t-50 -176q0 -123 48.5 -178.5t129.5 -55.5q79 0 130.5 60.5t51.5 179.5z" />
    <glyph glyph-name="period.denominator" horiz-adv-x="268" 
d="M213 74q0 -41 -22.5 -63.5t-57.5 -22.5q-32 0 -56 21.5t-24 64.5t24 65.5t58 22.5q78 0 78 -88z" />
    <glyph glyph-name="period.numerator" horiz-adv-x="268" 
d="M213 563q0 -41 -22.5 -63.5t-57.5 -22.5q-32 0 -56 21.5t-24 64.5t24 65.5t58 22.5q78 0 78 -88z" />
    <glyph glyph-name="periodcentered.cap" horiz-adv-x="413" 
d="M322 635q0 -62 -32 -93.5t-85 -31.5q-44 0 -79.5 30.5t-35.5 94.5q0 63 35 97t84 34q46 0 79.5 -31t33.5 -100z" />
    <glyph glyph-name="perthousand.oldstyle" horiz-adv-x="2330" 
d="M672 750q0 -175 -85 -272t-229 -97q-139 0 -220 92.5t-81 247.5q0 168 85 267t235 99q138 0 216.5 -91t78.5 -246zM547 735q0 105 -41.5 170.5t-136.5 65.5q-82 0 -133.5 -62.5t-51.5 -177.5q0 -123 49.5 -178t131.5 -55q80 0 131 59.5t51 177.5zM559 -61h-96l579 1177
h95zM1552 346q0 -175 -85 -270.5t-228 -95.5q-139 0 -222 91.5t-83 245.5q0 168 85 267.5t236 99.5q138 0 217.5 -91.5t79.5 -246.5zM1425 334q0 231 -178 231q-82 0 -132 -61t-50 -176q0 -123 48.5 -178.5t129.5 -55.5q79 0 130.5 60.5t51.5 179.5zM2273 346
q0 -175 -85 -270.5t-228 -95.5q-139 0 -222 91.5t-83 245.5q0 168 85 267.5t236 99.5q138 0 217.5 -91.5t79.5 -246.5zM2146 334q0 231 -178 231q-81 0 -131.5 -61t-50.5 -176q0 -123 48.5 -178.5t129.5 -55.5q79 0 130.5 60.5t51.5 179.5z" />
    <glyph glyph-name="ring.cap" horiz-adv-x="411" 
d="M381 1634q0 -75 -49 -128.5t-125 -53.5t-126 51t-50 127q0 77 51 127.5t127 50.5q79 0 125.5 -47.5t46.5 -126.5zM311 1632q0 52 -28.5 81.5t-75.5 29.5t-76 -31t-29 -82q0 -49 28.5 -79.5t80.5 -30.5q47 0 73.5 31t26.5 81z" />
    <glyph glyph-name="seven.denominator" 
d="M369 0h-142q136 355 326 719h-367l-22 -144h-88q0 211 10 259h606v-91q-203 -420 -323 -743z" />
    <glyph glyph-name="seven.numerator" 
d="M369 489h-142q136 355 326 719h-367l-22 -143h-88q0 210 10 258h606v-90q-202 -417 -323 -744z" />
    <glyph glyph-name="seven.taboldstyle" horiz-adv-x="1091" 
d="M526 -272h-198q76 207 176 439t163 366t169 354h-607l-34 -234h-119q0 325 14 400h934v-144q-320 -708 -498 -1181z" />
    <glyph glyph-name="six.denominator" 
d="M643 713q-61 24 -137 24q-134 0 -206 -71.5t-85 -221.5q32 41 94 71t133 30q122 0 189 -69t67 -202q0 -128 -81 -210t-218 -82q-61 0 -115 22t-98.5 67t-71 122t-26.5 178q0 224 105 352.5t313 128.5q79 0 168 -29zM217 340q8 -252 189 -252q78 0 123.5 47.5t45.5 138.5
q0 79 -40.5 124.5t-126.5 45.5q-121 0 -191 -104z" />
    <glyph glyph-name="six.numerator" 
d="M643 1202q-64 25 -137 25q-135 0 -206.5 -71t-84.5 -222q32 41 93.5 70.5t133.5 29.5q122 0 189 -68t67 -200q0 -129 -81 -212t-218 -83q-61 0 -115 22t-98.5 67t-71 122t-26.5 178q0 224 105 352.5t313 128.5q92 0 168 -28zM217 829q8 -249 189 -249q78 0 123.5 47.5
t45.5 138.5q0 79 -40.5 123.5t-126.5 44.5q-123 0 -191 -105z" />
    <glyph glyph-name="six.taboldstyle" horiz-adv-x="1091" 
d="M948 1151q-38 14 -103 25.5t-102 11.5q-116 0 -199 -33t-134.5 -99.5t-79.5 -152.5t-41 -205q58 72 154.5 117t199.5 45q181 0 278 -107.5t97 -310.5q0 -205 -118 -339t-325 -134q-93 0 -174.5 34t-149.5 104.5t-107.5 194t-39.5 286.5q0 174 39 312.5t117 239
t201.5 154.5t286.5 54q108 0 247 -41zM291 543q1 -70 9 -128t28 -112.5t51.5 -91.5t82.5 -59.5t118 -22.5q123 0 193.5 81.5t70.5 227.5q0 127 -60 200t-188 73q-92 0 -175 -48.5t-130 -119.5z" />
    <glyph glyph-name="sterling.numerator" horiz-adv-x="776" 
d="M713 489h-664v101q199 81 199 192q0 9 -4 37h-158v88h127q-5 11 -18 39.5t-19 42.5t-14 37.5t-11.5 44.5t-3.5 43q0 105 76 165t213 60q148 0 234 -36q10 -45 10 -226h-88l-14 131q-74 19 -134 19q-81 0 -122 -34.5t-41 -96.5q0 -46 36 -131q8 -20 27 -58h229v-88h-213
q2 -8 2 -26q0 -68 -38 -113t-117 -80q123 2 414 2l24 148h78q0 -212 -10 -261z" />
    <glyph glyph-name="sterling.oldstyle" horiz-adv-x="1130" 
d="M1034 0h-930v131q277 118 277 291q0 23 -6 53h-217v115h178q-7 17 -24.5 57.5t-25.5 61.5t-19.5 55t-16 64.5t-4.5 62.5q0 148 102 231.5t291 83.5q212 0 332 -49q7 -26 8.5 -80.5t1.5 -234.5h-117l-22 194q-79 23 -187 23q-115 0 -173 -48t-58 -139q0 -90 51 -194
q38 -83 39 -88h320v-115h-299q6 -30 6 -65q0 -47 -17.5 -86.5t-53.5 -72.5t-69.5 -55.5t-85.5 -50.5q217 5 590 5l35 212h104q0 -293 -10 -362z" />
    <glyph glyph-name="three.denominator" 
d="M53 10l25 113q19 -8 78 -16.5t94 -8.5q138 0 197 39.5t59 114.5q0 125 -197 125q-40 0 -94 -4l-4 104q102 4 164 25.5t84 51.5t22 73q0 57 -36 83.5t-113 26.5q-99 0 -221 -57l-37 94q149 78 278 78q127 0 190.5 -53.5t63.5 -153.5q0 -65 -46.5 -119t-127.5 -75
q96 -8 152.5 -60.5t56.5 -136.5q0 -140 -103 -206t-284 -66q-53 0 -115.5 9t-85.5 19z" />
    <glyph glyph-name="three.numerator" 
d="M53 500l25 112q19 -8 78 -16t94 -8q138 0 197 39t59 114q0 125 -197 125q-40 0 -94 -4l-4 105q150 6 210 44.5t60 104.5q0 57 -36 84t-113 27q-97 0 -221 -58l-37 95q147 77 278 77q127 0 190.5 -53t63.5 -153q0 -65 -46.5 -119.5t-127.5 -75.5q96 -8 152.5 -60.5
t56.5 -136.5q0 -140 -103 -206t-284 -66q-52 0 -114.5 9.5t-86.5 19.5z" />
    <glyph glyph-name="three.taboldstyle" horiz-adv-x="1091" 
d="M68 -242l41 156q28 -12 113.5 -26.5t133.5 -14.5q111 0 189.5 19t123.5 55.5t65 83t20 108.5q0 45 -13 81t-45 68.5t-94 50t-151 17.5q-60 0 -138 -8l-6 152q115 5 196.5 24.5t127 52.5t66 73.5t20.5 92.5q0 92 -57 135.5t-177 43.5q-136 0 -323 -93l-58 138
q224 116 410 116q192 0 283.5 -78t91.5 -235q0 -105 -68 -187.5t-190 -117.5q143 -12 224 -97.5t81 -217.5q0 -227 -147.5 -334t-419.5 -107q-78 0 -171 15.5t-128 33.5z" />
    <glyph glyph-name="threefifths" horiz-adv-x="1689" 
d="M623 0h-105l651 1321h103zM119 500l24 112q19 -8 78 -16t94 -8q138 0 197 39t59 114q0 125 -196 125q-40 0 -94 -4l-5 105q150 6 210.5 44.5t60.5 104.5q0 57 -36.5 84t-113.5 27q-97 0 -221 -58l-37 95q147 77 279 77q127 0 190.5 -53t63.5 -153q0 -65 -46.5 -119.5
t-127.5 -75.5q96 -8 152.5 -60.5t56.5 -136.5q0 -140 -103.5 -206t-284.5 -66q-52 0 -114 9.5t-86 19.5zM1042 8l29 113q22 -9 72.5 -17t101.5 -8q123 0 184.5 46t61.5 128q0 86 -50 122t-151 36q-76 0 -190 -29l47 435h446v-115h-348l-24 -203q62 16 122 16q143 0 212 -65
t69 -182q0 -149 -100 -226t-281 -77q-125 0 -201 26z" />
    <glyph glyph-name="tilde.cap" horiz-adv-x="411" 
d="M-12 1489h-105q23 105 72 161t113 56q33 0 64 -10.5t87 -36.5q80 -39 121 -39q32 0 51 20.5t39 77.5h100q-41 -223 -182 -223q-61 0 -158 47q-90 41 -114 41q-28 0 -48 -21t-40 -73z" />
    <glyph glyph-name="two.denominator" 
d="M666 0h-627v96q225 165 358 291q113 102 113 213q0 135 -162 135q-110 0 -235 -67l-39 96q155 88 293 88q134 0 204 -63.5t70 -176.5q0 -142 -162 -288q-141 -123 -270 -213q53 0 171 1t189 1l21 143h84q0 -212 -8 -256z" />
    <glyph glyph-name="two.numerator" 
d="M666 489h-627v97q225 165 358 291q113 102 113 213q0 135 -162 135q-108 0 -235 -68l-39 96q155 88 293 88q134 0 204 -63.5t70 -175.5q0 -143 -162 -289q-141 -123 -270 -213q53 0 171 1t189 1l21 143h84q0 -212 -8 -256z" />
    <glyph glyph-name="two.taboldstyle" horiz-adv-x="1091" 
d="M944 0h-866v113q269 174 475 356q141 122 141 264q0 79 -51.5 134t-163.5 55q-143 0 -313 -99l-57 146q204 114 399 114q178 0 273.5 -89t95.5 -238q0 -194 -213 -375q-137 -118 -330 -236q123 2 479 2l35 203h110q0 -276 -14 -350z" />
    <glyph glyph-name="twofifths" horiz-adv-x="1689" 
d="M657 0h-104l651 1321h103zM707 489h-627v97q225 165 358 291q113 102 113 213q0 135 -162 135q-108 0 -235 -68l-39 96q155 88 293 88q134 0 204 -63.5t70 -175.5q0 -143 -162 -289q-141 -123 -270 -213q54 0 171 1t189 1l21 143h84q0 -212 -8 -256zM1055 8l28 113
q22 -9 72.5 -17t101.5 -8q123 0 184.5 46t61.5 128q0 86 -49.5 122t-150.5 36q-77 0 -191 -29l47 435h447v-115h-349l-24 -203q62 16 123 16q143 0 211.5 -65t68.5 -182q0 -149 -100 -226t-281 -77q-124 0 -200 26z" />
    <glyph glyph-name="yen.numerator" horiz-adv-x="935" 
d="M758 727h-232v-141l144 -13v-84h-404v84l142 13v141h-230v72h230v22l-41 60h-189v73h137l-188 277l-96 10v82h370v-82l-127 -10q163 -244 195 -297q11 17 34 52t62 92t107 153l-131 10v82h366v-82l-98 -10l-193 -277h142v-73h-193l-39 -58v-24h232v-72z" />
    <glyph glyph-name="yen.oldstyle" horiz-adv-x="1329" 
d="M1092 322h-359v-187l217 -14v-121h-585v121l213 14v187h-355v96h355v28l-72 105h-283v96h215l-270 393l-137 15v121h534v-121l-194 -15q230 -347 288 -440q41 63 304 440l-193 15v121h528v-121l-141 -15l-280 -393h215v-96h-285l-74 -105v-28h359v-96z" />
    <glyph glyph-name="zero.denominator" 
d="M700 446q0 -224 -85 -344t-240 -120q-157 0 -236.5 113t-79.5 315q0 208 85 325t247 117q157 0 233 -105.5t76 -300.5zM573 430q0 153 -42.5 230t-145.5 77q-90 0 -142.5 -76t-52.5 -237q0 -326 191 -326q91 0 141.5 82.5t50.5 249.5z" />
    <glyph glyph-name="zero.numerator" 
d="M700 936q0 -224 -85 -344.5t-240 -120.5q-157 0 -236.5 113t-79.5 315q0 208 85 325t247 117q157 0 233 -105t76 -300zM573 920q0 153 -42.5 230t-145.5 77q-90 0 -142.5 -76.5t-52.5 -237.5q0 -325 191 -325q91 0 141.5 82.5t50.5 249.5z" />
    <glyph glyph-name="zero.taboldstyle" horiz-adv-x="1091" 
d="M1022 553q0 -277 -129 -430.5t-354 -153.5q-219 0 -344 145.5t-125 389.5q0 265 129.5 422t363.5 157q222 0 340.5 -142t118.5 -388zM846 535q0 387 -291 387q-139 0 -222 -101.5t-83 -294.5q0 -202 81.5 -297.5t215.5 -95.5q137 0 218 100.5t81 301.5z" />
    <glyph glyph-name="one.fitted" horiz-adv-x="890" 
d="M799 0h-625v123l236 16v994q-117 -77 -269 -164l-69 121q192 127 360 247h154v-1198l213 -16v-123z" />
    <glyph glyph-name="two.fitted" horiz-adv-x="1116" 
d="M991 0h-964v129q323 245 553 475q81 81 128.5 173t47.5 177q0 100 -60 166t-192 66q-169 0 -363 -109l-53 133q226 138 447 138q207 0 310 -98t103 -279q0 -231 -260 -475q-180 -166 -414 -340q352 4 578 4l33 223h121q0 -303 -15 -383z" />
    <glyph glyph-name="three.fitted" horiz-adv-x="1081" 
d="M47 14l35 156q32 -11 121.5 -26t140.5 -15q221 0 315.5 70t94.5 198q0 45 -14 80t-47 65.5t-96.5 47t-154.5 16.5q-61 0 -143 -8l-8 152q424 18 424 251q0 94 -58.5 139.5t-181.5 45.5q-155 0 -340 -92l-55 135q106 53 220 86t206 33q387 0 387 -324q0 -103 -70 -189
t-192 -120q147 -12 230 -95t83 -214q0 -227 -153.5 -334t-434.5 -107q-78 0 -174 16.5t-135 32.5z" />
    <glyph glyph-name="four.fitted" horiz-adv-x="1189" 
d="M913 -20h-178v354h-657v115l653 888h182v-845h207v-158h-207v-354zM735 492q0 493 4 645q-111 -161 -485 -645h481z" />
    <glyph glyph-name="five.fitted" horiz-adv-x="1107" 
d="M88 14l35 156q38 -14 117 -27.5t155 -13.5q198 0 289.5 81t91.5 218t-78.5 196.5t-236.5 59.5q-134 0 -287 -43l72 684h688v-164h-545l-37 -350q95 25 197 25q206 0 317 -101.5t111 -281.5q0 -242 -152 -364t-432 -122q-79 0 -164 13t-141 34z" />
    <glyph glyph-name="six.fitted" horiz-adv-x="1148" 
d="M975 1147q-38 16 -105 26.5t-108 10.5q-117 0 -200 -32.5t-134.5 -98t-79.5 -151t-41 -204.5q59 71 159.5 116.5t203.5 45.5q185 0 287 -105.5t102 -312.5q0 -133 -53.5 -239.5t-160 -170t-249.5 -63.5q-74 0 -141.5 20.5t-129.5 67.5t-107 117t-72 176t-27 238
q0 174 39.5 312.5t118.5 239t203 154.5t286 54q119 0 258 -41zM311 543q4 -414 289 -414q126 0 201.5 81.5t75.5 227.5q0 125 -65.5 198t-195.5 73q-87 0 -172.5 -49t-132.5 -117z" />
    <glyph glyph-name="seven.fitted" horiz-adv-x="1044" 
d="M498 0h-209q191 513 512 1161h-586l-37 -237h-121q0 333 15 401h923v-143q-290 -606 -497 -1182z" />
    <glyph glyph-name="eight.fitted" horiz-adv-x="1148" 
d="M758 694q137 -45 207.5 -129t70.5 -196q0 -181 -131 -290.5t-332 -109.5t-329.5 100.5t-128.5 280.5q0 118 71 205t201 133q-117 48 -172 129.5t-55 177.5q0 113 57 194t151 120t214 39q195 0 305 -86t110 -242q0 -99 -58 -185.5t-181 -140.5zM557 618
q-129 -29 -196.5 -94.5t-67.5 -156.5q0 -105 76 -171.5t204 -66.5q130 0 206.5 64t76.5 167q0 108 -74 166.5t-225 91.5zM592 754q107 24 172 84.5t65 148.5q0 90 -60 145.5t-185 55.5q-119 0 -186.5 -54t-67.5 -147q0 -98 65.5 -150.5t196.5 -82.5z" />
    <glyph glyph-name="nine.fitted" horiz-adv-x="1148" 
d="M176 172q38 -17 106.5 -29t108.5 -12q116 0 199 33t135 99.5t80 152.5t41 205q-59 -72 -159 -117t-204 -45q-184 0 -285.5 105t-101.5 313q0 204 123.5 337.5t337.5 133.5q76 0 143.5 -20t129.5 -67t106.5 -117t71 -176.5t26.5 -238.5q0 -173 -39.5 -311.5t-118.5 -239.5
t-203 -155t-286 -54q-136 0 -260 43zM842 774q0 69 -8.5 127.5t-29 112.5t-53 91.5t-83 60t-115.5 22.5q-125 0 -201 -82t-76 -227q0 -125 65.5 -198t195.5 -73q89 0 173.5 48.5t131.5 117.5z" />
    <glyph glyph-name="zero.oldstyle" horiz-adv-x="1110" 
d="M1038 553q0 -275 -132.5 -429.5t-354.5 -154.5q-219 0 -350 146.5t-131 388.5q0 265 133 422t372 157q223 0 343 -142t120 -388zM864 535q0 387 -299 387q-142 0 -228.5 -101.5t-86.5 -294.5q0 -103 25 -180.5t68.5 -123t97.5 -67.5t118 -22q132 0 218.5 103t86.5 299z
" />
    <glyph glyph-name="one.oldstyle" horiz-adv-x="888" 
d="M825 0h-665v123l264 16v709q-171 -97 -287 -150l-63 127q333 206 368 228h156v-914l227 -16v-123z" />
    <glyph glyph-name="two.oldstyle" horiz-adv-x="1048" 
d="M926 0h-867v113q254 162 476 356q141 125 141 264q0 79 -50 134t-161 55q-148 0 -318 -99l-57 146q207 114 399 114q181 0 275 -88.5t94 -238.5q0 -196 -211 -375q-148 -124 -330 -236q121 2 482 2l32 203h111q0 -265 -16 -350z" />
    <glyph glyph-name="three.oldstyle" horiz-adv-x="1005" 
d="M18 -242l39 156q28 -12 113 -26.5t133 -14.5q112 0 190 19t121.5 55.5t62.5 83t19 108.5q0 45 -13 81t-45 68.5t-94 50t-151 17.5q-55 0 -133 -8l-6 152q115 5 196 24.5t126.5 52.5t65.5 73.5t20 92.5q0 92 -57.5 135.5t-176.5 43.5q-132 0 -319 -93l-56 138
q220 116 402 116q191 0 281.5 -78t90.5 -235q0 -105 -67.5 -187.5t-186.5 -117.5q141 -12 221 -97.5t80 -217.5q0 -441 -561 -441q-76 0 -168 15.5t-127 33.5z" />
    <glyph glyph-name="four.oldstyle" horiz-adv-x="1112" 
d="M702 205q0 449 5 639q-102 -149 -484 -639h479zM874 -276h-172v333h-649v123l645 873h176v-848h199v-148h-199v-333z" />
    <glyph glyph-name="five.oldstyle" horiz-adv-x="1024" 
d="M66 -244l40 156q38 -14 115 -27.5t148 -13.5q193 0 283.5 82.5t90.5 218.5q0 137 -78 197.5t-233 60.5q-117 0 -282 -43l69 666h672v-166h-533l-36 -334q89 25 192 25q204 0 313 -101t109 -280q0 -243 -147 -365.5t-422 -122.5q-77 0 -162 13t-139 34z" />
    <glyph glyph-name="six.oldstyle" horiz-adv-x="1091" 
d="M948 1151q-38 14 -103 25.5t-102 11.5q-116 0 -199 -33t-134.5 -99.5t-79.5 -152.5t-41 -205q58 72 154.5 117t199.5 45q181 0 278 -107.5t97 -310.5q0 -205 -118 -339t-325 -134q-93 0 -174.5 34t-149.5 104.5t-107.5 194t-39.5 286.5q0 174 39 312.5t117 239
t201.5 154.5t286.5 54q108 0 247 -41zM291 543q1 -70 9 -128t28 -112.5t51.5 -91.5t82.5 -59.5t118 -22.5q123 0 193.5 81.5t70.5 227.5q0 127 -60 200t-188 73q-92 0 -175 -48.5t-130 -119.5z" />
    <glyph glyph-name="seven.oldstyle" horiz-adv-x="989" 
d="M485 -272h-198q193 526 499 1159h-577l-35 -234h-119q0 330 13 400h907v-144q-312 -690 -490 -1181z" />
    <glyph glyph-name="eight.oldstyle" horiz-adv-x="1089" 
d="M723 692q270 -92 270 -334q0 -180 -127.5 -284.5t-320.5 -104.5q-125 0 -224.5 42.5t-160 129.5t-60.5 205q0 119 70.5 206t196.5 132q-113 48 -165 129.5t-52 179.5q0 111 57 193.5t147.5 122t200.5 39.5q184 0 291.5 -88.5t107.5 -247.5q0 -219 -231 -320zM530 621
q-123 -28 -189.5 -98.5t-66.5 -160.5q0 -103 74 -168t197 -65q128 0 202 64t74 165q0 197 -291 263zM563 752q101 26 164.5 88t63.5 149q0 89 -57 145t-177 56q-114 0 -179 -56t-65 -147q0 -94 63.5 -150t186.5 -85z" />
    <glyph glyph-name="nine.oldstyle" horiz-adv-x="1091" 
d="M143 -96q38 -16 102.5 -26.5t104.5 -10.5q116 0 200 33t135.5 99t80 152t41.5 205q-59 -73 -156 -118t-200 -45q-179 0 -276 108t-97 311q0 207 116.5 339t323.5 132q75 0 141.5 -20t127.5 -66.5t105.5 -116.5t70.5 -175.5t26 -237.5q0 -174 -39 -312.5t-116.5 -239
t-200.5 -154.5t-285 -54q-122 0 -250 41zM803 512q0 412 -287 412q-124 0 -195 -81.5t-71 -228.5q0 -127 60.5 -198.5t189.5 -71.5q92 0 173.5 48.5t129.5 119.5z" />
    <glyph glyph-name="sterling.denominator" horiz-adv-x="776" 
d="M713 0h-664v100q199 81 199 193q0 9 -4 37h-158v88h127q-5 11 -18 39.5t-19 42.5t-14 37.5t-11.5 44.5t-3.5 43q0 105 76 165t213 60q146 0 234 -37q10 -45 10 -225h-88l-14 131q-70 18 -134 18q-81 0 -122 -34.5t-41 -96.5q0 -46 36 -131q6 -15 27 -57h229v-88h-213
q2 -8 2 -27q0 -68 -38 -112t-117 -80q123 2 414 2l24 147h78q0 -211 -10 -260z" />
    <glyph glyph-name="yen.denominator" horiz-adv-x="935" 
d="M758 238h-232v-142l144 -12v-84h-404v84l142 12v142h-230v71h230v23l-41 59h-189v74h137l-188 276l-96 11v82h370v-82l-127 -11q163 -244 195 -297q11 17 34 52t62 92t107 153l-131 11v82h366v-82l-98 -11l-193 -276h142v-74h-193l-39 -57v-25h232v-71z" />
    <glyph glyph-name="Euro.denominator" horiz-adv-x="878" 
d="M856 113q-131 -131 -319 -131q-150 0 -242 87t-109 240h-100v74h98q0 55 2 80h-100v74h109q64 311 393 311q126 0 225 -31q4 -25 4 -225h-86l-16 127q-70 18 -144 18q-208 0 -247 -200h346v-74h-357q-2 -23 -2 -80h359v-74h-353q9 -104 72 -157.5t162 -53.5
q135 0 248 101z" />
    <glyph glyph-name="florin.denominator" horiz-adv-x="686" 
d="M-2 -145l33 102q53 -16 98 -16q67 0 84 49q12 27 16 84l31 364h-143v88h151l8 88q9 87 37 138q56 96 201 96q80 0 150 -19q6 -27 6 -190h-84l-15 96q-20 4 -53 4q-71 0 -94 -47q-20 -39 -23 -86l-6 -80h174v-88h-184l-35 -372q-6 -82 -31 -136q-47 -96 -184 -96
q-76 0 -137 21z" />
    <glyph glyph-name="zero.fitted" horiz-adv-x="1148" 
d="M1069 705q0 -354 -133 -545t-371 -191q-241 0 -364 178.5t-123 497.5q0 330 131.5 516.5t382.5 186.5q241 0 359 -167.5t118 -475.5zM889 676q0 123 -15 212.5t-49 158.5t-95 104t-148 35q-147 0 -231.5 -126.5t-84.5 -393.5q0 -533 309 -533q149 0 231.5 134.5
t82.5 408.5z" />
    <glyph glyph-name="period.superior" horiz-adv-x="268" 
d="M213 942q0 -41 -22.5 -63.5t-57.5 -22.5q-32 0 -56 21.5t-24 64.5t24 65.5t58 22.5q78 0 78 -88z" />
    <glyph glyph-name="comma.superior" horiz-adv-x="268" 
d="M215 1012q-10 -91 -42.5 -185.5t-70.5 -164.5h-94q26 62 49.5 159.5t32.5 190.5h125z" />
    <glyph glyph-name="hyphen.superior" horiz-adv-x="401" 
d="M356 1184h-309v100h309v-100z" />
    <glyph glyph-name="dollar.superior" horiz-adv-x="675" 
d="M403 737h-61v127q-148 0 -256 43q-8 78 -8 228h82l20 -140q77 -26 162 -26v266l-59 22q-91 33 -135 85t-44 135q0 91 60 152t178 73v139h61v-135q106 0 224 -27q8 -35 8 -225h-82l-18 135q-55 13 -132 17v-263l46 -16q111 -40 152.5 -91.5t41.5 -137.5q0 -94 -61.5 -156
t-178.5 -74v-131zM524 1087q0 43 -24 70.5t-97 56.5v-241q121 15 121 114zM225 1491q0 -41 21.5 -68t89.5 -53l6 -2v234q-62 -10 -89.5 -40.5t-27.5 -70.5z" />
    <glyph glyph-name="cent.superior" horiz-adv-x="647" 
d="M420 737h-64v129q-121 8 -190.5 89.5t-69.5 218.5q0 150 68.5 236.5t191.5 105.5v131h64v-125h18q101 0 174 -23q9 -33 9 -199h-82l-17 113q-34 10 -102 10v-450q85 2 192 67l43 -82q-124 -84 -235 -92v-129zM217 1182q0 -175 139 -205v438q-139 -36 -139 -233z" />
    <glyph glyph-name="sterling.superior" horiz-adv-x="776" 
d="M713 868h-664v101q199 81 199 192q0 9 -4 37h-158v88h127q-5 11 -18 39.5t-19 42.5t-14 37.5t-11.5 44.5t-3.5 43q0 105 76 165t213 60q146 0 234 -37q10 -45 10 -225h-88l-14 131q-74 19 -134 19q-81 0 -122 -34.5t-41 -96.5q0 -47 36 -132q6 -15 27 -57h229v-88h-213
q2 -8 2 -27q0 -68 -38 -112t-117 -80q123 2 414 2l24 147h78q0 -211 -10 -260z" />
    <glyph glyph-name="yen.superior" horiz-adv-x="935" 
d="M758 1106h-232v-141l144 -13v-84h-404v84l142 13v141h-230v72h230v22l-41 60h-189v73h137l-188 277l-96 10v82h370v-82l-127 -10q163 -244 195 -297q11 17 34 52t62 92t107 153l-131 10v82h366v-82l-98 -10l-193 -277h142v-73h-193l-39 -58v-24h232v-72z" />
    <glyph glyph-name="Euro.superior" horiz-adv-x="878" 
d="M856 981q-131 -131 -319 -131q-150 0 -242 87t-109 241h-100v73h98q0 55 2 80h-100v74h109q64 311 393 311q129 0 225 -30q4 -25 4 -226h-86l-16 127q-74 19 -144 19q-207 0 -247 -201h346v-74h-357q-2 -23 -2 -80h359v-73h-353q9 -104 72 -157.5t162 -53.5
q137 0 248 100z" />
    <glyph glyph-name="florin.superior" horiz-adv-x="686" 
d="M-2 723l33 102q53 -16 98 -16q67 0 84 49q12 27 16 84l31 365h-143v88h151l8 88q9 86 37 137q56 96 201 96q83 0 150 -18q6 -27 6 -191h-84l-15 97q-20 4 -53 4q-71 0 -94 -47q-20 -39 -23 -86l-6 -80h174v-88h-184l-35 -373q-6 -81 -31 -135q-48 -97 -184 -97
q-76 0 -137 21z" />
    <glyph glyph-name="period.inferior" horiz-adv-x="268" 
d="M213 -246q0 -41 -22.5 -63.5t-57.5 -22.5q-32 0 -56 21.5t-24 64.5t24 65.5t58 22.5q78 0 78 -88z" />
    <glyph glyph-name="comma.inferior" horiz-adv-x="268" 
d="M215 -176q-10 -91 -42.5 -185.5t-70.5 -164.5h-94q26 62 49.5 159.5t32.5 190.5h125z" />
    <glyph glyph-name="hyphen.inferior" horiz-adv-x="401" 
d="M356 -4h-309v100h309v-100z" />
    <glyph glyph-name="dollar.inferior" horiz-adv-x="675" 
d="M403 -451h-61v127q-148 0 -256 43q-8 78 -8 228h82l20 -140q77 -26 162 -26v266l-59 23q-92 33 -135.5 84.5t-43.5 134.5q0 91 60 152t178 73v139h61v-135q111 0 224 -26q8 -35 8 -226h-82l-18 135q-55 13 -132 17v-262l46 -17q111 -40 152.5 -91.5t41.5 -137.5
q0 -94 -61.5 -155.5t-178.5 -73.5v-132zM524 -100q0 43 -24 70.5t-97 56.5v-242q121 15 121 115zM225 303q0 -41 21.5 -68t89.5 -53l6 -2v234q-62 -10 -89.5 -40.5t-27.5 -70.5z" />
    <glyph glyph-name="cent.inferior" horiz-adv-x="647" 
d="M420 -451h-64v129q-121 8 -190.5 89.5t-69.5 218.5q0 150 68.5 236.5t191.5 105.5v131h64v-125h18q101 0 174 -23q9 -33 9 -198h-82l-17 112q-37 11 -102 11v-451q50 1 92.5 17.5t99.5 50.5l43 -82q-126 -86 -235 -93v-129zM217 -6q0 -175 139 -205v438
q-139 -36 -139 -233z" />
    <glyph glyph-name="sterling.inferior" horiz-adv-x="776" 
d="M713 -319h-664v100q199 81 199 192q0 9 -4 37h-158v88h127q-5 11 -18 39.5t-19 42.5t-14 37.5t-11.5 44.5t-3.5 43q0 105 76 165t213 60q148 0 234 -36q10 -45 10 -226h-88l-14 131q-74 19 -134 19q-81 0 -122 -34.5t-41 -96.5q0 -46 36 -131q8 -20 27 -58h229v-88h-213
q2 -8 2 -26q0 -68 -38 -113t-117 -80q123 2 414 2l24 148h78q0 -211 -10 -260z" />
    <glyph glyph-name="yen.inferior" horiz-adv-x="935" 
d="M758 -82h-232v-141l144 -13v-83h-404v83l142 13v141h-230v72h230v22l-41 60h-189v73h137l-188 277l-96 10v82h370v-82l-127 -10q163 -244 195 -297q11 17 34 52t62 92t107 153l-131 10v82h366v-82l-98 -10l-193 -277h142v-73h-193l-39 -58v-24h232v-72z" />
    <glyph glyph-name="Euro.inferior" horiz-adv-x="878" 
d="M856 -207q-131 -131 -319 -131q-150 0 -242 87t-109 241h-100v73h98q0 55 2 80h-100v74h109q64 311 393 311q129 0 225 -30q4 -25 4 -226h-86l-16 127q-74 19 -144 19q-207 0 -247 -201h346v-74h-357q-2 -23 -2 -80h359v-73h-353q9 -104 72 -157.5t162 -53.5
q137 0 248 100z" />
    <glyph glyph-name="florin.inferior" horiz-adv-x="686" 
d="M-2 -465l33 103q56 -17 98 -17q67 0 84 49q12 27 16 84l31 365h-143v88h151l8 88q9 86 37 137q56 96 201 96q83 0 150 -18q6 -27 6 -191h-84l-15 97q-20 4 -53 4q-71 0 -94 -47q-20 -39 -23 -86l-6 -80h174v-88h-184l-35 -373q-6 -81 -31 -135q-47 -96 -184 -96
q-79 0 -137 20z" />
    </font>
</defs>
</svg>
