<?xml version="1.0" standalone="no"?>
<!DOCTYPE svg PUBLIC "-//W3C//DTD SVG 1.1//EN" "http://www.w3.org/Graphics/SVG/1.1/DTD/svg11.dtd" >
<svg xmlns="http://www.w3.org/2000/svg" xmlns:xlink="http://www.w3.org/1999/xlink" version="1.1">
<metadata>
Created by FontForge 20170731 at Wed Dec  9 02:55:09 2020
 By Aleksey,,,
Copyright (c) 2012 by Dieter Hofrichter. All rights reserved.
</metadata>
<defs>
<font id="Foro-Light" horiz-adv-x="743" >
  <font-face 
    font-family="Foro-Light"
    font-weight="300"
    font-stretch="normal"
    units-per-em="2048"
    panose-1="2 0 5 3 0 0 0 2 0 4"
    ascent="1516"
    descent="-532"
    x-height="1010"
    cap-height="1384"
    bbox="-266 -530 2634 2009"
    underline-thickness="102"
    underline-position="-307"
    unicode-range="U+0020-FB04"
  />
<missing-glyph horiz-adv-x="1026" 
d="M0 0v1438h1026v-1438h-1026zM514 811l348 524h-698zM573 719l353 -522v1046zM164 102h698l-348 525zM102 1243v-1046l351 522z" />
    <glyph glyph-name="f_f" unicode="ff" horiz-adv-x="1382" 
d="M635 0h-553v96l190 17v776h-196v104q94 17 196 17v73q0 111 19.5 178t60.5 111q41 47 113 70.5t156 23.5q86 0 194 -22l-12 -113q-101 19 -166 19q-131 0 -186 -68q-48 -59 -48 -197v-75h568v108q0 113 18.5 182t57.5 113q84 94 249 94q106 0 205 -22l-14 -111
q-134 17 -168 17q-116 0 -170 -68q-45 -58 -45 -207v-106h252v-121h-252v-776l231 -17v-96h-553v96l189 17v776h-568v-776l232 -17v-96z" />
    <glyph glyph-name="fi" unicode="fi" horiz-adv-x="1331" 
d="M635 0h-553v96l190 17v776h-196v104q94 17 196 17v108q0 116 17 184t57 111q84 94 252 94q101 0 205 -22l-17 -111q-134 17 -170 17q-116 0 -170 -68q-43 -60 -43 -207v-106h691v-897l192 -17v-96h-514v96l191 17v776h-560v-776l232 -17v-96zM1098 1311
q0 -50 -27.5 -75.5t-69.5 -25.5q-39 0 -65.5 24t-26.5 77q0 51 27.5 77.5t67.5 26.5q94 0 94 -104z" />
    <glyph glyph-name="fl" unicode="fl" horiz-adv-x="1318" 
d="M635 0h-553v96l190 17v776h-196v104q94 17 196 17v98q0 119 21 189t63 116q43 47 129.5 70.5t184.5 23.5q199 0 411 -39v-1355l191 -17v-96h-512v96l188 17v1259q-179 19 -260 19q-172 0 -229 -68q-27 -32 -41.5 -81t-14.5 -142v-90h252v-121h-252v-776l232 -17v-96z" />
    <glyph glyph-name="f_f_i" unicode="ffi" horiz-adv-x="2031" 
d="M635 0h-553v96l190 17v776h-196v104q94 17 196 17v75q0 109 19.5 176t60.5 111q41 47 113 70.5t156 23.5q86 0 194 -22l-12 -113q-101 19 -166 19q-131 0 -186 -68q-48 -59 -48 -199v-73h568v108q0 113 18.5 182t57.5 113q84 94 249 94q106 0 205 -22l-14 -111
q-134 17 -168 17q-116 0 -170 -68q-45 -58 -45 -201v-112h690v-897l193 -17v-96h-514v96l190 17v776h-559v-776l231 -17v-96h-553v96l189 17v776h-568v-776l232 -17v-96zM1798 1311q0 -50 -26.5 -75.5t-69.5 -25.5q-38 0 -65 24.5t-27 76.5q0 51 28 77.5t68 26.5
q92 0 92 -104z" />
    <glyph glyph-name="f_f_l" unicode="ffl" horiz-adv-x="2019" 
d="M635 0h-553v96l190 17v776h-196v104q94 17 196 17v75q0 109 19.5 176t60.5 111q41 47 113 70.5t156 23.5q82 0 194 -22l-12 -113q-101 19 -166 19q-131 0 -186 -68q-48 -59 -48 -199v-73h568v98q0 120 22 189.5t66 115.5q42 47 127.5 70.5t183.5 23.5q202 0 410 -39
v-1355l192 -17v-96h-512v96l189 17v1259q-182 19 -260 19q-173 0 -230 -68q-27 -32 -41 -81t-14 -142v-90h252v-121h-252v-776l231 -17v-96h-553v96l189 17v776h-568v-776l232 -17v-96z" />
    <glyph glyph-name="T_h" unicode="Th" horiz-adv-x="2484" 
d="M975 0h-574v98l217 17v1140h-387l-36 -264h-97q0 266 13 393h1333l26 134h121v-664q89 79 206.5 130.5t207.5 51.5q109 0 162 -45t65 -137q11 -78 11 -242v-499l202 -17v-96h-338v575q0 177 -14 240q-19 92 -145 92q-75 0 -168 -35.5t-189 -113.5v-645l191 -17v-96h-512
v96l188 17v1142h-700v-1140l217 -17v-98z" />
    <glyph glyph-name="Tcaron_h" unicode="&#x164;h" horiz-adv-x="2484" 
d="M975 0h-574v98l217 17v1140h-387l-36 -264h-97q0 266 13 393h1333l26 134h121v-664q89 79 206.5 130.5t207.5 51.5q109 0 162 -45t65 -137q11 -78 11 -242v-499l202 -17v-96h-338v575q0 177 -14 240q-19 92 -145 92q-75 0 -168 -35.5t-189 -113.5v-645l191 -17v-96h-512
v96l188 17v1142h-700v-1140l217 -17v-98zM887 1743h112l-249 -252h-123l-248 252h115l196 -156z" />
    <glyph glyph-name="f_b" unicode="fb" horiz-adv-x="1933" 
d="M635 0h-553v96l190 17v776h-196v104q94 17 196 17v98q0 119 21 189t63 116q43 47 129.5 70.5t184.5 23.5q199 0 411 -39v-596q79 69 183 117.5t211 48.5q162 0 247.5 -125.5t85.5 -369.5q0 -289 -122.5 -430.5t-350.5 -141.5q-183 0 -387 72v1329q-179 19 -260 19
q-172 0 -229 -68q-27 -32 -41.5 -81t-14.5 -142v-90h252v-121h-252v-776l232 -17v-96zM1081 135q115 -41 250 -41q177 0 255.5 110t78.5 314q0 393 -231 393q-158 0 -353 -135v-641z" />
    <glyph glyph-name="f_f_b" unicode="ffb" horiz-adv-x="2631" 
d="M635 0h-553v96l190 17v776h-196v104q94 17 196 17v69q0 112 19.5 180.5t60.5 112.5q41 47 113 70.5t156 23.5q86 0 194 -22l-12 -113q-101 19 -166 19q-131 0 -186 -68q-48 -59 -48 -201v-71h568v98q0 120 22 189.5t66 115.5q42 47 127.5 70.5t183.5 23.5q202 0 410 -39
v-596q81 69 185 117.5t210 48.5q162 0 248 -125.5t86 -369.5q0 -289 -122.5 -430.5t-350.5 -141.5q-183 0 -387 72v1329q-182 19 -260 19q-173 0 -230 -68q-27 -32 -41 -79t-14 -140v-94h252v-121h-252v-776l231 -17v-96h-553v96l189 17v776h-568v-776l232 -17v-96z
M1780 135q115 -41 254 -41q176 0 253.5 108.5t77.5 315.5q0 393 -231 393q-155 0 -354 -135v-641z" />
    <glyph glyph-name="f_f_h" unicode="ffh" horiz-adv-x="2674" 
d="M635 0h-553v96l190 17v776h-196v104q94 17 196 17v71q0 111 19.5 179t60.5 112q41 47 113 70.5t156 23.5q86 0 194 -22l-12 -113q-101 19 -166 19q-131 0 -186 -68q-48 -59 -48 -201v-71h568v98q0 120 22 189.5t66 115.5q42 47 127.5 70.5t183.5 23.5q202 0 410 -39v-614
q91 80 207 131t208 51q109 0 161.5 -44.5t64.5 -137.5q10 -71 10 -242v-499l203 -17v-96h-336v575q0 177 -14 240q-22 92 -146 92q-171 0 -358 -149v-645l194 -17v-96h-514v96l189 17v1259q-182 19 -260 19q-173 0 -230 -68q-27 -32 -41 -81t-14 -142v-90h252v-121h-252
v-776l231 -17v-96h-553v96l189 17v776h-568v-776l232 -17v-96z" />
    <glyph glyph-name="f_f_j" unicode="ffj" horiz-adv-x="2019" 
d="M635 0h-553v96l190 17v776h-196v104q94 17 196 17v69q0 112 19.5 180.5t60.5 112.5q41 47 113 70.5t156 23.5q86 0 194 -22l-12 -113q-101 19 -166 19q-131 0 -186 -68q-48 -55 -48 -199v-73h568v108q0 113 18.5 182t57.5 113q84 94 249 94q99 0 203 -22l-12 -111
q-15 2 -54.5 7.5t-63 7.5t-50.5 2q-116 0 -170 -68q-45 -58 -45 -207v-106h678v-996q0 -203 -41 -290q-37 -82 -127 -150.5t-209 -103.5l-35 108q201 71 252 203q29 78 29 239v869h-547v-776l231 -17v-96h-553v96l189 17v776h-568v-776l232 -17v-96zM1784 1311
q0 -50 -27 -75.5t-69 -25.5q-39 0 -66 24t-27 77q0 51 28 77.5t69 26.5t66.5 -24.5t25.5 -79.5z" />
    <glyph glyph-name="f_f_k" unicode="ffk" horiz-adv-x="2576" 
d="M635 0h-553v96l190 17v776h-196v104q94 17 196 17v71q0 111 19.5 179t60.5 112q41 47 113 70.5t156 23.5q86 0 194 -22l-12 -113q-101 19 -166 19q-131 0 -186 -68q-48 -59 -48 -201v-71h568v98q0 120 22 189.5t66 115.5q42 47 127.5 70.5t183.5 23.5q202 0 410 -39v-956
q180 159 413 389l-155 14v95h471v-95l-168 -14q-163 -156 -303 -283l186 -296q63 -102 121 -150q38 -32 73 -44.5t89 -12.5q27 0 51 6l8 -117q-54 -12 -102 -12q-133 0 -213 71q-45 38 -115 148l-194 311l-162 -139v-270l188 -17v-96h-508v96l189 17v1259q-182 19 -260 19
q-173 0 -230 -68q-27 -32 -41 -81t-14 -142v-90h252v-121h-252v-776l231 -17v-96h-553v96l189 17v776h-568v-776l232 -17v-96z" />
    <glyph glyph-name="f_f_t" unicode="fft" horiz-adv-x="2084" 
d="M635 0h-553v96l190 17v776h-196v104q94 17 196 17v69q0 112 19.5 180.5t60.5 112.5q41 47 113 70.5t156 23.5q86 0 194 -22l-12 -113q-101 19 -166 19q-131 0 -186 -68q-48 -59 -48 -201v-71h568v108q0 113 18.5 182t57.5 113q84 94 249 94q106 0 205 -22l-14 -111
q-134 17 -168 17q-116 0 -170 -68q-45 -58 -45 -207v-106h500q1 8 6 252l127 12v-264h276v-121h-276v-527q0 -146 30 -196q33 -55 121 -55q71 0 156 20l24 -106q-112 -41 -231 -41q-62 0 -113 25t-79 69q-43 68 -43 262v549h-498v-776l231 -17v-96h-553v96l189 17v776h-568
v-776l232 -17v-96z" />
    <glyph glyph-name="f_h" unicode="fh" horiz-adv-x="1974" 
d="M635 0h-553v96l190 17v776h-196v104q94 17 196 17v98q0 119 21 189t63 116q43 47 129.5 70.5t184.5 23.5q199 0 411 -39v-614q89 79 206.5 130.5t207.5 51.5q109 0 162 -45t65 -137q9 -64 9 -242v-499l204 -17v-96h-338v575q0 177 -14 240q-22 92 -147 92
q-73 0 -166.5 -36t-188.5 -113v-645l191 -17v-96h-512v96l188 17v1259q-179 19 -260 19q-172 0 -229 -68q-27 -32 -41.5 -81t-14.5 -142v-90h252v-121h-252v-776l232 -17v-96z" />
    <glyph glyph-name="f_j" unicode="fj" horiz-adv-x="1318" 
d="M635 0h-553v96l190 17v776h-196v104q94 17 196 17v108q0 116 17 184t57 111q84 94 252 94q101 0 205 -22l-17 -111q-134 17 -170 17q-116 0 -170 -68q-43 -60 -43 -207v-106h678v-996q0 -203 -41 -290q-35 -82 -125.5 -150.5t-209.5 -103.5l-35 108q102 36 166 88.5
t86 114.5q28 75 28 239v869h-547v-776l232 -17v-96zM1083 1311q0 -50 -26.5 -75.5t-69.5 -25.5q-36 0 -63 24.5t-27 76.5q0 51 27 77.5t67 26.5q92 0 92 -104z" />
    <glyph glyph-name="f_k" unicode="fk" horiz-adv-x="1875" 
d="M635 0h-553v96l190 17v776h-196v104q94 17 196 17v98q0 119 21 189t63 116q43 47 129.5 70.5t184.5 23.5q199 0 411 -39v-956q195 175 412 389l-156 14v95h471v-95l-168 -14q-146 -140 -301 -283l185 -296q66 -107 121 -150q39 -31 73.5 -44t87.5 -13q28 0 52 6l10 -117
q-54 -12 -107 -12q-128 0 -209 71q-59 53 -116 148l-193 311l-162 -139v-270l189 -17v-96h-510v96l188 17v1259q-179 19 -260 19q-172 0 -229 -68q-27 -32 -41.5 -81t-14.5 -142v-90h252v-121h-252v-776l232 -17v-96z" />
    <glyph glyph-name="f_t" unicode="ft" horiz-adv-x="1384" 
d="M635 0h-553v96l190 17v776h-196v104q94 17 196 17v108q0 116 17 184t57 111q84 94 252 94q101 0 205 -22l-17 -111q-134 17 -170 17q-116 0 -170 -68q-43 -60 -43 -205v-108h502q0 61 4 258l127 8v-266h277v-121h-277v-527q0 -145 31 -196q15 -25 47.5 -40t73.5 -15
q70 0 158 20l22 -106q-112 -41 -229 -41q-63 0 -115 25t-80 69q-41 65 -41 262v549h-500v-776l232 -17v-96z" />
    <glyph glyph-name="uni0162_h" unicode="&#x162;h" horiz-adv-x="2484" 
d="M487 -467l27 90q57 -16 117 -16q58 0 87.5 23.5t29.5 64.5q0 42 -32.5 65t-88.5 23q-2 0 -76 -4l86 221h-236v98l217 17v1140h-387l-36 -264h-97q0 266 13 393h1333l26 134h121v-664q89 79 206.5 130.5t207.5 51.5q109 0 162 -45t65 -137q11 -78 11 -242v-499l202 -17
v-96h-338v575q0 177 -14 240q-19 92 -145 92q-75 0 -168 -35.5t-189 -113.5v-645l191 -17v-96h-512v96l188 17v1142h-700v-1140l217 -17v-98h-244l-55 -129q98 -6 142 -55t44 -115q0 -84 -63.5 -136t-177.5 -52q-31 0 -73 6.5t-61 13.5z" />
    <glyph glyph-name="uni021A_h" unicode="&#x21a;h" horiz-adv-x="2484" 
d="M975 0h-574v98l217 17v1140h-387l-36 -264h-97q0 266 13 393h1333l26 134h121v-664q89 79 206.5 130.5t207.5 51.5q109 0 162 -45t65 -137q11 -78 11 -242v-499l202 -17v-96h-338v575q0 177 -14 240q-19 92 -145 92q-75 0 -168 -35.5t-189 -113.5v-645l191 -17v-96h-512
v96l188 17v1142h-700v-1140l217 -17v-98zM754 -111q-24 -193 -117 -383h-98q29 66 54.5 172t35.5 211h125z" />
    <glyph glyph-name=".notdef" horiz-adv-x="1026" 
d="M0 0v1438h1026v-1438h-1026zM514 811l348 524h-698zM573 719l353 -522v1046zM164 102h698l-348 525zM102 1243v-1046l351 522z" />
    <glyph glyph-name=".null" horiz-adv-x="0" 
 />
    <glyph glyph-name="nonmarkingreturn" horiz-adv-x="682" 
 />
    <glyph glyph-name="space" unicode=" " horiz-adv-x="468" 
 />
    <glyph glyph-name="exclam" unicode="!" horiz-adv-x="557" 
d="M369 422h-121q-21 946 -21 962h162q0 -61 -20 -962zM408 96q0 -55 -29 -82.5t-76 -27.5q-37 0 -67.5 27t-30.5 83q0 55 30 85t72 30t71.5 -27.5t29.5 -87.5z" />
    <glyph glyph-name="quotedbl" unicode="&#x22;" horiz-adv-x="724" 
d="M238 866h-84l-27 561h139zM567 866h-84l-26 561h141z" />
    <glyph glyph-name="numbersign" unicode="#" horiz-adv-x="1159" 
d="M338 0h-86l65 449h-235v114h252l35 240h-236v115h250l61 413h86l-59 -413h285l61 413h86l-61 -413h233v-115h-248l-36 -240h233v-114h-248l-65 -449h-86l63 449h-285zM457 803l-37 -240h287l34 240h-284z" />
    <glyph glyph-name="dollar" unicode="$" horiz-adv-x="1062" 
d="M606 -207h-86v205q-229 0 -389 63q-12 89 -12 334h94l31 -229q128 -45 276 -45v487l-98 39q-136 51 -198 129t-62 201q0 140 89.5 233.5t268.5 112.5v221h86v-217q177 0 334 -41q10 -54 10 -330h-94l-31 224q-82 22 -219 26v-475l70 -26q160 -65 224.5 -141t64.5 -202
q0 -149 -92 -244.5t-267 -115.5v-209zM821 342q0 81 -44 132.5t-171 100.5v-448q104 17 159.5 73.5t55.5 141.5zM301 991q0 -75 40.5 -123.5t160.5 -95.5l18 -8v438q-113 -16 -166 -77.5t-53 -133.5z" />
    <glyph glyph-name="percent" unicode="%" horiz-adv-x="1658" 
d="M684 938q0 -225 -83 -346t-234 -121q-154 0 -231 113.5t-77 316.5q0 207 84 323.5t240 116.5q152 0 226.5 -104.5t74.5 -298.5zM582 922q0 74 -10 130.5t-33 101t-63.5 68t-98.5 23.5q-98 0 -154.5 -82t-56.5 -248q0 -177 54.5 -261.5t152.5 -84.5t153.5 90t55.5 263z
M545 0h-90l651 1321h88zM1597 449q0 -225 -82 -346t-233 -121q-154 0 -229.5 113.5t-75.5 316.5q0 208 82 324t239 116q150 0 224.5 -104.5t74.5 -298.5zM1495 432q0 75 -9.5 131t-31.5 101t-63 68.5t-99 23.5q-98 0 -154.5 -82t-56.5 -248q0 -177 53.5 -261.5t151.5 -84.5
q99 0 154 89t55 263z" />
    <glyph glyph-name="ampersand" unicode="&#x26;" horiz-adv-x="1511" 
d="M1405 -43q-186 48 -369 186q-182 -168 -432 -168q-211 0 -346 110t-135 296q0 152 81.5 247.5t256.5 170.5q-57 79 -82 144.5t-25 148.5q0 137 92.5 229t264.5 92q143 0 228 -73t85 -207q0 -56 -20 -105.5t-52 -87t-82.5 -74t-100 -62.5t-116.5 -56q102 -132 193.5 -236
t193.5 -186q98 103 136 280l-168 10v101h440v-101l-133 -14q-25 -108 -77.5 -206.5t-107.5 -155.5q135 -101 314 -170zM526 690q-137 -57 -200.5 -128t-63.5 -167q0 -36 10.5 -73t36 -76t64.5 -69t101.5 -49t139.5 -19q185 0 328 120q-223 196 -416 461zM586 844
q160 64 236.5 131.5t76.5 148.5t-48 127.5t-142 46.5q-115 0 -166 -60t-51 -146q0 -122 94 -248z" />
    <glyph glyph-name="quotesingle" unicode="'" horiz-adv-x="391" 
d="M238 866h-84l-27 561h139z" />
    <glyph glyph-name="parenleft" unicode="(" horiz-adv-x="632" 
d="M612 -354h-104q-54 47 -104 102.5t-107 142.5t-98.5 182.5t-69 224.5t-27.5 267q0 156 30.5 291.5t88.5 244.5t126.5 194.5t158.5 166.5h106q-85 -90 -148.5 -178t-118 -198t-83.5 -240t-29 -275q0 -96 13.5 -187.5t33 -163.5t53.5 -147.5t62 -126.5t73 -114.5t72 -97
t72 -88.5z" />
    <glyph glyph-name="parenright" unicode=")" horiz-adv-x="634" 
d="M20 1462h105q54 -47 104 -102.5t107 -142.5t98 -182.5t68.5 -224.5t27.5 -267q0 -156 -30.5 -292.5t-88 -245.5t-125.5 -194.5t-157 -166.5h-106q84 89 147 178t116.5 198.5t82 239.5t28.5 275q0 96 -13.5 188t-32.5 163.5t-53.5 147.5t-62 127t-72.5 115t-71.5 97.5
t-71.5 88.5z" />
    <glyph glyph-name="asterisk" unicode="*" horiz-adv-x="831" 
d="M754 1210l32 -98q-201 -62 -309 -92q56 -67 199 -248l-84 -57q-111 150 -180 252q-43 -64 -176 -252l-84 57q131 170 196 250q-145 38 -301 88l35 100q212 -69 293 -102q-8 192 -10 307h102q0 -138 -10 -311q98 37 297 106z" />
    <glyph glyph-name="plus" unicode="+" horiz-adv-x="1433" 
d="M770 72h-108v477h-478v110h478v476h108v-476h479v-110h-479v-477z" />
    <glyph glyph-name="comma" unicode="," horiz-adv-x="387" 
d="M291 203q-28 -247 -168 -529h-115q42 101 80.5 245.5t52.5 283.5h150z" />
    <glyph glyph-name="hyphen" unicode="-" horiz-adv-x="622" 
d="M547 502h-471v125h471v-125z" />
    <glyph glyph-name="period" unicode="." horiz-adv-x="387" 
d="M293 94q0 -54 -28 -81t-72 -27q-37 0 -68 27t-31 81t30 81.5t71 27.5t69.5 -26t28.5 -83z" />
    <glyph glyph-name="slash" unicode="/" horiz-adv-x="770" 
d="M88 -170h-90l672 1665h88z" />
    <glyph glyph-name="zero" unicode="0" horiz-adv-x="1130" 
d="M1047 709q0 -356 -128.5 -547t-361.5 -191q-237 0 -356 178.5t-119 499.5q0 329 129 514t373 185q232 0 347.5 -166.5t115.5 -472.5zM905 680q0 122 -16 215t-52.5 168t-102.5 114.5t-161 39.5q-160 0 -252 -136t-92 -411q0 -566 336 -566q161 0 250.5 146.5t89.5 429.5z
" />
    <glyph glyph-name="one" unicode="1" horiz-adv-x="1130" 
d="M895 0h-588v98l236 17v1054q-123 -84 -279 -170l-53 97q159 105 352 243h119v-1224l213 -17v-98z" />
    <glyph glyph-name="two" unicode="2" horiz-adv-x="1130" 
d="M1008 0h-947v104q331 250 564 486q85 86 135.5 186t50.5 191q0 51 -14 94t-43.5 79t-82.5 56.5t-126 20.5q-174 0 -369 -113l-45 108q217 136 434 136q197 0 296.5 -97t99.5 -274q0 -126 -71.5 -252t-195.5 -240q-168 -157 -430 -360q386 4 627 4l35 233h92
q0 -301 -10 -362z" />
    <glyph glyph-name="three" unicode="3" horiz-adv-x="1130" 
d="M119 14l31 127q27 -12 118 -27.5t140 -15.5q428 0 428 297q0 48 -15 86.5t-50.5 71.5t-104 51.5t-166.5 18.5q-43 0 -135 -9l-7 125q230 10 332.5 84.5t102.5 190.5q0 203 -256 203q-149 0 -336 -97l-47 111q225 117 405 117q373 0 373 -320q0 -108 -71.5 -195
t-196.5 -120q150 -12 235.5 -95t85.5 -217q0 -227 -150.5 -331.5t-418.5 -104.5q-77 0 -169.5 16.5t-127.5 32.5z" />
    <glyph glyph-name="four" unicode="4" horiz-adv-x="1130" 
d="M854 -20h-139v364h-631v94l629 901h141v-866h207v-129h-207v-364zM715 473q0 547 4 701q-138 -210 -492 -701h488z" />
    <glyph glyph-name="five" unicode="5" horiz-adv-x="1130" 
d="M123 14l33 127q36 -15 114.5 -29t157.5 -14q204 0 301.5 90t97.5 240t-83.5 214.5t-245.5 64.5q-128 0 -289 -45l72 663h663v-133h-549l-45 -389q109 28 211 28q201 0 311.5 -100t110.5 -285q0 -239 -149.5 -359t-417.5 -120q-75 0 -157 13t-136 34z" />
    <glyph glyph-name="six" unicode="6" horiz-adv-x="1130" 
d="M965 1180q-37 14 -103.5 24t-103.5 10q-101 0 -179 -25t-130.5 -69t-89 -112.5t-56 -147t-29.5 -180.5q60 78 165 127t212 49q180 0 283.5 -105t103.5 -311q0 -204 -121 -336.5t-329 -132.5q-68 0 -131 18.5t-124 63.5t-106 113t-72.5 175.5t-27.5 242.5q0 172 38 310.5
t114 240.5t197.5 157.5t281.5 55.5q124 0 246 -39zM276 547q1 -69 9.5 -129.5t31 -120.5t57 -102t91 -68.5t129.5 -26.5q137 0 219 92t82 248q0 134 -70 214.5t-213 80.5q-99 0 -192 -55.5t-144 -132.5z" />
    <glyph glyph-name="seven" unicode="7" horiz-adv-x="1130" 
d="M512 0h-166q187 508 516 1192h-622l-35 -242h-96q0 308 12 375h897v-115q-308 -645 -506 -1210z" />
    <glyph glyph-name="eight" unicode="8" horiz-adv-x="1130" 
d="M721 696q141 -45 216 -132t75 -202q0 -178 -127.5 -284.5t-319.5 -106.5q-195 0 -318.5 100t-123.5 275q0 122 74 210t209 136q-121 48 -178.5 130t-57.5 179q0 163 113 255t290 92q187 0 292.5 -86.5t105.5 -235.5q0 -100 -61 -188t-189 -142zM545 635
q-138 -31 -210.5 -105t-72.5 -172q0 -112 82 -185t221 -73q138 0 220.5 70.5t82.5 179.5q0 117 -80 182.5t-243 102.5zM586 745q113 27 181.5 93.5t68.5 162.5q0 94 -64 156t-197 62q-128 0 -199 -60.5t-71 -159.5q0 -107 70.5 -165t210.5 -89z" />
    <glyph glyph-name="nine" unicode="9" horiz-adv-x="1130" 
d="M172 139q36 -14 104.5 -25.5t102.5 -11.5q101 0 179 25.5t130.5 70t88.5 114t55.5 147.5t29.5 180q-60 -78 -165 -127t-212 -49q-180 0 -282.5 105t-102.5 313q0 204 121 335.5t328 131.5q69 0 132.5 -18.5t124.5 -63.5t105.5 -113t71.5 -175.5t27 -242.5
q0 -172 -38 -310t-114 -240.5t-198 -158t-281 -55.5q-126 0 -248 39zM860 772q-1 88 -15.5 161.5t-48 141t-98 106t-155.5 38.5q-136 0 -218.5 -92t-82.5 -248q0 -133 69.5 -213t212.5 -80q100 0 192.5 55t143.5 131z" />
    <glyph glyph-name="colon" unicode=":" horiz-adv-x="428" 
d="M334 94q0 -54 -28.5 -81t-72.5 -27q-37 0 -67.5 27t-30.5 81t30 81.5t71 27.5t69.5 -26t28.5 -83zM334 831q0 -53 -28.5 -79.5t-72.5 -26.5q-37 0 -67.5 26t-30.5 80q0 55 30 83t71 28t69.5 -26.5t28.5 -84.5z" />
    <glyph glyph-name="semicolon" unicode=";" horiz-adv-x="428" 
d="M332 203q-28 -247 -168 -529h-115q42 101 80.5 245.5t52.5 283.5h150zM334 831q0 -53 -28.5 -79.5t-72.5 -26.5q-37 0 -67.5 26t-30.5 80q0 55 30 83t71 28t69.5 -26.5t28.5 -84.5z" />
    <glyph glyph-name="less" unicode="&#x3c;" horiz-adv-x="1433" 
d="M1159 98l-921 445v112l921 455v-129l-801 -379l801 -369v-135z" />
    <glyph glyph-name="equal" unicode="=" horiz-adv-x="1433" 
d="M1249 350h-1065v111h1065v-111zM1249 735h-1065v113h1065v-113z" />
    <glyph glyph-name="greater" unicode="&#x3e;" horiz-adv-x="1433" 
d="M274 1110l924 -444v-113l-924 -455v131l801 379l-801 369v133z" />
    <glyph glyph-name="question" unicode="?" horiz-adv-x="843" 
d="M438 432l-123 -16q-24 67 -24 129q0 79 27.5 134t109.5 124q96 84 139 151.5t43 141.5q0 86 -57 137t-166 51q-68 0 -144.5 -16t-133.5 -43l-37 118q80 32 173 52t165 20q173 0 262.5 -77.5t89.5 -215.5q0 -102 -43 -178t-160 -178q-82 -71 -110.5 -111.5t-28.5 -109.5
q0 -67 18 -113zM479 96q0 -54 -28.5 -82t-73.5 -28q-39 0 -71 27t-32 83q0 55 31.5 85t73.5 30t71 -27.5t29 -87.5z" />
    <glyph glyph-name="at" unicode="@" horiz-adv-x="1644" 
d="M1012 227q-147 -151 -314 -151q-110 0 -178.5 70t-68.5 198q0 97 35.5 209.5t103.5 196.5q138 168 330 168q115 0 221 -56l30 64l78 -4l-121 -516q-18 -80 -18 -134q0 -92 70 -92q45 0 94 40t88 104t64.5 151.5t25.5 175.5q0 240 -147 376t-383 136q-202 0 -363 -99
t-249.5 -268.5t-88.5 -377.5q0 -273 171.5 -447t465.5 -174q159 0 285.5 41t253.5 117l45 -76q-282 -168 -596 -168q-213 0 -377 89.5t-253 250t-89 365.5q0 142 39 270t111.5 229t170.5 175.5t220.5 114.5t257.5 40q282 0 448 -157.5t166 -430.5q0 -150 -54.5 -281.5
t-145.5 -209.5t-195 -78q-52 0 -88 28t-43 77q-2 14 -2 34zM1006 307l106 473q-83 45 -197 45q-141 0 -245 -133q-50 -65 -80.5 -160t-30.5 -174q0 -95 48 -140.5t122 -45.5q131 0 277 135z" />
    <glyph glyph-name="A" unicode="A" horiz-adv-x="1427" 
d="M539 0h-537v98l154 17l481 1269h162l475 -1269l151 -17v-98h-534v98l229 17l-135 348h-543l-137 -348l234 -17v-98zM483 592h461q-158 425 -227 637q-42 -132 -234 -637z" />
    <glyph glyph-name="B" unicode="B" horiz-adv-x="1335" 
d="M72 0v98l213 17v1155l-213 16v98h506q224 0 329 -28q242 -61 242 -291q0 -274 -287 -334q164 -12 254 -97t90 -233q0 -159 -87 -254t-242 -122q-135 -25 -445 -25h-360zM426 655v-530h137q195 0 291 25q103 28 152 89t49 167t-76 172.5t-234 72.5q-76 4 -231 4h-88z
M426 778h82q81 0 237 13q115 11 184.5 72t69.5 171q0 156 -155 203q-79 23 -242 23h-176v-482z" />
    <glyph glyph-name="C" unicode="C" horiz-adv-x="1335" 
d="M1257 190q-231 -221 -534 -221q-126 0 -235 47t-189 133t-126 215.5t-46 286.5q0 363 177 563.5t497 200.5q201 0 389 -47q10 -43 10 -348h-106l-29 235q-117 31 -272 31q-83 0 -157.5 -21.5t-141 -69.5t-114.5 -119t-76 -177t-28 -237q0 -256 134.5 -407t341.5 -151
q236 0 438 181z" />
    <glyph glyph-name="D" unicode="D" horiz-adv-x="1499" 
d="M72 0v98l213 17v1155l-213 16v98h469q309 0 452 -49q87 -30 154 -76.5t118.5 -117t79 -173t27.5 -233.5t-22.5 -237.5t-70.5 -195.5t-128.5 -152.5t-192.5 -98.5q-160 -51 -466 -51h-420zM426 127h125q198 0 340 43q118 36 192.5 115.5t106 188t31.5 255.5
q0 327 -226 455q-127 71 -411 71h-158v-1128z" />
    <glyph glyph-name="E" unicode="E" horiz-adv-x="1253" 
d="M1133 0h-1061v98l213 17v1155l-213 16v98h993q14 -60 14 -346h-102l-29 217h-522v-473h526v-129h-526v-526h586l30 240h103q0 -285 -12 -367z" />
    <glyph glyph-name="F" unicode="F" horiz-adv-x="1200" 
d="M682 0h-610v98l213 17v1155l-213 16v98h1003q17 -64 17 -346h-103l-24 217h-539v-489h518v-129h-518v-522l256 -17v-98z" />
    <glyph glyph-name="G" unicode="G" horiz-adv-x="1447" 
d="M1260 80q-122 -56 -237 -82.5t-282 -26.5q-133 0 -246 46.5t-194.5 132.5t-127.5 214.5t-46 286.5q0 363 181 563.5t507 200.5q220 0 408 -47q7 -33 8.5 -93t1.5 -249h-107l-26 225q-128 33 -279 33q-116 0 -212 -35.5t-172 -108t-118.5 -195.5t-42.5 -286
q0 -261 134.5 -405.5t353.5 -144.5q116 0 191 14.5t167 48.5v393l-231 15v98h506v-98l-137 -13v-487z" />
    <glyph glyph-name="H" unicode="H" horiz-adv-x="1583" 
d="M631 0h-559v98l213 17v1155l-213 16v98h559v-98l-205 -16v-488h731v488l-207 16v98h561v-98l-215 -16v-1155l215 -17v-98h-561v98l207 17v538h-731v-538l205 -17v-98z" />
    <glyph glyph-name="I" unicode="I" horiz-adv-x="712" 
d="M641 0h-569v98l213 17v1155l-213 16v98h569v-98l-213 -16v-1155l213 -17v-98z" />
    <glyph glyph-name="J" unicode="J" horiz-adv-x="862" 
d="M612 1270v-809q0 -218 -34 -305q-34 -83 -114 -132t-196 -49q-140 0 -243 39l34 125q97 -33 195 -33q122 0 180 97q37 63 37 256v811l-231 16v98h567v-98z" />
    <glyph glyph-name="K" unicode="K" horiz-adv-x="1421" 
d="M637 0h-565v98l213 17v1155l-213 16v98h557v-98l-201 -16v-631q259 272 580 635l-158 12v98h514v-98l-184 -16q-66 -73 -437 -471l265 -408q71 -110 137 -182q38 -42 79.5 -65t100.5 -23q45 0 78 10l8 -129q-43 -16 -108 -16q-84 0 -139.5 24.5t-114.5 85.5
q-75 75 -154 197l-254 393l-213 -219v-352l209 -17v-98z" />
    <glyph glyph-name="L" unicode="L" horiz-adv-x="1243" 
d="M1133 0h-1061v98l213 17v1155l-213 16v98h581v-100l-227 -14v-1143h594l22 240h103q0 -287 -12 -367z" />
    <glyph glyph-name="M" unicode="M" horiz-adv-x="1849" 
d="M629 0h-559v98l200 15l33 1159l-211 14v98h426q212 -475 291 -660t119 -298q93 255 403 958h418v-98l-209 -14l37 -1159l201 -15v-98h-559v98l215 15q-29 1093 -29 1134q-131 -337 -426 -1016h-109q-308 696 -436 1012q-1 -157 -22 -1130l217 -15v-98z" />
    <glyph glyph-name="N" unicode="N" horiz-adv-x="1568" 
d="M639 0h-567v98l213 17v1155l-213 16v98h385q428 -653 537 -824.5t182 -307.5q-7 256 -7 1018l-204 14v100h548v-98l-202 -16v-1270h-152q-610 969 -739 1182q6 -285 6 -1067l213 -17v-98z" />
    <glyph glyph-name="O" unicode="O" horiz-adv-x="1507" 
d="M1380 733q0 -360 -167.5 -562t-464.5 -202q-294 0 -457.5 188t-163.5 513q0 361 167 553t476 192q298 0 454 -174.5t156 -507.5zM1229 700q0 584 -471 584q-230 0 -356 -154t-126 -430q0 -301 130 -449.5t352 -148.5q218 0 344.5 156.5t126.5 441.5z" />
    <glyph glyph-name="P" unicode="P" horiz-adv-x="1284" 
d="M678 0h-606v98l213 17v1155l-213 16v98h503q244 0 340 -28q248 -69 248 -342q0 -154 -73 -251.5t-203 -135.5q-115 -33 -320 -33h-141v-479l252 -17v-98zM426 719h143q174 0 262 29q181 61 181 264q0 160 -146 215q-90 33 -262 33h-178v-541z" />
    <glyph glyph-name="Q" unicode="Q" horiz-adv-x="1507" 
d="M1380 733q0 -307 -123.5 -500.5t-347.5 -244.5q18 -7 31 -15q85 -42 135 -64.5t141 -47.5t170 -25q39 0 103.5 8t101.5 17l17 -109q-41 -17 -117 -27t-137 -10q-78 0 -152.5 15.5t-151.5 49.5t-118.5 56t-118.5 66q-84 47 -164 73q-249 31 -385.5 214.5t-136.5 480.5
q0 361 167 553t476 192q298 0 454 -174.5t156 -507.5zM1229 700q0 584 -471 584q-230 0 -356 -154t-126 -430q0 -301 130 -449.5t352 -148.5q218 0 344.5 156.5t126.5 441.5z" />
    <glyph glyph-name="R" unicode="R" horiz-adv-x="1394" 
d="M653 0h-581v98l213 17v1155l-213 16v98h544q210 0 312 -32q110 -34 169.5 -117.5t59.5 -210.5q0 -160 -88.5 -254.5t-232.5 -126.5q40 -21 88 -92q72 -106 137 -236q58 -111 115.5 -155.5t152.5 -44.5q27 0 57 6l5 -119q-53 -12 -117 -12q-113 0 -183.5 53.5
t-123.5 153.5q-30 54 -67.5 122t-59.5 108t-41 71q-31 52 -59 78.5t-60 39.5h-254v-501l227 -17v-98zM426 739h201q175 0 262 49q56 31 86.5 88t30.5 130q0 169 -146 225q-73 29 -258 29h-176v-521z" />
    <glyph glyph-name="S" unicode="S" horiz-adv-x="1112" 
d="M94 399h103l32 -247q146 -52 303 -52q155 0 240.5 67t85.5 177q0 94 -53.5 152t-208.5 116l-174 64q-147 54 -212 138.5t-65 217.5q0 171 121.5 276t360.5 105q194 0 356 -43q10 -61 10 -354h-100l-31 239q-103 29 -258 29q-83 0 -146 -21.5t-97 -57t-50 -74t-16 -78.5
q0 -84 42.5 -137.5t170.5 -106.5l190 -76q173 -69 244.5 -151.5t71.5 -214.5q0 -182 -128 -290t-364 -108q-242 0 -416 70q-12 113 -12 360z" />
    <glyph glyph-name="T" unicode="T" horiz-adv-x="1384" 
d="M975 0h-574v98l217 17v1140h-387l-36 -245h-97q0 247 13 374h1161q12 -59 12 -374h-92l-37 245h-397v-1140l217 -17v-98z" />
    <glyph glyph-name="U" unicode="U" horiz-adv-x="1523" 
d="M1272 1272v-705q0 -145 -14 -231t-50 -152q-55 -99 -169 -155t-283 -56q-363 0 -465 232q-28 63 -36.5 148t-8.5 214v705l-191 14v98h547v-100l-217 -12v-682q0 -227 31 -309q72 -177 344 -177q250 0 330 156q45 91 45 320v692l-209 14v98h542v-102z" />
    <glyph glyph-name="V" unicode="V" horiz-adv-x="1419" 
d="M784 0h-157l-471 1270l-154 16v98h537v-98l-226 -16q339 -923 396 -1100q72 205 403 1100l-229 16v98h534v-98l-153 -16z" />
    <glyph glyph-name="W" unicode="W" horiz-adv-x="2009" 
d="M645 0h-156l-329 1272l-152 14v98h533v-98l-230 -14q34 -132 84 -327.5t67.5 -265t43.5 -175t40 -169.5t29 -138q92 330 359 1187h145q205 -646 262 -830t101 -355q88 393 258 1073l-227 14v98h528v-98l-156 -14l-323 -1272h-154q-293 907 -367 1163
q-155 -536 -356 -1163z" />
    <glyph glyph-name="X" unicode="X" horiz-adv-x="1433" 
d="M551 0h-533v98l150 17l448 614l-397 541l-147 16v98h528v-98l-203 -14q87 -115 162 -215.5t114.5 -154t61.5 -81.5q98 143 322 451l-207 14v98h512v-98l-148 -16l-397 -543l453 -612l147 -17v-98h-547v98l217 15q-107 143 -188 252.5t-132 181t-62 86.5q-3 -5 -59 -83.5
t-134 -186.5t-182 -248l221 -17v-98z" />
    <glyph glyph-name="Y" unicode="Y" horiz-adv-x="1384" 
d="M981 0h-582v98l222 17v438l-467 717l-152 16v98h543v-98l-217 -16q280 -431 368 -580q60 105 308 482q14 20 21.5 32t20 31t23.5 35l-223 16v98h538v-98l-153 -16l-471 -717v-438l221 -17v-98z" />
    <glyph glyph-name="Z" unicode="Z" horiz-adv-x="1261" 
d="M1167 0h-1106v117q268 346 468 599.5t295 372.5t128 162h-692l-37 -264h-98q0 292 12 397h1010v-112q-595 -765 -897 -1141h792l41 272h95q0 -325 -11 -403z" />
    <glyph glyph-name="bracketleft" unicode="[" horiz-adv-x="583" 
d="M532 -344h-352v1788h352v-90h-233v-1604h233v-94z" />
    <glyph glyph-name="backslash" unicode="\" horiz-adv-x="770" 
d="M772 -109h-90l-670 1543h88z" />
    <glyph glyph-name="bracketright" unicode="]" horiz-adv-x="587" 
d="M49 1444h357v-1788h-357v92h236v1604h-236v92z" />
    <glyph glyph-name="asciicircum" unicode="^" horiz-adv-x="1447" 
d="M1171 575h-122l-328 678l-322 -678h-125l385 807h129z" />
    <glyph glyph-name="underscore" unicode="_" horiz-adv-x="1026" 
d="M0 -184h1026v-82h-1026v82z" />
    <glyph glyph-name="grave" unicode="`" horiz-adv-x="411" 
d="M414 1147h-117l-297 307h164z" />
    <glyph glyph-name="a" unicode="a" horiz-adv-x="1140" 
d="M1102 109v-91q-55 -13 -148 -22.5t-168 -9.5l-10 143q-64 -70 -153 -109.5t-191 -39.5q-77 0 -137.5 25.5t-97 69t-55.5 97.5t-19 115q0 89 49.5 152.5t140.5 92.5q165 51 457 58v74q0 150 -33 194q-25 30 -61.5 43.5t-108.5 13.5q-145 0 -346 -67l-22 108q238 86 415 86
q189 0 246 -100q23 -40 31 -104.5t8 -182.5v-546h203zM772 229v260q-272 -8 -389 -49q-123 -44 -123 -153q0 -92 57 -140.5t148 -48.5q173 0 307 131z" />
    <glyph glyph-name="b" unicode="b" horiz-adv-x="1196" 
d="M215 43v1327h-205v92q179 49 336 49v-639q199 164 387 164q164 0 252 -124.5t88 -368.5q0 -290 -121.5 -431t-349.5 -141q-105 0 -193 17.5t-194 54.5zM346 135q115 -41 252 -41q177 0 255.5 110t78.5 314q0 181 -57.5 286t-182.5 105q-90 0 -171 -34.5t-175 -98.5v-641z
" />
    <glyph glyph-name="c" unicode="c" horiz-adv-x="1021" 
d="M961 123q-99 -75 -197 -114.5t-215 -39.5q-192 0 -309 133.5t-117 368.5q0 280 137 425.5t365 145.5q169 0 282 -38q11 -50 11 -295h-111l-27 196q-75 19 -170 19q-167 0 -257.5 -115t-90.5 -326q0 -185 87.5 -286t228.5 -101q94 0 167 28t166 91z" />
    <glyph glyph-name="d" unicode="d" horiz-adv-x="1232" 
d="M1192 106v-90q-160 -30 -320 -30l-10 145q-154 -154 -346 -154q-179 0 -286 128.5t-107 379.5q0 119 27.5 213.5t74.5 156.5t113 103t137.5 58.5t153.5 17.5q134 0 229 -41v377h-207v92q170 48 340 51v-1407h201zM858 231v637q-112 41 -223 41q-180 0 -275.5 -106.5
t-95.5 -300.5q0 -402 285 -402q93 0 159.5 32t149.5 99z" />
    <glyph glyph-name="e" unicode="e" horiz-adv-x="1071" 
d="M1016 129q-109 -80 -209 -120t-229 -40q-214 0 -334.5 145.5t-120.5 381.5q0 137 39.5 243.5t107.5 171.5t153 98t183 33q391 0 391 -444q0 -22 -4 -84h-731v-29q0 -197 93.5 -295t244.5 -98q107 0 193.5 34t171.5 97zM862 623q2 14 2 47q0 53 -13.5 97.5t-42.5 82
t-81 59t-123 21.5q-128 0 -221 -76t-115 -231h594z" />
    <glyph glyph-name="f" unicode="f" horiz-adv-x="684" 
d="M635 0h-553v96l190 17v776h-196v104q94 17 196 17v108q0 116 17 184t57 111q84 94 252 94q101 0 205 -22l-17 -111q-134 17 -170 17q-116 0 -170 -68q-43 -60 -43 -207v-106h252v-121h-252v-776l232 -17v-96z" />
    <glyph glyph-name="g" unicode="g" horiz-adv-x="1056" 
d="M369 346q-78 -65 -78 -119q0 -17 4 -29t16 -25t40.5 -22t72.5 -14l328 -39q144 -18 209 -83.5t65 -178.5q0 -166 -140.5 -265t-369.5 -99q-215 0 -328.5 75t-113.5 201q0 166 235 281q-137 32 -137 155q0 85 119 201q-71 41 -108.5 119.5t-37.5 167.5q0 74 24.5 139.5
t71.5 117.5t123.5 82.5t172.5 30.5q112 0 186 -38h311v-111h-207q37 -34 56.5 -93.5t19.5 -123.5q0 -170 -103.5 -262t-279.5 -92q-90 0 -151 24zM416 2q-106 -46 -157.5 -107.5t-51.5 -119.5q0 -92 93 -140.5t235 -48.5q168 0 260 66t92 151q0 81 -51 123.5t-187 55.5z
M776 672q0 110 -61.5 184t-186.5 74q-119 0 -183 -75.5t-64 -178.5q0 -118 68.5 -182t174.5 -64q115 0 183.5 63t68.5 179z" />
    <glyph glyph-name="h" unicode="h" horiz-adv-x="1275" 
d="M571 0h-510v96l189 17v1257h-203v92q164 49 332 49v-657q92 80 208.5 131t205.5 51q107 0 162 -46.5t67 -137.5q8 -57 8 -240v-499l205 -17v-96h-336v575q0 177 -14 240q-22 92 -146 92q-171 0 -358 -149v-645l190 -17v-96z" />
    <glyph glyph-name="i" unicode="i" horiz-adv-x="638" 
d="M406 1311q0 -50 -27.5 -75.5t-69.5 -25.5q-38 0 -65 24.5t-27 76.5q0 51 27 77.5t67 26.5q42 0 68.5 -24.5t26.5 -79.5zM594 0h-512v96l190 17v778h-204v94q190 47 335 47v-919l191 -17v-96z" />
    <glyph glyph-name="j" unicode="j" horiz-adv-x="608" 
d="M4 -528l-35 108q197 69 252 203q29 78 29 240v868h-203v94q185 47 332 47v-1018q0 -205 -39 -288q-39 -84 -128 -152.5t-208 -101.5zM383 1311q0 -50 -27 -75.5t-69 -25.5q-39 0 -65.5 24t-26.5 77q0 51 27.5 77.5t68.5 26.5t66.5 -24.5t25.5 -79.5z" />
    <glyph glyph-name="k" unicode="k" horiz-adv-x="1177" 
d="M569 0h-508v96l189 17v1257h-203v92q162 49 334 49v-1028q244 236 403 418l-149 14v95h477v-95l-164 -14q-185 -200 -286 -297l184 -289q73 -112 121 -155q54 -49 141 -49q33 0 51 4l8 -111q-54 -12 -102 -12q-69 0 -110 17t-83 54q-46 41 -114 148l-193 303l-184 -164
v-237l188 -17v-96z" />
    <glyph glyph-name="l" unicode="l" horiz-adv-x="618" 
d="M571 0h-510v96l189 17v1257h-203v92q172 49 334 49v-1398l190 -17v-96z" />
    <glyph glyph-name="m" unicode="m" horiz-adv-x="1918" 
d="M592 0h-510v96l190 17v776h-204v96q30 9 162.5 28t162.5 19l10 -178q99 81 209.5 131.5t202.5 50.5q104 0 154.5 -45.5t62.5 -142.5q218 188 408 188q104 0 157.5 -45.5t67.5 -136.5q10 -74 10 -242v-499l203 -17v-96h-334v575q0 173 -18 240q-9 45 -46.5 68.5
t-95.5 23.5q-151 0 -348 -151q2 -43 2 -144v-499l205 -17v-96h-336v575q0 180 -14 246q-21 86 -137 86q-160 0 -353 -151v-643l189 -17v-96z" />
    <glyph glyph-name="n" unicode="n" horiz-adv-x="1296" 
d="M594 0h-512v96l190 17v778h-204v92q68 19 164 34t161 15l10 -178q89 79 205 130.5t209 51.5q105 0 159 -46.5t68 -137.5q9 -66 9 -242v-497l204 -17v-96h-335v575q0 163 -17 240q-22 92 -141 92q-171 0 -361 -147v-647l191 -17v-96z" />
    <glyph glyph-name="o" unicode="o" horiz-adv-x="1181" 
d="M1059 530q0 -268 -123 -414.5t-356 -146.5q-215 0 -336 139t-121 384q0 265 128.5 407.5t356.5 142.5q451 0 451 -512zM920 500q0 78 -8 139t-29.5 116t-57 91t-92.5 57t-133 21q-163 0 -250.5 -110t-87.5 -288q0 -232 84.5 -335t245.5 -103q148 0 238 103.5t90 308.5z
" />
    <glyph glyph-name="p" unicode="p" horiz-adv-x="1214" 
d="M596 -504h-553v98l190 17v1282h-202v92q166 44 323 47l11 -158q201 164 393 164q163 0 248.5 -124t85.5 -369q0 -287 -123 -425t-338 -138q-151 0 -266 45v-416l231 -17v-98zM365 158q113 -58 262 -58q162 0 242.5 109.5t80.5 310.5q0 90 -11.5 157.5t-38.5 122t-75.5 83
t-117.5 28.5q-85 0 -166.5 -35.5t-175.5 -99.5v-618z" />
    <glyph glyph-name="q" unicode="q" horiz-adv-x="1218" 
d="M1180 -504h-551v98l229 17v512q-72 -69 -154 -106t-190 -37q-179 0 -285 127t-106 378q0 119 27.5 213.5t74 157t112 104t137.5 59t153 17.5q134 0 247 -45l11 92h104v-1472l191 -17v-98zM856 233v637q-148 41 -223 41q-180 0 -275.5 -107.5t-95.5 -301.5
q0 -400 283 -400q65 0 124.5 20.5t94.5 43.5t92 67z" />
    <glyph glyph-name="r" unicode="r" horiz-adv-x="890" 
d="M633 0h-551v96l190 17v776h-204v94q52 16 145.5 32.5t179.5 16.5l8 -196q47 80 143.5 140t196.5 60q24 0 64 -4v-139q-48 6 -70 6q-92 0 -179 -44t-153 -124v-618l230 -17v-96z" />
    <glyph glyph-name="s" unicode="s" horiz-adv-x="927" 
d="M104 307h99l35 -186q119 -35 208 -35q108 0 171 46.5t63 121.5q0 64 -36.5 103.5t-141.5 74.5l-148 47q-113 37 -163 105t-50 172q0 122 97 204t274 82q159 0 274 -34q15 -74 15 -283h-96l-35 186q-72 19 -172 19q-113 0 -166 -48.5t-53 -113.5q0 -61 33 -102t120 -70
l162 -53q122 -39 175.5 -104.5t53.5 -164.5q0 -133 -100.5 -219t-276.5 -86q-164 0 -323 56q-19 105 -19 282z" />
    <glyph glyph-name="t" unicode="t" horiz-adv-x="712" 
d="M696 25q-112 -41 -229 -41q-63 0 -114 25t-79 69q-45 71 -45 262v549h-204v108q102 13 206 13q0 16 7 256l127 10v-266h276v-121h-276v-527q0 -146 30 -196q33 -55 123 -55q68 0 156 20z" />
    <glyph glyph-name="u" unicode="u" horiz-adv-x="1259" 
d="M1214 14q-153 -30 -319 -30l-10 172q-196 -181 -391 -181q-225 0 -254 197q-11 65 -11 234v487h-202v92q184 45 333 45v-596q0 -139 15 -223q10 -53 54.5 -81t113.5 -28q157 0 336 154v637h-211v92q185 45 344 45v-926h202v-90z" />
    <glyph glyph-name="v" unicode="v" horiz-adv-x="1157" 
d="M645 0h-141l-361 897l-141 16v97h483v-97l-194 -14q139 -349 289 -749q79 228 288 749l-194 14v97h479v-97l-143 -16z" />
    <glyph glyph-name="w" unicode="w" horiz-adv-x="1599" 
d="M1456 899l-248 -899h-143q-211 632 -260 807q-64 -226 -268 -807h-142l-252 897l-141 16v97h475v-97l-190 -16q32 -117 69 -252t51.5 -187.5t31.5 -117t26 -100t18 -76.5q93 311 267 833h122q206 -606 267 -833q7 28 30.5 122.5t62 245t95.5 367.5l-188 14v97h458v-97z
" />
    <glyph glyph-name="x" unicode="x" horiz-adv-x="1175" 
d="M502 0h-475v96l145 17l315 413l-299 373l-135 16v95h459v-95l-162 -14l242 -303l235 303l-174 14v95h447v-95l-135 -14l-295 -375l340 -413l139 -17v-96h-485v96l182 17l-281 338l-256 -338l193 -17v-96z" />
    <glyph glyph-name="y" unicode="y" horiz-adv-x="1150" 
d="M139 -530l-30 120q68 9 124 32t98.5 56.5t80 84t66.5 105.5t61 132h-33l-363 897l-141 16v97h479v-97l-194 -14q203 -484 309 -776q1 4 51 152.5t98 284t123 339.5l-196 14v97h477v-97l-143 -16l-297 -817q-113 -308 -240 -444.5t-330 -165.5z" />
    <glyph glyph-name="z" unicode="z" horiz-adv-x="987" 
d="M903 0h-823v98q390 498 631 801h-471l-29 -199h-102q0 235 16 310h760v-103q-539 -679 -635 -794h532l27 215h104q0 -250 -10 -328z" />
    <glyph glyph-name="braceleft" unicode="{" horiz-adv-x="655" 
d="M606 -360q-95 0 -158.5 14.5t-110.5 51t-68 101.5t-21 164v275q0 138 -43 196t-146 72v74q108 21 148.5 81.5t40.5 190.5v270q0 99 20.5 164t66 103t110 53.5t161.5 15.5v-92q-44 0 -72.5 -3t-62.5 -16t-53.5 -37.5t-33 -69.5t-13.5 -109v-285q0 -100 -20.5 -160
t-55 -88.5t-98.5 -50.5q90 -21 132 -87t42 -206v-289q0 -73 18.5 -123t53.5 -75t73.5 -35t89.5 -10v-90z" />
    <glyph glyph-name="bar" unicode="|" horiz-adv-x="452" 
d="M276 -348h-96v1849h96v-1849z" />
    <glyph glyph-name="braceright" unicode="}" horiz-adv-x="655" 
d="M51 1466q94 0 157 -15t110 -52t68.5 -102t21.5 -164v-275q0 -138 43 -196t147 -72v-74q-111 -20 -150.5 -79.5t-39.5 -190.5v-273q0 -190 -83 -261.5t-274 -71.5v90q30 0 51.5 1.5t47.5 6.5t44 14.5t36.5 27t29.5 42t18 61t7 82.5v285q0 100 20.5 160.5t55.5 89.5t98 51
q-89 21 -131.5 87t-42.5 206v289q0 73 -19 123t-53.5 75t-73 35t-88.5 10v90z" />
    <glyph glyph-name="asciitilde" unicode="~" horiz-adv-x="1433" 
d="M256 473l-76 64q86 116 160 163.5t158 47.5q48 0 102.5 -20t147.5 -75q117 -71 198 -71q65 0 117 37.5t111 130.5l79 -62q-73 -114 -142.5 -167.5t-166.5 -53.5q-98 0 -242 84q-146 82 -213 82q-64 0 -119 -37.5t-114 -122.5z" />
    <glyph glyph-name="exclamdown" unicode="&#xa1;" horiz-adv-x="557" 
d="M188 563h121q21 -942 21 -960h-162q0 63 20 960zM150 891q0 54 29 82t75 28q39 0 69.5 -26.5t30.5 -83.5q0 -56 -29.5 -84.5t-72.5 -28.5q-44 0 -73 26.5t-29 86.5z" />
    <glyph glyph-name="cent" unicode="&#xa2;" horiz-adv-x="1052" 
d="M627 -207h-88v205q-179 11 -282 137t-103 346q0 237 102.5 373t282.5 168v209h88v-199q181 0 293 -33q8 -37 8 -292h-92l-25 190q-61 16 -184 16v-790q78 3 144 31t153 86l57 -95q-183 -134 -354 -147v-205zM293 494q0 -159 64.5 -251.5t181.5 -113.5v774
q-120 -26 -183 -131t-63 -278z" />
    <glyph glyph-name="sterling" unicode="&#xa3;" horiz-adv-x="1210" 
d="M1079 0h-989v113q42 20 80.5 42t81.5 55t73.5 68t51 80.5t20.5 92.5q0 35 -12 88h-238v106h205q-10 27 -34.5 83t-37.5 88.5t-24.5 82.5t-11.5 96q0 166 113 259.5t315 93.5q201 0 344 -52q7 -31 8.5 -85.5t1.5 -239.5h-100l-23 219q-95 29 -225 29q-137 0 -212 -64
t-75 -174q0 -19 3.5 -41t6.5 -36t13 -42t13 -35.5t17 -42t15 -36.5q36 -89 41 -103h370v-106h-348q10 -45 10 -82q0 -106 -67.5 -184t-185.5 -146q211 4 684 4l36 244h91q0 -312 -11 -375z" />
    <glyph glyph-name="currency" unicode="&#xa4;" horiz-adv-x="1062" 
d="M852 678q0 142 -92 235t-230 93q-135 0 -227 -93t-92 -231q0 -145 91 -238.5t228 -93.5q138 0 230 93t92 235zM913 221l-120 119q-111 -86 -263 -86q-147 0 -262 86l-114 -119l-70 70l121 123q-90 109 -90 264q0 147 88 262l-119 121l70 72l116 -121q115 92 260 92
q152 0 258 -90l121 119l66 -72l-117 -119q92 -111 92 -264q0 -148 -92 -262l121 -125z" />
    <glyph glyph-name="yen" unicode="&#xa5;" horiz-adv-x="1419" 
d="M1137 391h-367v-276l223 -17v-98h-573v98l221 17v276h-362v88h362v45l-72 109h-290v88h233l-317 489l-148 17v96h533v-96l-218 -17q273 -414 349 -544q73 117 354 544l-221 17v96h528v-96l-151 -17l-322 -489h238v-88h-295l-72 -109v-45h367v-88z" />
    <glyph glyph-name="brokenbar" unicode="&#xa6;" horiz-adv-x="452" 
d="M276 696h-96v688h96v-688zM276 -264h-96v688h96v-688z" />
    <glyph glyph-name="section" unicode="&#xa7;" horiz-adv-x="1028" 
d="M168 -8q172 -125 340 -125q95 0 154 41t59 117q0 29 -7.5 52.5t-28 46.5t-42.5 41t-65.5 43t-81.5 44.5t-105 53.5q-17 9 -26 13q-154 79 -209.5 150.5t-55.5 163.5q0 95 63.5 160t155.5 92q-122 100 -122 239q0 37 10 73.5t35.5 74.5t63 67t97.5 47.5t134 18.5
q178 0 333 -96l-53 -117q-158 90 -285 90q-99 0 -144.5 -46t-45.5 -101q0 -74 56 -126.5t220 -138.5q193 -99 257.5 -168t64.5 -174q0 -177 -199 -258q71 -55 101 -108t30 -129q0 -120 -96.5 -206.5t-271.5 -86.5q-220 0 -404 137zM653 328q158 58 158 174q0 57 -39.5 100.5
t-124.5 87.5q-94 52 -239 137q-175 -39 -175 -165q0 -99 150 -187q30 -18 270 -147z" />
    <glyph glyph-name="dieresis" unicode="&#xa8;" horiz-adv-x="411" 
d="M123 1300q0 -45 -24 -67.5t-64 -22.5q-84 0 -84 90q0 49 24.5 72t65.5 23q82 0 82 -95zM461 1300q0 -45 -24 -67.5t-64 -22.5q-84 0 -84 90q0 49 24.5 72t65.5 23q82 0 82 -95z" />
    <glyph glyph-name="copyright" unicode="&#xa9;" horiz-adv-x="1662" 
d="M1559 690q0 -151 -55.5 -284t-151.5 -228t-231.5 -150t-289.5 -55q-205 0 -371 94t-260 258t-94 365q0 151 55.5 284.5t151 229.5t230 151.5t286.5 55.5q154 0 290 -55.5t232.5 -151t152 -229t55.5 -285.5zM1491 690q0 185 -85 336t-237 237.5t-340 86.5q-186 0 -337 -87
t-235.5 -238t-84.5 -335q0 -137 49.5 -258.5t136 -208.5t209.5 -137.5t264 -50.5q188 0 339.5 85.5t236 235.5t84.5 334zM1165 360q-90 -65 -177.5 -99t-190.5 -34q-169 0 -272 115t-103 320q0 240 123 364.5t319 124.5q138 0 250 -31q10 -41 10 -258h-86l-24 174
q-80 15 -164 15q-150 0 -231.5 -99.5t-81.5 -281.5q0 -161 77.5 -246.5t204.5 -85.5q83 0 151.5 25.5t147.5 78.5z" />
    <glyph glyph-name="ordfeminine" unicode="&#xaa;" horiz-adv-x="724" 
d="M709 629v-66q-86 -22 -220 -22l-6 90q-99 -99 -225 -99q-99 0 -153 56t-54 137q0 127 135 166q105 34 293 37v37q0 89 -22 120q-27 37 -113 37q-89 0 -229 -43l-19 76q152 55 279 55q126 0 170 -67q28 -49 28 -176v-338h136zM479 702v152q-171 -4 -252 -33
q-75 -27 -75 -94q0 -54 35 -83.5t94 -29.5q107 0 198 88z" />
    <glyph glyph-name="guillemotleft" unicode="&#xab;" horiz-adv-x="1038" 
d="M453 895h143l-363 -377l365 -387h-147l-383 383zM819 895h144l-363 -377l363 -387h-144l-385 383z" />
    <glyph glyph-name="logicalnot" unicode="&#xac;" horiz-adv-x="1433" 
d="M1233 72h-109v477h-956v110h1065v-587z" />
    <glyph glyph-name="uni00AD" unicode="&#xad;" horiz-adv-x="622" 
d="M547 502h-471v125h471v-125z" />
    <glyph glyph-name="registered" unicode="&#xae;" horiz-adv-x="1662" 
d="M1559 690q0 -151 -55.5 -284t-151.5 -228t-231.5 -150t-289.5 -55q-205 0 -371 94t-260 258t-94 365q0 151 55.5 284.5t151 229.5t230 151.5t286.5 55.5q154 0 290 -55.5t232.5 -151t152 -229t55.5 -285.5zM1491 690q0 185 -85 336t-237 237.5t-340 86.5q-186 0 -337 -87
t-235.5 -238t-84.5 -335q0 -137 49.5 -258.5t136 -208.5t209.5 -137.5t264 -50.5q188 0 339.5 85.5t236 235.5t84.5 334zM836 281h-363v75l125 13v678l-125 10v76h340q119 0 186 -21q146 -50 146 -201q0 -99 -53 -157t-146 -76q27 -13 55 -57q36 -55 80 -144
q33 -66 65.5 -88t90.5 -22q11 0 31 4l10 -84q-31 -8 -74 -8q-79 0 -125 30.5t-75 93.5q-47 105 -97 185q-34 56 -69 67h-138v-286l136 -13v-75zM700 745h119q101 0 156 31q63 37 63 125q0 43 -23 76.5t-61 48.5q-48 18 -147 18h-107v-299z" />
    <glyph glyph-name="macron" unicode="&#xaf;" horiz-adv-x="411" 
d="M487 1202h-563v98h563v-98z" />
    <glyph glyph-name="degree" unicode="&#xb0;" horiz-adv-x="602" 
d="M551 1159q0 -118 -73 -189t-181 -71q-107 0 -175.5 73t-68.5 175q0 118 70 190t178 72q120 0 185 -71t65 -179zM477 1159q0 69 -42.5 122.5t-135.5 53.5q-83 0 -127.5 -52.5t-44.5 -129.5q0 -79 48 -130.5t124 -51.5q80 0 129 51t49 137z" />
    <glyph glyph-name="plusminus" unicode="&#xb1;" horiz-adv-x="1433" 
d="M770 262h-108v465h-478v111h478v458h108v-458h479v-111h-479v-465zM1249 0h-1065v113h1065v-113z" />
    <glyph glyph-name="twosuperior" unicode="&#xb2;" 
d="M655 868h-614v80q240 180 365 299q118 112 118 230q0 145 -172 145q-107 0 -237 -70l-33 80q149 88 285 88q128 0 196 -62t68 -173q0 -149 -164 -297q-148 -130 -283 -227q60 0 188 1t201 1l21 147h70q0 -196 -9 -242z" />
    <glyph glyph-name="threesuperior" unicode="&#xb3;" 
d="M61 879l21 92q17 -7 77 -16t93 -9q142 0 205 44t63 128q0 137 -211 137q-36 0 -90 -4l-4 88q151 7 214 50t63 114q0 63 -38.5 92t-121.5 29q-95 0 -219 -59l-31 80q147 75 266 75q246 0 246 -204q0 -68 -48 -123t-130 -76q98 -6 155.5 -58.5t57.5 -138.5
q0 -95 -50.5 -157t-132 -87.5t-192.5 -25.5q-52 0 -112.5 9.5t-80.5 19.5z" />
    <glyph glyph-name="acute" unicode="&#xb4;" horiz-adv-x="411" 
d="M115 1147h-115l250 307h164z" />
    <glyph glyph-name="mu" unicode="&#xb5;" horiz-adv-x="1284" 
d="M387 -414h-135v1307h-205v92q203 45 336 45v-584q0 -162 14 -225q11 -49 57.5 -82t110.5 -33q158 0 336 150v637h-211v92q185 45 344 45v-921h201v-91q-153 -30 -320 -30l-10 168q-156 -172 -344 -172q-112 0 -178 63q4 -154 4 -461z" />
    <glyph glyph-name="paragraph" unicode="&#xb6;" horiz-adv-x="1136" 
d="M633 -221h-78v737q-211 0 -324.5 118t-113.5 304q0 446 532 446h301v-1605h-78v1530h-239v-1530z" />
    <glyph glyph-name="periodcentered" unicode="&#xb7;" horiz-adv-x="387" 
d="M291 543q0 -54 -27 -81.5t-71 -27.5q-37 0 -68 26.5t-31 82.5q0 53 30 80.5t71 27.5t68.5 -25t27.5 -83z" />
    <glyph glyph-name="cedilla" unicode="&#xb8;" horiz-adv-x="411" 
d="M27 -449l26 87q58 -17 109 -17q108 0 108 86t-112 86q-43 0 -70 -4l88 231h90l-61 -143q94 -6 136 -53t42 -111q0 -80 -61 -131t-168 -51q-70 0 -127 20z" />
    <glyph glyph-name="onesuperior" unicode="&#xb9;" 
d="M602 868h-395v74l153 10v643q-19 -13 -49.5 -31t-72 -41.5t-60.5 -35.5l-39 67q210 141 234 158h90v-760l139 -10v-74z" />
    <glyph glyph-name="ordmasculine" unicode="&#xba;" horiz-adv-x="698" 
d="M664 891q0 -162 -85 -260.5t-237 -98.5q-140 0 -221.5 91.5t-81.5 236.5q0 160 88 256t246 96q134 0 212.5 -89t78.5 -232zM563 866q0 262 -209 262q-102 0 -158.5 -71t-56.5 -172q0 -136 56 -202.5t157 -66.5q90 0 150.5 67t60.5 183z" />
    <glyph glyph-name="guillemotright" unicode="&#xbb;" horiz-adv-x="1038" 
d="M588 133h-144l363 377l-365 385h146l383 -381zM221 133h-143l362 377l-364 385h145l385 -381z" />
    <glyph glyph-name="onequarter" unicode="&#xbc;" horiz-adv-x="1658" 
d="M565 0h-92l651 1321h90zM594 489h-395v74l153 10v644q-13 -9 -182 -109l-39 68q233 156 234 157h90v-760l139 -10v-74zM1405 -12h-98v225h-402v68l402 555h98v-535h127v-88h-127v-225zM1307 301q0 316 2 414q-20 -32 -49 -72.5t-54.5 -75t-88 -118.5t-109.5 -148h299z
" />
    <glyph glyph-name="onehalf" unicode="&#xbd;" horiz-adv-x="1658" 
d="M520 0h-92l651 1321h90zM563 489h-395v74l154 10v644q-5 -4 -183 -109l-39 68q233 156 234 157h90v-760l139 -10v-74zM1571 0h-615v80q240 180 365 299q119 113 119 229q0 146 -172 146q-108 0 -238 -70l-33 80q149 88 285 88q128 0 196 -62.5t68 -173.5
q0 -149 -164 -297q-152 -134 -282 -227q60 0 188 1t201 1l20 148h70q0 -201 -8 -242z" />
    <glyph glyph-name="threequarters" unicode="&#xbe;" horiz-adv-x="1658" 
d="M618 0h-92l652 1321h90zM123 500l20 92q17 -7 77 -16t93 -9q269 0 269 172q0 138 -211 138q-23 0 -90 -5l-5 89q151 7 214 49.5t63 113.5q0 63 -38.5 92t-121.5 29q-95 0 -219 -59l-31 80q147 75 267 75q245 0 245 -204q0 -68 -48 -123t-130 -76q98 -6 155.5 -58.5
t57.5 -138.5q0 -95 -50.5 -157t-132 -87.5t-192.5 -25.5q-52 0 -112 9.5t-80 19.5zM1432 -12h-99v225h-401v68l401 555h99v-535h127v-88h-127v-225zM1333 301q0 316 2 414q-20 -32 -49 -72.5t-54.5 -75t-88 -118.5t-109.5 -148h299z" />
    <glyph glyph-name="questiondown" unicode="&#xbf;" horiz-adv-x="845" 
d="M428 553l125 16q22 -71 22 -129q0 -79 -28 -134t-111 -124q-96 -84 -139 -151.5t-43 -141.5q0 -86 58 -137t169 -51q65 0 142 16.5t135 42.5l35 -118q-78 -32 -171.5 -52t-166.5 -20q-174 0 -261.5 76.5t-87.5 216.5q0 103 42 179t159 177q81 71 109 112t28 111
q0 61 -16 111zM387 889q0 54 28.5 82t73.5 28q39 0 70 -27t31 -83t-30.5 -84.5t-72.5 -28.5q-43 0 -71.5 26.5t-28.5 86.5z" />
    <glyph glyph-name="Agrave" unicode="&#xc0;" horiz-adv-x="1427" 
d="M539 0h-537v98l154 17l481 1269h162l475 -1269l151 -17v-98h-534v98l229 17l-135 348h-543l-137 -348l234 -17v-98zM483 592h461q-158 425 -227 637q-42 -132 -234 -637zM893 1491h-129l-406 293h187z" />
    <glyph glyph-name="Aacute" unicode="&#xc1;" horiz-adv-x="1427" 
d="M539 0h-537v98l154 17l481 1269h162l475 -1269l151 -17v-98h-534v98l229 17l-135 348h-543l-137 -348l234 -17v-98zM483 592h461q-158 425 -227 637q-42 -132 -234 -637zM662 1491h-136l348 293h187z" />
    <glyph glyph-name="Acircumflex" unicode="&#xc2;" horiz-adv-x="1427" 
d="M539 0h-537v98l154 17l481 1269h162l475 -1269l151 -17v-98h-534v98l229 17l-135 348h-543l-137 -348l234 -17v-98zM483 592h461q-158 425 -227 637q-42 -132 -234 -637zM522 1491h-112l249 252h123l248 -252h-115l-196 158z" />
    <glyph glyph-name="Atilde" unicode="&#xc3;" horiz-adv-x="1427" 
d="M535 0h-537v98l154 17l481 1269h162l475 -1269l151 -17v-98h-534v98l229 17l-135 348h-543l-137 -348l234 -17v-98zM479 592h461q-158 425 -227 637q-42 -132 -234 -637zM487 1491h-86q24 100 69.5 150.5t104.5 50.5q21 0 46 -7.5t42 -15t62 -29.5q77 -38 125 -38
q32 0 51 21t39 79h86q-23 -108 -65.5 -157.5t-106.5 -49.5q-62 0 -156 47q-93 43 -120 43q-28 0 -49 -20.5t-42 -73.5z" />
    <glyph glyph-name="Adieresis" unicode="&#xc4;" horiz-adv-x="1427" 
d="M539 0h-537v98l154 17l481 1269h162l475 -1269l151 -17v-98h-534v98l229 17l-135 348h-543l-137 -348l234 -17v-98zM483 592h461q-158 425 -227 637q-42 -132 -234 -637zM614 1610q0 -45 -24 -67.5t-64 -22.5q-84 0 -84 90q0 48 24.5 71t65.5 23q82 0 82 -94zM977 1610
q0 -45 -24 -67.5t-64 -22.5q-84 0 -84 90q0 48 24.5 71t65.5 23q82 0 82 -94z" />
    <glyph glyph-name="Aring" unicode="&#xc5;" horiz-adv-x="1427" 
d="M539 0h-537v98l154 17l481 1269h162l475 -1269l151 -17v-98h-534v98l229 17l-135 348h-543l-137 -348l234 -17v-98zM483 592h461q-158 425 -227 637q-42 -132 -234 -637zM881 1630q0 -74 -48.5 -127t-123.5 -53q-74 0 -124 51t-50 125q0 77 51 127.5t125 50.5
q78 0 124 -48t46 -126zM815 1628q0 53 -29 84t-77 31q-49 0 -78 -32t-29 -85q0 -50 29 -81.5t82 -31.5q48 0 75 32t27 83z" />
    <glyph glyph-name="AE" unicode="&#xc6;" horiz-adv-x="2039" 
d="M1917 0h-1061v98l213 17v342h-534l-236 -342l244 -17v-98h-543v98l135 17l783 1155l-222 16v98h1153q15 -76 15 -346h-103l-26 217h-525v-473h529v-129h-529v-526h586l29 240h102q0 -262 -10 -367zM1069 588v686q-66 -102 -463 -686h463z" />
    <glyph glyph-name="Ccedilla" unicode="&#xc7;" horiz-adv-x="1335" 
d="M535 -467l26 90q57 -16 117 -16q58 0 87.5 23.5t29.5 64.5q0 42 -32.5 65t-88.5 23q-2 0 -76 -4l74 192q-240 19 -392.5 200.5t-152.5 479.5q0 363 177 563.5t497 200.5q201 0 389 -47q10 -43 10 -348h-106l-29 235q-117 31 -272 31q-83 0 -157.5 -21.5t-141 -69.5
t-114.5 -119t-76 -177t-28 -237q0 -256 134.5 -407t341.5 -151q236 0 438 181l67 -95q-216 -206 -493 -219l-41 -100q98 -6 142 -55t44 -115q0 -84 -63.5 -136t-177.5 -52q-76 0 -133 20z" />
    <glyph glyph-name="Egrave" unicode="&#xc8;" horiz-adv-x="1253" 
d="M1133 0h-1061v98l213 17v1155l-213 16v98h993q14 -60 14 -346h-102l-29 217h-522v-473h526v-129h-526v-526h586l30 240h103q0 -285 -12 -367zM803 1491h-129l-406 293h187z" />
    <glyph glyph-name="Eacute" unicode="&#xc9;" horiz-adv-x="1253" 
d="M1133 0h-1061v98l213 17v1155l-213 16v98h993q14 -60 14 -346h-102l-29 217h-522v-473h526v-129h-526v-526h586l30 240h103q0 -285 -12 -367zM631 1470h-135l348 293h186z" />
    <glyph glyph-name="Ecircumflex" unicode="&#xca;" horiz-adv-x="1253" 
d="M1133 0h-1061v98l213 17v1155l-213 16v98h993q14 -60 14 -346h-102l-29 217h-522v-473h526v-129h-526v-526h586l30 240h103q0 -285 -12 -367zM461 1491h-113l250 252h123l248 -252h-115l-197 158z" />
    <glyph glyph-name="Edieresis" unicode="&#xcb;" horiz-adv-x="1253" 
d="M1133 0h-1061v98l213 17v1155l-213 16v98h993q14 -60 14 -346h-102l-29 217h-522v-473h526v-129h-526v-526h586l30 240h103q0 -285 -12 -367zM559 1610q0 -45 -24 -67.5t-64 -22.5q-84 0 -84 90q0 48 24.5 71t65.5 23q82 0 82 -94zM922 1610q0 -45 -24 -67.5t-64 -22.5
q-84 0 -84 90q0 48 24.5 71t65.5 23q82 0 82 -94z" />
    <glyph glyph-name="Igrave" unicode="&#xcc;" horiz-adv-x="712" 
d="M641 0h-569v98l213 17v1155l-213 16v98h569v-98l-213 -16v-1155l213 -17v-98zM537 1491h-129l-406 293h186z" />
    <glyph glyph-name="Iacute" unicode="&#xcd;" horiz-adv-x="712" 
d="M641 0h-569v98l213 17v1155l-213 16v98h569v-98l-213 -16v-1155l213 -17v-98zM307 1470h-135l348 293h187z" />
    <glyph glyph-name="Icircumflex" unicode="&#xce;" horiz-adv-x="712" 
d="M641 0h-569v98l213 17v1155l-213 16v98h569v-98l-213 -16v-1155l213 -17v-98zM158 1491h-113l250 252h123l248 -252h-115l-197 158z" />
    <glyph glyph-name="Idieresis" unicode="&#xcf;" horiz-adv-x="712" 
d="M641 0h-569v98l213 17v1155l-213 16v98h569v-98l-213 -16v-1155l213 -17v-98zM258 1610q0 -45 -24 -67.5t-64 -22.5q-84 0 -84 90q0 48 24.5 71t65.5 23q82 0 82 -94zM621 1610q0 -45 -24.5 -67.5t-64.5 -22.5q-83 0 -83 90q0 48 24.5 71t65.5 23q82 0 82 -94z" />
    <glyph glyph-name="Eth" unicode="&#xd0;" horiz-adv-x="1499" 
d="M53 688v103h232v479l-213 16v98h469q309 0 452 -49q87 -29 154 -75.5t118.5 -117.5t79 -173.5t27.5 -233.5t-22.5 -237.5t-70.5 -195.5t-128.5 -152.5t-192.5 -98.5q-160 -51 -466 -51h-420v98l213 17v573h-232zM426 127h125q198 0 340 43q175 55 252.5 196t77.5 363
q0 329 -226 455q-122 71 -411 71h-158v-464h338v-103h-338v-561z" />
    <glyph glyph-name="Ntilde" unicode="&#xd1;" horiz-adv-x="1568" 
d="M639 0h-567v98l213 17v1155l-213 16v98h385q428 -653 537 -824.5t182 -307.5q-7 256 -7 1018l-204 14v100h548v-98l-202 -16v-1270h-152q-610 969 -739 1182q6 -285 6 -1067l213 -17v-98zM584 1491h-86q24 100 69.5 150.5t104.5 50.5q21 0 46.5 -7.5t40.5 -14.5t62 -30
q77 -38 125 -38q32 0 51 21t39 79h86q-23 -108 -65.5 -157.5t-106.5 -49.5q-61 0 -155 47q-93 43 -121 43t-48.5 -20.5t-41.5 -73.5z" />
    <glyph glyph-name="Ograve" unicode="&#xd2;" horiz-adv-x="1507" 
d="M1380 733q0 -360 -167.5 -562t-464.5 -202q-294 0 -457.5 188t-163.5 513q0 361 167 553t476 192q298 0 454 -174.5t156 -507.5zM1229 700q0 584 -471 584q-230 0 -356 -154t-126 -430q0 -301 130 -449.5t352 -148.5q218 0 344.5 156.5t126.5 441.5zM952 1491h-129
l-405 293h186z" />
    <glyph glyph-name="Oacute" unicode="&#xd3;" horiz-adv-x="1507" 
d="M1380 733q0 -360 -167.5 -562t-464.5 -202q-294 0 -457.5 188t-163.5 513q0 361 167 553t476 192q298 0 454 -174.5t156 -507.5zM1229 700q0 584 -471 584q-230 0 -356 -154t-126 -430q0 -301 130 -449.5t352 -148.5q218 0 344.5 156.5t126.5 441.5zM709 1477h-136
l349 292h186z" />
    <glyph glyph-name="Ocircumflex" unicode="&#xd4;" horiz-adv-x="1507" 
d="M1380 733q0 -360 -167.5 -562t-464.5 -202q-294 0 -457.5 188t-163.5 513q0 361 167 553t476 192q298 0 454 -174.5t156 -507.5zM1229 700q0 584 -471 584q-230 0 -356 -154t-126 -430q0 -301 130 -449.5t352 -148.5q218 0 344.5 156.5t126.5 441.5zM567 1491h-112
l250 252h122l248 -252h-114l-197 158z" />
    <glyph glyph-name="Otilde" unicode="&#xd5;" horiz-adv-x="1507" 
d="M1380 733q0 -360 -167.5 -562t-464.5 -202q-294 0 -457.5 188t-163.5 513q0 361 167 553t476 192q298 0 454 -174.5t156 -507.5zM1229 700q0 584 -471 584q-230 0 -356 -154t-126 -430q0 -301 130 -449.5t352 -148.5q218 0 344.5 156.5t126.5 441.5zM537 1491h-86
q24 100 69.5 150.5t104.5 50.5q21 0 46.5 -7.5t40.5 -14.5t62 -30q77 -38 125 -38q32 0 51 21t39 79h86q-23 -108 -65.5 -157.5t-106.5 -49.5q-61 0 -155 47q-93 43 -121 43t-48.5 -20.5t-41.5 -73.5z" />
    <glyph glyph-name="Odieresis" unicode="&#xd6;" horiz-adv-x="1507" 
d="M1380 733q0 -360 -167.5 -562t-464.5 -202q-294 0 -457.5 188t-163.5 513q0 361 167 553t476 192q298 0 454 -174.5t156 -507.5zM1229 700q0 584 -471 584q-230 0 -356 -154t-126 -430q0 -301 130 -449.5t352 -148.5q218 0 344.5 156.5t126.5 441.5zM676 1610
q0 -45 -24 -67.5t-64 -22.5q-84 0 -84 90q0 48 24.5 71t65.5 23q82 0 82 -94zM1038 1610q0 -45 -24 -67.5t-64 -22.5q-84 0 -84 90q0 48 24.5 71t65.5 23q82 0 82 -94z" />
    <glyph glyph-name="multiply" unicode="&#xd7;" horiz-adv-x="1433" 
d="M1149 252l-76 -84l-360 354l-357 -356l-73 82l358 358l-360 359l73 84l361 -363l364 363l74 -84l-362 -359z" />
    <glyph glyph-name="Oslash" unicode="&#xd8;" horiz-adv-x="1507" 
d="M274 -94l-84 55l119 174q-182 188 -182 535q0 361 167 553t476 192q208 0 350 -88l107 156l84 -53l-113 -164q182 -176 182 -533q0 -360 -167.5 -562t-464.5 -202q-214 0 -361 101zM1229 700q0 292 -117 437l-643 -947q116 -88 289 -88q218 0 344.5 156.5t126.5 441.5z
M276 700q0 -285 119 -438l643 944q-111 78 -280 78q-230 0 -356 -154t-126 -430z" />
    <glyph glyph-name="Ugrave" unicode="&#xd9;" horiz-adv-x="1523" 
d="M1272 1272v-705q0 -145 -14 -231t-50 -152q-55 -99 -169 -155t-283 -56q-363 0 -465 232q-28 63 -36.5 148t-8.5 214v705l-191 14v98h547v-100l-217 -12v-682q0 -227 31 -309q72 -177 344 -177q250 0 330 156q45 91 45 320v692l-209 14v98h542v-102zM918 1491h-130
l-405 293h186z" />
    <glyph glyph-name="Uacute" unicode="&#xda;" horiz-adv-x="1523" 
d="M1272 1272v-705q0 -145 -14 -231t-50 -152q-55 -99 -169 -155t-283 -56q-363 0 -465 232q-28 63 -36.5 148t-8.5 214v705l-191 14v98h547v-100l-217 -12v-682q0 -227 31 -309q72 -177 344 -177q250 0 330 156q45 91 45 320v692l-209 14v98h542v-102zM717 1470h-135
l348 293h186z" />
    <glyph glyph-name="Ucircumflex" unicode="&#xdb;" horiz-adv-x="1523" 
d="M1272 1272v-705q0 -145 -14 -231t-50 -152q-55 -99 -169 -155t-283 -56q-363 0 -465 232q-28 63 -36.5 148t-8.5 214v705l-191 14v98h547v-100l-217 -12v-682q0 -227 31 -309q72 -177 344 -177q250 0 330 156q45 91 45 320v692l-209 14v98h542v-102zM565 1491h-112
l249 252h123l248 -252h-115l-196 158z" />
    <glyph glyph-name="Udieresis" unicode="&#xdc;" horiz-adv-x="1523" 
d="M1272 1272v-705q0 -145 -14 -231t-50 -152q-55 -99 -169 -155t-283 -56q-363 0 -465 232q-28 63 -36.5 148t-8.5 214v705l-191 14v98h547v-100l-217 -12v-682q0 -227 31 -309q72 -177 344 -177q250 0 330 156q45 91 45 320v692l-209 14v98h542v-102zM672 1610
q0 -45 -24 -67.5t-64 -22.5q-84 0 -84 90q0 48 24.5 71t65.5 23q82 0 82 -94zM1034 1610q0 -45 -24 -67.5t-64 -22.5q-84 0 -84 90q0 48 24.5 71t65.5 23q82 0 82 -94z" />
    <glyph glyph-name="Yacute" unicode="&#xdd;" horiz-adv-x="1384" 
d="M981 0h-582v98l222 17v438l-467 717l-152 16v98h543v-98l-217 -16q280 -431 368 -580q60 105 308 482q14 20 21.5 32t20 31t23.5 35l-223 16v98h538v-98l-153 -16l-471 -717v-438l221 -17v-98zM666 1470h-136l349 293h186z" />
    <glyph glyph-name="Thorn" unicode="&#xde;" horiz-adv-x="1284" 
d="M641 0h-569v98l213 17v1155l-213 16v98h569v-98l-215 -16v-183h178q214 0 314 -28q124 -36 184.5 -116t60.5 -218q0 -301 -274 -381q-108 -31 -320 -31h-143v-198l215 -17v-98zM426 438h145q181 0 263 27q180 61 180 258q0 160 -146 215q-85 31 -264 31h-178v-531z" />
    <glyph glyph-name="germandbls" unicode="&#xdf;" horiz-adv-x="1206" 
d="M387 0h-324v96l189 17v802q0 143 16.5 230.5t53.5 146.5q55 90 145 138.5t209 48.5q89 0 154.5 -25.5t99.5 -67.5t49.5 -86.5t15.5 -91.5q0 -81 -35.5 -140.5t-109.5 -139.5q-58 -61 -78 -91.5t-20 -54.5q0 -26 16.5 -47t52.5 -51q79 -66 176 -152q109 -99 109 -233
q0 -150 -97 -234.5t-243 -84.5q-149 0 -289 75l51 123q45 -32 105.5 -50.5t116.5 -18.5q101 0 157 45.5t56 136.5q0 92 -76 160q-31 28 -99.5 83t-99.5 82q-72 64 -72 132q0 73 80 161q43 49 63.5 74t47 63.5t37 71.5t10.5 68q0 32 -9.5 61t-29.5 55.5t-57.5 42t-87.5 15.5
q-141 0 -217 -107q-66 -92 -66 -305v-948z" />
    <glyph glyph-name="agrave" unicode="&#xe0;" horiz-adv-x="1140" 
d="M1102 109v-91q-55 -13 -148 -22.5t-168 -9.5l-10 143q-64 -70 -153 -109.5t-191 -39.5q-77 0 -137.5 25.5t-97 69t-55.5 97.5t-19 115q0 89 49.5 152.5t140.5 92.5q165 51 457 58v74q0 150 -33 194q-25 30 -61.5 43.5t-108.5 13.5q-145 0 -346 -67l-22 108q238 86 415 86
q189 0 246 -100q23 -40 31 -104.5t8 -182.5v-546h203zM772 229v260q-272 -8 -389 -49q-123 -44 -123 -153q0 -92 57 -140.5t148 -48.5q173 0 307 131zM686 1147h-117l-297 307h164z" />
    <glyph glyph-name="aacute" unicode="&#xe1;" horiz-adv-x="1140" 
d="M1102 109v-91q-55 -13 -148 -22.5t-168 -9.5l-10 143q-64 -70 -153 -109.5t-191 -39.5q-77 0 -137.5 25.5t-97 69t-55.5 97.5t-19 115q0 89 49.5 152.5t140.5 92.5q165 51 457 58v74q0 150 -33 194q-25 30 -61.5 43.5t-108.5 13.5q-145 0 -346 -67l-22 108q238 86 415 86
q189 0 246 -100q23 -40 31 -104.5t8 -182.5v-546h203zM772 229v260q-272 -8 -389 -49q-123 -44 -123 -153q0 -92 57 -140.5t148 -48.5q173 0 307 131zM561 1147h-115l250 307h164z" />
    <glyph glyph-name="acircumflex" unicode="&#xe2;" horiz-adv-x="1140" 
d="M1102 109v-91q-55 -13 -148 -22.5t-168 -9.5l-10 143q-64 -70 -153 -109.5t-191 -39.5q-77 0 -137.5 25.5t-97 69t-55.5 97.5t-19 115q0 89 49.5 152.5t140.5 92.5q165 51 457 58v74q0 150 -33 194q-25 30 -61.5 43.5t-108.5 13.5q-145 0 -346 -67l-22 108q238 86 415 86
q189 0 246 -100q23 -40 31 -104.5t8 -182.5v-546h203zM772 229v260q-272 -8 -389 -49q-123 -44 -123 -153q0 -92 57 -140.5t148 -48.5q173 0 307 131zM379 1147h-109l242 303h104l236 -303h-109l-182 205z" />
    <glyph glyph-name="atilde" unicode="&#xe3;" horiz-adv-x="1140" 
d="M1102 109v-91q-55 -13 -148 -22.5t-168 -9.5l-10 143q-64 -70 -153 -109.5t-191 -39.5q-77 0 -137.5 25.5t-97 69t-55.5 97.5t-19 115q0 89 49.5 152.5t140.5 92.5q165 51 457 58v74q0 150 -33 194q-25 30 -61.5 43.5t-108.5 13.5q-145 0 -346 -67l-22 108q238 86 415 86
q189 0 246 -100q23 -40 31 -104.5t8 -182.5v-546h203zM772 229v260q-272 -8 -389 -49q-123 -44 -123 -153q0 -92 57 -140.5t148 -48.5q173 0 307 131zM340 1171h-86q22 99 66.5 150t99.5 51q49 0 143 -49q77 -41 117 -41q30 0 48 21.5t38 80.5h82q-42 -208 -164 -208
q-53 0 -147 47q-86 45 -113 45t-46.5 -22t-37.5 -75z" />
    <glyph glyph-name="adieresis" unicode="&#xe4;" horiz-adv-x="1140" 
d="M1102 109v-91q-55 -13 -148 -22.5t-168 -9.5l-10 143q-64 -70 -153 -109.5t-191 -39.5q-77 0 -137.5 25.5t-97 69t-55.5 97.5t-19 115q0 89 49.5 152.5t140.5 92.5q165 51 457 58v74q0 150 -33 194q-25 30 -61.5 43.5t-108.5 13.5q-145 0 -346 -67l-22 108q238 86 415 86
q189 0 246 -100q23 -40 31 -104.5t8 -182.5v-546h203zM772 229v260q-272 -8 -389 -49q-123 -44 -123 -153q0 -92 57 -140.5t148 -48.5q173 0 307 131zM479 1300q0 -45 -24 -67.5t-64 -22.5q-84 0 -84 90q0 49 24.5 72t65.5 23q82 0 82 -95zM817 1300q0 -45 -24 -67.5
t-64 -22.5q-84 0 -84 90q0 49 24.5 72t65.5 23q82 0 82 -95z" />
    <glyph glyph-name="aring" unicode="&#xe5;" horiz-adv-x="1140" 
d="M1102 109v-91q-55 -13 -148 -22.5t-168 -9.5l-10 143q-64 -70 -153 -109.5t-191 -39.5q-77 0 -137.5 25.5t-97 69t-55.5 97.5t-19 115q0 89 49.5 152.5t140.5 92.5q165 51 457 58v74q0 150 -33 194q-25 30 -61.5 43.5t-108.5 13.5q-145 0 -346 -67l-22 108q238 86 415 86
q189 0 246 -100q23 -40 31 -104.5t8 -182.5v-546h203zM772 229v260q-272 -8 -389 -49q-123 -44 -123 -153q0 -92 57 -140.5t148 -48.5q173 0 307 131zM735 1305q0 -78 -50.5 -133.5t-129.5 -55.5q-78 0 -129 53t-51 131q0 81 51.5 133t130.5 52q83 0 130.5 -49t47.5 -131z
M670 1303q0 55 -31 87.5t-84 32.5t-83 -34t-30 -89q0 -54 29.5 -87t87.5 -33q52 0 81.5 34.5t29.5 88.5z" />
    <glyph glyph-name="ae" unicode="&#xe6;" horiz-adv-x="1708" 
d="M1657 129q-109 -80 -209 -120t-231 -40q-242 0 -359 183q-43 -38 -79 -64t-89 -55.5t-116 -44.5t-134 -15q-79 0 -141.5 26.5t-100 71.5t-56.5 100t-19 116q0 90 50.5 157.5t141.5 96.5q173 54 455 57v68q0 144 -33 188q-25 31 -63 46t-109 15q-146 0 -344 -67l-26 108
q238 86 411 86q162 0 223 -81q38 -51 45 -123q60 101 158 152.5t217 51.5q387 0 387 -464q0 -24 -4 -82h-731v-33q0 -168 93 -269.5t243 -101.5q109 0 195.5 34t171.5 97zM772 496q-256 -4 -387 -47q-59 -21 -92 -61.5t-33 -96.5q0 -94 59.5 -148.5t151.5 -54.5
q107 0 184.5 42t155.5 114q-39 98 -39 252zM907 602h594q2 18 2 57q0 53 -13 98.5t-41.5 84.5t-81 61.5t-124.5 22.5q-130 0 -224 -82t-112 -242z" />
    <glyph glyph-name="ccedilla" unicode="&#xe7;" horiz-adv-x="1021" 
d="M383 -449l27 87q58 -17 108 -17q55 0 82 23t27 63q0 86 -113 86q-43 0 -70 -4l68 182q-177 12 -283 144t-106 356q0 280 137 425.5t365 145.5q163 0 276 -38q10 -45 10 -295h-100l-27 196q-75 19 -174 19q-167 0 -257.5 -115t-90.5 -326q0 -185 87.5 -286t228.5 -101
q94 0 167 28t166 91l50 -92q-182 -137 -359 -152l-41 -94q94 -6 136 -53t42 -111q0 -80 -61 -131t-168 -51q-70 0 -127 20z" />
    <glyph glyph-name="egrave" unicode="&#xe8;" horiz-adv-x="1071" 
d="M1016 129q-109 -80 -209 -120t-229 -40q-214 0 -334.5 145.5t-120.5 381.5q0 137 39.5 243.5t107.5 171.5t153 98t183 33q391 0 391 -444q0 -22 -4 -84h-731v-29q0 -197 93.5 -295t244.5 -98q107 0 193.5 34t171.5 97zM862 623q2 14 2 47q0 53 -13.5 97.5t-42.5 82
t-81 59t-123 21.5q-128 0 -221 -76t-115 -231h594zM721 1147h-117l-297 307h164z" />
    <glyph glyph-name="eacute" unicode="&#xe9;" horiz-adv-x="1071" 
d="M1016 129q-109 -80 -209 -120t-229 -40q-214 0 -334.5 145.5t-120.5 381.5q0 137 39.5 243.5t107.5 171.5t153 98t183 33q391 0 391 -444q0 -22 -4 -84h-731v-29q0 -197 93.5 -295t244.5 -98q107 0 193.5 34t171.5 97zM862 623q2 14 2 47q0 53 -13.5 97.5t-42.5 82
t-81 59t-123 21.5q-128 0 -221 -76t-115 -231h594zM588 1147h-115l250 307h164z" />
    <glyph glyph-name="ecircumflex" unicode="&#xea;" horiz-adv-x="1071" 
d="M1016 129q-109 -80 -209 -120t-229 -40q-214 0 -334.5 145.5t-120.5 381.5q0 137 39.5 243.5t107.5 171.5t153 98t183 33q391 0 391 -444q0 -22 -4 -84h-731v-29q0 -197 93.5 -295t244.5 -98q107 0 193.5 34t171.5 97zM862 623q2 14 2 47q0 53 -13.5 97.5t-42.5 82
t-81 59t-123 21.5q-128 0 -221 -76t-115 -231h594zM418 1147h-109l242 303h104l236 -303h-109l-182 205z" />
    <glyph glyph-name="edieresis" unicode="&#xeb;" horiz-adv-x="1071" 
d="M1016 129q-109 -80 -209 -120t-229 -40q-214 0 -334.5 145.5t-120.5 381.5q0 137 39.5 243.5t107.5 171.5t153 98t183 33q391 0 391 -444q0 -22 -4 -84h-731v-29q0 -197 93.5 -295t244.5 -98q107 0 193.5 34t171.5 97zM862 623q2 14 2 47q0 53 -13.5 97.5t-42.5 82
t-81 59t-123 21.5q-128 0 -221 -76t-115 -231h594zM520 1300q0 -45 -24 -67.5t-64 -22.5q-84 0 -84 90q0 49 24.5 72t65.5 23q82 0 82 -95zM858 1300q0 -45 -24 -67.5t-64 -22.5q-84 0 -84 90q0 49 24.5 72t65.5 23q82 0 82 -95z" />
    <glyph glyph-name="igrave" unicode="&#xec;" horiz-adv-x="638" 
d="M420 1147h-117l-297 307h164zM594 0h-512v96l190 17v778h-204v94q190 47 335 47v-919l191 -17v-96z" />
    <glyph glyph-name="iacute" unicode="&#xed;" horiz-adv-x="638" 
d="M256 1147h-115l250 307h164zM594 0h-512v96l190 17v778h-204v94q190 47 335 47v-919l191 -17v-96z" />
    <glyph glyph-name="icircumflex" unicode="&#xee;" horiz-adv-x="638" 
d="M594 0h-512v96l190 17v778h-204v94q190 47 335 47v-919l191 -17v-96zM113 1147h-109l242 303h104l236 -303h-109l-182 205z" />
    <glyph glyph-name="idieresis" unicode="&#xef;" horiz-adv-x="638" 
d="M223 1300q0 -45 -24 -67.5t-64 -22.5q-84 0 -84 90q0 49 24.5 72t65.5 23q82 0 82 -95zM561 1300q0 -45 -24 -67.5t-64 -22.5q-84 0 -84 90q0 49 24.5 72t65.5 23q82 0 82 -95zM594 0h-512v96l190 17v778h-204v94q190 47 335 47v-919l191 -17v-96z" />
    <glyph glyph-name="eth" unicode="&#xf0;" horiz-adv-x="1173" 
d="M408 1077l-48 80l207 133q-107 71 -237 109l43 102q172 -40 301 -135l207 139l49 -75l-187 -125q151 -134 229.5 -335.5t78.5 -439.5q0 -116 -28 -214t-84 -175.5t-150 -121.5t-218 -44q-207 0 -327.5 140.5t-120.5 367.5q0 243 129 390t350 147q172 0 260 -123
q-73 209 -221 334zM913 496q0 68 -9 125.5t-31.5 112t-57.5 93t-92 61.5t-131 23q-100 0 -177 -56.5t-115 -143.5t-38 -187q0 -217 87 -321.5t243 -104.5q138 0 229.5 106.5t91.5 291.5z" />
    <glyph glyph-name="ntilde" unicode="&#xf1;" horiz-adv-x="1296" 
d="M594 0h-512v96l190 17v778h-204v92q68 19 164 34t161 15l10 -178q89 79 205 130.5t209 51.5q105 0 159 -46.5t68 -137.5q9 -66 9 -242v-497l204 -17v-96h-335v575q0 163 -17 240q-22 92 -141 92q-171 0 -361 -147v-647l191 -17v-96zM446 1171h-86q22 99 66.5 150t99.5 51
q50 0 144 -49q77 -41 116 -41q30 0 48 21.5t38 80.5h82q-42 -208 -163 -208q-54 0 -148 47q-86 45 -113 45t-46.5 -22t-37.5 -75z" />
    <glyph glyph-name="ograve" unicode="&#xf2;" horiz-adv-x="1181" 
d="M1059 530q0 -268 -123 -414.5t-356 -146.5q-215 0 -336 139t-121 384q0 265 128.5 407.5t356.5 142.5q451 0 451 -512zM920 500q0 78 -8 139t-29.5 116t-57 91t-92.5 57t-133 21q-163 0 -250.5 -110t-87.5 -288q0 -232 84.5 -335t245.5 -103q148 0 238 103.5t90 308.5z
M721 1147h-117l-297 307h164z" />
    <glyph glyph-name="oacute" unicode="&#xf3;" horiz-adv-x="1181" 
d="M1059 530q0 -268 -123 -414.5t-356 -146.5q-215 0 -336 139t-121 384q0 265 128.5 407.5t356.5 142.5q451 0 451 -512zM920 500q0 78 -8 139t-29.5 116t-57 91t-92.5 57t-133 21q-163 0 -250.5 -110t-87.5 -288q0 -232 84.5 -335t245.5 -103q148 0 238 103.5t90 308.5z
M571 1147h-114l250 307h163z" />
    <glyph glyph-name="ocircumflex" unicode="&#xf4;" horiz-adv-x="1181" 
d="M1059 530q0 -268 -123 -414.5t-356 -146.5q-215 0 -336 139t-121 384q0 265 128.5 407.5t356.5 142.5q451 0 451 -512zM920 500q0 78 -8 139t-29.5 116t-57 91t-92.5 57t-133 21q-163 0 -250.5 -110t-87.5 -288q0 -232 84.5 -335t245.5 -103q148 0 238 103.5t90 308.5z
M424 1147h-109l242 303h105l235 -303h-109l-182 205z" />
    <glyph glyph-name="otilde" unicode="&#xf5;" horiz-adv-x="1181" 
d="M1059 530q0 -268 -123 -414.5t-356 -146.5q-215 0 -336 139t-121 384q0 265 128.5 407.5t356.5 142.5q451 0 451 -512zM920 500q0 78 -8 139t-29.5 116t-57 91t-92.5 57t-133 21q-163 0 -250.5 -110t-87.5 -288q0 -232 84.5 -335t245.5 -103q148 0 238 103.5t90 308.5z
M389 1171h-86q22 99 66.5 150t99.5 51q49 0 143 -49q77 -41 117 -41q30 0 48 21.5t38 80.5h82q-42 -208 -164 -208q-53 0 -147 47q-86 45 -113 45t-46.5 -22t-37.5 -75z" />
    <glyph glyph-name="odieresis" unicode="&#xf6;" horiz-adv-x="1181" 
d="M1059 530q0 -268 -123 -414.5t-356 -146.5q-215 0 -336 139t-121 384q0 265 128.5 407.5t356.5 142.5q451 0 451 -512zM920 500q0 78 -8 139t-29.5 116t-57 91t-92.5 57t-133 21q-163 0 -250.5 -110t-87.5 -288q0 -232 84.5 -335t245.5 -103q148 0 238 103.5t90 308.5z
M520 1300q0 -45 -24 -67.5t-64 -22.5q-84 0 -84 90q0 49 24.5 72t65.5 23q82 0 82 -95zM858 1300q0 -45 -24 -67.5t-64 -22.5q-84 0 -84 90q0 49 24.5 72t65.5 23q82 0 82 -95z" />
    <glyph glyph-name="divide" unicode="&#xf7;" horiz-adv-x="1433" 
d="M795 932q0 -42 -22 -64t-56 -22t-56 21t-22 65t22.5 65t57.5 21q76 0 76 -86zM1249 549h-1065v110h1065v-110zM795 264q0 -42 -21.5 -63t-56.5 -21q-34 0 -56 20t-22 64q0 45 22.5 66.5t57.5 21.5q76 0 76 -88z" />
    <glyph glyph-name="oslash" unicode="&#xf8;" horiz-adv-x="1181" 
d="M229 -96l-79 51l100 145q-127 139 -127 392q0 265 128.5 407.5t356.5 142.5q148 0 250 -57l100 143l78 -51l-102 -149q125 -128 125 -398q0 -268 -123 -414.5t-356 -146.5q-149 0 -258 70zM920 500q0 210 -68 311l-459 -668q75 -55 199 -55q148 0 238 103.5t90 308.5z
M262 526q0 -200 68 -311l454 662q-68 47 -184 47q-163 0 -250.5 -110t-87.5 -288z" />
    <glyph glyph-name="ugrave" unicode="&#xf9;" horiz-adv-x="1259" 
d="M1214 14q-153 -30 -319 -30l-10 172q-196 -181 -391 -181q-225 0 -254 197q-11 65 -11 234v487h-202v92q184 45 333 45v-596q0 -139 15 -223q10 -53 54.5 -81t113.5 -28q157 0 336 154v637h-211v92q185 45 344 45v-926h202v-90zM729 1147h-117l-297 307h164z" />
    <glyph glyph-name="uacute" unicode="&#xfa;" horiz-adv-x="1259" 
d="M1214 14q-153 -30 -319 -30l-10 172q-196 -181 -391 -181q-225 0 -254 197q-11 65 -11 234v487h-202v92q184 45 333 45v-596q0 -139 15 -223q10 -53 54.5 -81t113.5 -28q157 0 336 154v637h-211v92q185 45 344 45v-926h202v-90zM592 1147h-115l250 307h164z" />
    <glyph glyph-name="ucircumflex" unicode="&#xfb;" horiz-adv-x="1259" 
d="M1214 14q-153 -30 -319 -30l-10 172q-196 -181 -391 -181q-225 0 -254 197q-11 65 -11 234v487h-202v92q184 45 333 45v-596q0 -139 15 -223q10 -53 54.5 -81t113.5 -28q157 0 336 154v637h-211v92q185 45 344 45v-926h202v-90zM420 1147h-109l242 303h104l236 -303h-109
l-182 205z" />
    <glyph glyph-name="udieresis" unicode="&#xfc;" horiz-adv-x="1259" 
d="M1214 14q-153 -30 -319 -30l-10 172q-196 -181 -391 -181q-225 0 -254 197q-11 65 -11 234v487h-202v92q184 45 333 45v-596q0 -139 15 -223q10 -53 54.5 -81t113.5 -28q157 0 336 154v637h-211v92q185 45 344 45v-926h202v-90zM535 1300q0 -45 -24.5 -67.5t-64.5 -22.5
q-84 0 -84 90q0 48 25 71.5t66 23.5q82 0 82 -95zM872 1300q0 -45 -24 -67.5t-64 -22.5q-84 0 -84 90q0 48 25 71.5t66 23.5q81 0 81 -95z" />
    <glyph glyph-name="yacute" unicode="&#xfd;" horiz-adv-x="1150" 
d="M139 -530l-30 120q68 9 124 32t98.5 56.5t80 84t66.5 105.5t61 132h-33l-363 897l-141 16v97h479v-97l-194 -14q203 -484 309 -776q1 4 51 152.5t98 284t123 339.5l-196 14v97h477v-97l-143 -16l-297 -817q-113 -308 -240 -444.5t-330 -165.5zM563 1147h-114l249 307h164
z" />
    <glyph glyph-name="thorn" unicode="&#xfe;" horiz-adv-x="1214" 
d="M604 -492h-553v97l189 16v1749h-201v92q156 44 332 51v-641q212 166 391 166q166 0 252 -124t86 -369q0 -146 -33.5 -255.5t-95.5 -176t-145.5 -99t-188.5 -32.5q-151 0 -266 47v-408l233 -16v-97zM371 158q116 -58 264 -58q161 0 242 109t81 311q0 70 -7 127
t-24.5 107.5t-44.5 84t-68.5 53t-96.5 19.5q-85 0 -167.5 -35.5t-178.5 -99.5v-618z" />
    <glyph glyph-name="ydieresis" unicode="&#xff;" horiz-adv-x="1150" 
d="M139 -530l-30 120q68 9 124 32t98.5 56.5t80 84t66.5 105.5t61 132h-33l-363 897l-141 16v97h479v-97l-194 -14q203 -484 309 -776q1 4 51 152.5t98 284t123 339.5l-196 14v97h477v-97l-143 -16l-297 -817q-113 -308 -240 -444.5t-330 -165.5zM492 1300
q0 -45 -24.5 -67.5t-64.5 -22.5q-84 0 -84 90q0 48 25 71.5t66 23.5q82 0 82 -95zM829 1300q0 -45 -24 -67.5t-64 -22.5q-84 0 -84 90q0 48 25 71.5t66 23.5q81 0 81 -95z" />
    <glyph glyph-name="Amacron" unicode="&#x100;" horiz-adv-x="1427" 
d="M535 0h-537v98l154 17l481 1269h162l475 -1269l151 -17v-98h-534v98l229 17l-135 348h-543l-137 -348l234 -17v-98zM479 592h461q-158 425 -227 637q-42 -132 -234 -637zM997 1536h-571v96h571v-96z" />
    <glyph glyph-name="amacron" unicode="&#x101;" horiz-adv-x="1140" 
d="M1102 109v-91q-55 -13 -148 -22.5t-168 -9.5l-10 143q-64 -70 -153 -109.5t-191 -39.5q-77 0 -137.5 25.5t-97 69t-55.5 97.5t-19 115q0 89 49.5 152.5t140.5 92.5q165 51 457 58v74q0 150 -33 194q-25 30 -61.5 43.5t-108.5 13.5q-145 0 -346 -67l-22 108q238 86 415 86
q189 0 246 -100q23 -40 31 -104.5t8 -182.5v-546h203zM772 229v260q-272 -8 -389 -49q-123 -44 -123 -153q0 -92 57 -140.5t148 -48.5q173 0 307 131zM840 1202h-564v98h564v-98z" />
    <glyph glyph-name="Abreve" unicode="&#x102;" horiz-adv-x="1427" 
d="M535 0h-537v98l154 17l481 1269h162l475 -1269l151 -17v-98h-534v98l229 17l-135 348h-543l-137 -348l234 -17v-98zM479 592h461q-158 425 -227 637q-42 -132 -234 -637zM977 1749q-2 -116 -75.5 -190t-199.5 -74q-127 0 -195.5 74.5t-68.5 189.5h88q19 -168 179 -168
q90 0 133.5 46.5t50.5 121.5h88z" />
    <glyph glyph-name="abreve" unicode="&#x103;" horiz-adv-x="1140" 
d="M1102 109v-91q-55 -13 -148 -22.5t-168 -9.5l-10 143q-64 -70 -153 -109.5t-191 -39.5q-77 0 -137.5 25.5t-97 69t-55.5 97.5t-19 115q0 89 49.5 152.5t140.5 92.5q165 51 457 58v74q0 150 -33 194q-25 30 -61.5 43.5t-108.5 13.5q-145 0 -346 -67l-22 108q238 86 415 86
q189 0 246 -100q23 -40 31 -104.5t8 -182.5v-546h203zM772 229v260q-272 -8 -389 -49q-123 -44 -123 -153q0 -92 57 -140.5t148 -48.5q173 0 307 131zM817 1415q-2 -115 -73 -189.5t-191 -74.5q-121 0 -186.5 74.5t-67.5 189.5h86q15 -168 170 -168q86 0 127.5 46.5
t48.5 121.5h86z" />
    <glyph glyph-name="Aogonek" unicode="&#x104;" horiz-adv-x="1427" 
d="M539 0h-537v98l154 17l481 1269h162l475 -1269l151 -17v-98h-174q-101 -73 -150.5 -138.5t-49.5 -133.5q0 -56 32 -85.5t84 -29.5q51 0 113 27l33 -82q-78 -45 -164 -45q-98 0 -155.5 53.5t-57.5 138.5q0 159 201 295h-246v98l229 17l-135 348h-543l-137 -348l234 -17
v-98zM483 592h461q-158 425 -227 637q-42 -132 -234 -637z" />
    <glyph glyph-name="aogonek" unicode="&#x105;" horiz-adv-x="1140" 
d="M1102 111v-91q-77 -16 -199 -26q-90 -69 -135 -130.5t-45 -125.5q0 -54 32.5 -81.5t80.5 -27.5q45 0 106 23l29 -78q-72 -45 -154 -45q-93 0 -146 51t-53 135q0 150 168 273l-10 141q-64 -70 -153 -109.5t-191 -39.5q-77 0 -137.5 25.5t-97 69t-55.5 97.5t-19 115
q0 89 49.5 152.5t140.5 92.5q165 51 457 58v74q0 150 -33 194q-25 30 -61.5 43.5t-108.5 13.5q-145 0 -346 -67l-22 108q238 86 415 86q189 0 246 -100q23 -40 31 -104.5t8 -182.5v-544h203zM772 229v260q-272 -8 -389 -49q-123 -44 -123 -153q0 -92 57 -140.5t148 -48.5
q173 0 307 131z" />
    <glyph glyph-name="Cacute" unicode="&#x106;" horiz-adv-x="1335" 
d="M1257 190q-231 -221 -534 -221q-126 0 -235 47t-189 133t-126 215.5t-46 286.5q0 363 177 563.5t497 200.5q201 0 389 -47q10 -43 10 -348h-106l-29 235q-117 31 -272 31q-83 0 -157.5 -21.5t-141 -69.5t-114.5 -119t-76 -177t-28 -237q0 -256 134.5 -407t341.5 -151
q236 0 438 181zM756 1483h-135l348 293h186z" />
    <glyph glyph-name="cacute" unicode="&#x107;" horiz-adv-x="1021" 
d="M961 123q-99 -75 -197 -114.5t-215 -39.5q-192 0 -309 133.5t-117 368.5q0 280 137 425.5t365 145.5q169 0 282 -38q11 -50 11 -295h-111l-27 196q-75 19 -170 19q-167 0 -257.5 -115t-90.5 -326q0 -185 87.5 -286t228.5 -101q94 0 167 28t166 91zM596 1147h-115l250 307
h164z" />
    <glyph glyph-name="Ccircumflex" unicode="&#x108;" horiz-adv-x="1335" 
d="M1257 190q-231 -221 -534 -221q-126 0 -235 47t-189 133t-126 215.5t-46 286.5q0 363 177 563.5t497 200.5q201 0 389 -47q10 -43 10 -348h-106l-29 235q-117 31 -272 31q-83 0 -157.5 -21.5t-141 -69.5t-114.5 -119t-76 -177t-28 -237q0 -256 134.5 -407t341.5 -151
q236 0 438 181zM596 1491h-113l250 252h123l248 -252h-115l-196 158z" />
    <glyph glyph-name="ccircumflex" unicode="&#x109;" horiz-adv-x="1021" 
d="M961 123q-99 -75 -197 -114.5t-215 -39.5q-192 0 -309 133.5t-117 368.5q0 280 137 425.5t365 145.5q169 0 282 -38q11 -50 11 -295h-111l-27 196q-75 19 -170 19q-167 0 -257.5 -115t-90.5 -326q0 -185 87.5 -286t228.5 -101q94 0 167 28t166 91zM406 1147h-109l242 303
h104l236 -303h-109l-182 205z" />
    <glyph glyph-name="Cdotaccent" unicode="&#x10a;" horiz-adv-x="1335" 
d="M1257 190q-231 -221 -534 -221q-126 0 -235 47t-189 133t-126 215.5t-46 286.5q0 363 177 563.5t497 200.5q201 0 389 -47q10 -43 10 -348h-106l-29 235q-117 31 -272 31q-83 0 -157.5 -21.5t-141 -69.5t-114.5 -119t-76 -177t-28 -237q0 -256 134.5 -407t341.5 -151
q236 0 438 181zM864 1610q0 -45 -24 -67.5t-64 -22.5q-84 0 -84 90q0 48 24.5 71t65.5 23q82 0 82 -94z" />
    <glyph glyph-name="cdotaccent" unicode="&#x10b;" horiz-adv-x="1021" 
d="M961 123q-99 -75 -197 -114.5t-215 -39.5q-192 0 -309 133.5t-117 368.5q0 280 137 425.5t365 145.5q169 0 282 -38q11 -50 11 -295h-111l-27 196q-75 19 -170 19q-167 0 -257.5 -115t-90.5 -326q0 -185 87.5 -286t228.5 -101q94 0 167 28t166 91zM682 1300
q0 -45 -24 -67.5t-64 -22.5q-84 0 -84 90q0 49 24.5 72t65.5 23q82 0 82 -95z" />
    <glyph glyph-name="Ccaron" unicode="&#x10c;" horiz-adv-x="1335" 
d="M1257 190q-231 -221 -534 -221q-126 0 -235 47t-189 133t-126 215.5t-46 286.5q0 363 177 563.5t497 200.5q201 0 389 -47q10 -43 10 -348h-106l-29 235q-117 31 -272 31q-83 0 -157.5 -21.5t-141 -69.5t-114.5 -119t-76 -177t-28 -237q0 -256 134.5 -407t341.5 -151
q236 0 438 181zM963 1743h112l-250 -252h-123l-247 252h114l197 -156z" />
    <glyph glyph-name="ccaron" unicode="&#x10d;" horiz-adv-x="1021" 
d="M961 123q-99 -75 -197 -114.5t-215 -39.5q-192 0 -309 133.5t-117 368.5q0 280 137 425.5t365 145.5q169 0 282 -38q11 -50 11 -295h-111l-27 196q-75 19 -170 19q-167 0 -257.5 -115t-90.5 -326q0 -185 87.5 -286t228.5 -101q94 0 167 28t166 91zM774 1438h107
l-240 -305h-106l-236 305h111l182 -207z" />
    <glyph glyph-name="Dcaron" unicode="&#x10e;" horiz-adv-x="1499" 
d="M72 0v98l213 17v1155l-213 16v98h469q309 0 452 -49q87 -30 154 -76.5t118.5 -117t79 -173t27.5 -233.5t-22.5 -237.5t-70.5 -195.5t-128.5 -152.5t-192.5 -98.5q-160 -51 -466 -51h-420zM426 127h125q198 0 340 43q118 36 192.5 115.5t106 188t31.5 255.5
q0 327 -226 455q-127 71 -411 71h-158v-1128zM860 1743h113l-250 -252h-123l-248 252h115l197 -156z" />
    <glyph glyph-name="dcaron" unicode="&#x10f;" horiz-adv-x="1232" 
d="M1192 106v-90q-160 -30 -320 -30l-10 145q-154 -154 -346 -154q-179 0 -286 128.5t-107 379.5q0 119 27.5 213.5t74.5 156.5t113 103t137.5 58.5t153.5 17.5q134 0 229 -41v377h-207v92q170 48 340 51v-1407h201zM858 231v637q-112 41 -223 41q-180 0 -275.5 -106.5
t-95.5 -300.5q0 -402 285 -402q93 0 159.5 32t149.5 99zM1303 1501q-24 -193 -117 -383h-99q29 66 55 172t36 211h125z" />
    <glyph glyph-name="Dcroat" unicode="&#x110;" horiz-adv-x="1499" 
d="M53 688v103h232v479l-213 16v98h469q309 0 452 -49q87 -29 154 -75.5t118.5 -117.5t79 -173.5t27.5 -233.5t-22.5 -237.5t-70.5 -195.5t-128.5 -152.5t-192.5 -98.5q-160 -51 -466 -51h-420v98l213 17v573h-232zM426 127h125q198 0 340 43q175 55 252.5 196t77.5 363
q0 329 -226 455q-122 71 -411 71h-158v-464h338v-103h-338v-561z" />
    <glyph glyph-name="dcroat" unicode="&#x111;" horiz-adv-x="1232" 
d="M1192 104v-90q-160 -30 -320 -30l-10 147q-154 -154 -346 -154q-179 0 -286 127.5t-107 376.5q0 99 19 181.5t54 141.5t81.5 103t104 70t118.5 38.5t129 12.5q134 0 229 -41v164h-315v82h315v145h-207v84q170 48 340 51v-280h164v-82h-164v-1047h201zM858 231v629
q-108 43 -223 43q-180 0 -275.5 -105.5t-95.5 -299.5q0 -398 285 -398q93 0 159.5 32t149.5 99z" />
    <glyph glyph-name="Emacron" unicode="&#x112;" horiz-adv-x="1253" 
d="M1133 0h-1061v98l213 17v1155l-213 16v98h993q14 -60 14 -346h-102l-29 217h-522v-473h526v-129h-526v-526h586l30 240h103q0 -285 -12 -367zM918 1536h-572v96h572v-96z" />
    <glyph glyph-name="emacron" unicode="&#x113;" horiz-adv-x="1071" 
d="M1016 129q-109 -80 -209 -120t-229 -40q-214 0 -334.5 145.5t-120.5 381.5q0 137 39.5 243.5t107.5 171.5t153 98t183 33q391 0 391 -444q0 -22 -4 -84h-731v-29q0 -197 93.5 -295t244.5 -98q107 0 193.5 34t171.5 97zM862 623q2 14 2 47q0 53 -13.5 97.5t-42.5 82
t-81 59t-123 21.5q-128 0 -221 -76t-115 -231h594zM885 1202h-563v98h563v-98z" />
    <glyph glyph-name="Ebreve" unicode="&#x114;" horiz-adv-x="1253" 
d="M1133 0h-1061v98l213 17v1155l-213 16v98h993q14 -60 14 -346h-102l-29 217h-522v-473h526v-129h-526v-526h586l30 240h103q0 -285 -12 -367zM915 1749q-2 -116 -75 -190t-199 -74q-127 0 -195.5 74.5t-68.5 189.5h88q19 -168 178 -168q90 0 133.5 46.5t50.5 121.5h88z
" />
    <glyph glyph-name="ebreve" unicode="&#x115;" horiz-adv-x="1071" 
d="M1016 129q-109 -80 -209 -120t-229 -40q-214 0 -334.5 145.5t-120.5 381.5q0 137 39.5 243.5t107.5 171.5t153 98t183 33q391 0 391 -444q0 -22 -4 -84h-731v-29q0 -197 93.5 -295t244.5 -98q107 0 193.5 34t171.5 97zM862 623q2 14 2 47q0 53 -13.5 97.5t-42.5 82
t-81 59t-123 21.5q-128 0 -221 -76t-115 -231h594zM854 1415q-2 -115 -73 -189.5t-191 -74.5q-121 0 -186.5 74.5t-67.5 189.5h86q15 -168 170 -168q86 0 127.5 46.5t48.5 121.5h86z" />
    <glyph glyph-name="Edotaccent" unicode="&#x116;" horiz-adv-x="1253" 
d="M1133 0h-1061v98l213 17v1155l-213 16v98h993q14 -60 14 -346h-102l-29 217h-522v-473h526v-129h-526v-526h586l30 240h103q0 -285 -12 -367zM725 1610q0 -45 -24 -67.5t-64 -22.5q-84 0 -84 90q0 48 24.5 71t65.5 23q82 0 82 -94z" />
    <glyph glyph-name="edotaccent" unicode="&#x117;" horiz-adv-x="1071" 
d="M1016 129q-109 -80 -209 -120t-229 -40q-214 0 -334.5 145.5t-120.5 381.5q0 137 39.5 243.5t107.5 171.5t153 98t183 33q391 0 391 -444q0 -22 -4 -84h-731v-29q0 -197 93.5 -295t244.5 -98q107 0 193.5 34t171.5 97zM862 623q2 14 2 47q0 53 -13.5 97.5t-42.5 82
t-81 59t-123 21.5q-128 0 -221 -76t-115 -231h594zM686 1300q0 -45 -24 -67.5t-64 -22.5q-84 0 -84 90q0 49 24.5 72t65.5 23q82 0 82 -95z" />
    <glyph glyph-name="Eogonek" unicode="&#x118;" horiz-adv-x="1253" 
d="M1133 0h-74q-101 -74 -151 -139t-50 -133q0 -56 32.5 -85.5t84.5 -29.5q50 0 112 27l33 -82q-78 -45 -164 -45q-98 0 -155.5 53.5t-57.5 138.5q0 159 201 295h-872v98l213 17v1155l-213 16v98h993q14 -60 14 -346h-102l-29 217h-522v-473h526v-129h-526v-526h586l30 240
h103q0 -285 -12 -367z" />
    <glyph glyph-name="eogonek" unicode="&#x119;" horiz-adv-x="1071" 
d="M1016 129q-153 -112 -287 -143q-170 -131 -170 -248q0 -54 32.5 -81.5t80.5 -27.5q45 0 106 23l29 -78q-72 -45 -154 -45q-93 0 -145.5 51t-52.5 135q0 138 145 254h-22q-214 0 -334.5 145.5t-120.5 381.5q0 137 39.5 243.5t107.5 171.5t153 98t183 33q391 0 391 -444
q0 -22 -4 -84h-731v-29q0 -197 93.5 -295t244.5 -98q107 0 193.5 34t171.5 97zM862 623q2 14 2 47q0 53 -13.5 97.5t-42.5 82t-81 59t-123 21.5q-128 0 -221 -76t-115 -231h594z" />
    <glyph glyph-name="Ecaron" unicode="&#x11a;" horiz-adv-x="1253" 
d="M1133 0h-1061v98l213 17v1155l-213 16v98h993q14 -60 14 -346h-102l-29 217h-522v-473h526v-129h-526v-526h586l30 240h103q0 -285 -12 -367zM842 1743h112l-249 -252h-123l-248 252h115l196 -156z" />
    <glyph glyph-name="ecaron" unicode="&#x11b;" horiz-adv-x="1071" 
d="M1016 129q-109 -80 -209 -120t-229 -40q-214 0 -334.5 145.5t-120.5 381.5q0 137 39.5 243.5t107.5 171.5t153 98t183 33q391 0 391 -444q0 -22 -4 -84h-731v-29q0 -197 93.5 -295t244.5 -98q107 0 193.5 34t171.5 97zM862 623q2 14 2 47q0 53 -13.5 97.5t-42.5 82
t-81 59t-123 21.5q-128 0 -221 -76t-115 -231h594zM774 1438h107l-240 -305h-106l-236 305h111l182 -207z" />
    <glyph glyph-name="Gcircumflex" unicode="&#x11c;" horiz-adv-x="1447" 
d="M1260 80q-122 -56 -237 -82.5t-282 -26.5q-133 0 -246 46.5t-194.5 132.5t-127.5 214.5t-46 286.5q0 363 181 563.5t507 200.5q220 0 408 -47q7 -33 8.5 -93t1.5 -249h-107l-26 225q-128 33 -279 33q-116 0 -212 -35.5t-172 -108t-118.5 -195.5t-42.5 -286
q0 -261 134.5 -405.5t353.5 -144.5q116 0 191 14.5t167 48.5v393l-231 15v98h506v-98l-137 -13v-487zM604 1491h-112l249 252h123l248 -252h-115l-196 158z" />
    <glyph glyph-name="gcircumflex" unicode="&#x11d;" horiz-adv-x="1056" 
d="M369 346q-78 -65 -78 -119q0 -17 4 -29t16 -25t40.5 -22t72.5 -14l328 -39q144 -18 209 -83.5t65 -178.5q0 -166 -140.5 -265t-369.5 -99q-215 0 -328.5 75t-113.5 201q0 166 235 281q-137 32 -137 155q0 85 119 201q-71 41 -108.5 119.5t-37.5 167.5q0 74 24.5 139.5
t71.5 117.5t123.5 82.5t172.5 30.5q112 0 186 -38h311v-111h-207q37 -34 56.5 -93.5t19.5 -123.5q0 -170 -103.5 -262t-279.5 -92q-90 0 -151 24zM416 2q-106 -46 -157.5 -107.5t-51.5 -119.5q0 -92 93 -140.5t235 -48.5q168 0 260 66t92 151q0 81 -51 123.5t-187 55.5z
M776 672q0 110 -61.5 184t-186.5 74q-119 0 -183 -75.5t-64 -178.5q0 -118 68.5 -182t174.5 -64q115 0 183.5 63t68.5 179zM358 1147h-108l242 303h104l235 -303h-108l-182 205z" />
    <glyph glyph-name="Gbreve" unicode="&#x11e;" horiz-adv-x="1447" 
d="M1260 80q-122 -56 -237 -82.5t-282 -26.5q-133 0 -246 46.5t-194.5 132.5t-127.5 214.5t-46 286.5q0 363 181 563.5t507 200.5q220 0 408 -47q7 -33 8.5 -93t1.5 -249h-107l-26 225q-128 33 -279 33q-116 0 -212 -35.5t-172 -108t-118.5 -195.5t-42.5 -286
q0 -261 134.5 -405.5t353.5 -144.5q116 0 191 14.5t167 48.5v393l-231 15v98h506v-98l-137 -13v-487zM1061 1749q-2 -116 -75.5 -190t-199.5 -74q-127 0 -195.5 74.5t-68.5 189.5h88q19 -168 178 -168q90 0 134 46.5t51 121.5h88z" />
    <glyph glyph-name="gbreve" unicode="&#x11f;" horiz-adv-x="1056" 
d="M369 346q-78 -65 -78 -119q0 -17 4 -29t16 -25t40.5 -22t72.5 -14l328 -39q144 -18 209 -83.5t65 -178.5q0 -166 -140.5 -265t-369.5 -99q-215 0 -328.5 75t-113.5 201q0 166 235 281q-137 32 -137 155q0 85 119 201q-71 41 -108.5 119.5t-37.5 167.5q0 74 24.5 139.5
t71.5 117.5t123.5 82.5t172.5 30.5q112 0 186 -38h311v-111h-207q37 -34 56.5 -93.5t19.5 -123.5q0 -170 -103.5 -262t-279.5 -92q-90 0 -151 24zM416 2q-106 -46 -157.5 -107.5t-51.5 -119.5q0 -92 93 -140.5t235 -48.5q168 0 260 66t92 151q0 81 -51 123.5t-187 55.5z
M776 672q0 110 -61.5 184t-186.5 74q-119 0 -183 -75.5t-64 -178.5q0 -118 68.5 -182t174.5 -64q115 0 183.5 63t68.5 179zM807 1415q-2 -115 -73 -189.5t-191 -74.5q-121 0 -186.5 74.5t-67.5 189.5h86q15 -168 170 -168q86 0 127.5 46.5t48.5 121.5h86z" />
    <glyph glyph-name="Gdotaccent" unicode="&#x120;" horiz-adv-x="1447" 
d="M1260 80q-122 -56 -237 -82.5t-282 -26.5q-133 0 -246 46.5t-194.5 132.5t-127.5 214.5t-46 286.5q0 363 181 563.5t507 200.5q220 0 408 -47q7 -33 8.5 -93t1.5 -249h-107l-26 225q-128 33 -279 33q-116 0 -212 -35.5t-172 -108t-118.5 -195.5t-42.5 -286
q0 -261 134.5 -405.5t353.5 -144.5q116 0 191 14.5t167 48.5v393l-231 15v98h506v-98l-137 -13v-487zM885 1610q0 -45 -24 -67.5t-64 -22.5q-84 0 -84 90q0 48 24.5 71t65.5 23q82 0 82 -94z" />
    <glyph glyph-name="gdotaccent" unicode="&#x121;" horiz-adv-x="1056" 
d="M369 346q-78 -65 -78 -119q0 -17 4 -29t16 -25t40.5 -22t72.5 -14l328 -39q144 -18 209 -83.5t65 -178.5q0 -166 -140.5 -265t-369.5 -99q-215 0 -328.5 75t-113.5 201q0 166 235 281q-137 32 -137 155q0 85 119 201q-71 41 -108.5 119.5t-37.5 167.5q0 74 24.5 139.5
t71.5 117.5t123.5 82.5t172.5 30.5q112 0 186 -38h311v-111h-207q37 -34 56.5 -93.5t19.5 -123.5q0 -170 -103.5 -262t-279.5 -92q-90 0 -151 24zM416 2q-106 -46 -157.5 -107.5t-51.5 -119.5q0 -92 93 -140.5t235 -48.5q168 0 260 66t92 151q0 81 -51 123.5t-187 55.5z
M776 672q0 110 -61.5 184t-186.5 74q-119 0 -183 -75.5t-64 -178.5q0 -118 68.5 -182t174.5 -64q115 0 183.5 63t68.5 179zM627 1300q0 -45 -24 -67.5t-64 -22.5q-84 0 -84 90q0 49 24.5 72t65.5 23q82 0 82 -95z" />
    <glyph glyph-name="Gcommaaccent" unicode="&#x122;" horiz-adv-x="1447" 
d="M1260 80q-122 -56 -237 -82.5t-282 -26.5q-133 0 -246 46.5t-194.5 132.5t-127.5 214.5t-46 286.5q0 363 181 563.5t507 200.5q220 0 408 -47q7 -33 8.5 -93t1.5 -249h-107l-26 225q-128 33 -279 33q-116 0 -212 -35.5t-172 -108t-118.5 -195.5t-42.5 -286
q0 -261 134.5 -405.5t353.5 -144.5q116 0 191 14.5t167 48.5v393l-231 15v98h506v-98l-137 -13v-487zM852 -111q-24 -193 -117 -383h-98q29 66 54.5 172t35.5 211h125z" />
    <glyph glyph-name="gcommaaccent" unicode="&#x123;" horiz-adv-x="1056" 
d="M369 346q-78 -65 -78 -119q0 -17 4 -29t16 -25.5t40.5 -22.5t72.5 -13l328 -39q144 -18 209 -83.5t65 -178.5q0 -166 -140.5 -265t-369.5 -99q-215 0 -328.5 75t-113.5 201q0 166 235 281q-137 32 -137 155q0 85 119 201q-71 41 -108.5 119.5t-37.5 167.5
q0 74 24.5 139.5t71.5 117.5t123.5 82.5t172.5 30.5q112 0 186 -38h311v-111h-207q37 -34 56.5 -93.5t19.5 -123.5q0 -170 -103.5 -262t-279.5 -92q-90 0 -151 24zM412 4q-107 -51 -157 -111t-50 -118q0 -92 94 -140.5t236 -48.5q86 0 155 19.5t110 51t62 69t21 77.5
q0 81 -49 123t-185 56zM776 672q0 110 -61.5 184t-186.5 74q-119 0 -183 -75.5t-64 -178.5q0 -118 68.5 -182t174.5 -64q115 0 183.5 63t68.5 179zM463 1161q24 193 117 379h98q-29 -64 -54.5 -169.5t-35.5 -209.5h-125z" />
    <glyph glyph-name="Hcircumflex" unicode="&#x124;" horiz-adv-x="1583" 
d="M788 0h-559v98l213 17v1155l-213 16v98h559v-98l-204 -16v-488h731v488l-207 16v98h561v-98l-215 -16v-1155l215 -17v-98h-561v98l207 17v538h-731v-538l204 -17v-98zM756 1491h-113l250 252h123l248 -252h-115l-197 158z" />
    <glyph glyph-name="hcircumflex" unicode="&#x125;" horiz-adv-x="1275" 
d="M571 0h-510v96l189 17v1257h-203v92q164 49 332 49v-657q92 80 208.5 131t205.5 51q107 0 162 -46.5t67 -137.5q8 -57 8 -240v-499l205 -17v-96h-336v575q0 177 -14 240q-22 92 -146 92q-171 0 -358 -149v-645l190 -17v-96zM129 1538h-113l250 252h123l248 -252h-115
l-196 158z" />
    <glyph glyph-name="Hbar" unicode="&#x126;" horiz-adv-x="1583" 
d="M631 0h-559v98l213 17v852h-191v98h191v205l-213 16v98h559v-98l-205 -16v-205h731v205l-207 16v98h561v-98l-215 -16v-205h189v-98h-189v-852l215 -17v-98h-561v98l207 17v542h-731v-542l205 -17v-98zM426 774h731v193h-731v-193z" />
    <glyph glyph-name="hbar" unicode="&#x127;" horiz-adv-x="1275" 
d="M571 0h-510v96l189 17v1038h-223v82h223v145h-203v84q164 49 332 49v-278h266v-82h-266v-305q92 80 209.5 131t208.5 51q107 0 160 -44.5t65 -135.5q8 -55 8 -242v-493l205 -17v-96h-336v571q0 172 -14 238q-25 92 -146 92q-74 0 -167 -36t-191 -113v-639l190 -17v-96z
" />
    <glyph glyph-name="Itilde" unicode="&#x128;" horiz-adv-x="712" 
d="M641 0h-569v98l213 17v1155l-213 16v98h569v-98l-213 -16v-1155l213 -17v-98zM131 1491h-86q24 100 69.5 150.5t104.5 50.5q21 0 46 -7.5t42 -15t62 -29.5q77 -38 125 -38q32 0 51 21t39 79h86q-23 -108 -65.5 -157.5t-106.5 -49.5q-62 0 -156 47q-93 43 -121 43
t-48.5 -20.5t-41.5 -73.5z" />
    <glyph glyph-name="itilde" unicode="&#x129;" horiz-adv-x="638" 
d="M82 1171h-86q22 99 66.5 150t99.5 51q49 0 143 -49q77 -41 117 -41q30 0 48 21.5t38 80.5h82q-42 -208 -164 -208q-53 0 -147 47q-86 45 -113 45t-46.5 -22t-37.5 -75zM594 0h-512v96l190 17v778h-204v94q190 47 335 47v-919l191 -17v-96z" />
    <glyph glyph-name="Imacron" unicode="&#x12a;" horiz-adv-x="712" 
d="M641 0h-569v98l213 17v1155l-213 16v98h569v-98l-213 -16v-1155l213 -17v-98zM643 1536h-571v96h571v-96z" />
    <glyph glyph-name="imacron" unicode="&#x12b;" horiz-adv-x="638" 
d="M590 1202h-563v98h563v-98zM594 0h-512v96l190 17v778h-204v94q190 47 335 47v-919l191 -17v-96z" />
    <glyph glyph-name="Ibreve" unicode="&#x12c;" horiz-adv-x="712" 
d="M641 0h-569v98l213 17v1155l-213 16v98h569v-98l-213 -16v-1155l213 -17v-98zM621 1749q-2 -116 -75.5 -190t-199.5 -74q-127 0 -195.5 74.5t-68.5 189.5h88q19 -168 178 -168q90 0 133.5 46.5t50.5 121.5h89z" />
    <glyph glyph-name="ibreve" unicode="&#x12d;" horiz-adv-x="638" 
d="M567 1415q-2 -115 -73 -189.5t-191 -74.5q-121 0 -186.5 74.5t-67.5 189.5h86q15 -168 170 -168q86 0 127.5 46.5t48.5 121.5h86zM594 0h-512v96l190 17v778h-204v94q190 47 335 47v-919l191 -17v-96z" />
    <glyph glyph-name="Iogonek" unicode="&#x12e;" horiz-adv-x="712" 
d="M641 0h-197q-101 -73 -150.5 -138.5t-49.5 -133.5q0 -56 32 -85.5t84 -29.5q51 0 113 27l33 -82q-78 -45 -164 -45q-98 0 -155.5 53.5t-57.5 138.5q0 159 201 295h-258v98l213 17v1155l-213 16v98h569v-98l-213 -16v-1155l213 -17v-98z" />
    <glyph glyph-name="iogonek" unicode="&#x12f;" horiz-adv-x="638" 
d="M594 0h-178q-95 -70 -142 -133.5t-47 -128.5q0 -54 32.5 -81.5t80.5 -27.5q45 0 106 23l29 -78q-72 -45 -153 -45q-93 0 -146 51t-53 135q0 155 186 285h-227v96l190 17v778h-204v94q190 47 335 47v-919l191 -17v-96zM406 1311q0 -50 -27.5 -75.5t-69.5 -25.5
q-38 0 -65 24.5t-27 76.5q0 51 27 77.5t67 26.5q42 0 68.5 -24.5t26.5 -79.5z" />
    <glyph glyph-name="Idotaccent" unicode="&#x130;" horiz-adv-x="712" 
d="M641 0h-569v98l213 17v1155l-213 16v98h569v-98l-213 -16v-1155l213 -17v-98zM438 1610q0 -45 -24 -67.5t-64 -22.5q-84 0 -84 90q0 48 24.5 71t65.5 23q82 0 82 -94z" />
    <glyph glyph-name="dotlessi" unicode="&#x131;" horiz-adv-x="638" 
d="M594 0h-512v96l190 17v778h-204v94q190 47 335 47v-919l191 -17v-96z" />
    <glyph glyph-name="IJ" unicode="&#x132;" horiz-adv-x="1574" 
d="M641 0h-569v98l213 17v1155l-213 16v98h569v-98l-213 -16v-1155l213 -17v-98zM1323 1270v-809q0 -216 -35 -305q-34 -83 -113.5 -132t-195.5 -49q-141 0 -244 39l35 125q97 -33 195 -33q122 0 180 97q37 63 37 256v811l-232 16v98h568v-98z" />
    <glyph glyph-name="ij" unicode="&#x133;" horiz-adv-x="1247" 
d="M406 1311q0 -50 -27.5 -75.5t-69.5 -25.5q-38 0 -65 24.5t-27 76.5q0 51 27 77.5t67 26.5q42 0 68.5 -24.5t26.5 -79.5zM594 0h-512v96l190 17v778h-204v94q190 47 335 47v-919l191 -17v-96zM641 -528l-35 108q197 69 252 203q29 78 29 240v868h-203v94q185 47 332 47
v-1018q0 -205 -39 -288q-39 -84 -128 -152.5t-208 -101.5zM1020 1311q0 -50 -27 -75.5t-69 -25.5q-39 0 -66 24t-27 77q0 51 28 77.5t69 26.5t66.5 -24.5t25.5 -79.5z" />
    <glyph glyph-name="Jcircumflex" unicode="&#x134;" horiz-adv-x="862" 
d="M612 1270v-809q0 -218 -34 -305q-34 -83 -114 -132t-196 -49q-140 0 -243 39l34 125q97 -33 195 -33q122 0 180 97q37 63 37 256v811l-231 16v98h567v-98zM324 1491h-113l250 252h123l247 -252h-114l-197 158z" />
    <glyph glyph-name="jcircumflex" unicode="&#x135;" horiz-adv-x="608" 
d="M4 -528l-35 108q197 69 252 203q29 78 29 240v862h-203v92q172 47 332 47v-1010q0 -205 -39 -288q-39 -84 -128 -152.5t-208 -101.5zM88 1147h-108l239 303h107l235 -303h-108l-183 205z" />
    <glyph glyph-name="Kcommaaccent" unicode="&#x136;" horiz-adv-x="1421" 
d="M637 0h-565v98l213 17v1155l-213 16v98h557v-98l-201 -16v-631q259 272 580 635l-158 12v98h514v-98l-184 -16q-66 -73 -437 -471l265 -408q71 -110 137 -182q38 -42 79.5 -65t100.5 -23q45 0 78 10l8 -129q-43 -16 -108 -16q-84 0 -139.5 24.5t-114.5 85.5
q-75 75 -154 197l-254 393l-213 -219v-352l209 -17v-98zM799 -111q-24 -193 -117 -383h-98q29 66 54.5 172t35.5 211h125z" />
    <glyph glyph-name="kcommaaccent" unicode="&#x137;" horiz-adv-x="1177" 
d="M569 0h-508v96l189 17v1257h-203v92q162 49 334 49v-1028q244 236 403 418l-149 14v95h477v-95l-164 -14q-185 -200 -286 -297l184 -289q73 -112 121 -155q54 -49 141 -49q33 0 51 4l8 -111q-54 -12 -102 -12q-69 0 -110 17t-83 54q-46 41 -114 148l-193 303l-184 -164
v-237l188 -17v-96zM692 -111q-24 -193 -117 -383h-98q29 66 54.5 172t35.5 211h125z" />
    <glyph glyph-name="kgreenlandic" unicode="&#x138;" horiz-adv-x="1177" 
d="M569 0h-508v96l189 17v778h-203v90q196 51 334 51v-549q244 236 403 418l-149 14v95h477v-95l-164 -14q-185 -200 -286 -297l184 -289q73 -112 121 -155q54 -49 141 -49q33 0 51 4l8 -111q-54 -12 -102 -12q-69 0 -110 17t-83 54q-46 41 -114 148l-193 303l-184 -164
v-237l188 -17v-96z" />
    <glyph glyph-name="Lacute" unicode="&#x139;" horiz-adv-x="1243" 
d="M1133 0h-1061v98l213 17v1155l-213 16v98h581v-100l-227 -14v-1143h594l22 240h103q0 -287 -12 -367zM360 1473h-135l348 292h187z" />
    <glyph glyph-name="lacute" unicode="&#x13a;" horiz-adv-x="618" 
d="M571 0h-510v96l189 17v1257h-203v92q172 49 334 49v-1398l190 -17v-96zM180 1559h-135l348 292h187z" />
    <glyph glyph-name="Lcommaaccent" unicode="&#x13b;" horiz-adv-x="1243" 
d="M1133 0h-1061v98l213 17v1155l-213 16v98h581v-100l-227 -14v-1143h594l22 240h103q0 -287 -12 -367zM717 -111q-24 -193 -117 -383h-98q29 66 54.5 172t35.5 211h125z" />
    <glyph glyph-name="lcommaaccent" unicode="&#x13c;" horiz-adv-x="618" 
d="M571 0h-510v96l189 17v1257h-203v92q172 49 334 49v-1398l190 -17v-96zM393 -111q-24 -193 -117 -383h-98q29 66 54.5 172t35.5 211h125z" />
    <glyph glyph-name="Lcaron" unicode="&#x13d;" horiz-adv-x="1243" 
d="M1133 0h-1061v98l213 17v1155l-213 16v98h581v-100l-227 -14v-1143h594l22 240h103q0 -287 -12 -367zM940 1391q-24 -193 -117 -383h-98q29 66 54.5 172t35.5 211h125z" />
    <glyph glyph-name="lcaron" unicode="&#x13e;" horiz-adv-x="618" 
d="M571 0h-510v96l189 17v1257h-203v92q172 49 334 49v-1398l190 -17v-96zM729 1503q-24 -193 -117 -383h-98q29 66 54.5 172t35.5 211h125z" />
    <glyph glyph-name="Ldot" unicode="&#x13f;" horiz-adv-x="1243" 
d="M1133 0h-1061v98l213 17v1155l-213 16v98h581v-100l-227 -14v-1143h594l22 227h103q0 -274 -12 -354zM1042 664q0 -50 -27 -76.5t-69 -26.5q-36 0 -65 26t-29 77q0 55 28 82.5t68 27.5t67 -26t27 -84z" />
    <glyph glyph-name="ldot" unicode="&#x140;" horiz-adv-x="745" 
d="M571 0h-510v96l189 17v1255h-203v94q32 10 167.5 29.5t166.5 19.5v-1398l190 -17v-96zM778 643q0 -52 -25.5 -77t-68.5 -25q-33 0 -60.5 25t-27.5 77t26.5 78.5t63.5 26.5q40 0 66 -24.5t26 -80.5z" />
    <glyph glyph-name="Lslash" unicode="&#x141;" horiz-adv-x="1243" 
d="M1133 0h-1061v98l213 17v434l-228 -150v121l228 150v600l-213 16v98h581v-100l-227 -14v-512l340 225v-121l-340 -225v-510h594l22 240h103q0 -287 -12 -367z" />
    <glyph glyph-name="lslash" unicode="&#x142;" horiz-adv-x="618" 
d="M571 0h-510v96l189 17v460l-189 -124v118l189 125v678h-203v92q172 49 334 49v-737l170 115v-121l-170 -115v-540l190 -17v-96z" />
    <glyph glyph-name="Nacute" unicode="&#x143;" horiz-adv-x="1568" 
d="M639 0h-567v98l213 17v1155l-213 16v98h385q428 -653 537 -824.5t182 -307.5q-7 256 -7 1018l-204 14v100h548v-98l-202 -16v-1270h-152q-610 969 -739 1182q6 -285 6 -1067l213 -17v-98zM776 1473h-135l348 292h187z" />
    <glyph glyph-name="nacute" unicode="&#x144;" horiz-adv-x="1296" 
d="M594 0h-512v96l190 17v778h-204v92q68 19 164 34t161 15l10 -178q89 79 205 130.5t209 51.5q105 0 159 -46.5t68 -137.5q9 -66 9 -242v-497l204 -17v-96h-335v575q0 163 -17 240q-22 92 -141 92q-171 0 -361 -147v-647l191 -17v-96zM635 1147h-115l250 307h164z" />
    <glyph glyph-name="Ncommaaccent" unicode="&#x145;" horiz-adv-x="1568" 
d="M639 0h-567v98l213 17v1155l-213 16v98h385q428 -653 537 -824.5t182 -307.5q-7 256 -7 1018l-204 14v100h548v-98l-202 -16v-1270h-152q-610 969 -739 1182q6 -285 6 -1067l213 -17v-98zM866 -111q-24 -195 -116 -383h-99q29 66 54.5 172t35.5 211h125z" />
    <glyph glyph-name="ncommaaccent" unicode="&#x146;" horiz-adv-x="1296" 
d="M594 0h-512v96l190 17v778h-204v92q68 19 164 34t161 15l10 -178q89 79 205 130.5t209 51.5q105 0 159 -46.5t68 -137.5q9 -66 9 -242v-497l204 -17v-96h-335v575q0 163 -17 240q-22 92 -141 92q-171 0 -361 -147v-647l191 -17v-96zM760 -111q-24 -193 -117 -383h-98
q29 66 54.5 172t35.5 211h125z" />
    <glyph glyph-name="Ncaron" unicode="&#x147;" horiz-adv-x="1568" 
d="M639 0h-567v98l213 17v1155l-213 16v98h385q428 -653 537 -824.5t182 -307.5q-7 256 -7 1018l-204 14v100h548v-98l-202 -16v-1270h-152q-610 969 -739 1182q6 -285 6 -1067l213 -17v-98zM991 1743h113l-250 -252h-123l-248 252h115l197 -156z" />
    <glyph glyph-name="ncaron" unicode="&#x148;" horiz-adv-x="1296" 
d="M594 0h-512v96l190 17v778h-204v92q68 19 164 34t161 15l10 -178q89 79 205 130.5t209 51.5q105 0 159 -46.5t68 -137.5q9 -66 9 -242v-497l204 -17v-96h-335v575q0 163 -17 240q-22 92 -141 92q-171 0 -361 -147v-647l191 -17v-96zM819 1438h107l-240 -305h-106
l-236 305h111l182 -207z" />
    <glyph glyph-name="napostrophe" unicode="&#x149;" horiz-adv-x="1296" 
d="M594 0h-512v96l190 17v778h-204v92q68 19 164 34t161 15l10 -178q89 79 205 130.5t209 51.5q105 0 159 -46.5t68 -137.5q9 -66 9 -242v-497l204 -17v-96h-335v575q0 163 -17 240q-22 92 -141 92q-171 0 -361 -147v-647l191 -17v-96zM365 1544q-24 -193 -117 -383h-98
q29 66 54.5 172t35.5 211h125z" />
    <glyph glyph-name="Eng" unicode="&#x14a;" horiz-adv-x="1568" 
d="M639 0h-567v98l213 17v1155l-213 16v98h385q438 -657 542.5 -817t176.5 -288q-7 249 -7 991l-204 14v100h548v-98l-202 -16v-1270q0 -219 -70 -313q-93 -119 -266 -119q-94 0 -162 16l27 137q55 -16 118 -16q120 0 166 72q40 62 43 170v57q-603 941 -747 1178
q6 -285 6 -1067l213 -17v-98z" />
    <glyph glyph-name="eng" unicode="&#x14b;" horiz-adv-x="1296" 
d="M594 0h-512v96l190 17v778h-204v92q68 19 165.5 34t161.5 15l8 -178q88 78 206.5 130t211.5 52q106 0 157.5 -45t65.5 -137q9 -64 9 -242v-620q0 -199 -37 -283q-71 -161 -340 -203l-21 115q105 25 158 53.5t78 81.5q31 70 31 211v608q0 163 -17 240q-22 92 -141 92
q-171 0 -361 -147v-647l191 -17v-96z" />
    <glyph glyph-name="Omacron" unicode="&#x14c;" horiz-adv-x="1507" 
d="M1380 733q0 -360 -167.5 -562t-464.5 -202q-294 0 -457.5 188t-163.5 513q0 361 167 553t476 192q298 0 454 -174.5t156 -507.5zM1229 700q0 584 -471 584q-230 0 -356 -154t-126 -430q0 -301 130 -449.5t352 -148.5q218 0 344.5 156.5t126.5 441.5zM1044 1536h-571v96
h571v-96z" />
    <glyph glyph-name="omacron" unicode="&#x14d;" horiz-adv-x="1181" 
d="M1059 530q0 -268 -123 -414.5t-356 -146.5q-215 0 -336 139t-121 384q0 265 128.5 407.5t356.5 142.5q451 0 451 -512zM920 500q0 78 -8 139t-29.5 116t-57 91t-92.5 57t-133 21q-163 0 -250.5 -110t-87.5 -288q0 -232 84.5 -335t245.5 -103q148 0 238 103.5t90 308.5z
M883 1202h-564v98h564v-98z" />
    <glyph glyph-name="Obreve" unicode="&#x14e;" horiz-adv-x="1507" 
d="M1380 733q0 -360 -167.5 -562t-464.5 -202q-294 0 -457.5 188t-163.5 513q0 361 167 553t476 192q298 0 454 -174.5t156 -507.5zM1229 700q0 584 -471 584q-230 0 -356 -154t-126 -430q0 -301 130 -449.5t352 -148.5q218 0 344.5 156.5t126.5 441.5zM1030 1749
q-2 -116 -75 -190t-199 -74q-127 0 -195.5 74.5t-68.5 189.5h88q19 -168 178 -168q90 0 133.5 46.5t50.5 121.5h88z" />
    <glyph glyph-name="obreve" unicode="&#x14f;" horiz-adv-x="1181" 
d="M1059 530q0 -268 -123 -414.5t-356 -146.5q-215 0 -336 139t-121 384q0 265 128.5 407.5t356.5 142.5q451 0 451 -512zM920 500q0 78 -8 139t-29.5 116t-57 91t-92.5 57t-133 21q-163 0 -250.5 -110t-87.5 -288q0 -232 84.5 -335t245.5 -103q148 0 238 103.5t90 308.5z
M858 1415q-2 -115 -73 -189.5t-191 -74.5q-121 0 -186.5 74.5t-67.5 189.5h86q15 -168 170 -168q86 0 127.5 46.5t48.5 121.5h86z" />
    <glyph glyph-name="Ohungarumlaut" unicode="&#x150;" horiz-adv-x="1507" 
d="M1380 733q0 -360 -167.5 -562t-464.5 -202q-294 0 -457.5 188t-163.5 513q0 361 167 553t476 192q298 0 454 -174.5t156 -507.5zM1229 700q0 584 -471 584q-230 0 -356 -154t-126 -430q0 -301 130 -449.5t352 -148.5q218 0 344.5 156.5t126.5 441.5zM594 1491h-129
l313 293h172zM922 1491h-129l313 293h172z" />
    <glyph glyph-name="ohungarumlaut" unicode="&#x151;" horiz-adv-x="1181" 
d="M1059 530q0 -268 -123 -414.5t-356 -146.5q-215 0 -336 139t-121 384q0 265 128.5 407.5t356.5 142.5q451 0 451 -512zM920 500q0 78 -8 139t-29.5 116t-57 91t-92.5 57t-133 21q-163 0 -250.5 -110t-87.5 -288q0 -232 84.5 -335t245.5 -103q148 0 238 103.5t90 308.5z
M475 1147h-110l239 307h150zM754 1147h-109l240 307h149z" />
    <glyph glyph-name="OE" unicode="&#x152;" horiz-adv-x="2021" 
d="M1059 133v1120q-134 25 -254 25q-113 0 -205.5 -32.5t-165 -100t-113 -182.5t-40.5 -269q0 -151 39 -264.5t110 -181.5t162.5 -101.5t202.5 -33.5q155 0 264 20zM1903 0h-834q-133 -20 -295 -20q-306 0 -476.5 182t-170.5 526q0 153 35 275t95.5 204t146.5 136.5t185 79
t214 24.5q113 0 262 -23h770q14 -71 14 -346h-102l-27 217h-520v-473h524v-129h-524v-526h582l28 240h103q0 -262 -10 -367z" />
    <glyph glyph-name="oe" unicode="&#x153;" horiz-adv-x="1841" 
d="M1790 129q-109 -80 -209 -120t-231 -40q-142 0 -240 65.5t-145 182.5q-52 -119 -152 -183.5t-244 -64.5q-207 0 -326.5 139.5t-119.5 383.5q0 265 126.5 407.5t350.5 142.5q300 0 379 -235q58 116 164 175.5t235 59.5q391 0 391 -450q0 -24 -4 -82h-731v-45
q0 -172 94 -272.5t244 -100.5q107 0 193.5 34t171.5 97zM899 500q0 79 -7.5 139.5t-28 116t-54.5 92t-89.5 57.5t-129.5 21q-156 0 -242 -111t-86 -289q0 -438 320 -438q141 0 229 105t88 307zM1042 616h592q2 14 2 46q0 52 -13 96.5t-41 83.5t-81 61.5t-125 22.5
q-61 0 -115 -18t-99.5 -54.5t-77 -97t-42.5 -140.5z" />
    <glyph glyph-name="Racute" unicode="&#x154;" horiz-adv-x="1394" 
d="M653 0h-581v98l213 17v1155l-213 16v98h544q210 0 312 -32q110 -34 169.5 -117.5t59.5 -210.5q0 -160 -88.5 -254.5t-232.5 -126.5q40 -21 88 -92q72 -106 137 -236q58 -111 115.5 -155.5t152.5 -44.5q27 0 57 6l5 -119q-53 -12 -117 -12q-113 0 -183.5 53.5
t-123.5 153.5q-30 54 -67.5 122t-59.5 108t-41 71q-31 52 -59 78.5t-60 39.5h-254v-501l227 -17v-98zM426 739h201q175 0 262 49q56 31 86.5 88t30.5 130q0 169 -146 225q-73 29 -258 29h-176v-521zM604 1473h-135l348 292h187z" />
    <glyph glyph-name="racute" unicode="&#x155;" horiz-adv-x="890" 
d="M633 0h-551v96l190 17v776h-204v94q52 16 145.5 32.5t179.5 16.5l8 -196q47 80 143.5 140t196.5 60q24 0 64 -4v-139q-48 6 -70 6q-92 0 -179 -44t-153 -124v-618l230 -17v-96zM477 1147h-115l250 307h164z" />
    <glyph glyph-name="Rcommaaccent" unicode="&#x156;" horiz-adv-x="1394" 
d="M653 0h-581v98l213 17v1155l-213 16v98h544q210 0 312 -32q110 -34 169.5 -117.5t59.5 -210.5q0 -160 -88.5 -254.5t-232.5 -126.5q40 -21 88 -92q72 -106 137 -236q58 -111 115.5 -155.5t152.5 -44.5q27 0 57 6l5 -119q-53 -12 -117 -12q-113 0 -183.5 53.5
t-123.5 153.5q-30 54 -67.5 122t-59.5 108t-41 71q-31 52 -59 78.5t-60 39.5h-254v-501l227 -17v-98zM426 739h201q175 0 262 49q56 31 86.5 88t30.5 130q0 169 -146 225q-73 29 -258 29h-176v-521zM793 -111q-24 -193 -117 -383h-98q29 66 54.5 172t35.5 211h125z" />
    <glyph glyph-name="rcommaaccent" unicode="&#x157;" horiz-adv-x="890" 
d="M633 0h-551v96l190 17v776h-204v94q52 16 145.5 32.5t179.5 16.5l8 -196q47 80 143.5 140t196.5 60q24 0 64 -4v-139q-48 6 -70 6q-92 0 -179 -44t-153 -124v-618l230 -17v-96zM414 -111q-24 -193 -117 -383h-98q29 66 54.5 172t35.5 211h125z" />
    <glyph glyph-name="Rcaron" unicode="&#x158;" horiz-adv-x="1394" 
d="M653 0h-581v98l213 17v1155l-213 16v98h544q210 0 312 -32q110 -34 169.5 -117.5t59.5 -210.5q0 -160 -88.5 -254.5t-232.5 -126.5q40 -21 88 -92q72 -106 137 -236q58 -111 115.5 -155.5t152.5 -44.5q27 0 57 6l5 -119q-53 -12 -117 -12q-113 0 -183.5 53.5
t-123.5 153.5q-30 54 -67.5 122t-59.5 108t-41 71q-31 52 -59 78.5t-60 39.5h-254v-501l227 -17v-98zM426 739h201q175 0 262 49q56 31 86.5 88t30.5 130q0 169 -146 225q-73 29 -258 29h-176v-521zM797 1743h112l-250 -252h-122l-248 252h114l197 -156z" />
    <glyph glyph-name="rcaron" unicode="&#x159;" horiz-adv-x="890" 
d="M633 0h-551v96l190 17v776h-204v94q52 16 145.5 32.5t179.5 16.5l8 -196q47 80 143.5 140t196.5 60q24 0 64 -4v-139q-48 6 -70 6q-92 0 -179 -44t-153 -124v-618l230 -17v-96zM629 1438h106l-239 -305h-107l-235 305h110l182 -207z" />
    <glyph glyph-name="Sacute" unicode="&#x15a;" horiz-adv-x="1112" 
d="M94 399h103l32 -247q146 -52 303 -52q155 0 240.5 67t85.5 177q0 94 -53.5 152t-208.5 116l-174 64q-147 54 -212 138.5t-65 217.5q0 171 121.5 276t360.5 105q194 0 356 -43q10 -61 10 -354h-100l-31 239q-103 29 -258 29q-83 0 -146 -21.5t-97 -57t-50 -74t-16 -78.5
q0 -84 42.5 -137.5t170.5 -106.5l190 -76q173 -69 244.5 -151.5t71.5 -214.5q0 -182 -128 -290t-364 -108q-242 0 -416 70q-12 113 -12 360zM530 1473h-135l348 292h187z" />
    <glyph glyph-name="sacute" unicode="&#x15b;" horiz-adv-x="927" 
d="M104 307h99l35 -186q119 -35 208 -35q108 0 171 46.5t63 121.5q0 64 -36.5 103.5t-141.5 74.5l-148 47q-113 37 -163 105t-50 172q0 122 97 204t274 82q159 0 274 -34q15 -74 15 -283h-96l-35 186q-72 19 -172 19q-113 0 -166 -48.5t-53 -113.5q0 -61 33 -102t120 -70
l162 -53q122 -39 175.5 -104.5t53.5 -164.5q0 -133 -100.5 -219t-276.5 -86q-164 0 -323 56q-19 105 -19 282zM446 1147h-114l250 307h163z" />
    <glyph glyph-name="Scircumflex" unicode="&#x15c;" horiz-adv-x="1112" 
d="M94 399h103l32 -247q146 -52 303 -52q155 0 240.5 67t85.5 177q0 94 -53.5 152t-208.5 116l-174 64q-147 54 -212 138.5t-65 217.5q0 171 121.5 276t360.5 105q194 0 356 -43q10 -61 10 -354h-100l-31 239q-103 29 -258 29q-83 0 -146 -21.5t-97 -57t-50 -74t-16 -78.5
q0 -84 42.5 -137.5t170.5 -106.5l190 -76q173 -69 244.5 -151.5t71.5 -214.5q0 -182 -128 -290t-364 -108q-242 0 -416 70q-12 113 -12 360zM375 1491h-113l250 252h123l248 -252h-115l-197 158z" />
    <glyph glyph-name="scircumflex" unicode="&#x15d;" horiz-adv-x="927" 
d="M104 307h99l35 -186q119 -35 208 -35q108 0 171 46.5t63 121.5q0 64 -36.5 103.5t-141.5 74.5l-148 47q-113 37 -163 105t-50 172q0 122 97 204t274 82q159 0 274 -34q15 -74 15 -283h-96l-35 186q-72 19 -172 19q-113 0 -166 -48.5t-53 -113.5q0 -61 33 -102t120 -70
l162 -53q122 -39 175.5 -104.5t53.5 -164.5q0 -133 -100.5 -219t-276.5 -86q-164 0 -323 56q-19 105 -19 282zM289 1147h-109l242 303h104l236 -303h-109l-182 205z" />
    <glyph glyph-name="Scedilla" unicode="&#x15e;" horiz-adv-x="1112" 
d="M344 -467l27 90q57 -16 116 -16q58 0 87.5 23.5t29.5 64.5q0 42 -32.5 65t-88.5 23q-1 0 -75 -4l73 190q-220 6 -375 70q-12 113 -12 360h103l32 -247q146 -52 303 -52q155 0 240.5 67t85.5 177q0 94 -53.5 152t-208.5 116l-174 64q-147 54 -212 138.5t-65 217.5
q0 171 121.5 276t360.5 105q194 0 356 -43q10 -61 10 -354h-100l-31 239q-103 29 -258 29q-83 0 -146 -21.5t-97 -57t-50 -74t-16 -78.5q0 -84 42.5 -137.5t170.5 -106.5l190 -76q173 -69 244.5 -151.5t71.5 -214.5q0 -171 -114.5 -277.5t-326.5 -118.5l-41 -100
q98 -6 142.5 -55t44.5 -115q0 -84 -64 -136t-178 -52q-75 0 -133 20z" />
    <glyph glyph-name="scedilla" unicode="&#x15f;" horiz-adv-x="927" 
d="M274 -449l27 87q58 -17 109 -17q108 0 108 86t-112 86q-43 0 -70 -4l67 182q-140 6 -280 54q-19 105 -19 282h95l34 -186q119 -35 213 -35q108 0 171 46.5t63 121.5q0 64 -36.5 103.5t-141.5 74.5l-148 47q-113 37 -163 105t-50 172q0 122 97 204t274 82q157 0 272 -34
q15 -74 15 -283h-90l-35 186q-72 19 -176 19q-113 0 -166 -48.5t-53 -113.5q0 -61 33 -102t120 -70l162 -53q122 -39 175.5 -104.5t53.5 -164.5q0 -125 -87.5 -208t-243.5 -95l-39 -94q94 -6 136 -53t42 -111q0 -80 -61 -131t-169 -51q-69 0 -127 20z" />
    <glyph glyph-name="Scaron" unicode="&#x160;" horiz-adv-x="1112" 
d="M94 399h103l32 -247q146 -52 303 -52q155 0 240.5 67t85.5 177q0 94 -53.5 152t-208.5 116l-174 64q-147 54 -212 138.5t-65 217.5q0 171 121.5 276t360.5 105q194 0 356 -43q10 -61 10 -354h-100l-31 239q-103 29 -258 29q-83 0 -146 -21.5t-97 -57t-50 -74t-16 -78.5
q0 -84 42.5 -137.5t170.5 -106.5l190 -76q173 -69 244.5 -151.5t71.5 -214.5q0 -182 -128 -290t-364 -108q-242 0 -416 70q-12 113 -12 360zM778 1743h113l-250 -252h-123l-248 252h115l197 -156z" />
    <glyph glyph-name="scaron" unicode="&#x161;" horiz-adv-x="927" 
d="M104 307h99l35 -186q119 -35 208 -35q108 0 171 46.5t63 121.5q0 64 -36.5 103.5t-141.5 74.5l-148 47q-113 37 -163 105t-50 172q0 122 97 204t274 82q159 0 274 -34q15 -74 15 -283h-96l-35 186q-72 19 -172 19q-113 0 -166 -48.5t-53 -113.5q0 -61 33 -102t120 -70
l162 -53q122 -39 175.5 -104.5t53.5 -164.5q0 -133 -100.5 -219t-276.5 -86q-164 0 -323 56q-19 105 -19 282zM670 1438h106l-239 -305h-107l-235 305h110l182 -207z" />
    <glyph glyph-name="uni0162" unicode="&#x162;" horiz-adv-x="1384" 
d="M487 -467l27 90q57 -16 117 -16q58 0 87.5 23.5t29.5 64.5q0 42 -32.5 65t-88.5 23q-2 0 -76 -4l86 221h-236v98l217 17v1140h-387l-36 -249h-97q0 251 13 378h1161q12 -59 12 -378h-92l-37 249h-397v-1140l217 -17v-98h-244l-55 -129q98 -6 142 -55t44 -115
q0 -84 -63.5 -136t-177.5 -52q-31 0 -73 6.5t-61 13.5z" />
    <glyph glyph-name="uni0163" unicode="&#x163;" horiz-adv-x="712" 
d="M223 -449l27 87q58 -17 108 -17q55 0 82 23t27 63q0 86 -113 86q-42 0 -69 -4l80 213q-60 25 -91 76q-45 71 -45 262v549h-204v108q102 13 206 13q0 16 7 256l127 10v-266h276v-121h-276v-527q0 -146 30 -196q33 -55 123 -55q68 0 156 20l22 -106q-112 -41 -229 -41
q-3 0 -10.5 1t-10.5 1l-45 -109q94 -6 136.5 -53t42.5 -111q0 -80 -61 -131t-169 -51q-70 0 -127 20z" />
    <glyph glyph-name="Tcaron" unicode="&#x164;" horiz-adv-x="1384" 
d="M975 0h-574v98l217 17v1140h-387l-36 -245h-97q0 247 13 374h1161q12 -59 12 -374h-92l-37 245h-397v-1140l217 -17v-98zM883 1743h112l-250 -252h-122l-248 252h114l197 -156z" />
    <glyph glyph-name="tcaron" unicode="&#x165;" horiz-adv-x="712" 
d="M696 25q-112 -41 -229 -41q-63 0 -114 25t-79 69q-45 71 -45 262v549h-204v108q102 13 206 13q0 16 7 256l127 10v-266h276v-121h-276v-527q0 -146 30 -196q33 -55 123 -55q68 0 156 20zM707 1507q-24 -193 -117 -383h-98q29 66 54.5 172t35.5 211h125z" />
    <glyph glyph-name="Tbar" unicode="&#x166;" horiz-adv-x="1384" 
d="M1083 682h-325v-567l217 -17v-98h-574v98l217 17v567h-321v102h321v471h-387l-36 -245h-97q0 247 13 374h1161q12 -59 12 -374h-92l-37 245h-397v-471h325v-102z" />
    <glyph glyph-name="tbar" unicode="&#x167;" horiz-adv-x="712" 
d="M618 582h-253v-220q0 -153 30 -196q14 -25 46.5 -40t76.5 -15q68 0 156 20l22 -106q-112 -41 -229 -41q-65 0 -116 25t-77 69q-45 67 -45 262v242h-178v96h178v211h-204v108q102 13 206 13q2 21 7 256l127 10v-266h276v-121h-276v-211h253v-96z" />
    <glyph glyph-name="Utilde" unicode="&#x168;" horiz-adv-x="1523" 
d="M1272 1272v-705q0 -145 -14 -231t-50 -152q-55 -99 -169 -155t-283 -56q-363 0 -465 232q-28 63 -36.5 148t-8.5 214v705l-191 14v98h547v-100l-217 -12v-682q0 -227 31 -309q72 -177 344 -177q250 0 330 156q45 91 45 320v692l-209 14v98h542v-102zM541 1491h-86
q24 100 69.5 150.5t104.5 50.5q21 0 46.5 -7.5t40.5 -14.5t62 -30q77 -38 125 -38q32 0 51 21t39 79h86q-23 -108 -65.5 -157.5t-106.5 -49.5q-61 0 -155 47q-93 43 -121 43t-48.5 -20.5t-41.5 -73.5z" />
    <glyph glyph-name="utilde" unicode="&#x169;" horiz-adv-x="1259" 
d="M1214 14q-153 -30 -319 -30l-10 172q-196 -181 -391 -181q-225 0 -254 197q-11 65 -11 234v487h-202v92q184 45 333 45v-596q0 -139 15 -223q10 -53 54.5 -81t113.5 -28q157 0 336 154v637h-211v92q185 45 344 45v-926h202v-90zM414 1171h-86q22 99 66.5 150t99.5 51
q49 0 143 -49q77 -41 117 -41q30 0 48 21.5t38 80.5h82q-42 -208 -164 -208q-54 0 -148 47q-86 45 -112 45q-27 0 -46.5 -22t-37.5 -75z" />
    <glyph glyph-name="Umacron" unicode="&#x16a;" horiz-adv-x="1523" 
d="M1272 1272v-705q0 -145 -14 -231t-50 -152q-55 -99 -169 -155t-283 -56q-363 0 -465 232q-28 63 -36.5 148t-8.5 214v705l-191 14v98h547v-100l-217 -12v-682q0 -227 31 -309q72 -177 344 -177q250 0 330 156q45 91 45 320v692l-209 14v98h542v-102zM1044 1536h-571v96
h571v-96z" />
    <glyph glyph-name="umacron" unicode="&#x16b;" horiz-adv-x="1259" 
d="M1214 14q-153 -30 -319 -30l-10 172q-196 -181 -391 -181q-225 0 -254 197q-11 65 -11 234v487h-202v92q184 45 333 45v-596q0 -139 15 -223q10 -53 54.5 -81t113.5 -28q157 0 336 154v637h-211v92q185 45 344 45v-926h202v-90zM868 1202h-563v98h563v-98z" />
    <glyph glyph-name="Ubreve" unicode="&#x16c;" horiz-adv-x="1523" 
d="M1272 1272v-705q0 -145 -14 -231t-50 -152q-55 -99 -169 -155t-283 -56q-363 0 -465 232q-28 63 -36.5 148t-8.5 214v705l-191 14v98h547v-100l-217 -12v-682q0 -227 31 -309q72 -177 344 -177q250 0 330 156q45 91 45 320v692l-209 14v98h542v-102zM1026 1749
q-2 -116 -75 -190t-199 -74q-127 0 -196 75t-69 189h88q19 -168 179 -168q90 0 133.5 46.5t50.5 121.5h88z" />
    <glyph glyph-name="ubreve" unicode="&#x16d;" horiz-adv-x="1259" 
d="M1214 14q-153 -30 -319 -30l-10 172q-196 -181 -391 -181q-225 0 -254 197q-11 65 -11 234v487h-202v92q184 45 333 45v-596q0 -139 15 -223q10 -53 54.5 -81t113.5 -28q157 0 336 154v637h-211v92q185 45 344 45v-926h202v-90zM856 1415q-2 -115 -73 -189.5t-191 -74.5
q-121 0 -186.5 74.5t-67.5 189.5h86q15 -168 170 -168q86 0 127.5 46.5t48.5 121.5h86z" />
    <glyph glyph-name="Uring" unicode="&#x16e;" horiz-adv-x="1523" 
d="M1272 1272v-705q0 -145 -14 -231t-50 -152q-55 -99 -169 -155t-283 -56q-363 0 -465 232q-28 63 -36.5 148t-8.5 214v705l-191 14v98h547v-100l-217 -12v-682q0 -227 31 -309q72 -177 344 -177q250 0 330 156q45 91 45 320v692l-209 14v98h542v-102zM928 1630
q0 -74 -48.5 -127t-123.5 -53q-74 0 -124 51t-50 125q0 77 51 127.5t125 50.5q78 0 124 -48t46 -126zM862 1628q0 53 -29 84t-77 31q-49 0 -78 -32t-29 -85q0 -50 29 -81.5t82 -31.5q48 0 75 32t27 83z" />
    <glyph glyph-name="uring" unicode="&#x16f;" horiz-adv-x="1259" 
d="M1214 14q-153 -30 -319 -30l-10 172q-196 -181 -391 -181q-225 0 -254 197q-11 65 -11 234v487h-202v92q184 45 333 45v-596q0 -139 15 -223q10 -53 54.5 -81t113.5 -28q157 0 336 154v637h-211v92q185 45 344 45v-926h202v-90zM764 1305q0 -78 -50.5 -133.5
t-129.5 -55.5t-130 53t-51 131q0 81 52 133t131 52q83 0 130.5 -49t47.5 -131zM698 1303q0 55 -30.5 87.5t-83.5 32.5t-83 -34t-30 -89q0 -54 29.5 -87t87.5 -33q52 0 81 34.5t29 88.5z" />
    <glyph glyph-name="Uhungarumlaut" unicode="&#x170;" horiz-adv-x="1523" 
d="M1272 1272v-705q0 -145 -14 -231t-50 -152q-55 -99 -169 -155t-283 -56q-363 0 -465 232q-28 63 -36.5 148t-8.5 214v705l-191 14v98h547v-100l-217 -12v-682q0 -227 31 -309q72 -177 344 -177q250 0 330 156q45 91 45 320v692l-209 14v98h542v-102zM567 1491h-129
l314 293h172zM895 1491h-129l313 293h172z" />
    <glyph glyph-name="uhungarumlaut" unicode="&#x171;" horiz-adv-x="1259" 
d="M1214 14q-153 -30 -319 -30l-10 172q-196 -181 -391 -181q-225 0 -254 197q-11 65 -11 234v487h-202v92q184 45 333 45v-596q0 -139 15 -223q10 -53 54.5 -81t113.5 -28q157 0 336 154v637h-211v92q185 45 344 45v-926h202v-90zM449 1147h-111l240 307h149zM727 1147
h-109l240 307h150z" />
    <glyph glyph-name="Uogonek" unicode="&#x172;" horiz-adv-x="1523" 
d="M1272 1272v-705q0 -145 -14 -231t-50 -152q-47 -86 -139.5 -140t-226.5 -67q-170 -131 -170 -249q0 -56 32 -85.5t84 -29.5q51 0 113 27l33 -82q-78 -45 -164 -45q-98 0 -155.5 53.5t-57.5 138.5q0 143 164 268q-335 13 -430 232q-28 63 -36.5 148t-8.5 214v705l-191 14
v98h547v-100l-217 -12v-682q0 -227 31 -309q72 -177 344 -177q250 0 330 156q45 91 45 320v692l-209 14v98h542v-102z" />
    <glyph glyph-name="uogonek" unicode="&#x173;" horiz-adv-x="1259" 
d="M1214 18q-84 -18 -192 -24q-90 -69 -135 -130.5t-45 -125.5q0 -54 32 -81.5t80 -27.5q46 0 107 23l29 -78q-72 -45 -154 -45q-93 0 -146 51t-53 135q0 150 168 273h-10l-10 168q-196 -181 -391 -181q-225 0 -254 197q-11 65 -11 234v487h-202v92q184 45 333 45v-596
q0 -139 15 -223q10 -53 54.5 -81t113.5 -28q157 0 336 154v637h-211v92q185 45 344 45v-921h202v-91z" />
    <glyph glyph-name="Wcircumflex" unicode="&#x174;" horiz-adv-x="2009" 
d="M645 0h-156l-329 1272l-152 14v98h533v-98l-230 -14q34 -132 84 -327.5t67.5 -265t43.5 -175t40 -169.5t29 -138q92 330 359 1187h145q205 -646 262 -830t101 -355q88 393 258 1073l-227 14v98h528v-98l-156 -14l-323 -1272h-154q-293 907 -367 1163
q-155 -536 -356 -1163zM811 1491h-113l250 252h123l248 -252h-115l-196 158z" />
    <glyph glyph-name="wcircumflex" unicode="&#x175;" horiz-adv-x="1599" 
d="M1456 899l-248 -899h-143q-211 632 -260 807q-64 -226 -268 -807h-142l-252 897l-141 16v97h475v-97l-190 -16q32 -117 69 -252t51.5 -187.5t31.5 -117t26 -100t18 -76.5q93 311 267 833h122q206 -606 267 -833q7 28 30.5 122.5t62 245t95.5 367.5l-188 14v97h458v-97z
M621 1147h-109l242 303h104l236 -303h-109l-182 205z" />
    <glyph glyph-name="Ycircumflex" unicode="&#x176;" horiz-adv-x="1384" 
d="M981 0h-582v98l222 17v438l-467 717l-152 16v98h543v-98l-217 -16q280 -431 368 -580q60 105 308 482q14 20 21.5 32t20 31t23.5 35l-223 16v98h538v-98l-153 -16l-471 -717v-438l221 -17v-98zM506 1491h-113l250 252h123l248 -252h-115l-197 158z" />
    <glyph glyph-name="ycircumflex" unicode="&#x177;" horiz-adv-x="1150" 
d="M139 -530l-30 120q68 9 124 32t98.5 56.5t80 84t66.5 105.5t61 132h-33l-363 897l-141 16v97h479v-97l-194 -14q203 -484 309 -776q1 4 51 152.5t98 284t123 339.5l-196 14v97h477v-97l-143 -16l-297 -817q-113 -308 -240 -444.5t-330 -165.5zM403 1147h-108l242 303h104
l236 -303h-109l-182 205z" />
    <glyph glyph-name="Ydieresis" unicode="&#x178;" horiz-adv-x="1384" 
d="M981 0h-582v98l222 17v438l-467 717l-152 16v98h543v-98l-217 -16q280 -431 368 -580q60 105 308 482q14 20 21.5 32t20 31t23.5 35l-223 16v98h538v-98l-153 -16l-471 -717v-438l221 -17v-98zM608 1610q0 -45 -24 -67.5t-64 -22.5q-84 0 -84 90q0 48 24.5 71t65.5 23
q82 0 82 -94zM971 1610q0 -45 -24 -67.5t-64 -22.5q-84 0 -84 90q0 48 24.5 71t65.5 23q82 0 82 -94z" />
    <glyph glyph-name="Zacute" unicode="&#x179;" horiz-adv-x="1261" 
d="M1167 0h-1106v117q268 346 468 599.5t295 372.5t128 162h-692l-37 -264h-98q0 292 12 397h1010v-112q-595 -765 -897 -1141h792l41 272h95q0 -325 -11 -403zM625 1473h-136l349 292h186z" />
    <glyph glyph-name="zacute" unicode="&#x17a;" horiz-adv-x="987" 
d="M903 0h-823v98q390 498 631 801h-471l-29 -199h-102q0 235 16 310h760v-103q-539 -679 -635 -794h532l27 215h104q0 -250 -10 -328zM510 1147h-115l250 307h164z" />
    <glyph glyph-name="Zdotaccent" unicode="&#x17b;" horiz-adv-x="1261" 
d="M1167 0h-1106v117q268 346 468 599.5t295 372.5t128 162h-692l-37 -264h-98q0 292 12 397h1010v-112q-595 -765 -897 -1141h792l41 272h95q0 -325 -11 -403zM721 1610q0 -45 -24 -67.5t-64 -22.5q-84 0 -84 90q0 48 24.5 71t65.5 23q82 0 82 -94z" />
    <glyph glyph-name="zdotaccent" unicode="&#x17c;" horiz-adv-x="987" 
d="M903 0h-823v98q390 498 631 801h-471l-29 -199h-102q0 235 16 310h760v-103q-539 -679 -635 -794h532l27 215h104q0 -250 -10 -328zM598 1300q0 -45 -24 -67.5t-64 -22.5q-84 0 -84 90q0 49 24.5 72t65.5 23q82 0 82 -95z" />
    <glyph glyph-name="Zcaron" unicode="&#x17d;" horiz-adv-x="1261" 
d="M1167 0h-1106v117q268 346 468 599.5t295 372.5t128 162h-692l-37 -264h-98q0 292 12 397h1010v-112q-595 -765 -897 -1141h792l41 272h95q0 -325 -11 -403zM823 1743h113l-250 -252h-123l-248 252h115l197 -156z" />
    <glyph glyph-name="zcaron" unicode="&#x17e;" horiz-adv-x="987" 
d="M903 0h-823v98q390 498 631 801h-471l-29 -199h-102q0 235 16 310h760v-103q-539 -679 -635 -794h532l27 215h104q0 -250 -10 -328zM680 1438h106l-239 -305h-107l-235 305h110l183 -207z" />
    <glyph glyph-name="longs" unicode="&#x17f;" horiz-adv-x="659" 
d="M631 0h-549v96l190 17v772h-196v102q94 17 196 17v114q0 116 17 184t57 111q84 94 252 94q101 0 205 -22l-17 -111q-134 17 -170 17q-116 0 -170 -68q-43 -60 -43 -207v-1003l228 -17v-96z" />
    <glyph glyph-name="florin" unicode="&#x192;" horiz-adv-x="1030" 
d="M10 -233l39 120q73 -20 150 -20q54 0 86 19t51 63q16 41 24 139l56 641h-223v107h231l12 157q10 132 56 211q83 142 276 142q123 0 207 -25q6 -23 6 -283h-98l-23 166q-47 8 -92 8q-116 0 -158 -79q-25 -53 -32 -152l-13 -145h271v-107h-279l-57 -641q-14 -147 -45 -207
q-69 -145 -256 -145q-108 0 -189 31z" />
    <glyph glyph-name="Aringacute" unicode="&#x1fa;" horiz-adv-x="1427" 
d="M891 1516q0 -103 -82 -156l465 -1245l151 -17v-98h-534v98l229 17l-135 348h-543l-137 -348l234 -17v-98h-537v98l154 17l471 1241q-39 22 -61.5 63.5t-22.5 91.5q0 77 50 127t126 50q79 0 125.5 -47t46.5 -125zM483 592h463q-177 474 -229 637q-41 -133 -234 -637z
M825 1513q0 52 -30 83.5t-78 31.5q-50 0 -79.5 -32.5t-29.5 -84.5t29 -84t84 -32q48 0 76 33t28 85zM737 1745h-112l225 264h160z" />
    <glyph glyph-name="aringacute" unicode="&#x1fb;" horiz-adv-x="1140" 
d="M1102 109v-91q-55 -13 -148 -22.5t-168 -9.5l-10 143q-64 -70 -153 -109.5t-191 -39.5q-77 0 -137.5 26t-97 70t-55.5 98.5t-19 114.5q0 89 49.5 151.5t140.5 91.5q165 51 457 58v74q0 155 -31 194q-23 30 -61 43.5t-111 13.5q-148 0 -346 -67l-26 108q241 86 423 86
q189 0 244 -100q23 -39 30 -97.5t7 -182.5v-553h203zM772 229v260q-272 -8 -389 -49q-123 -44 -123 -149q0 -94 57.5 -146.5t145.5 -52.5q169 0 309 137zM758 1305q0 -78 -51 -133.5t-132 -55.5q-77 0 -129.5 53.5t-52.5 130.5q0 81 53.5 133t131.5 52q84 0 132 -49t48 -131
zM692 1303q0 55 -32 87.5t-85 32.5q-52 0 -83 -34t-31 -89q0 -53 31 -86.5t88 -33.5q53 0 82.5 34.5t29.5 88.5zM584 1524h-115l219 282h164z" />
    <glyph glyph-name="AEacute" unicode="&#x1fc;" horiz-adv-x="2039" 
d="M1917 0h-1061v98l213 17v342h-534l-236 -342l244 -17v-98h-543v98l135 17l783 1155l-222 16v98h1153q15 -76 15 -346h-103l-26 217h-525v-473h529v-129h-529v-526h586l29 240h102q0 -262 -10 -367zM1069 588v686q-66 -102 -463 -686h463zM1282 1473h-135l348 292h186z
" />
    <glyph glyph-name="aeacute" unicode="&#x1fd;" horiz-adv-x="1708" 
d="M1657 129q-109 -80 -209 -120t-231 -40q-242 0 -359 183q-43 -38 -79 -64t-89 -55.5t-116 -44.5t-134 -15q-79 0 -141.5 26.5t-100 71.5t-56.5 100t-19 116q0 90 50.5 157.5t141.5 96.5q173 54 455 57v68q0 144 -33 188q-25 31 -63 46t-109 15q-146 0 -344 -67l-26 108
q238 86 411 86q162 0 223 -81q38 -51 45 -123q60 101 158 152.5t217 51.5q387 0 387 -464q0 -24 -4 -82h-731v-33q0 -168 93 -269.5t243 -101.5q109 0 195.5 34t171.5 97zM772 496q-256 -4 -387 -47q-59 -21 -92 -61.5t-33 -96.5q0 -94 59.5 -148.5t151.5 -54.5
q107 0 184.5 42t155.5 114q-39 98 -39 252zM907 602h594q2 18 2 57q0 53 -13 98.5t-41.5 84.5t-81 61.5t-124.5 22.5q-130 0 -224 -82t-112 -242zM877 1147h-115l250 307h164z" />
    <glyph glyph-name="Oslashacute" unicode="&#x1fe;" horiz-adv-x="1507" 
d="M274 -94l-84 55l119 174q-182 188 -182 535q0 361 167 553t476 192q208 0 350 -88l107 156l84 -53l-113 -164q182 -176 182 -533q0 -360 -167.5 -562t-464.5 -202q-214 0 -361 101zM1229 700q0 292 -117 437l-643 -947q116 -88 289 -88q218 0 344.5 156.5t126.5 441.5z
M276 700q0 -285 119 -438l643 944q-111 78 -280 78q-230 0 -356 -154t-126 -430zM743 1483h-135l348 293h187z" />
    <glyph glyph-name="oslashacute" unicode="&#x1ff;" horiz-adv-x="1181" 
d="M616 1147h-114l250 307h163zM229 -96l-79 51l100 145q-127 139 -127 392q0 265 128.5 407.5t356.5 142.5q148 0 250 -57l100 143l78 -51l-102 -149q125 -128 125 -398q0 -268 -123 -414.5t-356 -146.5q-149 0 -258 70zM920 500q0 210 -68 311l-459 -668q75 -55 199 -55
q148 0 238 103.5t90 308.5zM262 526q0 -200 68 -311l454 662q-68 47 -184 47q-163 0 -250.5 -110t-87.5 -288z" />
    <glyph glyph-name="uni0218" unicode="&#x218;" horiz-adv-x="1112" 
d="M94 399h103l32 -247q146 -52 303 -52q155 0 240.5 67t85.5 177q0 94 -53.5 152t-208.5 116l-174 64q-147 54 -212 138.5t-65 217.5q0 171 121.5 276t360.5 105q194 0 356 -43q10 -61 10 -354h-100l-31 239q-103 29 -258 29q-83 0 -146 -21.5t-97 -57t-50 -74t-16 -78.5
q0 -84 42.5 -137.5t170.5 -106.5l190 -76q173 -69 244.5 -151.5t71.5 -214.5q0 -182 -128 -290t-364 -108q-242 0 -416 70q-12 113 -12 360zM602 -111q-24 -193 -117 -383h-98q29 66 54.5 172t35.5 211h125z" />
    <glyph glyph-name="uni0219" unicode="&#x219;" horiz-adv-x="927" 
d="M104 307h99l35 -186q119 -35 208 -35q108 0 171 46.5t63 121.5q0 64 -36.5 103.5t-141.5 74.5l-148 47q-113 37 -163 105t-50 172q0 122 97 204t274 82q159 0 274 -34q15 -74 15 -283h-96l-35 186q-72 19 -172 19q-113 0 -166 -48.5t-53 -113.5q0 -61 33 -102t120 -70
l162 -53q122 -39 175.5 -104.5t53.5 -164.5q0 -133 -100.5 -219t-276.5 -86q-164 0 -323 56q-19 105 -19 282zM530 -111q-24 -195 -116 -383h-99q29 66 55 172t36 211h124z" />
    <glyph glyph-name="uni021A" unicode="&#x21a;" horiz-adv-x="1384" 
d="M975 0h-574v98l217 17v1140h-387l-36 -245h-97q0 247 13 374h1161q12 -59 12 -374h-92l-37 245h-397v-1140l217 -17v-98zM758 -111q-24 -193 -117 -383h-98q29 66 54.5 172t35.5 211h125z" />
    <glyph glyph-name="uni021B" unicode="&#x21b;" horiz-adv-x="712" 
d="M696 25q-112 -41 -229 -41q-63 0 -114 25t-79 69q-45 71 -45 262v549h-204v108q102 13 206 13q0 16 7 256l127 10v-266h276v-121h-276v-527q0 -146 30 -196q33 -55 123 -55q68 0 156 20zM475 -111q-24 -193 -117 -383h-98q29 66 54.5 172t35.5 211h125z" />
    <glyph glyph-name="circumflex" unicode="&#x2c6;" horiz-adv-x="411" 
d="M23 1147h-109l242 303h104l236 -303h-109l-182 205z" />
    <glyph glyph-name="caron" unicode="&#x2c7;" horiz-adv-x="411" 
d="M389 1438h107l-240 -305h-106l-236 305h111l182 -207z" />
    <glyph glyph-name="breve" unicode="&#x2d8;" horiz-adv-x="411" 
d="M465 1415q-2 -115 -73 -189.5t-191 -74.5q-121 0 -186.5 74.5t-67.5 189.5h86q15 -168 170 -168q86 0 127.5 46.5t48.5 121.5h86z" />
    <glyph glyph-name="dotaccent" unicode="&#x2d9;" horiz-adv-x="411" 
d="M293 1300q0 -45 -24 -67.5t-64 -22.5q-84 0 -84 90q0 49 24.5 72t65.5 23q82 0 82 -95z" />
    <glyph glyph-name="ring" unicode="&#x2da;" horiz-adv-x="411" 
d="M385 1305q0 -78 -50.5 -133.5t-129.5 -55.5q-78 0 -129 53t-51 131q0 81 51.5 133t130.5 52q83 0 130.5 -49t47.5 -131zM319 1303q0 55 -30.5 87.5t-83.5 32.5t-83 -34t-30 -89q0 -54 29.5 -87t87.5 -33q52 0 81 34.5t29 88.5z" />
    <glyph glyph-name="ogonek" unicode="&#x2db;" horiz-adv-x="411" 
d="M356 14q-105 -75 -157 -141.5t-52 -134.5q0 -54 32.5 -81.5t80.5 -27.5q46 0 107 23l28 -78q-72 -45 -153 -45q-93 0 -146 51t-53 135q0 163 207 299h106z" />
    <glyph glyph-name="tilde" unicode="&#x2dc;" horiz-adv-x="411" 
d="M-4 1171h-86q22 99 66.5 150t99.5 51q49 0 143 -49q77 -41 117 -41q30 0 48 21.5t38 80.5h82q-42 -208 -164 -208q-53 0 -147 47q-86 45 -113 45t-46.5 -22t-37.5 -75z" />
    <glyph glyph-name="hungarumlaut" unicode="&#x2dd;" horiz-adv-x="411" 
d="M-18 1147h-111l240 307h149zM260 1147h-108l239 307h150z" />
    <glyph glyph-name="uni0394" unicode="&#x394;" horiz-adv-x="1316" 
d="M1305 0h-1295l570 1382h161zM657 1239q-60 -172 -456 -1112h913q-380 908 -457 1112z" />
    <glyph glyph-name="uni03A9" unicode="&#x3a9;" horiz-adv-x="1486" 
d="M655 0h-514v127h404q-196 79 -298 238t-102 385q0 302 169 482.5t440 180.5q264 0 424.5 -178.5t160.5 -470.5q0 -447 -395 -637h402v-127h-510v190q172 67 266 206.5t94 342.5q0 238 -127.5 387.5t-320.5 149.5q-200 0 -328.5 -149t-128.5 -394q0 -198 93 -339.5
t271 -203.5v-190z" />
    <glyph glyph-name="uni03BC" unicode="&#x3bc;" horiz-adv-x="1284" 
d="M387 -414h-135v1307h-205v92q203 45 336 45v-584q0 -162 14 -225q11 -49 57.5 -82t110.5 -33q158 0 336 150v637h-211v92q185 45 344 45v-921h201v-91q-153 -30 -320 -30l-10 168q-156 -172 -344 -172q-112 0 -178 63q4 -154 4 -461z" />
    <glyph glyph-name="pi" unicode="&#x3c0;" horiz-adv-x="1157" 
d="M1090 889h-140v-512q0 -231 49 -377h-133q-41 146 -41 373v516h-471v-889h-127v889h-135v121h998v-121z" />
    <glyph glyph-name="Wgrave" unicode="&#x1e80;" horiz-adv-x="2009" 
d="M645 0h-156l-329 1272l-152 14v98h533v-98l-230 -14q34 -132 84 -327.5t67.5 -265t43.5 -175t40 -169.5t29 -138q92 330 359 1187h145q205 -646 262 -830t101 -355q88 393 258 1073l-227 14v98h528v-98l-156 -14l-323 -1272h-154q-293 907 -367 1163
q-155 -536 -356 -1163zM1174 1491h-130l-405 293h186z" />
    <glyph glyph-name="wgrave" unicode="&#x1e81;" horiz-adv-x="1599" 
d="M1456 899l-248 -899h-143q-211 632 -260 807q-64 -226 -268 -807h-142l-252 897l-141 16v97h475v-97l-190 -16q32 -117 69 -252t51.5 -187.5t31.5 -117t26 -100t18 -76.5q93 311 267 833h122q206 -606 267 -833q7 28 30.5 122.5t62 245t95.5 367.5l-188 14v97h458v-97z
M920 1147h-117l-297 307h164z" />
    <glyph glyph-name="Wacute" unicode="&#x1e82;" horiz-adv-x="2009" 
d="M645 0h-156l-329 1272l-152 14v98h533v-98l-230 -14q34 -132 84 -327.5t67.5 -265t43.5 -175t40 -169.5t29 -138q92 330 359 1187h145q205 -646 262 -830t101 -355q88 393 258 1073l-227 14v98h528v-98l-156 -14l-323 -1272h-154q-293 907 -367 1163
q-155 -536 -356 -1163zM952 1473h-135l348 292h187z" />
    <glyph glyph-name="wacute" unicode="&#x1e83;" horiz-adv-x="1599" 
d="M1456 899l-248 -899h-143q-211 632 -260 807q-64 -226 -268 -807h-142l-252 897l-141 16v97h475v-97l-190 -16q32 -117 69 -252t51.5 -187.5t31.5 -117t26 -100t18 -76.5q93 311 267 833h122q206 -606 267 -833q7 28 30.5 122.5t62 245t95.5 367.5l-188 14v97h458v-97z
M801 1147h-115l250 307h164z" />
    <glyph glyph-name="Wdieresis" unicode="&#x1e84;" horiz-adv-x="2009" 
d="M645 0h-156l-329 1272l-152 14v98h533v-98l-230 -14q34 -132 84 -327.5t67.5 -265t43.5 -175t40 -169.5t29 -138q92 330 359 1187h145q205 -646 262 -830t101 -355q88 393 258 1073l-227 14v98h528v-98l-156 -14l-323 -1272h-154q-293 907 -367 1163
q-155 -536 -356 -1163zM909 1610q0 -45 -24 -67.5t-64 -22.5q-84 0 -84 90q0 48 24.5 71t65.5 23q82 0 82 -94zM1272 1610q0 -45 -24 -67.5t-64 -22.5q-84 0 -84 90q0 48 24.5 71t65.5 23q82 0 82 -94z" />
    <glyph glyph-name="wdieresis" unicode="&#x1e85;" horiz-adv-x="1599" 
d="M1456 899l-248 -899h-143q-211 632 -260 807q-64 -226 -268 -807h-142l-252 897l-141 16v97h475v-97l-190 -16q32 -117 69 -252t51.5 -187.5t31.5 -117t26 -100t18 -76.5q93 311 267 833h122q206 -606 267 -833q7 28 30.5 122.5t62 245t95.5 367.5l-188 14v97h458v-97z
M723 1300q0 -45 -24 -67.5t-64 -22.5q-84 0 -84 90q0 49 24.5 72t65.5 23q82 0 82 -95zM1061 1300q0 -45 -24 -67.5t-64 -22.5q-84 0 -84 90q0 49 24.5 72t65.5 23q82 0 82 -95z" />
    <glyph glyph-name="Ygrave" unicode="&#x1ef2;" horiz-adv-x="1384" 
d="M981 0h-582v98l222 17v438l-467 717l-152 16v98h543v-98l-217 -16q280 -431 368 -580q60 105 308 482q14 20 21.5 32t20 31t23.5 35l-223 16v98h538v-98l-153 -16l-471 -717v-438l221 -17v-98zM848 1491h-129l-406 293h187z" />
    <glyph glyph-name="ygrave" unicode="&#x1ef3;" horiz-adv-x="1150" 
d="M139 -530l-30 120q68 9 124 32t98.5 56.5t80 84t66.5 105.5t61 132h-33l-363 897l-141 16v97h479v-97l-194 -14q203 -484 309 -776q1 4 51 152.5t98 284t123 339.5l-196 14v97h477v-97l-143 -16l-297 -817q-113 -308 -240 -444.5t-330 -165.5zM682 1147h-117l-297 307
h164z" />
    <glyph glyph-name="endash" unicode="&#x2013;" horiz-adv-x="1075" 
d="M999 510h-923v104h923v-104z" />
    <glyph glyph-name="emdash" unicode="&#x2014;" horiz-adv-x="1798" 
d="M1724 510h-1648v104h1648v-104z" />
    <glyph glyph-name="quoteleft" unicode="&#x2018;" horiz-adv-x="360" 
d="M76 934q25 227 149 481h105q-87 -229 -121 -481h-133z" />
    <glyph glyph-name="quoteright" unicode="&#x2019;" horiz-adv-x="360" 
d="M283 1415q-14 -124 -55.5 -251t-92.5 -228h-104q88 222 119 479h133z" />
    <glyph glyph-name="quotesinglbase" unicode="&#x201a;" horiz-adv-x="360" 
d="M283 266q-14 -124 -55.5 -251t-92.5 -228h-104q88 222 119 479h133z" />
    <glyph glyph-name="quotedblleft" unicode="&#x201c;" horiz-adv-x="638" 
d="M356 934q23 228 146 481h104q-86 -238 -119 -481h-131zM76 934q25 227 149 481h105q-87 -229 -121 -481h-133z" />
    <glyph glyph-name="quotedblright" unicode="&#x201d;" horiz-adv-x="638" 
d="M283 1415q-14 -124 -55.5 -251t-92.5 -228h-104q88 222 119 479h133zM561 1415q-26 -235 -149 -479h-103q86 227 119 479h133z" />
    <glyph glyph-name="quotedblbase" unicode="&#x201e;" horiz-adv-x="638" 
d="M283 266q-14 -124 -55.5 -251t-92.5 -228h-104q88 222 119 479h133zM561 266q-26 -235 -149 -479h-103q86 227 119 479h133z" />
    <glyph glyph-name="dagger" unicode="&#x2020;" horiz-adv-x="925" 
d="M522 1407v-426h361v-119h-361v-1050h-116v1050h-363v119h363v426h116z" />
    <glyph glyph-name="daggerdbl" unicode="&#x2021;" horiz-adv-x="925" 
d="M883 274h-361v-462h-116v462h-363v121h363v467h-363v121h363v424h116v-424h361v-121h-361v-467h361v-121z" />
    <glyph glyph-name="bullet" unicode="&#x2022;" horiz-adv-x="641" 
d="M516 551q0 -96 -55.5 -148.5t-143.5 -52.5q-78 0 -135 51.5t-57 149.5q0 101 56.5 155t137.5 54q86 0 141.5 -49.5t55.5 -159.5z" />
    <glyph glyph-name="ellipsis" unicode="&#x2026;" horiz-adv-x="1556" 
d="M358 90q0 -52 -27.5 -78t-72.5 -26q-37 0 -66.5 25.5t-29.5 78.5q0 55 28.5 83t69.5 28t69.5 -26.5t28.5 -84.5zM877 90q0 -52 -28 -78t-73 -26q-37 0 -66.5 25.5t-29.5 78.5q0 55 28.5 83t69.5 28q42 0 70.5 -26.5t28.5 -84.5zM1397 90q0 -52 -29 -78t-74 -26
q-37 0 -66.5 25.5t-29.5 78.5q0 55 29 83t71 28q41 0 70 -26.5t29 -84.5z" />
    <glyph glyph-name="perthousand" unicode="&#x2030;" horiz-adv-x="2404" 
d="M684 938q0 -225 -83 -346t-234 -121q-154 0 -231 113.5t-77 316.5q0 207 84 323.5t240 116.5q152 0 226.5 -104.5t74.5 -298.5zM582 922q0 74 -10 130.5t-33 101t-63.5 68t-98.5 23.5q-98 0 -154.5 -82t-56.5 -248q0 -177 54.5 -261.5t152.5 -84.5t153.5 90t55.5 263z
M545 0h-88l649 1321h86zM1597 449q0 -225 -82 -346t-233 -121q-154 0 -229.5 113.5t-75.5 316.5q0 208 82 324t239 116q150 0 224.5 -104.5t74.5 -298.5zM1495 432q0 75 -9.5 131t-31.5 101t-63 68.5t-99 23.5q-98 0 -154.5 -82t-56.5 -248q0 -177 53.5 -261.5t151.5 -84.5
q99 0 154 89t55 263zM2343 449q0 -225 -82 -346t-233 -121q-155 0 -231.5 113.5t-76.5 316.5q0 207 83.5 323.5t240.5 116.5q150 0 224.5 -104.5t74.5 -298.5zM2241 432q0 154 -46 239t-157 85q-98 0 -155.5 -82.5t-57.5 -247.5q0 -177 54.5 -261.5t152.5 -84.5q99 0 154 89
t55 263z" />
    <glyph glyph-name="guilsinglleft" unicode="&#x2039;" horiz-adv-x="671" 
d="M453 895h143l-363 -377l365 -387h-147l-383 383z" />
    <glyph glyph-name="guilsinglright" unicode="&#x203a;" horiz-adv-x="671" 
d="M221 133h-143l362 377l-364 385h145l385 -381z" />
    <glyph glyph-name="fraction" unicode="&#x2044;" horiz-adv-x="208" 
d="M-174 0h-92l651 1321h90z" />
    <glyph glyph-name="zero.superior" unicode="&#x2070;" 
d="M684 1317q0 -225 -83 -346t-234 -121q-154 0 -231 113.5t-77 316.5q0 207 84 323.5t240 116.5q152 0 226.5 -104.5t74.5 -298.5zM582 1300q0 74 -10 130.5t-33 101.5t-63.5 68.5t-98.5 23.5q-98 0 -154.5 -82t-56.5 -248q0 -177 54.5 -261.5t152.5 -84.5t153.5 89.5
t55.5 262.5z" />
    <glyph glyph-name="four.superior" unicode="&#x2074;" 
d="M565 856h-98v225h-401v68l401 555h98v-535h127v-88h-127v-225zM467 1169q0 316 2 414q-20 -32 -49 -72.5t-54.5 -75t-88 -118.5t-109.5 -148h299z" />
    <glyph glyph-name="five.superior" unicode="&#x2075;" 
d="M84 877l25 94q21 -9 70.5 -18t101.5 -9q128 0 193 51.5t65 143.5q0 94 -52.5 133t-156.5 39q-74 0 -191 -31l47 422h430v-94h-350l-28 -228q71 19 131 19q140 0 209 -64.5t69 -185.5q0 -147 -99.5 -223t-273.5 -76q-111 0 -190 27z" />
    <glyph glyph-name="six.superior" unicode="&#x2076;" 
d="M633 1602q-64 22 -133 22q-144 0 -220 -79t-90 -242q32 44 96 76t140 32q120 0 189 -69t69 -201q0 -128 -80.5 -209.5t-212.5 -81.5q-55 0 -106.5 21t-96.5 64t-72.5 121t-27.5 181q0 223 103 353t307 130q75 0 159 -26zM193 1206q8 -266 206 -266q84 0 133.5 52.5
t49.5 150.5q0 83 -44.5 133.5t-136.5 50.5q-134 0 -208 -121z" />
    <glyph glyph-name="seven.superior" unicode="&#x2077;" 
d="M344 868h-113q135 364 328 740h-391l-23 -146h-69q0 201 8 240h590v-72q-211 -432 -330 -762z" />
    <glyph glyph-name="eight.superior" unicode="&#x2078;" 
d="M473 1303q186 -55 186 -205q0 -114 -80 -181t-208 -67q-124 0 -204.5 62t-80.5 173q0 154 184 213q-79 31 -117 84.5t-38 118.5q0 100 75.5 158.5t186.5 58.5q121 0 189.5 -54t68.5 -148q0 -68 -40 -125t-122 -88zM360 1260q-172 -49 -172 -166q0 -68 48 -109t137 -41
q86 0 135 39.5t49 103.5q0 70 -47 108.5t-150 64.5zM385 1339q71 21 112.5 62t41.5 98t-40 92t-120 35q-78 0 -122 -34t-44 -93q0 -124 172 -160z" />
    <glyph glyph-name="nine.superior" unicode="&#x2079;" 
d="M117 969q25 -10 69 -16.5t68 -6.5q144 0 219.5 80.5t89.5 245.5q-32 -45 -95 -77t-138 -32q-122 0 -191 67t-69 197q0 128 81.5 210.5t213.5 82.5q43 0 84 -12.5t81 -41.5t69.5 -72.5t48 -110.5t18.5 -150q0 -223 -102.5 -353t-307.5 -130q-75 0 -166 27zM559 1366
q-2 116 -49.5 189t-155.5 73q-82 0 -132 -52.5t-50 -148.5q0 -84 44 -132t136 -48q138 0 207 119z" />
    <glyph glyph-name="parenleft.superior" unicode="&#x207d;" horiz-adv-x="407" 
d="M395 657h-71q-44 38 -85 89t-81 123t-64 168t-24 200q0 342 258 565h71q-54 -58 -91.5 -109t-74 -120t-55 -152.5t-18.5 -179.5q0 -84 15 -161.5t36.5 -134.5t55.5 -114.5t62 -94t66 -79.5z" />
    <glyph glyph-name="parenright.superior" unicode="&#x207e;" horiz-adv-x="407" 
d="M12 1802h72q45 -38 85.5 -88.5t81 -122.5t65 -167.5t24.5 -200.5q0 -338 -260 -566h-70q53 58 90.5 110t73 121t54 153t18.5 180q0 103 -20 193t-58.5 163t-73 121.5t-82.5 103.5z" />
    <glyph glyph-name="zero.inferior" unicode="&#x2080;" 
d="M684 129q0 -225 -83 -346t-234 -121q-154 0 -231 113.5t-77 316.5q0 207 84 323.5t240 116.5q152 0 226.5 -104.5t74.5 -298.5zM582 113q0 74 -10 130.5t-33 101t-63.5 68t-98.5 23.5q-98 0 -154.5 -82t-56.5 -248q0 -177 54.5 -261.5t152.5 -84.5t153.5 90t55.5 263z
" />
    <glyph glyph-name="one.inferior" unicode="&#x2081;" 
d="M602 -319h-395v73l153 10v644q-13 -9 -182 -109l-39 68q233 156 234 157h90v-760l139 -10v-73z" />
    <glyph glyph-name="two.inferior" unicode="&#x2082;" 
d="M655 -319h-614v79q240 180 365 299q118 112 118 230q0 145 -172 145q-109 0 -237 -69l-33 79q149 88 285 88q128 0 196 -62t68 -173q0 -149 -164 -297q-148 -130 -283 -227q60 0 188 1t201 1l21 147h70q0 -194 -9 -241z" />
    <glyph glyph-name="three.inferior" unicode="&#x2083;" 
d="M61 -309l21 92q17 -7 77 -16t93 -9q142 0 205 44t63 128q0 138 -211 138q-23 0 -90 -5l-4 89q151 7 214 49.5t63 113.5q0 63 -38.5 92t-121.5 29q-95 0 -219 -59l-31 80q147 75 266 75q246 0 246 -204q0 -68 -48 -123t-130 -76q98 -6 155.5 -58.5t57.5 -138.5
q0 -95 -50.5 -157t-132 -87.5t-192.5 -25.5q-52 0 -112.5 9.5t-80.5 19.5z" />
    <glyph glyph-name="four.inferior" unicode="&#x2084;" 
d="M565 -332h-98v226h-401v67l401 555h98v-534h127v-88h-127v-226zM467 -18q0 315 2 413q-20 -31 -49 -71.5t-55.5 -76.5t-86.5 -116.5t-110 -148.5h299z" />
    <glyph glyph-name="five.inferior" unicode="&#x2085;" 
d="M84 -311l25 94q21 -9 70.5 -18t101.5 -9q128 0 193 51.5t65 143.5q0 94 -52.5 133t-156.5 39q-74 0 -191 -31l47 422h430v-94h-350l-28 -227q68 18 131 18q140 0 209 -64.5t69 -185.5q0 -147 -99.5 -223t-273.5 -76q-111 0 -190 27z" />
    <glyph glyph-name="six.inferior" unicode="&#x2086;" 
d="M633 414q-64 22 -133 22q-144 0 -220 -79t-90 -242q32 44 96 76t140 32q120 0 189 -69t69 -201q0 -128 -80.5 -209.5t-212.5 -81.5q-55 0 -106.5 21t-96.5 64t-72.5 121t-27.5 181q0 223 103 353t307 130q75 0 159 -26zM193 18q8 -266 206 -266q84 0 133.5 52.5
t49.5 150.5q0 83 -44.5 133.5t-136.5 50.5q-134 0 -208 -121z" />
    <glyph glyph-name="seven.inferior" unicode="&#x2087;" 
d="M344 -319h-113q134 360 328 739h-391l-23 -146h-69q0 201 8 240h590v-72q-213 -435 -330 -761z" />
    <glyph glyph-name="eight.inferior" unicode="&#x2088;" 
d="M473 115q186 -55 186 -205q0 -114 -80 -181t-208 -67q-124 0 -204.5 62.5t-80.5 173.5q0 154 184 213q-155 60 -155 202q0 100 75.5 158.5t186.5 58.5q121 0 189.5 -54t68.5 -148q0 -68 -40 -125t-122 -88zM360 72q-172 -49 -172 -166q0 -68 48 -109t137 -41q86 0 135 40
t49 104q0 70 -47 108t-150 64zM385 152q72 21 113 61.5t41 97.5t-40 92t-120 35q-78 0 -122 -34t-44 -93q0 -123 172 -159z" />
    <glyph glyph-name="nine.inferior" unicode="&#x2089;" 
d="M117 -219q25 -10 69 -16.5t68 -6.5q144 0 219.5 80.5t89.5 245.5q-32 -45 -95 -77t-138 -32q-122 0 -191 67.5t-69 197.5q0 127 81.5 209.5t213.5 82.5q43 0 84 -12.5t81 -41.5t69.5 -72.5t48 -110.5t18.5 -150q0 -223 -102.5 -353t-307.5 -130q-75 0 -166 27zM559 178
q-2 116 -49.5 189t-155.5 73q-82 0 -132 -52t-50 -148q0 -84 44.5 -132.5t135.5 -48.5q138 0 207 119z" />
    <glyph glyph-name="parenleft.inferior" unicode="&#x208d;" horiz-adv-x="407" 
d="M395 -530h-71q-44 38 -85 89t-81 122.5t-64 167.5t-24 200q0 342 258 565h71q-54 -58 -91.5 -109t-74 -120t-55 -152.5t-18.5 -179.5q0 -103 20.5 -194t59 -164t72.5 -121.5t83 -103.5z" />
    <glyph glyph-name="parenright.inferior" unicode="&#x208e;" horiz-adv-x="407" 
d="M12 614h72q45 -38 85.5 -88.5t81 -122.5t65 -167.5t24.5 -200.5q0 -337 -260 -565h-70q53 58 90.5 109.5t73.5 121t54 153t18 179.5q0 103 -20 193t-58.5 163t-73 121.5t-82.5 103.5z" />
    <glyph glyph-name="Euro" unicode="&#x20ac;" horiz-adv-x="1396" 
d="M1311 182q-196 -209 -473 -209q-213 0 -354 141t-165 392h-157v88h151q0 93 6 154h-157v88h170q45 247 191 378.5t390 131.5q182 0 328 -48q10 -37 10 -321h-98l-25 211q-122 31 -235 31q-164 0 -274 -95t-144 -288h563v-88h-575q-4 -39 -4 -154h579v-88h-573
q18 -190 124.5 -296t266.5 -106q114 0 204.5 43t178.5 132z" />
    <glyph glyph-name="afii61289" unicode="&#x2113;" horiz-adv-x="888" 
d="M780 213l58 -86q-71 -80 -143.5 -117t-162.5 -37q-129 0 -210 91.5t-101 267.5q-36 -29 -115 -84l-49 96q96 66 148 109q-8 139 -8 256q0 241 39 391q31 117 106 183.5t180 66.5q108 0 171 -74t63 -195q0 -90 -30.5 -172.5t-94.5 -175.5q-50 -73 -111 -135.5t-186 -175.5
q1 -157 59.5 -241.5t161.5 -84.5q67 0 114 26t111 91zM319 553q98 93 147 146t89 114q88 129 88 262q0 80 -34 120t-95 40q-100 0 -148.5 -120.5t-48.5 -373.5q0 -104 2 -188z" />
    <glyph glyph-name="trademark" unicode="&#x2122;" horiz-adv-x="1986" 
d="M633 649h-340v62l123 8v581h-209l-21 -141h-61q0 184 6 225h670q4 -54 4 -225h-62l-20 141h-213v-581l123 -8v-62zM1196 649h-332v60l115 8l20 596l-120 8v63h254q176 -360 231 -516q49 119 225 516h250v-63l-123 -8l23 -596l116 -8v-60h-333v60l125 8q-4 132 -7.5 242.5
t-5 157t-2.5 90t-2 83.5q-3 -6 -15 -37t-19.5 -49t-26.5 -63.5t-40 -91.5t-55.5 -121.5t-76.5 -165.5h-74q-188 410 -238 528q0 -165 -14 -573l125 -8v-60z" />
    <glyph glyph-name="Omega" unicode="&#x2126;" horiz-adv-x="1486" 
d="M655 0h-514v127h404q-196 79 -298 238t-102 385q0 302 169 482.5t440 180.5q264 0 424.5 -178.5t160.5 -470.5q0 -447 -395 -637h402v-127h-510v199q173 68 266.5 203t93.5 337q0 238 -127.5 387.5t-320.5 149.5q-200 0 -328.5 -149t-128.5 -394q0 -197 92.5 -334
t271.5 -200v-199z" />
    <glyph glyph-name="estimated" unicode="&#x212e;" horiz-adv-x="1742" 
d="M1645 641h-1250q-10 0 -10 -10v-375q0 -22 21 -43q89 -93 210 -144t261 -51q147 0 275 57.5t220 160.5h115q-108 -122 -269 -193.5t-344 -71.5q-210 0 -387.5 91.5t-281 249.5t-103.5 345q0 140 61 268t164.5 220t246.5 146.5t300 54.5t299.5 -54.5t246 -146.5
t164.5 -220t61 -268v-16zM1364 690v377q0 21 -21 45q-185 182 -466 182q-288 0 -469 -190q-23 -23 -23 -47v-367q0 -10 10 -10h959q10 0 10 10z" />
    <glyph glyph-name="onethird" unicode="&#x2153;" horiz-adv-x="1658" 
d="M539 0h-93l652 1321h90zM584 489h-396v74l154 10v644q-13 -9 -182 -109l-39 68q216 145 233 157h90v-760l140 -10v-74zM993 10l21 92q17 -7 77 -15.5t93 -8.5q142 0 205 44t63 128q0 137 -211 137q-36 0 -90 -4l-4 88q151 7 213.5 50t62.5 114q0 63 -38 92t-121 29
q-94 0 -220 -60l-30 80q149 76 266 76q123 0 184.5 -52.5t61.5 -152.5q0 -68 -48 -122t-130 -76q98 -6 155.5 -58.5t57.5 -138.5q0 -95 -50.5 -157t-132 -87.5t-192.5 -25.5q-53 0 -113 9t-80 19z" />
    <glyph glyph-name="twothirds" unicode="&#x2154;" horiz-adv-x="1658" 
d="M623 0h-93l652 1321h90zM690 489h-614v80q235 177 364 299q119 113 119 230q0 145 -172 145q-109 0 -237 -69l-33 79q149 88 284 88q129 0 197 -62.5t68 -172.5q0 -149 -164 -297q-148 -130 -283 -227q61 0 189 1t200 1l21 147h69q0 -201 -8 -242zM1057 10l20 92
q17 -7 77 -15.5t93 -8.5q269 0 269 172q0 137 -211 137q-37 0 -91 -4l-4 88q151 7 214 50t63 114q0 63 -38.5 92t-121.5 29q-93 0 -219 -60l-31 80q149 76 266 76q123 0 184.5 -52.5t61.5 -152.5q0 -68 -48 -122t-130 -76q98 -6 155.5 -58.5t57.5 -138.5q0 -95 -50.5 -157
t-132 -87.5t-192.5 -25.5q-53 0 -112.5 9t-79.5 19z" />
    <glyph glyph-name="oneeighth" unicode="&#x215b;" horiz-adv-x="1658" 
d="M555 0h-92l651 1321h90zM586 489h-396v74l154 10v644q-13 -9 -182 -109l-39 68q216 145 233 157h90v-760l140 -10v-74zM1401 434q186 -55 186 -205q0 -114 -80.5 -180.5t-208.5 -66.5q-124 0 -204 62t-80 173q0 154 184 213q-80 31 -118 84.5t-38 118.5q0 99 76 158
t187 59q121 0 189.5 -54.5t68.5 -148.5q0 -68 -40 -125t-122 -88zM1288 391q-172 -49 -172 -166q0 -68 47.5 -108.5t136.5 -40.5q86 0 135.5 39.5t49.5 103.5q0 70 -47 108t-150 64zM1313 471q71 21 112 62t41 98t-39.5 92t-119.5 35q-78 0 -122 -34t-44 -93
q0 -124 172 -160z" />
    <glyph glyph-name="threeeighths" unicode="&#x215c;" horiz-adv-x="1658" 
d="M573 0h-92l652 1321h90zM88 500l21 92q17 -7 77 -16t93 -9q142 0 205 44t63 128q0 138 -211 138q-22 0 -90 -5l-4 89q151 7 213.5 49.5t62.5 113.5q0 63 -38.5 92t-121.5 29q-95 0 -219 -59l-30 80q147 75 266 75q246 0 246 -204q0 -68 -48.5 -122.5t-130.5 -76.5
q98 -6 155.5 -58.5t57.5 -138.5q0 -72 -28 -125t-79.5 -84t-117.5 -46t-149 -15q-52 0 -112.5 9.5t-80.5 19.5zM1409 434q186 -55 186 -205q0 -114 -80 -180.5t-208 -66.5q-124 0 -204.5 62t-80.5 173q0 154 184 213q-79 31 -117 84.5t-38 118.5q0 100 75.5 158.5
t186.5 58.5q121 0 189.5 -54.5t68.5 -148.5q0 -68 -40 -125t-122 -88zM1296 391q-172 -49 -172 -166q0 -68 48 -108.5t137 -40.5q86 0 135 39.5t49 103.5q0 70 -47 108t-150 64zM1321 471q71 21 112.5 62t41.5 98t-40 92t-120 35q-78 0 -122 -34t-44 -93q0 -124 172 -160z
" />
    <glyph glyph-name="fiveeighths" unicode="&#x215d;" horiz-adv-x="1658" 
d="M573 0h-92l652 1321h90zM111 498l24 94q21 -9 70.5 -18t101.5 -9q128 0 193 51.5t65 143.5q0 94 -52.5 133t-156.5 39q-73 0 -190 -31l47 422h430v-94h-350l-29 -228q71 19 131 19q140 0 209.5 -64.5t69.5 -185.5q0 -147 -99.5 -223t-273.5 -76q-111 0 -190 27zM1417 434
q187 -55 187 -205q0 -114 -80.5 -180.5t-208.5 -66.5q-124 0 -204.5 62t-80.5 173q0 154 184 213q-79 31 -117 84.5t-38 118.5q0 100 75.5 158.5t186.5 58.5q121 0 189.5 -54.5t68.5 -148.5q0 -68 -40 -125t-122 -88zM1305 391q-172 -49 -172 -166q0 -68 47.5 -108.5
t136.5 -40.5q86 0 135 39.5t49 103.5q0 70 -46.5 108t-149.5 64zM1329 471q71 21 112.5 62t41.5 98t-40 92t-120 35q-78 0 -122 -34t-44 -93q0 -124 172 -160z" />
    <glyph glyph-name="seveneighths" unicode="&#x215e;" horiz-adv-x="1658" 
d="M492 0h-93l652 1321h90zM365 489h-113q135 364 328 740h-392l-22 -146h-70q0 201 8 240h590v-72q-207 -424 -329 -762zM1366 434q186 -55 186 -205q0 -114 -80 -180.5t-208 -66.5q-124 0 -204.5 62t-80.5 173q0 154 184 213q-79 31 -117 84.5t-38 118.5q0 100 75.5 158.5
t186.5 58.5q121 0 189.5 -54.5t68.5 -148.5q0 -68 -40 -125t-122 -88zM1253 391q-172 -49 -172 -166q0 -68 48 -108.5t137 -40.5q86 0 135 39.5t49 103.5q0 70 -47 108t-150 64zM1278 471q71 21 112.5 62t41.5 98t-40 92t-120 35q-78 0 -122 -34t-44 -93q0 -124 172 -160z
" />
    <glyph glyph-name="arrowleft" unicode="&#x2190;" horiz-adv-x="1572" 
d="M1499 764v-148q-1026 0 -1210 2q2 -2 66 -61t189 -177.5t302 -291.5l-84 -98l-705 700l707 707l84 -94q-439 -439 -559 -543q178 4 1210 4z" />
    <glyph glyph-name="arrowup" unicode="&#x2191;" horiz-adv-x="1572" 
d="M723 0q0 1016 4 1192q-1 -1 -21.5 -23t-37 -39t-50 -51t-74 -73.5t-94.5 -92t-126.5 -121t-155.5 -145.5l-84 90l707 707l698 -705l-90 -92q-95 92 -176.5 172t-133 131t-97.5 98t-66.5 68.5t-44.5 46.5t-27 29q2 -182 2 -1192h-133z" />
    <glyph glyph-name="arrowright" unicode="&#x2192;" horiz-adv-x="1572" 
d="M72 616v148q1034 0 1210 -4q-124 113 -559 543l88 94l702 -707l-704 -700l-84 98q177 173 302 291.5t189 177.5t66 61q-184 -2 -1210 -2z" />
    <glyph glyph-name="arrowdown" unicode="&#x2193;" horiz-adv-x="1572" 
d="M723 1382h133q0 -1010 -2 -1192q164 179 545 545l90 -90l-698 -706l-707 706l84 92q367 -342 559 -544q-4 176 -4 1189z" />
    <glyph glyph-name="uni2196" unicode="&#x2196;" horiz-adv-x="1572" 
d="M1366 217l-94 -102q-540 531 -852 843q2 -63 2 -761h-123v991h993v-131q-281 -2 -786 -2q256 -244 860 -838z" />
    <glyph glyph-name="uni2197" unicode="&#x2197;" horiz-adv-x="1572" 
d="M305 115l-94 102q604 594 860 838q-503 0 -784 2v131h991v-991h-123q0 633 4 759q-74 -74 -854 -841z" />
    <glyph glyph-name="uni2198" unicode="&#x2198;" horiz-adv-x="1572" 
d="M211 1149l94 104q841 -829 854 -843q-4 126 -4 759h123v-989h-991v131q230 1 426.5 1h264t93.5 1q-255 243 -860 836z" />
    <glyph glyph-name="uni2199" unicode="&#x2199;" horiz-adv-x="1572" 
d="M1272 1257l94 -102q-699 -685 -860 -836q26 -1 95.5 -1t261.5 -0.5t429 -2.5v-131h-993v992h123q0 -699 -2 -762q312 312 852 843z" />
    <glyph glyph-name="partialdiff" unicode="&#x2202;" horiz-adv-x="1118" 
d="M856 627q-46 68 -130 100.5t-169 32.5q-131 0 -218 -90.5t-87 -251.5q0 -154 83.5 -241t205.5 -87q99 0 178.5 61t109.5 185q27 111 27 291zM270 1237l-37 106q139 68 304 68q222 0 333 -201t111 -612q0 -292 -113.5 -457.5t-335.5 -165.5q-180 0 -289.5 117.5
t-109.5 321.5q0 211 119 331.5t301 120.5q188 0 297 -100q-12 251 -97 390.5t-237 139.5q-56 0 -126.5 -15.5t-119.5 -43.5z" />
    <glyph glyph-name="Delta" unicode="&#x2206;" horiz-adv-x="1316" 
d="M1305 0h-1295l570 1382h161zM657 1239q-60 -172 -456 -1112h913q-380 908 -457 1112z" />
    <glyph glyph-name="product" unicode="&#x220f;" horiz-adv-x="1357" 
d="M1192 -244h-135v1495h-758v-1495h-133v1628h1026v-1628z" />
    <glyph glyph-name="summation" unicode="&#x2211;" horiz-adv-x="1138" 
d="M1092 -244h-1020v127l520 721l-502 666v114h989v-131h-817l496 -647l-529 -717h863v-133z" />
    <glyph glyph-name="minus" unicode="&#x2212;" horiz-adv-x="1433" 
d="M1249 549h-1065v110h1065v-110z" />
    <glyph glyph-name="uni2215" unicode="&#x2215;" horiz-adv-x="208" 
d="M-178 0h-84l649 1319h82z" />
    <glyph glyph-name="uni2219" unicode="&#x2219;" horiz-adv-x="387" 
d="M291 543q0 -54 -27 -81.5t-71 -27.5q-37 0 -68 26.5t-31 82.5q0 53 30 80.5t71 27.5t68.5 -25t27.5 -83z" />
    <glyph glyph-name="radical" unicode="&#x221a;" horiz-adv-x="1308" 
d="M692 -371l-104 -2l-289 588l-137 -63l-43 90l241 118l281 -567l477 1593h113z" />
    <glyph glyph-name="infinity" unicode="&#x221e;" horiz-adv-x="1495" 
d="M748 676q96 112 178 164.5t180 52.5q124 0 198 -82t74 -213q0 -133 -79.5 -219t-208.5 -86q-97 0 -170.5 48.5t-171.5 168.5q-103 -118 -179.5 -166.5t-173.5 -48.5q-125 0 -202.5 79t-77.5 212q0 137 80.5 223t210.5 86q96 0 169.5 -48t172.5 -171zM682 590
q-85 110 -141.5 154t-137.5 44q-80 0 -134 -54.5t-54 -137.5q0 -86 52 -141.5t132 -55.5q79 0 144.5 48t138.5 143zM813 594q36 -41 45 -51.5t37.5 -41t39 -38.5t34 -26.5t39.5 -23.5t38 -10.5t46 -5.5q81 0 132.5 53.5t51.5 137.5q0 90 -48 143t-128 53q-73 0 -141.5 -44.5
t-145.5 -145.5z" />
    <glyph glyph-name="integral" unicode="&#x222b;" horiz-adv-x="657" 
d="M297 -84q0 35 -6 182l-37 944q-6 147 -6 156q0 120 59.5 187t167.5 67q53 0 123 -16l-16 -109q-46 14 -101 14q-51 0 -83.5 -39t-32.5 -120q0 -48 4 -138l37 -944q0 -5 4 -76.5t4 -107.5q0 -130 -58 -188t-178 -58q-46 0 -115 15l19 114q50 -16 94 -16q61 0 91 27t30 106
z" />
    <glyph glyph-name="approxequal" unicode="&#x2248;" horiz-adv-x="1447" 
d="M262 279l-80 65q85 115 160.5 163t161.5 48q49 0 102 -20t146 -76q124 -72 204 -72q64 0 115 38t113 132l80 -63q-72 -115 -142 -168.5t-168 -53.5q-101 0 -245 82q-150 84 -213 84q-62 0 -118.5 -37.5t-115.5 -121.5zM262 664l-80 67q86 116 161.5 164.5t160.5 48.5
q47 0 100 -20.5t148 -75.5q124 -72 204 -72q64 0 115 37.5t113 128.5l80 -61q-48 -76 -90.5 -122.5t-97.5 -74t-122 -27.5q-98 0 -245 84q-146 84 -213 84q-62 0 -118.5 -38t-115.5 -123z" />
    <glyph glyph-name="notequal" unicode="&#x2260;" horiz-adv-x="1433" 
d="M479 12h-94l170 338h-371v111h420l137 274h-557v113h609l157 317h97l-158 -317h360v-113h-411l-138 -274h549v-111h-600z" />
    <glyph glyph-name="lessequal" unicode="&#x2264;" horiz-adv-x="1433" 
d="M1163 301l-923 426v113l923 436v-131l-794 -359l794 -350v-135zM1163 0h-923v113h923v-113z" />
    <glyph glyph-name="greaterequal" unicode="&#x2265;" horiz-adv-x="1433" 
d="M1194 727l-922 -426v131l795 354l-795 357v133l922 -432v-117zM1194 0h-922v113h922v-113z" />
    <glyph glyph-name="lozenge" unicode="&#x25ca;" horiz-adv-x="1447" 
d="M662 1401h129l337 -696l-337 -705h-129l-347 702zM440 702l289 -579l277 582l-279 577z" />
    <glyph glyph-name="Dotlessi" horiz-adv-x="712" 
d="M641 0h-569v98l213 17v1155l-213 16v98h569v-98l-213 -16v-1155l213 -17v-98z" />
    <glyph glyph-name="Euro.denominator" horiz-adv-x="866" 
d="M842 115q-123 -133 -307 -133q-148 0 -240 89.5t-107 245.5h-102v64h100q0 59 2 86h-102v63h111q61 318 387 318q124 0 215 -31q4 -23 4 -215h-72l-16 135q-78 19 -146 19q-226 0 -268 -226h365v-63h-375q-2 -25 -2 -86h377v-64h-373q10 -117 78 -177t174 -60
q139 0 246 104z" />
    <glyph glyph-name="Euro.inferior" horiz-adv-x="866" 
d="M842 -205q-123 -133 -307 -133q-148 0 -240 90t-107 246h-102v63h100q0 59 2 86h-102v64h111q61 317 387 317q127 0 215 -30q4 -23 4 -215h-72l-16 135q-74 18 -146 18q-226 0 -268 -225h365v-64h-375q-2 -25 -2 -86h377v-63h-373q10 -117 78 -177.5t174 -60.5
q138 0 246 105z" />
    <glyph glyph-name="Euro.numerator" horiz-adv-x="866" 
d="M842 604q-123 -133 -307 -133q-148 0 -240 90t-107 246h-102v63h100q0 59 2 86h-102v64h111q61 317 387 317q127 0 215 -30q4 -23 4 -215h-72l-16 135q-74 18 -146 18q-226 0 -268 -225h365v-64h-375q-2 -25 -2 -86h377v-63h-373q10 -117 78 -177.5t174 -60.5
q138 0 246 105z" />
    <glyph glyph-name="Euro.oldstyle" horiz-adv-x="1273" 
d="M1214 158q-177 -185 -436 -185q-195 0 -324.5 123.5t-154.5 341.5h-145v84h141q0 95 8 150h-149v82h157q42 213 176 330.5t344 117.5q185 0 320 -47q12 -42 12 -295h-92l-22 191q-114 30 -240 30q-133 0 -233 -83.5t-132 -243.5h521v-82h-531q-8 -44 -8 -150h539v-84
h-531q17 -159 117.5 -250.5t245.5 -91.5q103 0 186.5 37.5t163.5 114.5z" />
    <glyph glyph-name="Euro.superior" horiz-adv-x="866" 
d="M842 983q-123 -133 -307 -133q-148 0 -240 90t-107 246h-102v63h100q0 59 2 86h-102v64h111q61 317 387 317q127 0 215 -30q4 -23 4 -216h-72l-16 136q-74 18 -146 18q-226 0 -268 -225h365v-64h-375q-2 -25 -2 -86h377v-63h-373q10 -117 78 -177.5t174 -60.5
q138 0 246 105z" />
    <glyph glyph-name="Kgreenlandic" horiz-adv-x="1421" 
d="M637 0h-565v98l213 17v1155l-213 16v98h557v-98l-201 -16v-631q259 272 580 635l-158 12v98h514v-98l-184 -16q-66 -73 -437 -471l265 -408q71 -110 137 -182q38 -42 79.5 -65t100.5 -23q45 0 78 10l8 -129q-43 -16 -108 -16q-84 0 -139.5 24.5t-114.5 85.5
q-75 75 -154 197l-254 393l-213 -219v-352l209 -17v-98z" />
    <glyph glyph-name="S_S" horiz-adv-x="2185" 
d="M1176 399h102l33 -247q146 -52 303 -52q155 0 240 67t85 177q0 94 -53.5 152t-208.5 116l-174 64q-146 54 -211 138.5t-65 217.5q0 172 121 276.5t360 104.5q194 0 356 -43q11 -67 11 -354h-101l-30 239q-103 29 -258 29q-83 0 -146 -21.5t-97 -57t-50.5 -74t-16.5 -78.5
q0 -84 42.5 -137.5t170.5 -106.5l191 -76q173 -69 244 -151.5t71 -214.5q0 -182 -127.5 -290t-363.5 -108q-242 0 -416 70q-12 113 -12 360zM86 399h102l33 -247q146 -52 303 -52q155 0 240.5 67t85.5 177q0 94 -53.5 152t-208.5 116l-174 64q-147 54 -212 138.5t-65 217.5
q0 172 121 276.5t360 104.5q195 0 357 -43q10 -61 10 -354h-100l-31 239q-103 29 -258 29q-83 0 -146 -21.5t-97 -57t-50 -74t-16 -78.5q0 -84 42.5 -137.5t170.5 -106.5l190 -76q173 -69 244.5 -151.5t71.5 -214.5q0 -182 -128 -290t-364 -108q-242 0 -416 70
q-12 113 -12 360z" />
    <glyph glyph-name="acute.cap" horiz-adv-x="411" 
d="M72 1491h-135l348 293h186z" />
    <glyph glyph-name="braceleft.cap" horiz-adv-x="653" 
d="M606 -258q-95 0 -158.5 14.5t-110.5 51.5t-68 102t-21 164v233q0 138 -43 196t-146 72v74q108 21 148.5 82t40.5 191v229q0 99 20.5 164t66 103t110 53.5t161.5 15.5v-92q-44 0 -72.5 -3t-62.5 -16.5t-53.5 -38t-33 -69.5t-13.5 -109v-244q0 -100 -20.5 -160t-55 -88.5
t-98.5 -50.5q90 -21 132 -86.5t42 -205.5v-248q0 -73 18.5 -123t53.5 -75.5t73.5 -35.5t89.5 -10v-90z" />
    <glyph glyph-name="braceright.cap" horiz-adv-x="653" 
d="M49 1487q94 0 157.5 -15t110 -52t68 -102.5t21.5 -164.5v-233q0 -138 43 -196.5t147 -72.5v-73q-110 -20 -150 -80t-40 -191v-231q0 -98 -21 -163t-67 -102.5t-110 -53t-159 -15.5v90q43 0 71.5 3t62.5 16.5t53.5 38t33 69.5t13.5 109v243q0 100 20.5 160.5t55.5 89.5
t98 51q-89 21 -131.5 87t-42.5 206v248q0 73 -19 123t-53.5 75.5t-73 35.5t-88.5 10v90z" />
    <glyph glyph-name="bracketleft.cap" horiz-adv-x="583" 
d="M532 -242h-352v1706h352v-90h-233v-1521h233v-95z" />
    <glyph glyph-name="bracketright.cap" horiz-adv-x="583" 
d="M49 1464h357v-1706h-357v92h236v1522h-236v92z" />
    <glyph glyph-name="breve.cap" horiz-adv-x="411" 
d="M475 1749q-2 -116 -75 -190t-199 -74q-127 0 -195.5 74.5t-68.5 189.5h88q19 -168 178 -168q90 0 133.5 46.5t50.5 121.5h88z" />
    <glyph glyph-name="caron.alt" horiz-adv-x="391" 
d="M303 1458q-24 -193 -117 -383h-98q29 66 54.5 172t35.5 211h125z" />
    <glyph glyph-name="caron.cap" horiz-adv-x="411" 
d="M403 1743h113l-250 -252h-123l-247 252h114l197 -156z" />
    <glyph glyph-name="cedilla.cap" horiz-adv-x="411" 
d="M16 -467l27 90q57 -16 117 -16q58 0 87 23.5t29 64.5q0 42 -32 65t-88 23q-2 0 -76 -4l94 241h94l-63 -149q98 -6 142 -55t44 -115q0 -84 -63.5 -136t-177.5 -52q-76 0 -134 20z" />
    <glyph glyph-name="cent.denominator" horiz-adv-x="632" 
d="M412 -131h-58v131q-117 8 -185.5 87.5t-68.5 215.5q0 151 68 235.5t186 104.5v131h58v-125h16q109 0 176 -22q6 -27 6 -189h-65l-19 117q-32 12 -114 12v-479q53 1 95 18.5t101 55.5l37 -68q-119 -86 -233 -94v-131zM199 309q0 -193 155 -219v469q-155 -35 -155 -250z
" />
    <glyph glyph-name="cent.inferior" horiz-adv-x="632" 
d="M412 -451h-58v132q-117 8 -185.5 87.5t-68.5 215.5q0 151 68 235.5t186 104.5v131h58v-125h16q106 0 176 -23q6 -27 6 -188h-65l-19 117q-32 12 -114 12v-479q53 1 95 18t101 55l37 -67q-119 -86 -233 -94v-132zM199 -10q0 -193 155 -219v469q-155 -35 -155 -250z" />
    <glyph glyph-name="cent.numerator" horiz-adv-x="669" 
d="M412 358h-58v129q-117 9 -185.5 89.5t-68.5 216.5q0 151 68 235.5t186 104.5v131h58v-125h16q106 0 176 -23q6 -27 6 -188h-65l-19 116q-35 13 -114 13v-479q53 1 95 18t101 55l37 -67q-119 -87 -233 -97v-129zM199 799q0 -193 155 -219v469q-155 -35 -155 -250z" />
    <glyph glyph-name="cent.oldstyle" horiz-adv-x="876" 
d="M537 -184h-76v182q-155 8 -245.5 111.5t-90.5 281.5q0 192 89.5 304t246.5 134v195h76v-186h24q125 0 219 -25q8 -31 8 -250h-83l-23 156q-63 14 -145 14v-624q66 3 118 25t129 69l47 -84q-78 -53 -146.5 -83.5t-147.5 -37.5v-182zM252 399q0 -129 55 -200.5t154 -85.5
v614q-209 -37 -209 -328z" />
    <glyph glyph-name="cent.superior" horiz-adv-x="632" 
d="M412 737h-58v131q-117 8 -185.5 87.5t-68.5 215.5q0 151 68 235.5t186 104.5v131h58v-124h16q106 0 176 -23q6 -27 6 -188h-65l-19 116q-35 13 -114 13v-480q53 1 95 18.5t101 55.5l37 -67q-120 -87 -233 -95v-131zM199 1178q0 -97 40.5 -152.5t114.5 -67.5v469
q-155 -35 -155 -249z" />
    <glyph glyph-name="circumflex.cap" horiz-adv-x="411" 
d="M8 1491h-112l249 252h123l248 -252h-115l-196 158z" />
    <glyph glyph-name="comma.denominator" horiz-adv-x="247" 
d="M195 129q-19 -172 -107 -332h-80q26 57 49.5 149.5t32.5 182.5h105z" />
    <glyph glyph-name="comma.inferior" horiz-adv-x="247" 
d="M195 -190q-19 -172 -107 -332h-80q26 57 49.5 149.5t32.5 182.5h105z" />
    <glyph glyph-name="comma.numerator" horiz-adv-x="247" 
d="M195 618q-19 -171 -107 -331h-80q26 57 49.5 149t32.5 182h105z" />
    <glyph glyph-name="comma.superior" horiz-adv-x="247" 
d="M195 997q-19 -171 -107 -331h-80q26 57 49.5 149t32.5 182h105z" />
    <glyph glyph-name="commaaccent" horiz-adv-x="391" 
d="M303 -111q-24 -193 -117 -383h-98q29 66 54.5 172t35.5 211h125z" />
    <glyph glyph-name="dieresis.cap" horiz-adv-x="411" 
d="M111 1610q0 -45 -24 -67.5t-64 -22.5q-84 0 -84 90q0 48 24.5 71t65.5 23q82 0 82 -94zM473 1610q0 -45 -24 -67.5t-64 -22.5q-84 0 -84 90q0 48 24.5 71t65.5 23q82 0 82 -94z" />
    <glyph glyph-name="dollar.denominator" horiz-adv-x="653" 
d="M395 -131h-57v129q-147 0 -250 41q-8 74 -8 213h67l21 -141q86 -27 170 -27v297l-59 22q-89 32 -129.5 82.5t-40.5 128.5q0 90 58 149t171 71v139h57v-135q101 0 219 -27q7 -38 7 -213h-68l-18 139q-76 17 -140 17v-289l47 -19q103 -38 145 -88t42 -131
q0 -94 -60.5 -154.5t-173.5 -72.5v-131zM532 217q0 48 -27 78.5t-110 62.5v-272q137 18 137 131zM207 627q0 -47 22.5 -77t98.5 -58l10 -5v263q-70 -10 -100.5 -44t-30.5 -79z" />
    <glyph glyph-name="dollar.inferior" horiz-adv-x="653" 
d="M395 -451h-57v129q-147 0 -250 41q-8 74 -8 213h67l21 -141q86 -27 170 -27v297l-59 23q-89 32 -129.5 82.5t-40.5 128.5q0 90 58 148.5t171 70.5v139h57v-135q106 0 219 -26q7 -38 7 -213h-68l-18 139q-72 16 -140 16v-289l47 -18q103 -38 145 -88t42 -131
q0 -94 -60.5 -154.5t-173.5 -72.5v-132zM532 -102q0 48 -27 78.5t-110 62.5v-272q137 18 137 131zM207 307q0 -47 22.5 -77t98.5 -58l10 -4v262q-70 -10 -100.5 -44t-30.5 -79z" />
    <glyph glyph-name="dollar.numerator" horiz-adv-x="677" 
d="M395 358h-57v129q-147 0 -250 41q-8 74 -8 213h67l21 -141q86 -27 170 -27v297l-59 23q-89 32 -129.5 82.5t-40.5 128.5q0 89 57.5 148t171.5 71v139h57v-135q101 0 219 -27q7 -38 7 -213h-68l-18 140q-72 16 -140 16v-289l47 -18q103 -38 145 -88t42 -131
q0 -94 -60.5 -155t-173.5 -73v-131zM532 707q0 48 -27 78.5t-110 62.5v-273q68 9 102.5 43t34.5 89zM207 1116q0 -47 22.5 -77t98.5 -58l10 -4v262q-70 -10 -100.5 -44t-30.5 -79z" />
    <glyph glyph-name="dollar.oldstyle" horiz-adv-x="995" 
d="M561 -184h-76v182q-207 0 -350 55q-10 59 -10 299h92l27 -202q113 -39 241 -39v421l-88 35q-121 45 -177 115t-56 180q0 125 81 207.5t240 99.5v195h76v-190q146 0 305 -37q6 -39 6 -293h-88l-28 192q-79 25 -195 25v-412l66 -24q144 -55 202 -124.5t58 -181.5
q0 -132 -84 -216t-242 -101v-186zM754 301q0 71 -38.5 114.5t-154.5 88.5v-389q94 13 143.5 62t49.5 124zM295 877q0 -66 34 -108.5t140 -82.5l16 -6v377q-100 -14 -145 -65t-45 -115z" />
    <glyph glyph-name="dollar.superior" horiz-adv-x="653" 
d="M395 737h-57v129q-147 0 -250 41q-8 74 -8 213h67l21 -141q85 -27 170 -27v297l-59 23q-89 32 -129.5 82.5t-40.5 128.5q0 90 58 148.5t171 70.5v139h57v-135q101 0 219 -27q7 -39 7 -213h-68l-18 140q-72 16 -140 16v-289l47 -18q103 -38 145 -88t42 -131
q0 -94 -60.5 -155t-173.5 -73v-131zM532 1085q0 48 -27 79t-110 63v-273q137 18 137 131zM207 1495q0 -47 22.5 -77t98.5 -58l10 -4v262q-70 -10 -100.5 -44t-30.5 -79z" />
    <glyph glyph-name="dotaccent.cap" horiz-adv-x="411" 
d="M293 1610q0 -45 -24 -67.5t-64 -22.5q-84 0 -84 90q0 48 24.5 71t65.5 23q82 0 82 -94z" />
    <glyph glyph-name="eight.denominator" 
d="M473 434q186 -55 186 -205q0 -114 -80 -180.5t-208 -66.5q-124 0 -204.5 62t-80.5 173q0 154 184 213q-79 31 -117 84.5t-38 118.5q0 100 75.5 158.5t186.5 58.5q121 0 189.5 -54.5t68.5 -148.5q0 -68 -40 -125t-122 -88zM360 391q-172 -49 -172 -166q0 -68 48 -108.5
t137 -40.5q86 0 135 39.5t49 103.5q0 70 -47 108t-150 64zM385 471q71 21 112.5 62t41.5 98t-40 92t-120 35q-78 0 -122 -34t-44 -93q0 -124 172 -160z" />
    <glyph glyph-name="eight.fitted" horiz-adv-x="1130" 
d="M721 696q141 -45 216 -132t75 -202q0 -178 -127.5 -284.5t-319.5 -106.5q-195 0 -318.5 100t-123.5 275q0 122 74 210t209 136q-121 48 -178.5 130t-57.5 179q0 163 113 255t290 92q187 0 292.5 -86.5t105.5 -235.5q0 -100 -61 -188t-189 -142zM545 635
q-138 -31 -210.5 -105t-72.5 -172q0 -112 82 -185t221 -73q138 0 220.5 70.5t82.5 179.5q0 117 -80 182.5t-243 102.5zM586 745q113 27 181.5 93.5t68.5 162.5q0 95 -63.5 156.5t-197.5 61.5q-128 0 -199 -60t-71 -160q0 -107 70.5 -165t210.5 -89z" />
    <glyph glyph-name="eight.numerator" 
d="M473 924q186 -55 186 -205q0 -114 -80 -181t-208 -67q-124 0 -204.5 62.5t-80.5 173.5q0 154 184 213q-155 60 -155 202q0 100 75.5 158.5t186.5 58.5q121 0 189.5 -54t68.5 -148q0 -68 -40 -125t-122 -88zM360 881q-172 -49 -172 -166q0 -68 48 -109t137 -41
q86 0 135 40t49 104q0 70 -47 108t-150 64zM385 961q72 21 113 61.5t41 97.5t-40 92t-120 35q-78 0 -122 -34t-44 -93q0 -123 172 -159z" />
    <glyph glyph-name="eight.oldstyle" horiz-adv-x="1073" 
d="M688 694q281 -99 281 -342q0 -119 -59.5 -207t-156 -131t-216.5 -43q-186 0 -307 100t-121 271q0 124 72 212.5t202 133.5q-117 48 -171 130t-54 181q0 160 112 254.5t277 94.5q178 0 279.5 -88.5t101.5 -241.5q0 -219 -240 -324zM518 637q-133 -31 -202.5 -108
t-69.5 -175q0 -110 79.5 -182t211.5 -72q136 0 215 70t79 178q0 114 -79.5 183t-233.5 106zM557 743q106 27 173 95t67 163q0 96 -60.5 158t-189.5 62q-121 0 -190.5 -62t-69.5 -160q0 -105 68 -165t202 -91z" />
    <glyph glyph-name="eight.taboldstyle" horiz-adv-x="1073" 
d="M688 694q140 -49 210.5 -136.5t70.5 -205.5q0 -119 -59.5 -207t-156 -131t-216.5 -43q-186 0 -307 101t-121 272q0 122 72 210.5t202 133.5q-117 48 -171 129.5t-54 179.5q0 160 112 254.5t277 94.5q178 0 279.5 -88.5t101.5 -239.5q0 -219 -240 -324zM518 637
q-133 -31 -202.5 -107t-69.5 -174q0 -110 79.5 -182t211.5 -72q136 0 215 69.5t79 178.5q0 115 -78.5 182.5t-234.5 104.5zM557 741q106 27 173 95t67 163q0 93 -62 155.5t-188 62.5q-122 0 -191 -61t-69 -159q0 -105 68 -164t202 -92z" />
    <glyph glyph-name="emdash.cap" horiz-adv-x="1798" 
d="M1724 592h-1648v104h1648v-104z" />
    <glyph glyph-name="endash.cap" horiz-adv-x="1075" 
d="M999 592h-923v104h923v-104z" />
    <glyph glyph-name="estimated.alt" horiz-adv-x="1540" 
d="M1473 199q-139 -105 -296 -165.5t-362 -60.5q-158 0 -288 49.5t-217.5 138.5t-135 212t-47.5 268q0 175 59 313t159.5 222.5t226 128t266.5 43.5q138 0 245 -37t176 -99.5t113.5 -152t63.5 -187.5t20 -213h-1186q3 -265 154 -405.5t414 -140.5q314 0 561 202zM1309 776
q-37 445 -484 445q-100 0 -190.5 -28t-165 -82t-126 -140t-69.5 -195h1035z" />
    <glyph glyph-name="five.denominator" 
d="M84 8l25 94q21 -9 70.5 -17.5t101.5 -8.5q128 0 193 51.5t65 142.5q0 94 -52.5 133t-156.5 39q-78 0 -191 -30l47 422h430v-95h-350l-28 -227q68 18 131 18q140 0 209 -64t69 -185q0 -147 -99.5 -223t-273.5 -76q-114 0 -190 26z" />
    <glyph glyph-name="five.fitted" horiz-adv-x="1093" 
d="M96 14l31 127q38 -15 116 -29t156 -14q205 0 303.5 90t98.5 240t-84 214.5t-246 64.5q-128 0 -289 -45l72 663h661v-133h-546l-43 -389q106 28 211 28q199 0 309 -100t110 -285q0 -239 -149 -359t-418 -120q-170 0 -293 47z" />
    <glyph glyph-name="five.numerator" 
d="M84 498l25 94q21 -9 70.5 -18t101.5 -9q128 0 193 51.5t65 143.5q0 94 -52.5 133t-156.5 39q-74 0 -191 -31l47 422h430v-94h-350l-28 -228q71 19 131 19q140 0 209 -64.5t69 -185.5q0 -147 -99.5 -223t-273.5 -76q-111 0 -190 27z" />
    <glyph glyph-name="five.oldstyle" horiz-adv-x="1011" 
d="M70 -246l34 127q38 -14 115.5 -27.5t149.5 -13.5q103 0 180.5 25.5t123.5 71t68.5 104.5t22.5 131q0 151 -83 216t-243 65q-114 0 -284 -45l69 643h647v-133h-536l-43 -371q98 28 209 28q199 0 307 -100t108 -285q0 -240 -145 -360.5t-410 -120.5q-175 0 -290 45z" />
    <glyph glyph-name="five.taboldstyle" horiz-adv-x="1073" 
d="M113 -246l32 127q41 -15 117 -28t148 -13q202 0 297.5 91.5t95.5 242.5t-81.5 215t-242.5 64q-114 0 -284 -45l69 643h647v-133h-534l-45 -371q98 28 209 28q198 0 305.5 -98.5t107.5 -283.5q0 -241 -143.5 -362.5t-409.5 -121.5q-173 0 -288 45z" />
    <glyph glyph-name="florin.denominator" horiz-adv-x="663" 
d="M0 -147l27 86q53 -17 94 -17q73 0 90 53q12 28 16 86l33 392h-141v75h149l8 97q9 81 37 133q53 90 189 90q71 0 137 -17q6 -27 6 -182h-70l-14 105q-20 4 -57 4q-78 0 -101 -47q-17 -30 -24 -93l-8 -90h176v-75h-185l-36 -398q-6 -79 -29 -129q-47 -92 -172 -92
q-76 0 -125 19z" />
    <glyph glyph-name="florin.inferior" horiz-adv-x="663" 
d="M0 -467l27 86q50 -16 94 -16q73 0 90 53q12 28 16 86l33 391h-141v76h149l8 96q9 81 37 133q53 90 189 90q75 0 137 -16q6 -27 6 -182h-70l-14 104q-20 4 -57 4q-78 0 -101 -47q-17 -30 -24 -92l-8 -90h176v-76h-185l-36 -397q-6 -79 -29 -129q-47 -92 -172 -92
q-79 0 -125 18z" />
    <glyph glyph-name="florin.numerator" horiz-adv-x="663" 
d="M0 342l27 86q50 -16 94 -16q73 0 90 53q12 28 16 86l33 391h-141v76h149l8 96q9 81 37 133q53 90 189 90q75 0 137 -16q6 -27 6 -182h-70l-14 104q-20 4 -57 4q-78 0 -101 -47q-17 -30 -24 -92l-8 -90h176v-76h-185l-36 -397q-6 -79 -29 -129q-47 -92 -172 -92
q-79 0 -125 18z" />
    <glyph glyph-name="florin.oldstyle" horiz-adv-x="892" 
d="M-10 -193l35 119q61 -20 125 -20q98 0 131 76q17 40 24 124l47 539h-196v98h204l13 142q10 124 51 190q76 131 260 131q128 0 201 -26q6 -24 6 -256h-94l-25 153q-31 8 -88 8q-106 0 -143 -73q-23 -46 -31 -138l-14 -131h252v-98h-261l-47 -545q-10 -125 -43 -184
q-67 -131 -247 -131q-105 0 -160 22z" />
    <glyph glyph-name="florin.superior" horiz-adv-x="663" 
d="M0 721l27 86q50 -16 94 -16q73 0 90 53q12 28 16 86l33 391h-141v76h149l8 96q9 81 37 133q53 90 189 90q75 0 137 -16q6 -27 6 -182h-70l-14 104q-20 4 -57 4q-78 0 -101 -47q-17 -30 -24 -92l-8 -90h176v-76h-185l-36 -397q-6 -79 -29 -129q-47 -93 -172 -93
q-76 0 -125 19z" />
    <glyph glyph-name="four.denominator" 
d="M565 -12h-98v225h-401v68l401 555h98v-535h127v-88h-127v-225zM467 301q0 316 2 414q-20 -32 -49 -72.5t-54.5 -75t-88 -118.5t-109.5 -148h299z" />
    <glyph glyph-name="four.fitted" horiz-adv-x="1177" 
d="M891 -20h-139v364h-668v94l668 901h139v-866h209v-129h-209v-364zM752 473q0 547 4 701q-121 -175 -529 -701h525z" />
    <glyph glyph-name="four.numerator" 
d="M565 477h-98v225h-401v68l401 555h98v-534h127v-89h-127v-225zM467 791q0 315 2 413q-62 -96 -301 -413h299z" />
    <glyph glyph-name="four.oldstyle" horiz-adv-x="1095" 
d="M717 184q0 541 4 695q-137 -197 -524 -695h520zM852 -279h-135v342h-660v99l660 889h135v-867h203v-121h-203v-342z" />
    <glyph glyph-name="four.taboldstyle" horiz-adv-x="1073" 
d="M692 184q0 537 4 693q-138 -209 -491 -693h487zM829 -279h-137v342h-624v99l624 889h137v-867h201v-121h-201v-342z" />
    <glyph glyph-name="fourfifths" horiz-adv-x="1658" 
d="M606 0h-92l651 1321h90zM582 477h-99v225h-401v68l401 555h99v-534h127v-89h-127v-225zM483 791q0 315 2 413q-62 -96 -301 -413h299zM1044 8l25 94q21 -9 70.5 -17.5t101.5 -8.5q128 0 193 51.5t65 142.5q0 94 -52.5 133t-156.5 39q-77 0 -190 -30l47 422h430v-95h-350
l-29 -227q68 18 131 18q140 0 209.5 -64t69.5 -185q0 -147 -99.5 -223t-273.5 -76q-115 0 -191 26z" />
    <glyph glyph-name="grave.cap" horiz-adv-x="411" 
d="M471 1491h-129l-405 293h186z" />
    <glyph glyph-name="guillemotleft.cap" horiz-adv-x="1017" 
d="M453 1016h143l-363 -377l365 -387h-147l-383 383zM819 1016h144l-363 -377l363 -387h-144l-385 383z" />
    <glyph glyph-name="guillemotright.cap" horiz-adv-x="1017" 
d="M588 252h-144l363 377l-365 385h146l383 -381zM221 252h-143l362 377l-364 385h145l385 -381z" />
    <glyph glyph-name="guilsinglleft.cap" horiz-adv-x="655" 
d="M453 1016h143l-363 -377l365 -387h-147l-383 383z" />
    <glyph glyph-name="guilsinglright.cap" horiz-adv-x="653" 
d="M221 254h-143l362 377l-364 385h145l385 -381z" />
    <glyph glyph-name="hungarumlaut.cap" horiz-adv-x="411" 
d="M-72 1491h-129l314 293h172zM256 1491h-129l313 293h172z" />
    <glyph glyph-name="hyphen.cap" horiz-adv-x="622" 
d="M547 584h-471v125h471v-125z" />
    <glyph glyph-name="hyphen.denominator" horiz-adv-x="397" 
d="M350 319h-303v87h303v-87z" />
    <glyph glyph-name="hyphen.inferior" horiz-adv-x="397" 
d="M350 0h-303v86h303v-86z" />
    <glyph glyph-name="hyphen.numerator" horiz-adv-x="397" 
d="M350 809h-303v86h303v-86z" />
    <glyph glyph-name="hyphen.superior" horiz-adv-x="397" 
d="M350 1188h-303v86h303v-86z" />
    <glyph glyph-name="idotaccent" horiz-adv-x="638" 
d="M406 1311q0 -50 -27.5 -75.5t-69.5 -25.5q-38 0 -65 24.5t-27 76.5q0 51 27 77.5t67 26.5q42 0 68.5 -24.5t26.5 -79.5zM594 0h-512v96l190 17v778h-204v94q190 47 335 47v-919l191 -17v-96z" />
    <glyph glyph-name="macron.cap" horiz-adv-x="411" 
d="M492 1536h-572v96h572v-96z" />
    <glyph glyph-name="nine.denominator" 
d="M117 100q25 -10 69 -16t68 -6q144 0 219.5 80t89.5 245q-32 -45 -95 -76.5t-138 -31.5q-122 0 -191 67t-69 197q0 128 81.5 210.5t213.5 82.5q43 0 84 -12.5t81 -41.5t69.5 -72.5t48 -110.5t18.5 -150q0 -223 -102.5 -353t-307.5 -130q-79 0 -166 26zM559 498
q-2 116 -49.5 189t-155.5 73q-82 0 -132 -52.5t-50 -148.5q0 -84 44 -132t136 -48q138 0 207 119z" />
    <glyph glyph-name="nine.fitted" horiz-adv-x="1130" 
d="M172 139q36 -14 104.5 -25.5t102.5 -11.5q101 0 179 25.5t130.5 70t88.5 114t55.5 147.5t29.5 180q-60 -78 -165 -127t-212 -49q-180 0 -282.5 105t-102.5 313q0 204 121 335.5t328 131.5q69 0 132.5 -18.5t124.5 -63.5t105.5 -113t71.5 -175.5t27 -242.5
q0 -172 -38 -310t-114 -240.5t-198 -158t-281 -55.5q-126 0 -248 39zM860 772q-1 88 -15.5 161.5t-48 141t-98 106t-155.5 38.5q-136 0 -218.5 -92t-82.5 -248q0 -133 69.5 -213t212.5 -80q100 0 192.5 55t143.5 131z" />
    <glyph glyph-name="nine.numerator" 
d="M117 590q25 -10 69 -16.5t68 -6.5q144 0 219.5 80.5t89.5 245.5q-32 -45 -95 -77t-138 -32q-122 0 -191 67.5t-69 197.5q0 127 81.5 209.5t213.5 82.5q43 0 84 -12.5t81 -41.5t69.5 -72.5t48 -110.5t18.5 -150q0 -223 -102.5 -353t-307.5 -130q-75 0 -166 27zM559 987
q-2 116 -49.5 189t-155.5 73q-82 0 -132 -52t-50 -148q0 -84 44.5 -132.5t135.5 -48.5q138 0 207 119z" />
    <glyph glyph-name="nine.oldstyle" horiz-adv-x="1073" 
d="M135 -129q36 -16 100.5 -26.5t102.5 -10.5q101 0 179 25.5t131 70.5t89 114t56 148t30 181q-60 -80 -162 -129t-208 -49q-176 0 -274.5 106.5t-98.5 310.5q0 206 114.5 336.5t317.5 130.5q68 0 130 -18t122.5 -62.5t104.5 -112.5t71 -175t27 -242q0 -172 -38 -310.5
t-113.5 -241t-196.5 -157.5t-281 -55q-118 0 -240 39zM819 506q0 444 -313 444q-135 0 -213 -90.5t-78 -247.5q0 -135 65 -215t207 -80q101 0 191.5 55.5t140.5 133.5z" />
    <glyph glyph-name="nine.taboldstyle" horiz-adv-x="1073" 
d="M135 -129q36 -16 100.5 -26.5t102.5 -10.5q101 0 179 25.5t131 70.5t89 114t56 148t30 181q-60 -80 -162 -129t-208 -49q-176 0 -274.5 106.5t-98.5 310.5q0 206 114.5 336.5t317.5 130.5q68 0 130 -18t122.5 -62.5t104.5 -112.5t71 -175t27 -242q0 -172 -38 -310.5
t-113.5 -241t-196.5 -157.5t-281 -55q-118 0 -240 39zM819 506q0 444 -313 444q-135 0 -213 -90.5t-78 -247.5q0 -135 65 -215t207 -80q101 0 191.5 55.5t140.5 133.5z" />
    <glyph glyph-name="numbersign.oldstyle" horiz-adv-x="1118" 
d="M330 -55h-82l53 370h-225v113h241l35 238h-225v112h240l49 346h84l-51 -346h284l51 346h84l-53 -346h225v-112h-239l-35 -238h221v-113h-235l-54 -370h-84l54 370h-285zM434 666l-37 -238h287l35 238h-285z" />
    <glyph glyph-name="ogonek.cap" horiz-adv-x="411" 
d="M360 14q-111 -79 -166 -147t-55 -139q0 -56 32.5 -85.5t84.5 -29.5q51 0 113 27l32 -82q-78 -45 -163 -45q-98 0 -155.5 53.5t-57.5 138.5q0 167 223 309h112z" />
    <glyph glyph-name="one.denominator" 
d="M602 0h-395v74l153 10v643q-13 -9 -182 -109l-39 68q210 141 234 158h90v-760l139 -10v-74z" />
    <glyph glyph-name="one.fitted" horiz-adv-x="864" 
d="M766 0h-590v98l236 17v1054q-141 -93 -277 -170l-57 97q223 148 354 243h117v-1224l217 -17v-98z" />
    <glyph glyph-name="one.numerator" 
d="M602 489h-395v74l153 10v644q-13 -9 -182 -109l-39 68q233 156 234 157h90v-760l139 -10v-74z" />
    <glyph glyph-name="one.oldstyle" horiz-adv-x="868" 
d="M799 0h-639v98l268 17v768q-248 -130 -299 -154l-49 102q253 150 366 220h117v-936l236 -17v-98z" />
    <glyph glyph-name="one.taboldstyle" horiz-adv-x="1073" 
d="M895 0h-641v98l270 17v768q-24 -12 -85.5 -45t-117 -61.5t-96.5 -47.5l-51 102q232 136 369 220h114v-936l238 -17v-98z" />
    <glyph glyph-name="onefifth" horiz-adv-x="1658" 
d="M575 0h-92l652 1321h90zM610 489h-395v74l154 10v644q-5 -4 -183 -109l-39 68q233 156 234 157h90v-760l139 -10v-74zM1022 8l25 94q21 -9 70.5 -17.5t101.5 -8.5q128 0 193 51.5t65 142.5q0 94 -52.5 133t-156.5 39q-78 0 -191 -30l47 422h430v-95h-350l-28 -227
q68 18 131 18q140 0 209 -64t69 -185q0 -147 -99.5 -223t-273.5 -76q-114 0 -190 26z" />
    <glyph glyph-name="parenleft.cap" horiz-adv-x="651" 
d="M612 -258h-100q-57 50 -107.5 103.5t-108.5 137.5t-99 175t-68 214t-27 255q0 122 23.5 233t60 194.5t93.5 166t109 139.5t122 123h106q-88 -94 -149 -174t-118.5 -185t-86.5 -228t-29 -265q0 -125 23.5 -240t57.5 -198.5t87.5 -169.5t96.5 -141t100 -124q10 -11 14 -16z
" />
    <glyph glyph-name="parenleft.denominator" horiz-adv-x="407" 
d="M395 -211h-71q-44 38 -85 89t-81 123t-64 168t-24 200q0 342 258 565h71q-54 -58 -91.5 -109t-74 -120t-55 -152.5t-18.5 -179.5q0 -84 15 -161.5t36.5 -134.5t55.5 -114.5t62 -94t66 -79.5z" />
    <glyph glyph-name="parenleft.numerator" horiz-adv-x="407" 
d="M399 309h-75q-44 38 -85 89t-81 122.5t-64 167.5t-24 201q0 187 72.5 327t185.5 236h73q-53 -57 -90.5 -108.5t-73.5 -120.5t-54.5 -152.5t-18.5 -179.5q0 -83 15 -160t36.5 -134t55.5 -114.5t62 -94t66 -79.5z" />
    <glyph glyph-name="parenright.cap" horiz-adv-x="651" 
d="M39 1485h98q57 -48 108.5 -102.5t108.5 -138t98 -174.5t68 -213.5t27 -254.5q0 -122 -23.5 -232.5t-60 -194.5t-93.5 -166.5t-109 -140t-122 -124.5h-104q69 75 119 137t102 145.5t84.5 165t53 186t20.5 218.5q0 105 -15.5 202t-44 177.5t-62 149t-77.5 132t-81.5 111.5
t-81.5 102q-9 10 -13 15z" />
    <glyph glyph-name="parenright.denominator" horiz-adv-x="407" 
d="M12 934h72q45 -38 85.5 -89t81 -122.5t65 -167.5t24.5 -201q0 -337 -260 -565h-70q53 58 90.5 109.5t73.5 121t54 153t18 179.5q0 103 -20.5 193.5t-58.5 163t-72.5 121.5t-82.5 104z" />
    <glyph glyph-name="parenright.numerator" horiz-adv-x="407" 
d="M8 1454h76q44 -37 85.5 -88t81.5 -122t64.5 -167t24.5 -200q0 -340 -260 -568h-74q54 60 91 111t73.5 120t55 152.5t18.5 179.5q0 103 -20.5 193.5t-59 163.5t-73 121.5t-83.5 103.5z" />
    <glyph glyph-name="percent.oldstyle" horiz-adv-x="1576" 
d="M657 750q0 -175 -83 -272t-222 -97q-134 0 -213.5 93t-79.5 247q0 167 82.5 265.5t229.5 98.5q135 0 210.5 -90t75.5 -245zM555 735q0 52 -9.5 95.5t-30.5 80.5t-60 57.5t-93 20.5q-90 0 -145 -67.5t-55 -190.5q0 -132 53 -192t143 -60q87 0 142 65t55 191zM537 -61h-84
l579 1177h82zM1518 344q0 -174 -83 -269t-223 -95q-135 0 -216 91t-81 244q0 167 84 267t230 100q135 0 212 -91.5t77 -246.5zM1415 334q0 250 -194 250q-90 0 -144.5 -67.5t-54.5 -190.5q0 -131 53.5 -191.5t141.5 -60.5q85 0 141.5 66.5t56.5 193.5z" />
    <glyph glyph-name="period.denominator" horiz-adv-x="247" 
d="M190 61q0 -35 -19 -54t-48 -19q-27 0 -47.5 18t-20.5 55t20.5 57.5t49.5 20.5q65 0 65 -78z" />
    <glyph glyph-name="period.inferior" horiz-adv-x="247" 
d="M190 -258q0 -35 -19 -54.5t-48 -19.5q-27 0 -47.5 18.5t-20.5 55.5t20.5 57.5t49.5 20.5q65 0 65 -78z" />
    <glyph glyph-name="period.numerator" horiz-adv-x="247" 
d="M190 551q0 -35 -19 -54.5t-48 -19.5q-27 0 -47.5 18.5t-20.5 55.5t20.5 57.5t49.5 20.5q65 0 65 -78z" />
    <glyph glyph-name="period.superior" horiz-adv-x="247" 
d="M190 930q0 -35 -19 -54.5t-48 -19.5q-27 0 -47.5 18.5t-20.5 55.5t20.5 57.5t49.5 20.5q65 0 65 -78z" />
    <glyph glyph-name="periodcentered.cap" horiz-adv-x="387" 
d="M291 637q0 -53 -27 -80t-71 -27q-37 0 -68 26.5t-31 80.5q0 53 30 82t71 29q40 0 68 -26.5t28 -84.5z" />
    <glyph glyph-name="perthousand.oldstyle" horiz-adv-x="2285" 
d="M657 750q0 -175 -83 -272t-222 -97q-134 0 -213.5 93t-79.5 247q0 167 82.5 265.5t229.5 98.5q135 0 210.5 -90t75.5 -245zM555 735q0 52 -9.5 95.5t-30.5 80.5t-60 57.5t-93 20.5q-90 0 -145 -67.5t-55 -190.5q0 -132 53 -192t143 -60q87 0 142 65t55 191zM537 -61h-84
l579 1177h82zM1518 344q0 -174 -83 -269t-223 -95q-135 0 -216 91t-81 244q0 167 84 267t230 100q135 0 212 -91.5t77 -246.5zM1415 334q0 250 -194 250q-90 0 -144.5 -67.5t-54.5 -190.5q0 -131 53.5 -191.5t141.5 -60.5q85 0 141.5 66.5t56.5 193.5zM2226 344
q0 -174 -83 -269t-222 -95q-135 0 -216 91t-81 244q0 168 83.5 267.5t229.5 99.5q135 0 212 -91.5t77 -246.5zM2122 334q0 51 -9 93t-30 79t-60 57.5t-94 20.5q-89 0 -143.5 -67.5t-54.5 -190.5q0 -131 53 -191.5t141 -60.5q85 0 141 66.5t56 193.5z" />
    <glyph glyph-name="ring.cap" horiz-adv-x="411" 
d="M379 1630q0 -74 -48.5 -127t-123.5 -53q-74 0 -124 51t-50 125q0 77 51 127.5t125 50.5q78 0 124 -48t46 -126zM313 1628q0 53 -29 84t-77 31q-49 0 -78 -32t-29 -85q0 -50 29 -81.5t82 -31.5q48 0 75 32t27 83z" />
    <glyph glyph-name="seven.denominator" 
d="M344 0h-113q134 360 328 739h-391l-23 -145h-69q0 201 8 240h590v-72q-211 -432 -330 -762z" />
    <glyph glyph-name="seven.fitted" horiz-adv-x="1024" 
d="M463 0h-166q78 216 177 449.5t168.5 383.5t170.5 359h-623l-36 -242h-95q0 316 13 375h897v-115q-308 -645 -506 -1210z" />
    <glyph glyph-name="seven.numerator" 
d="M344 489h-113q135 364 328 740h-391l-23 -146h-69q0 201 8 240h590v-72q-211 -432 -330 -762z" />
    <glyph glyph-name="seven.oldstyle" horiz-adv-x="966" 
d="M451 -274h-156q179 500 506 1192h-617l-34 -238h-95q0 312 11 371h886v-115q-308 -668 -501 -1210z" />
    <glyph glyph-name="seven.taboldstyle" horiz-adv-x="1073" 
d="M500 -274h-158q27 75 55 148.5t60 151t57 137t61.5 142t57 128t61 132.5t55.5 118.5t58.5 123.5t52.5 111h-653l-35 -238h-92q0 306 12 371h918v-115q-334 -732 -510 -1210z" />
    <glyph glyph-name="six.denominator" 
d="M633 733q-67 23 -133 23q-144 0 -220 -79.5t-90 -242.5q33 44 96.5 76.5t139.5 32.5q120 0 189 -69.5t69 -201.5q0 -127 -80.5 -208.5t-212.5 -81.5q-55 0 -106.5 21t-96.5 64t-72.5 121t-27.5 181q0 223 103 353t307 130q72 0 159 -27zM193 338q8 -266 206 -266
q84 0 133.5 52.5t49.5 149.5q0 83 -44.5 134t-136.5 51q-134 0 -208 -121z" />
    <glyph glyph-name="six.fitted" horiz-adv-x="1130" 
d="M965 1180q-37 14 -103.5 24t-103.5 10q-101 0 -179 -25t-130.5 -69t-89 -112.5t-56 -147t-29.5 -180.5q60 78 165 127t212 49q180 0 283.5 -105t103.5 -311q0 -204 -121 -336.5t-329 -132.5q-68 0 -131 18.5t-124 63.5t-106 113t-72.5 175.5t-27.5 242.5q0 172 38 310.5
t114 240.5t197.5 157.5t281.5 55.5q124 0 246 -39zM276 547q1 -69 9.5 -129.5t31 -120.5t57 -102t91 -68.5t129.5 -26.5q137 0 219 92t82 248q0 133 -70 213t-213 80q-98 0 -191.5 -55.5t-144.5 -130.5z" />
    <glyph glyph-name="six.numerator" 
d="M633 1223q-64 22 -133 22q-145 0 -221 -78.5t-89 -242.5q32 44 96 76t140 32q120 0 189 -68.5t69 -199.5q0 -128 -80.5 -210.5t-212.5 -82.5q-55 0 -106.5 21t-96.5 64t-72.5 121t-27.5 181q0 223 103 353t307 130q86 0 159 -26zM193 827q8 -264 206 -264
q84 0 133.5 52.5t49.5 148.5q0 84 -44.5 134t-136.5 50q-134 0 -208 -121z" />
    <glyph glyph-name="six.oldstyle" horiz-adv-x="1073" 
d="M940 1182q-34 14 -99.5 25.5t-99.5 11.5q-101 0 -179 -25.5t-131 -70.5t-89 -114t-56 -148t-30 -181q59 78 161 127t208 49q177 0 275.5 -105.5t98.5 -310.5t-115.5 -337t-316.5 -132q-68 0 -130.5 18.5t-123 63.5t-104.5 113t-71 175.5t-27 242.5q0 173 37.5 311
t113.5 240.5t197.5 157.5t281.5 55q116 0 238 -39zM258 547q4 -447 315 -447q133 0 211 91.5t78 248.5q0 135 -65 215t-205 80q-102 0 -193.5 -55.5t-140.5 -132.5z" />
    <glyph glyph-name="six.taboldstyle" horiz-adv-x="1073" 
d="M940 1182q-34 14 -99.5 25.5t-99.5 11.5q-101 0 -179 -25.5t-131 -70.5t-89 -114t-56 -148t-30 -181q59 78 161 127t208 49q177 0 275.5 -105.5t98.5 -310.5t-115.5 -337t-316.5 -132q-68 0 -130.5 18.5t-123 63.5t-104.5 113t-71 175.5t-27 242.5q0 173 37.5 311
t113.5 240.5t197.5 157.5t281.5 55q116 0 238 -39zM258 547q4 -447 315 -447q133 0 211 91.5t78 248.5q0 135 -65 215t-205 80q-102 0 -193.5 -55.5t-140.5 -132.5z" />
    <glyph glyph-name="sterling.denominator" horiz-adv-x="755" 
d="M694 0h-645v82q203 91 203 201q0 20 -8 51h-156v76h129q-5 12 -22.5 51t-24 56t-13.5 48.5t-7 61.5q0 105 73 164t205 59q134 0 223 -35q8 -33 8 -211h-71l-15 133q-74 19 -139 19q-89 0 -134.5 -38t-45.5 -104q0 -54 41 -145q6 -14 16 -33t13 -26h239v-76h-223
q4 -12 4 -45q0 -65 -39.5 -111t-122.5 -86q137 2 432 2l25 152h63q0 -199 -8 -246z" />
    <glyph glyph-name="sterling.inferior" horiz-adv-x="755" 
d="M694 -319h-645v81q203 91 203 201q0 20 -8 51h-156v76h129q-5 12 -22.5 51t-24 56t-13.5 48.5t-7 61.5q0 105 73 164t205 59q136 0 223 -34q8 -33 8 -211h-71l-15 133q-70 18 -139 18q-89 0 -134.5 -37.5t-45.5 -103.5q0 -54 41 -145q6 -14 16 -34l13 -26h239v-76h-223
q4 -12 4 -45q0 -65 -39.5 -110.5t-122.5 -85.5q137 2 432 2l25 151h63q0 -198 -8 -245z" />
    <glyph glyph-name="sterling.numerator" horiz-adv-x="755" 
d="M694 489h-645v82q203 91 203 201q0 20 -8 51h-156v76h129q-5 12 -22.5 51t-24 56t-13.5 48.5t-7 61.5q0 105 73 164t205 59q136 0 223 -34q8 -33 8 -211h-71l-15 133q-70 18 -139 18q-89 0 -134.5 -37.5t-45.5 -103.5q0 -55 39 -141q3 -7 14.5 -30.5t14.5 -33.5h241v-76
h-223q6 -30 6 -43q0 -65 -40.5 -111.5t-123.5 -86.5q137 2 432 2l25 151h63q0 -199 -8 -246z" />
    <glyph glyph-name="sterling.oldstyle" horiz-adv-x="1122" 
d="M1022 0h-911v106q57 24 104.5 53.5t89.5 67t66 84t24 95.5q0 34 -10 75h-219v97h184q-9 23 -31.5 74.5t-33 80t-21 73.5t-10.5 87q0 147 100 230t285 83q199 0 319 -45q9 -42 9 -297h-97l-22 199q-78 22 -197 22q-127 0 -190.5 -52t-63.5 -150q0 -95 58 -215
q4 -9 13.5 -29t15.5 -34t10 -27h335v-97h-315q12 -37 12 -84q0 -87 -60 -150t-175 -128q195 4 618 4l35 217h86q0 -272 -8 -340z" />
    <glyph glyph-name="sterling.superior" horiz-adv-x="755" 
d="M694 868h-645v82q203 91 203 201q0 20 -8 51h-156v76h129q-5 12 -22.5 51t-24 56t-13.5 48.5t-7 61.5q0 105 73 164t205 59q134 0 223 -35q8 -33 8 -210h-71l-15 133q-70 18 -139 18q-89 0 -134.5 -37.5t-45.5 -103.5q0 -55 41 -146q6 -14 16 -33t13 -26h239v-76h-223
q4 -12 4 -45q0 -65 -39.5 -110.5t-122.5 -85.5q137 2 432 2l25 151h63q0 -199 -8 -246z" />
    <glyph glyph-name="three.denominator" 
d="M61 10l21 92q17 -7 77 -15.5t93 -8.5q142 0 205 44t63 128q0 137 -211 137q-36 0 -90 -4l-4 88q151 7 214 50t63 114q0 63 -38.5 92t-121.5 29q-93 0 -219 -60l-31 80q149 76 266 76q123 0 184.5 -52.5t61.5 -152.5q0 -68 -48 -122t-130 -76q98 -6 155.5 -58.5
t57.5 -138.5q0 -95 -50.5 -157t-132 -87.5t-192.5 -25.5q-53 0 -113 9t-80 19z" />
    <glyph glyph-name="three.fitted" horiz-adv-x="1069" 
d="M55 14l31 127q29 -12 119.5 -27.5t140.5 -15.5q426 0 426 297q0 228 -334 228q-45 0 -137 -9l-6 125q118 5 204.5 28.5t135.5 61.5t71.5 84t22.5 101q0 203 -256 203q-149 0 -336 -97l-47 111q225 117 406 117q372 0 372 -320q0 -108 -71 -195t-195 -120
q149 -12 234.5 -95t85.5 -217q0 -116 -41 -201.5t-118 -136t-179 -74.5t-232 -24q-77 0 -169.5 16.5t-127.5 32.5z" />
    <glyph glyph-name="three.numerator" 
d="M61 500l21 92q17 -7 77 -16t93 -9q142 0 205 44t63 128q0 138 -211 138q-23 0 -90 -5l-4 89q151 7 214 49.5t63 113.5q0 63 -38.5 92t-121.5 29q-95 0 -219 -59l-31 80q147 75 266 75q246 0 246 -204q0 -68 -48 -123t-130 -76q98 -6 155.5 -58.5t57.5 -138.5
q0 -95 -50.5 -157t-132 -87.5t-192.5 -25.5q-52 0 -112.5 9.5t-80.5 19.5z" />
    <glyph glyph-name="three.oldstyle" horiz-adv-x="997" 
d="M23 -244l32 127q26 -12 113 -26.5t133 -14.5q223 0 317.5 76.5t94.5 216.5q0 238 -328 238q-69 0 -127 -6l-6 122q118 6 202 28t131 58t68 80t21 99q0 101 -62 148.5t-190 47.5q-135 0 -318 -98l-47 113q210 114 385 114q187 0 275 -75.5t88 -231.5q0 -110 -69.5 -193
t-192.5 -116q145 -10 228 -97.5t83 -222.5q0 -434 -549 -434q-74 0 -162.5 15.5t-119.5 31.5z" />
    <glyph glyph-name="three.taboldstyle" horiz-adv-x="1073" 
d="M72 -244l34 127q26 -12 114 -26.5t134 -14.5q418 0 418 293q0 238 -328 238q-74 0 -133 -6l-6 122q426 21 426 265q0 101 -61.5 148.5t-190.5 47.5q-140 0 -323 -98l-50 113q213 114 394 114q187 0 276.5 -75.5t89.5 -231.5q0 -110 -70.5 -193t-195.5 -116
q146 -10 229.5 -97.5t83.5 -222.5q0 -434 -555 -434q-76 0 -165.5 15.5t-120.5 31.5z" />
    <glyph glyph-name="threefifths" horiz-adv-x="1658" 
d="M606 0h-92l651 1321h90zM119 500l20 92q17 -7 77 -16t93 -9q269 0 269 172q0 138 -211 138q-23 0 -91 -5l-4 89q151 7 214 49.5t63 113.5q0 63 -38.5 92t-121.5 29q-95 0 -219 -59l-31 80q147 75 267 75q245 0 245 -204q0 -68 -48 -123t-130 -76q98 -6 155.5 -58.5
t57.5 -138.5q0 -95 -50.5 -157t-132 -87.5t-192.5 -25.5q-52 0 -112 9.5t-80 19.5zM1038 8l25 94q21 -9 70.5 -17.5t101.5 -8.5q128 0 193 51.5t65 142.5q0 94 -52.5 133t-156.5 39q-77 0 -190 -30l47 422h430v-95h-350l-29 -227q68 18 131 18q140 0 209.5 -64t69.5 -185
q0 -147 -99.5 -223t-273.5 -76q-115 0 -191 26z" />
    <glyph glyph-name="tilde.cap" horiz-adv-x="411" 
d="M-18 1491h-86q24 100 69.5 150.5t104.5 50.5q21 0 46.5 -7.5t40.5 -14.5t62 -30q77 -38 125 -38q32 0 51 21t39 79h86q-23 -108 -65.5 -157.5t-106.5 -49.5q-61 0 -155 47q-93 43 -121 43t-48.5 -20.5t-41.5 -73.5z" />
    <glyph glyph-name="two.denominator" 
d="M655 0h-614v80q240 180 365 299q118 112 118 229q0 146 -172 146q-107 0 -237 -70l-33 80q149 88 285 88q128 0 196 -62.5t68 -173.5q0 -149 -164 -297q-148 -130 -283 -227q60 0 188 1t201 1l21 148h70q0 -196 -9 -242z" />
    <glyph glyph-name="two.fitted" horiz-adv-x="1101" 
d="M977 0h-944v104q317 242 561 486q86 87 136 186.5t50 190.5q0 109 -62.5 179.5t-203.5 70.5q-174 0 -369 -113l-43 108q217 136 433 136q198 0 297.5 -97t99.5 -274q0 -125 -71.5 -251t-194.5 -241q-140 -133 -433 -360q394 4 627 4l35 233h94q0 -303 -12 -362z" />
    <glyph glyph-name="two.numerator" 
d="M655 489h-614v80q240 180 365 299q118 112 118 230q0 145 -172 145q-109 0 -237 -69l-33 79q149 88 285 88q128 0 196 -62t68 -173q0 -149 -164 -297q-148 -130 -283 -227q60 0 188 1t201 1l21 147h70q0 -195 -9 -242z" />
    <glyph glyph-name="two.oldstyle" horiz-adv-x="1034" 
d="M901 0h-838v94q283 187 480 365q149 136 149 284q0 39 -11.5 74t-36 66t-70 49t-107.5 18q-153 0 -322 -104l-49 117q195 116 387 116q172 0 262.5 -86.5t90.5 -232.5q0 -108 -54 -201t-159 -184q-147 -127 -351 -256q125 2 523 2l32 213h88q0 -265 -14 -334z" />
    <glyph glyph-name="two.taboldstyle" horiz-adv-x="1073" 
d="M922 0h-838v94q148 98 256 178.5t223 186.5q150 134 150 284q0 39 -12 74t-37.5 66t-72 49t-108.5 18q-148 0 -317 -104l-49 117q195 116 387 116q170 0 261 -87t91 -232q0 -107 -54.5 -200t-158.5 -185q-149 -129 -350 -256q125 2 518 2l35 213h88q0 -275 -12 -334z" />
    <glyph glyph-name="twofifths" horiz-adv-x="1658" 
d="M645 0h-92l651 1321h90zM696 489h-614v80q235 177 364 299q119 113 119 230q0 145 -172 145q-109 0 -237 -69l-33 79q149 88 285 88q128 0 196 -62t68 -173q0 -149 -164 -297q-148 -130 -283 -227q61 0 189 1t200 1l21 147h70q0 -195 -9 -242zM1059 8l24 94
q21 -9 70.5 -17.5t101.5 -8.5q128 0 193 51.5t65 142.5q0 94 -52 133t-156 39q-78 0 -191 -30l47 422h430v-95h-350l-29 -227q68 18 131 18q140 0 209.5 -64t69.5 -185q0 -147 -99.5 -223t-273.5 -76q-114 0 -190 26z" />
    <glyph glyph-name="yen.denominator" horiz-adv-x="921" 
d="M739 244h-231v-162l145 -12v-70h-385v70l144 12v162h-230v61h230v33l-39 55h-191v64h148l-201 299l-98 10v68h352v-68l-133 -10q195 -299 211 -326q87 134 219 326l-137 10v68h350v-68l-102 -10l-205 -299h153v-64h-196l-35 -53v-35h231v-61z" />
    <glyph glyph-name="yen.inferior" horiz-adv-x="921" 
d="M739 -76h-231v-162l145 -12v-69h-385v69l144 12v162h-230v62h230v32l-39 56h-191v63h148l-201 299l-98 10v68h352v-68l-133 -10q201 -308 211 -325q74 114 219 325l-137 10v68h350v-68l-102 -10l-205 -299h153v-63h-196l-35 -54v-34h231v-62z" />
    <glyph glyph-name="yen.numerator" horiz-adv-x="921" 
d="M739 733h-231v-162l145 -12v-70h-385v70l144 12v162h-230v62h230v32l-39 56h-191v63h148l-201 299l-98 10v68h352v-68l-133 -10q161 -241 211 -325q0 1 59 90t160 235l-137 10v68h350v-68l-102 -10l-205 -299h153v-63h-196l-35 -54v-34h231v-62z" />
    <glyph glyph-name="yen.oldstyle" horiz-adv-x="1296" 
d="M1061 326h-361v-215l220 -15v-96h-560v96l215 15v215h-356v82h356v43l-69 102h-287v82h232l-287 428l-137 14v99h505v-99l-206 -14q246 -375 315 -490q50 82 332 490l-205 14v99h502v-99l-142 -14l-299 -428h232v-82h-289l-72 -102v-43h361v-82z" />
    <glyph glyph-name="yen.superior" horiz-adv-x="921" 
d="M739 1112h-231v-162l145 -12v-70h-385v70l144 12v162h-230v62h230v32l-39 56h-191v63h148l-201 299l-98 10v68h352v-68l-133 -10q195 -299 211 -326q87 134 219 326l-137 10v68h350v-68l-102 -10l-205 -299h153v-63h-196l-35 -54v-34h231v-62z" />
    <glyph glyph-name="zero.denominator" 
d="M684 449q0 -225 -83 -346t-234 -121q-154 0 -231 113.5t-77 316.5q0 207 84 323.5t240 116.5q152 0 226.5 -104.5t74.5 -298.5zM582 432q0 74 -10 130.5t-33 101.5t-63.5 68.5t-98.5 23.5q-98 0 -154.5 -82t-56.5 -248q0 -177 54.5 -261.5t152.5 -84.5t153.5 89.5
t55.5 262.5z" />
    <glyph glyph-name="zero.fitted" horiz-adv-x="1130" 
d="M1047 709q0 -356 -128.5 -547t-361.5 -191q-237 0 -356 178.5t-119 499.5q0 329 129 514t373 185q232 0 347.5 -166.5t115.5 -472.5zM905 680q0 122 -16 215t-52.5 168t-102.5 114.5t-161 39.5q-160 0 -252 -136t-92 -411q0 -566 336 -566q161 0 250.5 146.5t89.5 429.5z
" />
    <glyph glyph-name="zero.numerator" 
d="M684 938q0 -225 -83 -346t-234 -121q-154 0 -231 113.5t-77 316.5q0 207 84 323.5t240 116.5q152 0 226.5 -104.5t74.5 -298.5zM582 922q0 74 -10 130.5t-33 101t-63.5 68t-98.5 23.5q-98 0 -154.5 -82t-56.5 -248q0 -177 54.5 -261.5t152.5 -84.5t153.5 90t55.5 263z
" />
    <glyph glyph-name="zero.oldstyle" horiz-adv-x="1097" 
d="M1024 551q0 -275 -130.5 -427.5t-348.5 -152.5q-215 0 -344 145.5t-129 385.5q0 265 130.5 421t366.5 156q220 0 337.5 -141t117.5 -387zM885 532q0 68 -9 126.5t-32 113.5t-59 93.5t-94 61.5t-132 23q-155 0 -249.5 -111t-94.5 -315q0 -109 27 -192t75 -131.5t107 -72.5
t129 -24q143 0 237.5 110.5t94.5 317.5z" />
    <glyph glyph-name="zero.taboldstyle" horiz-adv-x="1073" 
d="M1001 551q0 -277 -125.5 -428.5t-345.5 -151.5q-214 0 -336 144.5t-122 386.5q0 266 126 421.5t357 155.5q218 0 332 -140.5t114 -387.5zM862 532q0 418 -315 418q-152 0 -242 -110.5t-90 -315.5q0 -214 89 -317t235 -103q147 0 235 108.5t88 319.5z" />
    </font>
</defs>
</svg>
